<?xml version="1.0" encoding="UTF-8"?>
<svg id="Layer_1" data-name="Layer 1" xmlns="http://www.w3.org/2000/svg" viewBox="0 0 60 60">
  <defs>
    <style>
      .cls-1 {
        fill: #fff;
      }

      .cls-1, .cls-2 {
        fill-rule: evenodd;
        stroke-width: 0px;
      }

      .cls-2 {
        fill: #084f69;
      }
    </style>
  </defs>
  <path class="cls-2" d="M11.32.74h37.36c5.85,0,10.63,4.78,10.63,10.62v37.29c0,5.84-4.79,10.62-10.63,10.62H11.32c-5.85,0-10.64-4.78-10.64-10.62V11.35C.69,5.52,5.47.74,11.32.74h0Z"/>
  <path class="cls-1" d="M31.96,22.01h-7.08v24.62c2.36,0,4.69,0,7.04,0,0-3.38,0-7.45,0-11.01,0-3.12.17-6.7,4.26-6.85.87-.03,1.68.12,2.32.47.52.29,1.04.86,1.32,1.46.66,1.39.66,3.21.66,4.89.09,3.71.08,7.66,0,11.03l7.32.03c0-3.63.12-11.75.03-16.58-.09-1.82-1.15-4.55-2.51-5.8-.45-.42-1.06-.87-1.62-1.16-1.27-.67-2.78-1.09-4.46-1.09-3.8,0-5.12.59-7.3,2.93,0-1.06-.02-1.87.02-2.93h0ZM12.81,22.01h7.41v24.66h-7.41v-24.66h0ZM16.47,10.78c2.44,0,4.42,1.98,4.42,4.42s-1.98,4.42-4.42,4.42-4.42-1.98-4.42-4.42,1.98-4.42,4.42-4.42h0Z"/>
</svg>