<?xml version="1.0" encoding="UTF-8"?>
<svg id="Layer_1" data-name="Layer 1" xmlns="http://www.w3.org/2000/svg" viewBox="0 0 60 60">
  <defs>
    <style>
      .cls-1 {
        fill: #fff;
      }

      .cls-1, .cls-2 {
        fill-rule: evenodd;
        stroke-width: 0px;
      }

      .cls-2 {
        fill: #084f69;
      }
    </style>
  </defs>
  <path class="cls-2" d="M11.7.74h36.6c6.06,0,11.01,4.95,11.01,10.99v36.54c0,6.05-4.96,10.99-11.01,10.99H11.7c-6.06,0-11.01-4.95-11.01-10.99V11.73C.69,5.69,5.64.74,11.7.74h0Z"/>
  <path class="cls-1" d="M36.96,42.24c-.26-.37-16.31-22.41-17.75-24.44h4.39c1.2,1.68,13.97,19.27,17.65,24.44h-4.3ZM12.41,45.52h4.57c2.3-2.41,7.55-7.9,10.28-10.75,1.25,1.8,5.15,6.86,7.84,10.75.42,0,11.59,0,12.49,0-1.85-2.6-10.97-14.56-13.41-17.98,3.7-3.87,8.41-8.8,12.48-13.05-.36,0-4.56,0-4.57,0-.6.63-7.8,8.16-9.65,10.1-.89-1.26-7.08-9.89-7.21-10.1h-12.21c1.09,1.53,11.03,15.5,12.41,17.43-1.02,1.09-11.41,11.9-13.01,13.6h0Z"/>
</svg>