<?xml version="1.0" encoding="UTF-8"?>
<svg id="Layer_1" data-name="Layer 1" xmlns="http://www.w3.org/2000/svg" viewBox="0 0 1680 29.03">
  <defs>
    <style>
      .cls-1 {
        fill-rule: evenodd;
      }

      .cls-1, .cls-2 {
        fill: #30abda;
      }
    </style>
  </defs>
  <rect class="cls-2" x="-13.72" y="8.62" width="1707.44" height="13.92"/>
  <path class="cls-1" d="m199.47,11.83c-.08.14-4.22.09-3.18.29-1.54,0-3.06,0-4.6,0-.77-.1,6.04-.17,1.62-.21.52-.1,3.87-.06,6.17-.07Zm20.13-.49c-.41.08-3.07.05-3.13.14-3.16.08-2.15-.13-3.01-.15-2.45-.06-9.04.11-7.61-.15,6.42-.03,10.37.05,13.74.16Zm-20.18.63h7.67c-.09.23-9.11.3-7.67,0Zm86.29-1.01c-3.66.1-2.91.15-7.69.07-2.84,0-1.04.24-3.18.29-5.11,0-10.22,0-15.34-.01-4.85-.06,2.76-.09,4.63-.07-.41-.17-5.27-.14-4.46-.36-2.84,0-1.04.24-3.18.29-8.93.05-10.03-.25-13.64-.44-4.56.09-9.53.08-12.24-.08,6.98-.15,17.53.15,24.45.24-.96-.07-3.49-.08-2.98-.22,5.6.03,12.11.02,12.16.3,8.6.17,14.3-.22,21.55-.2-.4,0,.98.23,3.01.15.34-.2-5.13-.15-2.9-.43,4.91.16,6.81-.06,10.76-.06,2.79,0,4.68.15,9.18.08-.07.07-1.9.05-3.1.07-5.2.19-4.02.68-12.54.71,3.85-.08,3.02-.39,6.33-.5-.22-.08-2.77-.06-4.57-.08-1.15.17-1.93.21-3.26.5-3.29.03-2.88-.11-2.98-.22Zm-55.59.96c.98.25-5.47.25-7.72.14.28-.16,3.92-.15,7.72-.14Zm33.74.03c-1.02,0-2.05,0-3.07,0-4.92.06-4.7-.12-7.61-.15-13.51-.06,2.28-.03,4.66-.14,1.76.11,6.34.09,6.02.29Zm-23.06.12c-3.22.03-4.04-.05-6.1-.08,1.83-.13,8.15-.04,6.27-.35,3.4.03,1.05.38-.17.43Zm-18.12-.74c-4.23-.03,0-.23,3.12-.14-1.25-.18-10.68.01-12.21-.15,3.57-.15,5.42.04,10.76-.06.41.17,5.28.14,4.46.36-2.88.07-5.04-.22-6.13,0Zm-32.26.12c-1.68-.31,12.64-.3,10.73,0-4.32-.08-6.37-.08-10.73,0Zm548.01,10.28c-1.67.24,4.73.12,7.61.15-1.27.13-7.3.21-7.66,0-2.85,0-1.03.24-3.18.29-3.6-.13-8.67,0-12.24-.08-.6-.01.56-.19.08-.22-.98-.05-10.8.05-6.08-.15,6.21-.07,6.77.12,9.12.22,3.92,0,7.32-.04,9.25-.14-1.9-.3-5.04,0-9.2,0-4.95-.35-27.91-.03-38.25-.25,22.18-.08,50.85-.02,72.07.06-3.73.21-17.8-.08-21.52.13Zm49.43-.89c2.03-.31,8.38-.09,12.35-.21,2.43-.07,1.52-.05,6.13,0,2.68.52-17.07.19-18.48.2Zm-13.72-.23c-1.09.06-2.46.2-.09.22,3.13.04,3.71-.13,1.59-.14,2.92-.22,7.26.09,12.26.01l-.05.14c-11.73.05-22.86.28-32.31.26-5.1-.01-5.8-.22-12.24-.08-1.8-.1-.55-.11.09-.22-1.37-.2-7.68-.17-12.18-.23-1.35-.28,12.58.09,9.25-.14,3.06-.22,4.47.22,6.02.29,3.85-.11,3.79.13,4.55.15,1.64.03,4.64-.04,6.13,0,.72.02.13.21,3.01.15,1.6-.02.7-.08.06-.14-1.91-.18-3.25-.01-7.62-.15-.27,0,2.23-.13,1.59-.14-2.65-.07-8.93.11-7.61-.15,12.41.08,18.68.11,27.55.17Zm-3.15.21c-2.91-.03-2.7-.21-7.61-.15-1.92.21,6.34.31,7.61.15ZM210.5,11.05c-6.3,0-6.03-.29-13.72-.23,4.34-.23,8.49-.21,12.27.01,3.12-.18,10.06-.31,13.83-.06,3.54.17-4.01-.06-7.67,0-3.16.02-3.13.19-4.71.28Zm608.17,9.4c5.98-.05,13.6.34,4.46.36,5.34-.24-5.39-.11-4.46-.36Zm-12.46.49c2.56,0,5.11,0,7.67,0,2.27.22-10.1.21-7.67,0ZM185.64,11.89c1.53,0,3.07,0,4.6,0l-.11.29c-1.53,0-3.07,0-4.6,0,2.61-.14-.11-.09.11-.29Zm541.04,8.48c1.13-.19,7.03-.15,7.8-.35,10.66.04,23.93-.05,32.18.1-9.24.18-20.23-.04-29.16.05-4.73.05-6.13.2-10.81.21Zm-493.21-1.86c4.9-.38,13.46-.23,24.62-.2-1.34.24-7.56.04-12.29.06-4.85.02-8,.15-12.32.13Zm68.96-7.17c-6.6,0,2.46.31-4.71.28.96.07,3.49.08,2.98.22-2.88.06-4.92-.05-7.64-.08-2.59-.03-8.97.08-7.61-.15,3.56-.02,5.88.02,7.64.08,3.31,0,.31-.24.08-.22,1.11-.14,6.91,0,4.71-.28,7.07.18,8.59-.15,13.8.01-.84.06-1.65.12-1.62.21-2.21-.04-7.96.08-7.64-.08Zm395.22,8.72c2.39-.2,6.67-.12,9.2,0,1.49,0,1.22-.09,1.58-.14,3.54.15,7.29-.06,10.76-.06,1.75,0,6.91-.08,6.08.15-6.5-.1-10.08.2-13.89.2-4.84.01-7.21-.18-13.74-.16Zm710.86,2.26c2.08.29-13.97.47-12.3.06,3.04,0,1.87.2,6.08.15,3.65-.02-1.63-.2-2.99-.22-6.63-.03-3.93.4-10.87.35,1.14-.25,6.7-.5,12.46-.49,3.74,0,3.63.15,7.61.15Zm-127.19-.32c-3.72.03-9.75.17-9.14-.15,2.91.03,2.69.21,7.61.15,1.25-.25-6.19-.1-4.46-.36,4.1.04,14.73.29,12.27.01,2.31-.19,8.4.04,7.58.22-1.78.03-4.44-.04-6.13,0-.89.02-1.29.14-1.59.14-1.85,0-4.22,0-6.13,0Zm22.64.95c-4.7.16-15.83.01-23.03.05,2.08-.12,4.16-.24,3.26-.5,5.19-.07,2.3.23,2.93.36,4.08.07,1.88-.14,3.15-.21.84-.04,3.62-.08,3.07,0,.76-.11.53-.2-1.43-.29-.92-.04-1.9.06-1.56.07-1.51-.04-6.09-.33-9.11-.22,1.79-.17,7.91-.18,9.19,0,8.21.02,7.71-.21,15.36-.06-.24.18-5.19.14-9.26.14l-.08.22c6.01,0,6.22-.24,12.29-.06,1.8-.01,1.35-.13,1.62-.22,4.22-.05,3.04.15,6.08.15,4.34.02,3.08-.24,9.25-.14-.14.24-4.47.27-9.32.28-5.53.15-4.73.27-6.32.5-5.87.1-.18-.32-6.05-.22-1.93.02-1.6.14-.06.14Zm84.92-1.44c2.21-.12,2.95.06,6.11.08,2.9.01,4.56-.08,6.16-.07,4.12.05,6.55.22,10.65.23-4.15.39-10.72-.19-16.89.06-1.34-.13-3.34-.23-6.02-.29Zm-21.55.2c-.68-.14,7.13-.23,7.7-.07,3.71-.09,5.74-.26,12.34-.21-7.81.1-2.76.31,2.94.36-6.75.38-12.96-.14-21.5.05.27-.08-.29-.13-1.49-.15Zm-136.6.24c1.53,0,3.06,0,4.6,0-.94.17-1.45.37-6.28.35-1.19-.2,2.23-.18,1.68-.36Zm1.17.94c2.91.03,2.7.21,7.61.15,1.58-.05,1.65-.16,4.66-.14-.17.1-.34.2,1.45.22-3.82.08-13.33.15-13.73-.23Zm15.28.16c1.77-.29,7.29.03,13.83-.06-2.85-.32,10.34.06,15.4-.13,1.06.31-8.03.18-12.36.21-6.27.04-13.2.14-16.86-.01Zm-2.93-.36c.06-.07,1.9-.05,3.1-.07.11-.12-1.07-.19-2.98-.22-.23-.1,8.91-.09,3.15-.21.79-.26,5.39.07,6.11.08,1.8,0,4.4,0,6.13,0,.74.02.89.13,1.49.15,2.28.05,5.39-.04,4.54.15,2.72.02,7.71-.07,6.08.15-3.93-.1-9.34-.07-13.75-.16-2.72-.05-5.27-.45-9.14-.15,2.68.14,10.09.06,9.05.37-7.68.05-7.4-.26-13.77-.08Zm164.51-1.01c-.92-.06-1.8-.13.07-.14,6.43,0,21.23.02,32.2.03,5.57-.05,5.5.13-.03.07-10.84.06-22.06.15-32.23.04Zm-154.95.08c2.91-.1,1.96-.39,7.81-.35-4.61.1,3.88.38-3.21.36.91.15,7.74.03,6.02.29-5.74-.22-13.01,0-21.4-.16,4.06-.19-2.45-.06-1.42-.29,7.02-.08,5.94.2,12.21.15Zm3.34-.72c-4.98-.18,10.93.05,10.79-.13,4.29.12,6.55-.08,10.71.08-5.68.05-13.58.27-16.95.2,5.17-.14,1.29-.15-4.55-.15Zm106.9,1.24c3.16.04,3.51-.14,4.66-.14,3.92-.01,1.84.19,6.06.22-3.64.23.41.38-6.31.43-1.02-.22,2.73-.21,1.7-.43-3.95-.04-8.79.25-4.74.36-.32.08-1.55.04-1.54,0h-3.07c-1.05-.23,4.27-.14,3.21-.36-6.8.06-8.16.2-13.83.06.18-.21,3.61-.26,6.27-.35,5.02,0,4.06.18,7.58.22Zm182.75-.57c-2.86-.14,12.32-.03,16.9-.06-2.71.32-10.42,0-16.9.06Zm-60.36,1.39c2.43.13,6.35.18,12.21.15-.33.11-2.99.17-5.58.18-1.3,0-2.58,0-3.54-.02-.96-.02-1.61-.05-1.64-.09-.64.16-6.17.09-7.74.21,4.74.23,14.86-.03,16.89-.06-.3,0,.24.14-.06.14,3.25-.05,4.71-.18,6.25-.28,2.62,0,3.95.06,4.54.15,3.86-.03,8.49-.11,10.77-.06,5.87-.1.17.32,6.05.22,2.15-.02.17-.13-1.49-.15,1.21-.16,8.62-.02,12.3-.06-1.92.1-5.9.1-7.75.21.27.06,1.51.07,1.47.15,3.45-.03,4.95-.15,7.76-.21-1.5.24,11.69.19,15.25.23-2.93.08-5.44.17-9.28.21.44.1,3.81.06,6.1.08-4.89.21-22.72.28-32.31.26-2.59,0-2.89-.04-3.01-.15-1.62.03-1.17.12-3.12.14-3.23.03-2.4-.15-3.01-.15-1.9,0-2.61.12-4.66.14-3.31.03-7.89-.15-12.21-.15-6.85.02-13.05.04-19.96.05-6.06-.08-11.76-.15-18.32-.23-2.58-.02-4.01.07-4.62.07-10.22,0-20.16-.27-29.14-.02-1.09-.07-2.75-.11-4.54-.15,1.27-.16,9.49.02,7.78-.28-4.43.1-9,.2-12.4.35-7.18-.25-20.49-.05-30.61-.17-3.68-.04-3.34-.15-6.06-.22-3.81-.1-9.3-.03-10.65-.22,1.28-.33,8.89-.07,12.29-.06,4.73,0,10.3,0,13.8.01,1.64.01,3.1-.07,3.1-.07,1.14.04,4.11.13,4.54.15,1.84-.02,5.46-.05,7.7-.07,5.4.02,7.03.09,12.29-.06.34.21-6.25.26-.14.36,2.28-.03-.57-.09.08-.22,3.4-.08,8.49-.08,9.3-.28,11.99.13,19.9.05,29.05.24,5.9-.06,10.23-.19,12.44-.42,3.79.06,8.18.1,13.77.08l-.11.29c4,.02,6.61-.02,6.22-.21Zm-55.28.17c.29.08,1.66.11,3.01.15.08-.34-4.31-.14-9.15-.15,1.35.13.39.36,2.9.43,3.34-.16-1.87-.32,3.23-.43Zm10.69.15c-4.81-.04-4.13.19-7.76.21,0-.07-2.65-.09-3.07,0,5.75-.07,2.33.27,7.59.22-1.53-.27,3.89-.2,3.24-.43Zm10.67.15c-.66-.21-5.74-.21-9.09-.3-1.35.2,2.09.19,1.39.36,3.68.03,3.38-.13,7.7-.07Zm65.77.49c1.19.02,1.76.06,1.48.15,3.75-.04,7.91-.05,7.78-.28-4.4-.02-7.79.01-9.25.14Zm-45.92-.26c-4.91.08-15.06-.19-12.27-.01,1.84.06,15.79.15,12.27.01Zm4.79-.5c-.9-.42-15.65-.04-16.94.2,8.79.09,7.39-.32,16.94-.2Zm-647.79-2.71c5.21.06,2.05-.29,7.74-.21-.62.21-6.38.18-4.79.5-2.69-.02-3.44-.13-2.95-.29Zm864.36,1.96c-2.09.3-7.62-.01-13.83.06-3.68-.14,10.13-.04,13.83-.06Zm-282.18-.17c5.85-.1,2.87.2,7.62.15-2.23.22-7.53-.11-9.23.06-5.19-.08,4.28-.02,1.61-.21Zm10.5.66c.78.16-2.97.1-3.16.21-4.31-.08-6.36-.08-10.73,0,2.43-.34,6.88-.12,13.89-.2Zm34.32-1.48c2.04,0,4.09,0,6.13,0-.84.06-1.65.12-1.62.21,1.02,0,2.04,0,3.06,0,1.93-.02,1.6-.14.06-.14,1.96-.22,5.83.06,7.64.08.24-.13-1.82-.15-1.42-.29,3.64.25,8.04.19,15.28.16-.54.17-7.28.04-6.24.28-.46,0-1.6-.03-2.63-.07-1.02-.04-1.9-.08-1.92-.08-.49,0-.89.04-1.17.07-.28.03-.43.07-.42.07-3.34,0-6.63-.07-13.8-.01.04-.14-4.15-.1-2.95-.29ZM329.94,11.58c.24.21-5.57.25-7.72.14.29-.16,3.92-.15,7.72-.14Zm1115.42,10.62c6.33,0,11.08.3,13.83-.06,5.76-.07,4.3.18,9.15.15,5.95.06,8.05-.26,12.29-.06-1.46.14-6.43.18-12.35.21-7.68.03-21.57.1-22.92-.24Zm-3.09.07c-1.39.57-13.19.03-20.04.27,1.87-.32.94-.09-2.99-.22,5.44-.36,14.9.21,23.03-.05Zm12.01.66c2.75,0,3.27-.08,6.16-.07,2.35.29-6.63.02-6.22.21-7.26-.07-13.84-.18-22.95-.16-2.46-.2,18.72.01,23,.02Zm232.28-5.71c-4.01.3-5.62.73-12.62.93-1.09,0-5.3.04-7.69.07-2.37.05-8.41.27-13.86.13-3.21.04-5.02.15-7.76.21-22.02-.08-36,.12-50.6-.04,1.15-.07,2.83-.11,4.66-.14-.98-.23-4.06-.1-7.64-.08-1.06-.22-8.99-.39-12.16-.3,4.36.22,8.82.43,13.62.44-6.07.17-11.29-.07-18.42.06,2.74-.24-4.42-.25,3.18-.29-2.1-.1-7.51-.16-9.17-.08.22.23,5.99.2,4.41.51-2.56,0-5.11,0-7.66,0,9.93-.09-1.64-.47-6.03-.29-.22.11,3.35.03,4.57.08,3.58.14-8.53.02-12.32.13-.97-.07-3.5-.08-2.99-.22-4.69.17-11.66-.13-16.78-.23,7.92-.1,17.36-.13,18.62-.56,1.65.02.98.14,3.01.15,4.61-.04-1.41-.16.11-.29,5.76.06,7.36-.08,12.3-.06,1.46.22-3.47.12-6.19.14-1.52.33,10.76.17,12.27.01,4.84-.03,3.38.22,9.14.15,1.6-.07,3.16-.14,4.69-.21,0-.16-4.95,0-4.61,0-2-.02-2.35-.14-4.54-.15-2.45,0-6.97.12-12.27-.01,13.46-.06,27.63-.12,41.5-.18-1.97.3-1.85.5-.28.72,4.66.06,4.55-.12,9.22-.06,4.19-.06-4.03-.14-1.4-.36,2.56,0,5.12,0,7.67,0-.51-.33-4.78-.28-10.65-.23,3.84-.28,15.78-.16,23.11-.27-.84.06-1.64.12-1.63.22,3.82.01,4.8-.11,7.73-.14-.65-.06-1.29-.13-3-.15,6.53-.22,18.27-.19,27.71-.26-1.76.1-1.72.17,1.45.22,3.38.06,6.42-.26,3.18-.29.25-.16,6.52-.02,9.22-.06,3.94.22,4.41.6,8.9.8Zm-109.18.7c.25-.23-11.41-.33-12.24-.08,4.27.11,6.3-.02,12.24.08Zm27.63-.05c-4.57-.2-6.37-.19-4.37-.58-7.89-.09-2.39.43-4.77.43-2.24-.18-14.28-.22-13.86.13,4.79.09,3.77-.11,6.19-.14,6.16.08,11.51.43,16.81.16Zm32.38-.4c-6.07-.13-7.59.02-10.76.06-2.16.03-9.84-.09-7.73.14.33.15,6.72.03,7.6.15,2.17-.35,7.09-.16,10.88-.35Zm-3.24.43c-.54.19,3.13.19,6.05.22,1.63-.24-2.04-.24-6.05-.22Zm10.95-.57c-3.83-.01-4.84.11-6.22.21,2.07.02,2.89.1,6.11.08l.11-.29Zm4.69-.21c-1.28.05-4.32.49,1.36.43,2.36,0,3.57-.53-1.36-.43Zm21.57-.27c1.61,0,1.25-.09-1.51-.07-.49.23,1.69.35,6,.36,1.43-.23-5.03-.1-4.5-.29Zm-727.01,3.85c-3.78-.09-11.97.02-12.19-.23,6.72-.04,8.59.13,15.31.08-.42.08-3.08.05-3.13.14Zm-4.49-.29c-5.13-.16,7.13-.31,9.26-.14-1.73.15-7.49-.12-9.26.14Zm50.65-.1c-.76.15-13.44.51-18.45.13-2.88.05-5.66.12-9.25.14-.26-.06.63-.07,1.56-.07.31-.06-.56-.07-1.5-.07,4.76-.32,20.13.34,20.02-.2,4.35-.06,3.93.1,7.63.08Zm-62.97.23c-7.43-.07-7.96.2-15.39.13.21-.31,9.67-.16,12.41-.35,2.39.06,9.02.29,4.43.44.06.22,6.07-.22,6.13,0-.32.28-6.96.2-10.79.13-1.22-.23,2.5-.22,3.21-.36Zm41.24.47c-9.74-.04-14.04-.05-24.51-.09,1.39-.32,7.5-.42,15.5-.42,2.35.29-6.63.02-6.22.21,4.64.25,12.84-.07,15.23.3Zm328.2.13c-.27-.12,2.7-.18.09-.22,2.37-.21,6.85.06,6.06.22-2.05,0-4.1,0-6.14,0Zm-395.61-.34c4.14-.05,7.51.13,15.34.01-.56.17-7.29.04-6.25.28-3.58-.07-9.72-.03-9.09-.3Zm-59.5-.84c1.33-.16,15.91-.22,19.93.02,1.27.27-2.77,0-4.6,0-4.37-.02-11.5.08-15.33-.01Zm143.8.99c9.74,0,1.24-.46,10.9-.42-.96.2-4.94.25-4.8.5-6.31,0-13.51.18-15.28-.16,4.62.06,12.99-.21,9.17.08Zm-116.15-1.11c3.69-.16,13.77-.01,19.96-.06-7.01.14-13.97.16-19.96.06Zm16.63.66c3.94.13,4.63-.03,9.17.08-.48.15-5.74.06-6.22.21-2.04-.05-2.8-.16-2.95-.29Zm-39.96.18c.54-.19-2.03-.24-6.05-.22,3.67-.32,12.24.05,18.46-.13,1.5.1,1.34.27,4.49.29,4.61-.04-1.41-.16.11-.29,1.34.06,3.43.08,6.1.08,1.42.14-4.68.24-.11.29-.58.1-7.91.24-9.22.06-3.05,0-2.03.19-6.19.14-.66-.15,2.25-.14,4.66-.14.47-.12-1.4-.13-1.45-.22-5.7.11-7.46.42-15.49.42,3.96-.33-2.13-.14-6.1-.08-.15-.13,1.92-.15,1.64-.29,4.71-.05,4.47.13,9.17.08Zm58.68-1.03c3.51.15,9.5.02,15.33.01,2.73,0,3.23.07,6.11.08,2.76,0,3.26-.08,6.16-.07,11.87.01,27.79.02,42.94.04-.56.4-10.28.12-13.86.13-4.46,0-7.15.19-10.76.06-1.94.02-1.6.14-.05.14-1.62.18-6.77-.06-6.05-.22-13.17.08-22.63-.05-32.26.12-2.86-.08-7.01-.11-7.56-.29Zm405.96,1.35c-3.97-.19,9.2-.25,12.32-.13-.76.21-11.55-.07-12.32.13Zm17.71,1.82c-2.94-.03-6.04-.2-9.14-.15-.77-.29,10.36.09,9.17.08,1.24,0,7.46-.04,12.3-.06,4.57,0,8.37.09,12.26.01.32.13,2.58.17,6.08.15-4.87.2-11.02-.08-18.37-.09-4.67,0-8.27.1-12.3.06Zm-13.27-1.38c1.06.22-5.33.08-3.21.36-2.62,0-3.94-.06-4.54-.15,2.74-.06,2.07-.29,7.76-.21Zm-7.76.21c-4.36-.02,1.67.47-4.74.36-1.93-.18,4.61-.3.14-.36.51-.17,4.21-.16,4.6,0Zm5.69,1.16c4.67-.02,5.88.24,9.17.08,4.93.08-12.67.34-9.17-.08Zm-248.64-3.6c6.37-.01,5.93.1,10.73,0,0,.41-9.16-.09-7.81.35-5.18.07-2.3-.23-2.92-.36Zm168.72,0c8.24-.22,19.11.05,27.61.02,6.75-.02,10.92-.26,15.39-.13.36.2-5.9.1-9.25.14-2.87.05-5.41.1-7.73.14-2.25.01-2.24-.07-3.03-.07-1.74,0-6.1.16-7.64-.08-7.91.11-7.51.11-15.34-.01Zm103.09,3.18c-1.34.11-4.98.1-7.73.14-.97-.25,5.48-.25,7.73-.14Zm15.73-1c2.34.11,5.91.16,9.11.22-4.91.54-18.82.25-29.24.26-1.8.01-1.34.13-1.62.22-4.19-.27-8.29,0-13.83.06-4.82.03-3.97-.2-7.58-.22,5.06-.18,10.78.1,16.89-.06,2.76-.11,2.84-.35,7.81-.35.39.12-1.5.12-1.62.21,9.05-.11,19.78.25,20.08-.34Zm-27-1.61c1.61-.31,7.48-.3,13.89-.2,1.78-.14,13.19-.27,12.24.08-8.82,0-20.66.19-26.12.12Zm-252.54-8.81c-7.36.13-19.37.03-27.65.12,7.59-.18,19.03-.18,27.65-.12Zm-338.56,14.21c.99-.24,5.83-.1,9.23-.06-.97.24-5.82.1-9.23.06Zm10.88-.35h-13.8c-.39-.2,14.66-.26,13.8,0Zm-1.8.72c-1.15.22-4.13.09-7.7.07.22-.18,5.78-.16,7.7-.07Zm-93.24-.87c-.73.16-7.57.02-10.76.06,1.5-.27,6.18-.05,10.76-.06Zm96.05,1.52c10.91-.1,16.2.05,24.54.02-2.36.27,6.85.02,4.49.29-5.01-.09-9.77-.03-13.77-.08-.31,0,.32-.13.05-.14-1.29-.06-6.07.04-7.66,0-2.34.06.38.11-1.65.29-3.66-.24-8.09,0-13.75-.16-1.74.01-.87.07-.02.07-1.59.22-4.07-.09-6.11-.08-.6-.16,9.28-.17,4.71-.28,2.97-.17,7.74.12,4.49.29,1.45-.08,5.67-.02,4.68-.21Zm31.25-1.49c-1.19.26-11.21.09-16.92.13,3.3-.31,10.8.04,16.92-.13Zm-152.22.95c.33-.18-2.27-.23-4.48-.29-1.46.05-2.37.13-3.15.21-3.59-.03-5.71-.12-10.71-.08,3.74-.18.76-.23,4.74-.36,5.99.11-.32.08-.12.29,5.37-.03,5.33-.33,13.88-.2-.62.4,2.87.2,9.12.22-.18.31-5.78.35-12.41.35-.52-.12,1.24-.13,3.12-.14Zm147.21.13c1.75-.14,8.21.09,13.8.01-.49.23-10.03.04-13.8-.01Zm-15.73.99c.2.16-5.45.03-7.69.07.73-.28,5.32-.19,7.69-.07Zm-160.67-1c-2.7.09-4.11.24-9.29.21.03-.22,5.45-.18,9.29-.21Zm-42.91-.11c1.22.04,2.45.08,4.57.08-2.68.09-4.11.24-9.28.21.51-.15,4.2-.14,4.71-.28Zm230.45-.96c20.93.05,26.58.06,47.51.11,4.78.11-5.56.06-9.23.06-11.24,0-29.05-.02-41.41-.03-.52-.12,1.25-.14,3.13-.14Zm-293.41,1.12c-6.62.02-5.85-.18-4.46-.36,4.67-.02,3.09.24,4.46.36Zm-69.34.81c-4.01.02-6.58-.03-6.05-.22,4.02-.02,6.58.03,6.05.22Zm59.84-.02c-8.96.12-20.57.05-30.64-.1-4.82-.04-3.56.22-9.25.14.31-.06,1.56-.07,1.59-.14-8.26-.08-11.41.08-16.93.13,2.1-.35-3.73-.35-7.5-.44,3.83-.34,13.97,0,16.81.16,1.1-.27,8.15-.54,12.44-.42.58.2-5.74.06-6.22.21,1.41.22,5.18-.03,6.16-.07,1.48.07,7.28-.09,9.2,0,.18,0-.22.14-.06.14,1.97,0,3.55-.11,6.18-.14,2.37-.02,2.16.07,3.05.08,2.09.01,4.01-.16,7.67,0,.65.02,2.42.06,3.04.07,1.85.1-3.42.37,4.46.36Zm-6.05-.22c-6.91.05-12.03-.39-12.32.13,4.63-.02,11.89.09,12.32-.13Zm127.97-1.69c.9-.25,7.43-.1,10.76-.06-.72.16-7.57.02-10.76.06Zm-3.21.36c3.19-.16,12.75-.02,18.43-.06-3.19.16-12.75.02-18.43.06Zm-208.4-.54c-2.99.24-6.21.04-12.29.06-4.04-.13,9-.04,12.29-.06Zm52.14.04c-5.48.12-13.28.06-21.5.05-6.94,0-31.7-.05-18.37-.09,10.12,0,28.74.02,39.87.03ZM19.39,9.45c4.02.33-11.82,0-16.93.13,3.26-.16,9.02-.28,12.29-.06,2.18,0,4.34.02,4.64-.07Zm22.91.24c-5.59-.05-11.11-.11-18.37-.09,4.06-.17,17.74-.22,18.37.09Zm10.51.58c3.81.01.36.24-.11.29-3.81,0-4.69-.12-7.6-.15,1.29-.19,7.14.17,7.71-.14Zm790.22,14.67c4.46-.13,18.53-.09,23.01.02-7.33.18-18.15-.02-23.01-.02Zm-426.84,1.08c-.9.63-13.64.61-23.14.34-2.16.02-.18.13,1.48.15-4.46.22-9.98-.11-13.75-.16-1.88,0-.7.09-.03.07-3.59.08-13.66.07-16.83-.09-2.33.11-8.76.01-7.78.28-5.98-.22-12.92-.11-21.44-.09-3.67-.09-3.37-.37-9.05-.37-3.77.14,8.47.16,2.9.44-3.09.02-4.8-.02-4.55-.15-10.42.03-24.26-.11-32.23.04-3.35.01-4.85-.06-4.52-.22-2.31.26-10.98.26-18.45.13-1.68.19-8.4.13-12.35.21-.66-.15,2.24-.14,4.66-.14-3.88-.22-9.65.09-13.77-.08-1.75.01-.87.07-.02.07-1.67.27-2.45-.05-4.57-.08-.01,0-6.75,0-7.67,0-2.51,0-5.18,0-7.67,0-.93,0-2.06-.04-2.96-.08-.9-.04-1.57-.07-1.58-.07-1.75,0-3.9.18-6.22.21-2.41.03-2.67-.08-4.57-.08-1.27,0-1.53.08-3.1.07-6-.03-9.87-.18-13.77-.08-.48.01,2.26.09,3.84.08-6.86.1-14.17-.07-20.71-.1-2.41.02-4.97.04-7.69.07-.87,0-3.38-.09-6.1-.08-2.13.01-.34.11-1.59.14-2.79.08-7.83-.07-10.73,0,.42-.13,2.7-.16,6.19-.14-6.1-.11,2.17-.26-1.37-.43-1.24.01-1.55.07-3.09.07-4.61.04,1.41.15-.11.29-1.24.12-3.33-.03-6.13,0-.58.02-4.38.13-4.66.14-.72,0-6.91-.23-6.16.07-3.42.04-2.13-.14-4.54-.15-2.6-.03-2.92.05-3.12.14-6.58-.15-11.43-.21-18.41-.02-3.87-.08-6.95-.2-12.18-.23-.61.12,1.15.14,3.01.15-2.67.11-5.57-.03-10.76.06-2.84,0-1.03.24-3.18.29-4.78-.11-6.67.17-9.28.21-1.44,0-5.07,0-7.66,0-10.96.12-32.19,0-49.07-.04-3.33,0-8.67.18-10.71-.08-3.38-.04-2.23.14-4.65.14-9.03,0-17.03-.02-24.34-.03.02-8,.03-15.41.04-22.52,2.59.01,5.15.03,7.68.04,1.86.02,3.71.04,5.54.07-.7.02-1.42.03-2.14.05-1.07,0-2.15.01-3.25.02-2.5,0-5.07-.02-7.67-.03-.01,2.61-.02,5.25-.03,7.9v3.33s.05,3.52.05,3.52c.06.9.11.77.13,0,0-.39.02-.93.03-1.6,0-.55,0-1.19.01-1.89,0-3.25-.01-7.64-.02-10.54,0-.18,0-.36,0-.56,3.02.03,6.6.07,6.97.07,1.38-.01,2.57-.02,3.64-.03.71-.02,1.34-.04,1.92-.05,1.17-.04,2.18-.07,3.38-.05,8.1.17,18.25.21,23.03-.05,13.58.11,24.69-.1,33.67.17,8.9-.26,25.78-.04,36.81.03,3.52-.3,15.3-.05,26.08-.05,8.22-.04,16.11-.09,23.06-.12,9.75,0,19.54.02,27.61.02,8.28,0,16.95.19,23.03-.05,3.96.23,7.32.01,12.26.01,2.53,0,2.57.07,4.58.08,8.48-.03,19.07-.08,29.19-.12,5.44.03,10.35.06,15.3.09,3.17-.05,6.01-.09,9.25-.14,3.47.03,7.07.05,10.71.08,5.17-.01,10.39-.19,15.36-.06,1.49,0,1.22-.09,1.59-.14,3.66.05,6.96.11,12.24.08,4.67.17,7.25.43,16.73.37,3,.22-6.4.34-4.87.72,1.73.2,7.99,0,10.73,0,2.34-.06-.38-.11,1.64-.29,5.77-.05,3.23.28,7.56.29,5.69.08,4.43-.18,9.25-.14-.25.13,1.82.15,1.42.29,5.29.06,5.94-.1,10.76-.06.38.12-1.5.12-1.62.21,5.65-.04,10.56-.12,13.77.08,1.84,0,.76-.09.03-.07,4.48-.08,14.6-.06,18.37.09,2.92-.05,1.15-.21,4.63-.07,4.18-.04,7.23-.14,9.31-.28,2.05.07,1.89.24,4.49.29,1.25-.04,2.52-.07,4.63-.07.1-.17-2.56-.21-1.37-.43,3.92,0,1.85.05,1.48.14,4.28.08,4.06-.11,7.7-.07,3.8.05,7.54.6,10.67.15-.31-.09-4.54-.1-4.6,0-2.51-.08-1.54-.31-2.9-.43,3.69-.04,7.03-.1,12.29-.06-.7.16-8.4-.02-7.74.21,5.66.17,17.39.02,20.02-.2,4.98.08,14.65-.05,13.69.3,5.7.08,4.44-.18,9.25-.14,2.78.06-.95.08-3.09.07.58.23,9.71.3,4.38.58,2.01.1,8.65.11,10.73,0-1.25-.11-4.89-.11-7.61-.15,2.51-.11-2.27-.41,4.77-.43,7.18.01-1.71.1-.11.29,5.19,0,6.75-.24,9.2,0,4.61-.04-1.41-.15.11-.29,2.86.13,10.11.06,15.31.09,2.93.11-2.8.3,2.93.36,2.62,0,3.99-.05,4.66-.14-.31-.1-4.57-.03-4.55-.15-1.48-.24,4.81-.11,7.72-.14-1.29-.27-6.14-.06-10.71-.08,2.69-.37,10.47-.08,18.46-.13-.58.09-2.75.11-3.15.21,10.04-.12,9.74.22,13.66.37,1.25-.01,1.56-.07,3.1-.07-2.23-.23-6.47-.37-7.42-.65,3.35.06,6.07.15,5.99.37,4.8.04,6.3-.08,7.75-.21,2.04.05,2.8.16,2.95.29,4.91-.04,1.89-.16,9.23-.06,2.38.03,6.15.05,6.08.15,5.67-.05-.57-.22,3.2-.36-1.54,0-3.07,0-4.61,0,1.61-.14,11.17-.04,9.12.22,6.84-.05,9.16.1,15.3.08-3.62-.15-16.28-.17-12.1-.44,4.34,0,3.49.22,7.59.22,1.25-.01,1.55-.07,3.09-.07.24-.13-1.82-.15-1.42-.29-3.19-.03-4.08.05-6.16.07-2.69-.19,9.49-.13,12.26.01.15.13-1.93.15-1.64.29,5.95-.12,16.25-.1,18.34.16,3.01-.13-1.21-.25-2.93-.36,8.51-.2,15.74.42,26.02.17,4.74-.05,1.77.25,7.61.15,4.9.07,3.25-.18,6.22-.21,7.32.15,12.02.02,16.78.23,1.58-.05,1.65-.16,4.66-.14,2.11-.07,2.08-.24,4.71-.28-1.67-.09-1.27-.15,1.6-.14.33.22-4.46.43,1.34.5,3.96-.01-2.06-.13.12-.29,5.93.05,9.61-.14,13.85-.13,5.71,0,9.63.26,16.78.23,3.67.03-.72-.33,4.69-.21,4.78-.03.71.09,1.48.15.94.07,4.94.03,4.52.22,6.22-.08,2-.24,4.76-.43,4.6.1,12.21.11,16.87.01,3.27.15-.27.23-1.67.36,2.51.16,9.44,0,15.36-.06-1.4.25.91.32-4.77.43.43.1,3.82.06,6.11.08,3.39,0,.77-.3,1.7-.43,4.68,0,3.78-.26,9.28-.21,1.8-.01,1.34-.13,1.62-.21,9.95.11,19.18.02,27.57.1,1.49,0,1.22-.09,1.59-.14,6.42,0,11.16,0,15.33.01.28,0-.31.13-.05.14,1.29.06,6.07-.04,7.67,0,1.67-.02,1.09-.14,3.12-.14,1.98-.23-4.95-.06-2.96-.29,6.96-.2,3.63.42,12.21.15.39.12-1.49.12-1.62.21,4.71.1,8.59-.21,10.73,0,1.8-.01,1.34-.13,1.62-.21,9.1.13,14.77.03,23.03-.05-.39.1-4.59.02-4.66.14,1.86.24,16.92-.28,6.22-.21.72-.16,7.57-.02,10.76-.06-.71.15.98.19,1.42.29,1.74-.01.88-.07.02-.07,3.75-.25,14.79.25,16.92-.13,4.84-.03,3.39.22,9.14.15.78-.15-2.14-.14-4.54-.15,1.56-.16,8.84.02,10.7.08,2.65-.02-1.89-.25,4.68-.21,3.29-.03,2.88.11,2.99.22,5.08.06,9.65-.17,15.42-.2.9,0,1.82.07,3.04.08,2,.01,2.61-.07,3.09-.07,3.76,0,10.45,0,16.86.01,2.83,0,7.85,0,10.74,0,3.96,0,7.54-.19,10.73,0,.68.04,3.83.13,6.11.08.12,0,.52-.04.89-.07.37-.04.69-.07.7-.07.56,0,10.64.34,12.29-.06,6.05-.02,9.48-.03,18.43-.06,1.76-.02,5.7-.06,6.16-.07,2.03.01,2.34.14,4.55.15,4.88,0,4.27-.24,7.66,0,1.6-.07,3.16-.14,4.68-.21,22.68-.02,44.72-.07,64.52-.23,1.41.05,2.27.13,2.98.22,14.79-.35,29.86-.3,44.64-.39,4.03.02,1.32-.28,6.22-.21-.81.23,1.8.3,4.46.36,1.23-.22-4.15-.14-2.93-.36,3.81,0,7.45,0,7.61.15,2.08-.05,2.92-.15,3.18-.29,10.63-.05,14.28.01,26.07.02-4.27.33-4.06.38-4.9.79,3.25.04,2.96-.1,3.15-.21,4.25.04,4.19.28,5.97.44,7.54-.13,14.19.14,18.46-.13,3.41-.04,2.13.14,4.54.15,1.67-.02,1.1-.14,3.12-.14,5.34-.05,5.85.11,10.71.08.86.15,2.26.27,7.59.22,3.59-.24-12.52-.09-2.99-.22,2.52-.03,5.62.01,6.13,0,3.78-.04,4.66-.13,6.19-.14,2.69-.01,3.24.08,6.1.08,11.93,0,26.8-.13,33.76-.04,1.8,0,1.34-.13,1.62-.21,7.39.14,20.35.05,27.68-.19,3.15-.03,4.99.08,7.64.08,2.85,0,3.72-.14,4.66-.14,1.86,0,2.08.13,3.01.15.76,0,7.15-.06,7.69-.07,2.81-.01,4.77-.1,9.23-.06-.44-.1-3.82-.06-6.11-.08-3.67-.14,10.13-.04,13.83-.06-3.62.18,4.42.23-1.67.36,1.33.2,2.92-.19,7.69-.07,2.17-.16-3.85-.27.11-.29,6.06,0-.54.11,2.98.22,2.85.03,1.93-.17,3.15-.21,1.26-.04,8.12.1,6.19-.14,8.48-.03,14.44.05,21.44.09-.86.23,3.24.28-.17.43,5.9.12,21.22.13,27.6.02,1.33-.02,1.35-.07,1.58-.14,12.73-.09,26.82.21,33.76-.04,6.6.07,16.66.21,16.92-.13,4.15.08,7.96-.06,12.29-.06,2.95.03,6.78.06,9.17.08,1.7,0,3.59-.13,4.66-.14,6.14-.08,13.66-.03,19.96-.05,5.28-.02,14.85.03,23.03-.05,5.28-.05,9.01-.19,13.89-.2,5.64-.02,11.19.05,16.89-.06-1.19.22,1.47.26,1.37.43-5.74-.06-3.45.27-7.79.28,1.34.2,4.84-.1,9.21,0-3.9.22-5.27.64,1.23.79.86.02,3.43-.13,4.66-.14,3.26,0,10.64,0,16.86.01,5.58-.03,8.37-.22,13.83-.06,3.51-.25,19.32-.16,29.25-.26,3.09-.03,4.58-.16,7.75-.21,8.83-.13,17.84.06,26.04.09-.93.28,3.79.3,4.41.51,1.7.02,3.08.06,4.27.11,1.3.06,2.4.11,3.42.16,2.85.12,5.13.25,8.35.35-.05,1.57-.09,3.41-.12,5.62-.13-2.3-.2-2.22-.25-.82-.02,1.23-.06,3.65-.11,6.48-.35-5.77-.51,3.82-.8,4.3.02-2.47-.07-2.67-.07-4.63-.1.44-.06,3.82-.08,6.11-.18-3.74-.23-.75-.36-4.74-.12-.61-.14,1.14-.15,3.01-.04-2.03-.2-1.19-.29-3.18,0-.45,0-2.76,0-3.09-.11-1.81-.33.77-.36-1.81-.01-1.11.1-1.94.07-3.38-.01-.51-.02-.97-.03-1.34-2.47.06-3.82.14-5.59.32-5.4-.06-5.97.1-10.82.06-1.8.01-1.34.13-1.61.21-7.34-.28-21.92-.23-27.38-.6-4.08,0-8.17,0-12.27-.01-.72.43,4.58.59,5.77.94-10.19.05.85.44-3.31.65-2.05,0-4.09,0-6.13,0-.1.17,2.56.21,1.37.43-8.38-.04-9.71-.05-16.84-.09-.85-.15-2.86-.25-6.02-.29-5.35.02.05.19-3.15.21h-6.13s.11-.29.11-.29c-6.07.08-10.57-.23-12.29.06.02.03.61.03,1.45.03.84,0,1.94,0,2.98-.01,2.09,0,3.96.02,3.15.2l-47.53-.04c-2.02.02-2.46.12-4.65.14-.1.17,2.56.21,1.36.43-7.42.07-6.69.25-15.39.13-1.63.22,3.37.13,6.08.15,4.85.06-2.76.09-4.63.07-10.58-.09-28.7.17-32.12-.24-3.03.12-5.06.29-12.35.21.39-.1,4.59-.02,4.66-.14-.27-.06-1.51-.07-1.48-.14-3.66.04-7.18.09-7.78.28-10.71.06-19-.2-27.6-.02,7.92-.21-6.39-.18-7.67,0-9.61,0-20.84-.02-29.13-.02-22.42.09-51.16-.24-67.52.09-2.71-.05-.17-.13.08-.22-1.78,0-2.72-.02-3.04-.08-4.37,0-3.72.13-7.73.14-2.71,0-6.42-.16-9.15-.15-3.25,0-4.1.17-7.72.14-3.35.01-4.86-.06-4.52-.22-3.33.08-3.8.3-10.82.21.41-.08,3.07-.05,3.12-.14-1.78-.13-6.43,0-10.71-.08-.52-.03-2.78-.14-3.01-.15-11.16-.08-23.64.11-30.7.05-1.45.05-2.37.13-3.15.21-5.87-.27-16.7-.08-24.53-.02l.08-.22c-3.43.05-8.33.03-9.28.21-4.67-.07,1.83-.19,1.64-.29-5.29-.01-7.28.13-10.81.21-6.68-.08-15.97-.05-21.53.13-2.25-.06-3.83-.09-6.08-.15-21.81.3-47.11.4-72.18.23-3.72.07-7.47.14-10.82.21-6.09-.05-10.91-.17-18.34-.16l.11-.29c-5.55.12-15.01.42-19.99.13,1.89-.19,8,0,10.73,0,3.8-.06,3.56-.32,9.31-.28-.97-.1-3.22-.14-6.08-.15,4.98-.11,2.46-.44,4.82-.57,5.63-.31,13.64-.1,21.58-.27,2.92.03,6.59.03,6.05.22,2.28-.05,3.91-.09,6.19-.14-.32-.13-2.57-.17-6.08-.15,3.6-.16,14.46-.05,18.4.02-1.79.22-.79.19,1.4.36,3.83-.02,5.22-.27,9.23-.06-.22-.08.38-.13,1.59-.14-.28-.22-12.66.1-10.65-.23,6.67,0,13.8-.01,18.37.09,5.77-.05.19-.25,3.2-.36-4.73-.02-8.73.16-12.27-.01.26-.13,1.1-.24,3.18-.29-.82-.1-2.32-.18-4.52-.22-5.59.13,2.63.2,1.4.36-3.26-.04-2.96.1-3.15.21-4.71.05-5.56-.08-9.17-.08.51-.1,3.86-.06,6.16-.07-2.24-.32-8.21.03-10.79.13-5.73,0-7.39-.18-10.62-.3-3.14.04-.57.36-6.24.28-2.59-.07-3.27-.23-4.46-.36-2.1.07-2.08.24-4.71.28-14.43-.01-33.65-.03-52.14-.04-3.53-.02-1.79.21-4.68.21.97.1,3.22.14,6.08.15-4.28.23,1.58.45,2.82.65-1.02,0-2.05,0-3.07,0-1.02,0-2.05,0-3.07,0,2.27-.22,1.44-.41-4.44-.44-1.23.22,5.25.09,2.93.36-5.94-.21-10.24-.1-15.36.06,2.66.15,5.85-.01,9.2,0,5.95.03,9.04.22,13.69.3-2.19.09-5.66.38-.17.43-5.05.1-9.95.2-13.94.35-4.21.05-3.03-.15-6.08-.15-4.2-.07-7.83.05-12.3.06-2.51,0-2.6-.08-4.57-.08-5.22,0-9.24.1-13.83.06-9.27-.07-28.33-.03-38.34-.03-2.82,0-7.54-.2-9.23.06-4.21.05-3.03-.15-6.08-.15-2.6-.03-2.92.05-3.12.14-4.95.06-2.01-.24-6.05-.22-5.6-.06-8.59.17-12.27-.01-1.8.01-1.34.13-1.62.21-4.6-.15-11.58-.18-19.88-.16-1.46.05-2.38.13-3.15.21-16.95-.03-58.87-.09-87.43,0-4.35.05-7.64.08-12.32.13-10.01.05-19.54-.09-27.63.05,7.85.07,5.41.2-3.15.21-4.86,0-31.74-.03-44.47-.04-2.52,0-2.58-.08-4.57-.08-2.77.02-6.86.04-10.76.06-3.31-.03-5.94-.06-7.64-.08-3.6,0-6.22.2-13.86.13-1.56-.01-4.88-.15-4.54-.15-2.35,0-5.07.18-7.75.21-.82,0-2.73-.08-4.57-.08-3.96.04-8.02.09-12.32.13-3.95,0-20.48-.07-26.07-.02-1.7.01-1.55.19-4.65.14-.39-.12,1.49-.12,1.61-.21-2.74-.01-3.27.09-6.16.07-.28.08.29.13,1.48.15-.74.2-4.83,0-3.01-.15-3.65.1-5.54.08-9.23.06-1.18.01-8.46.11-10.79.13-2.94-.03-5.8-.05-9.18-.08-9.2.01-21,.03-29.16.05-3.93-.02-8.48.13-12.32.13-2.48,0-2.62-.06-4.57-.08-4.57-.04-8.88.08-12.3.06-3-.01-5.59-.13-7.61-.15-2.84-.02-7.18-.06-9.17-.08-1.35,0-4.07.14-4.65.14-2.53,0-2.57-.07-4.57-.08-2.72-.01-3.28.07-6.16.07-3.22-.03-6.15-.05-9.17-.08-4.44.01-16.37.29-24.56.05-1.34.14-12.63.2-21.55.2-2.2-.02-5.33-.05-7.64-.08-16.44.03-33.47.22-47.6.1-2.99-.02-5.61-.22-9.17-.08.22.08,2.77.06,4.57.08-3.36.12-17.65.14-16.81-.16-1.11.18-3.79.08-9.25.14-2.64.03-6.46.24-13.86.13-.65-.15,2.24-.14,4.66-.14-.91-.07-3.47-.27,1.62-.21-.93-.22-3.3.07-6.13,0,1.22-.06,1.71-.16,1.64-.29-4.31-.06-4.01.1-7.69.07,1.83-.29-4.57-.36-7.59-.22,1.85.25,8.4.28,8.98.58-2.35.11-6.51.12-7.78.28-2.18-.09-2.22-.28-4.46-.36-4.45,0-3.83.34,1.42.29-5.57.25-9.86-.16-10.6-.37-2.9.15-9.1.14-7.86.5-2.18,0-4.34-.02-4.63.07-3.09-.14-10.08-.11-10.59-.37,4.01-.02,7.68-.02,6.05.22h7.67c1.36-.27-7.37-.08-6-.36,4.85-.08,4.07-.03,7.64.08-.36-.24-6.72-.21-7.5-.44-4.71-.01-6.99.25-10.76.06.23-.33,11.23-.53,9.48-.71,3.62-.14,8.24.07,13.83-.06-2.61.14.11.09-.11.29,7.22.03,3.1-.48,10.9-.42,3.92,0,1.85.06,1.48.15,3.38.04,2.23-.14,4.65-.14,7.02-.08,5.94.2,12.21.15,5.11-.1-3.12-.18-1.39-.36.88.13,7.27,0,7.61.15,3.66-.02-1.63-.2-2.99-.22,3.83-.12,10.88.08,15.4-.13-2.81-.25-5.42.12-9.23.06-.61-.17-6.7-.2-2.93-.36-6.95-.09-6.09.19-12.32.13-5.34-.03-1.16-.18-7.64-.08-3.03.05-4.77.12-7.72.14-2.89-.11-6.6-.17-10.65-.22-5.25.07,4.26.03,1.45.22-5.94.23-19.13-.14-21.52.13-2.53-.1-5.07-.19-10.68-.15,2.77-.38,8.5.16,12.3-.06-5.2-.28-12.41-.48-18.13-.74-5.56.23,3.88.39,7.5.44-.7.26-11.89,0-9.36.42-2.62,0-3.95-.06-4.54-.15-2.74.19-10.24.14-16.93.13.47-.15,6.8-.01,6.22-.21-3.28-.07-6.99-.15-10.65-.22-3.92,0-3.14.24-3.23.43-3.65-.05-11.16.08-12.24-.08-.3-.34,6.68.1,9.25-.14-4.21-.33-8.9.07-13.77-.08-.25.13,1.81.15,1.42.29-4.6,0-9.2,0-13.79-.01-4.69-.16,10.98.05,9.28-.21-3.63-.17-11.1.09-16.89.06,8.17.24-8.51.11-13.86.13-4.37-.12,7.86-.05,10.76-.06-2.13-.31-11.83-.08-15.34-.01-3.97-.2-15.26-.32-19.91-.09,2.06.17,10.66.04,15.31.09.2.16-5.45.03-7.7.07-5.57,0-12.09-.05-13.85.13-8.65-.21-15.01-.09-26.01-.17-1.67.02-1.1.14-3.13.14-4.04.02-5-.1-4.49-.29-10.38.22-16.75-.16-26.07-.02-3.03-.15.73-.14,1.64-.29-2.48.02-2.61-.07-4.57-.08-1.95.01-2.09.21-.08.22-4.29.28-10.94.12-16.95.2-.17.1-.33.2,1.45.22-3.63.14-8.24-.07-13.83.06,3.36-.15.72-.39-2.9-.43,1.1-.21,3.26.07,6.13,0,.34-.16-1.17-.23-4.51-.22-6.73.06.67.38-3.26.5-6.76-.15-7.36-.13-16.81-.16.02-.07.06-.14.09-.22-7.65,0-9.95.25-18.48.2,2.25-.19-2.43-.17-2.99-.22-1.02-.09,1.1-.3-2.95-.29-5.11.17,5.49.22,2.87.51-6.1.04-4.29-.28-10.65-.23-2.15.02-.17.13,1.48.15-3.35.19-6.6-.07-10.7-.08-3.73,0-8.46.12-12.33.13-3.88.01-7.51-.11-10.73,0-.39-.12,1.49-.12,1.62-.21-2.33-.01-3.84.04-5.17.08-1.29.04-2.22.06-3.72-.02-.46-.17,4.01-.08,4.34-.21-4.53-.07-4.4.09-6.7.13,0,.47,0,1.09,0,1.9.07-.23.11-.93.15-1.75,1.72.07,3.76.12,3.6.29-.58-.02-2.06,0-3.3,0,0,.86,0,1.6-.01,1.88-.03.38-.1-2.1-.14-1.48-.08,1.34-.15,2.73-.21,4.59-.02.98-.05,2.08-.08,3.33-.02,1.23-.04,2.61-.06,4.21.44,0,1.08.01,1.76.02,1.98-.03.92-.07-.03-.12-.96-.05-1.8-.11.34-.17,4.11.05,7.62.1,11.73.15l-.08.22c3.24.1,3.43-.02,6.13,0,5.39.05,5.61.26,9.22-.06-3.16-.07-9.95-.26-1.42-.29-2.56-.17-11.69-.04-16.84-.09-.5-.25,6.95-.13,10.79-.14,4.86,0,10.38,0,13.79.01l-.14.36c6.4.01,8.41-.13,6.27-.35,3.07,0,6.14,0,9.2,0-.57.09-2.74.11-3.14.21,7.02-.04,9.5.14,16.84.09-.32.06-1.56.07-1.6.14,11.83.04,18.33.06,29.12.1,1.34-.25,6.02-.34,13.9-.28-.37-.28-8.69.07-12.21-.15,2.68-.16,11.71-.02,16.89-.06.52.12-1.25.13-3.13.14,5.39.08-.34.27,2.93.36,7.12.07-2.04-.19,3.15-.21,6.95-.08,3.3.32,10.65.23,2.95,0-2.28-.27,1.67-.36,3.6.18,13.13-.13,9.14.15,7.48-.13,14.78-.13,21.5-.05,2.35-.34-6.35-.18-10.66-.22,1.38-.28,6.66-.04,10.77-.06,3.62-.02,5.34-.18,9.25-.14,1.45.24-2.22.23-6.22.21.17.16,3.81.16,7.62.15-.87.18-2.12.25,1.39.36,2.05-.03-1.72-.31,3.21-.36,1.72-.18-6.51-.26-1.39-.36,3.92,0,1.85.05,1.48.15,7.96-.07,9.98-.02,18.4.02.07.36-7.73-.11-7.75.21,3.16.2,4.43.05,9.14.15,3.38,0,.22-.24.09-.22,1.48-.25,5.47.06,4.71-.28,5.7.05,9.77-.18,13.8.01,3.55-.23,17.51-.08,29.19-.12,6.54-.02,7.16-.1,12.24.08,1.67-.02,1.09-.14,3.12-.14,19.7.08,31.26-.16,47.53.04,1.68-.02,1.1-.14,3.13-.14,3.7-.03,3.29.13,7.63.08,1.52.27-3.31.23-4.73.36-2.66-.13-8.72-.35-13.75-.16.8.21,5.6.03,9.15.15.84.03.8.2,1.44.22,2.64.07,6.03.03,9.18.08,1.98-.23-4.94-.06-2.96-.29,2.38-.1,11.73-.23,4.74-.36.79-.1,13.89-.16,12.24.08,7.73-.25,19.31-.06,32.23-.04,14.08-.04,31.64-.08,42.99-.11,4.2-.05,3.04.15,6.08.15,3.34-.07,7.21.01,7.66,0,2.49-.03,2.41-.25,7.73-.14,2.81.24-2.65.14-4.69.21-.98.04-2.11.19-3.14.21-1.99.04-8.53-.21-7.7.07.46.12,2.2-.05,4.6,0,.65.01.96.36,6.05.22.68-.17-6.99.03-4.51-.22,7.25-.08,16.31.18,22.94.16-.01-.26-10-.07-12.18-.23-2-.29,3.42-.23,3.23-.43,15.35-.11,28.04.06,39.81.18,9.09-.21,19.56-.25,29.19-.12,1.25-.27-1.59-.35-6-.36.57-.17,6.71-.06,7.75-.21-.02-.27-4.35,0-6.13,0-5.07-.03-10.5-.05-16.84-.09-1.67.02-1.09.14-3.12.14-5.52.04-7.39-.09-10.68-.15-3.48.04,1.82.11-1.62.21-10.47-.15-22.12.09-32.18-.1,4.26-.24-8.49-.19-9.04-.44-4.05-.03,1.28.4-4.71.28.21.08,2.77.06,4.57.08,4.85.06-2.76.09-4.63.07-3.48-.08-5.35-.23-10.65-.23-1.63.22,3.36.13,6.08.15-.28.24-4.53.05-7.7.07-6.38.02-16.09.11-24.56.05-.65-.15,2.25-.14,4.66-.14-2.68-.34-8.66.01-10.79.13-12.35-.03-13.37-.36-24.42-.31-1.34.27,7.22.1,10.68.15-11.82.34-27.02-.04-36.82.04-1.12,0-2.92.14-3.13.14-2.32,0,.3-.14.07-.14-3.02,0-6.5.14-9.26.14-5.93,0-7.35-.25-12.19-.23-1.8,0-1.34.13-1.6.21-14.33-.1-27.18.18-36.78-.1-1.88,0-.7.09-.03.07-5.21.12-19.43.09-22.97-.09-3.25.06-6.85.11-9.27.21-12.3-.04-29.16-.21-42.81-.4-1.99-.33-6.38-.44-5.85-.73-13.24.07-19.34-.02-32.2-.03-1.45.05-2.37.13-3.15.21-3.57.02-5.89-.02-7.64-.08-3.66.02,1.63.2,2.99.22,6.97.09,8.63-.29,13.83-.06-3.06.14-7.78.21-13.88.2.65.06,1.29.13,3.01.15-.96.13-2.36.02-3.07,0-1.11-.03-3.98-.08-2.95-.29-2,0-4.13,0-6.13,0-.95,0-2.07-.04-2.97-.08-.89-.04-1.55-.07-1.58-.07-2.79,0-3.02.23-7.73.14-.34-.27-8.49-.18-9.04-.44-4.71.08,2.14.28-1.67.36-4.79.03-7.39-.1-4.52-.22-3.84.22-11.27-.19-10.81.21,1.12.25,7.29-.21,7.67,0,1.52.25-6.66.11-9.26.14-1.32.04-3.97.12-4.66.14-8.09.06-20.62.06-24.48-.16-4.12.1-10.87-.06-16.87-.01-3.65.03-7.1.14-9.28.21,6.7.21,12.14-.09,18.4.02-2.85.25-9.2.2-13.88.2-4.85,0-11.02-.15-18.38-.09-1.25-.23,4.04-.15,4.71-.28-4.72.11-7.59.17-12.38.28-1.57-.11-3.18-.12-5.25-.12-.86,0-1.83,0-2.93,0-.84,0-1.79-.02-2.88-.03,0-.09,0-.19,0-.3-.03-.03-.05.1-.06.36,1.1.06,5.02-.08,3.6.16-1.12,0-2.47,0-3.75,0,0-1.15,0-2.23-.01-3.05,0-.41-.02-.76-.04-1.02-.02-.32-.05-.61-.08-.66.05-1.59.12-3.56.18-5.13,1.07.05,1.92.11,2.36.19.83-.02,1.91-.06,2.68-.08,1.05-.03,1.66-.09,1.03-.21,4.05-.08,6.51.23,6.16-.07,5.63,0,5.78.26,9.07.37,4.19-.06-4.04-.14-1.4-.36,10.63.25,19.45-.03,29.11.1,1.58-.05,1.64-.16,4.66-.14-4.17.31,3.47.13,4.46.36,1.87-.13,12.55-.21,9.34-.35,1.59-.24,3.01.08,4.57.08,4.32-.07-2.15-.19,1.65-.29,14.86.06,28.05-.01,39.89-.04,2.48,0,2.64.08,4.57.08,3.99-.01,7.24-.17,12.32-.13,1.55.01,4.57.02,6.08.15,5.5-.02,12.51-.04,18.43-.06,16.87-.07,29.9-.02,38.14.54-.65.29-.17.53,4.38.58-.42.13-2.7.16-6.19.14,3.28.15-3.78.55,4.38.58-5.33.05-5.04.36-7.86.5-1.24.06-6.18-.05-4.65.14-15.55-.2-33.27-.14-48.99-.26-2.53-.02-4.75-.14-7.61-.15-3.95-.02-7.93.09-12.29.06-2.65-.02-3.27-.08-6.11-.08-5.38,0-8.51.23-12.27-.01-1.67.02-1.09.14-3.12.14-4.16,0-8.31,0-12.27-.01-.89,0-2.01-.05-2.92-.08-.9-.04-1.6-.07-1.63-.07-1.67,0-2.87.12-4.65.14-3.64.05-7.57-.09-10.7-.08-2.88.01-3.59.11-6.19.14-4.94.05-9.86,0-15.31-.08-2.6-.03-2.9.05-3.11.14-4.56-.07-9.97-.08-15.95-.07-5.32.01-11.13.03-17.19.04-.56-.05-.38-.13-.28-.2.09-.07.09-.13-1.09-.16,0,0,0,.04,0,.06.04,1.04.11.84.18.64.07-.21.14-.41.18.32-.02,2.36-.03,4.05-.04,5.51,3.6,0,6.71,0,11.66-.01-.71.09-2.03.15-4.65.14,2.56.14,4.5.09,5.8,0,.65-.04,1.14-.09,1.46-.14.32-.04.48-.08.47-.08,7.18-.06-2.18.18,2.98.22,3.26.04,2.96-.1,3.15-.21,3.58,0,7.16,0,10.74,0,2.49.15-.18.09-.11.29,1.53,0,3.06,0,4.6,0,3.23-.04-5.56-.31,3.17-.29,6.28-.02-.29.1,1.42.29,4.19,0,3.05.12,6.13,0,3.39,0,.77-.3,1.71-.43,3.57,0,7.15,0,10.72,0-1.22.06-1.71.16-1.64.29,1.97-.1,8.09,0,6.24-.28,8.56-.06,12.89.08,15.22.3,2.89.03,7.19-.35,7.67,0,4.24-.06-3.46-.29,4.69-.21-.65-.06-1.3-.13-3.01-.15.83-.02,14.03-.22,10.68.15,4.67,0,3.78-.26,9.28-.21l-.08.22c1.01-.12,4.67-.11,6.22-.21,4.49,0,5.63.17,7.56.29.36-.32,11.49-.17,13.88-.2.33,0-3.18-.12-4.57-.08,8.45-.22,18.93.08,29.14.02,2.57.25,4.18.44,10.48.66,4.7.06,3.02-.2,7.73-.14-4.43-.27,4.95-.31-1.37-.43,1.95-.15,10.9.04,7.81-.35,17.92-.18,41.84.06,58.3-.02-1.02.27-9.26.12-15.4.13-5.63.01-11.65-.03-15.36.06,2.91.1,7.73.12,9.09.3,6.15.05,3.89-.3,9.32-.28l-.06.14c7.31-.03,11.43.1,15.25.23,1.67-.02,1.1-.14,3.12-.14,3.58,0,7.16,0,10.73,0,3.68.1.89.14,2.98.22,6.06.02-.45-.11,3.15-.21,4.04,0,9.58.08,7.75-.21,9.27.16,23.16.03,30.63.1-5.21.16-16.84.01-24.56.05-1.83.11-4.49.17-4.73.36,3.99.02,6.6-.02,6.22-.21,5.78.15,10.18-.05,18.4.02-1.88.09-.64.11-.08.22,13.19-.03,25.87-.06,42.99-.11,3.73.1-2.85.22,1.43.29,6.6,0-2.07-.38,7.78-.28,3.13.17-2.3.38-6.3.43.99.27,10.07.12,7.74-.21,2.94.03,5.56-.04,3.1-.07,29.99-.03,73.71.16,102.77.02,1.75-.01.88-.07.03-.07,3.53-.01,9.87-.03,16.89-.06.86.23-5.54.09-1.64.29,4.1.17,6.38.05,7.64.08,3.96.09-5.52,0-7.73.14,5.82.1,10.59.19,16.77.3,1.7-.33,7.34-.47,12.51-.64,3.71.04,7.86.07,7.56.29,7.11-.24,15.92,0,30.69-.05,1.17.07,1.59.16,1.43.29,3.26.04,2.96-.1,3.15-.21,7.01.08,15.19.02,24.54.02,13.62,0,26.9.19,38.25.25,5.5.03,11.03-.14,13.77.08,2.03-.02,2.46-.12,4.66-.14,3.91.01,5.32.14,7.58.22,11.88-.27,27.99.03,47.56-.03,3.68.17-2.34.13-1.68.36,7.36,0,5.99-.44,15.48-.35-1.42.13-4.36.18-3.24.43,5.53.05,6.05-.29,10.76-.06-1.03.15-7.18.04-7.75.21,3.55.17,8.01-.24,15.39-.13.39.19-2.21.23-6.22.21,2.81.25,5.43-.12,9.23-.06.34.15,6.74.03,7.62.15,4.17-.12,9.8-.46,13.93-.35-1.6.09-1.6.26-3.2.36-2.76,0-3.21-.09-6.11-.08-.95.34,8.61.2,12.21.15.32.21-3.55.22-3.23.43,2.38-.11,3.86-.17,6.25-.28,5.35-.03,5.29.18,7.54.29-7.3.02-24.43.28-30.63-.1-3.48.04,1.82.11-1.62.21-6.52-.03-15.82.06-19.9-.09-1.5,0-1.22.09-1.58.14-9,.01-14.97-.24-21.5.05-4.13-.22-19.96-.09-26.09.05-2.15-.19-8.71-.17-13.72-.23-.34.28,6.17.24,9.06.37-2.07.29-3.16-.02-7.66,0-3.33-.02-.79.25-1.67.36,9.46.07,12.64-.17,17-.35,19.29.08,30.42-.01,44.44.11-3.79.08-3.12.39-7.83.43.57.16,8.13,0,9.14.15.57-.14-.23-.23-2.98-.22.42-.22,7.68-.12,12.32-.13.08.11-.84.27,1.42.29,5.55.07.84-.35,7.75-.21-2.76.24-2.79.17,1.39.36,2.63-.04,1.03-.17-1.47-.15.38-.1,4.59-.02,4.66-.14,3.63.12,7.16.2,4.43.44,6.26.04,6.28-.23,13.85-.13,6.06-.01,4.58.31,10.63.3,4.35-.1,9.08-.17,6.3-.43,8.53.02,12.73-.11,12.41-.35,4.35-.06,3.94.1,7.64.08.66.15-2.24.14-4.66.14.03.21,3.41.27,6,.36,6.1-.12,4.74-.12,10.74,0,1.8.24-4.98.05-3.17.29-.05.17,4.18-.02,3.11-.14,5.05,0,7.68-.12,13.83-.06.56-.17-.14-.28-1.39-.36-2.01.1-6.69.07-10.76.06,1.1-.36-8.13-.25-7.45-.58,17.55.08,48.47-.05,64.37.13-.29.33-3.59.07-6.16.07-12.92-.01-32.71-.03-46-.04,4.16.14,12.06.11,13.67.37,5.22.06,2.06-.29,7.76-.21,3.41-.04,2.13.14,4.54.15,3.56.12,4.16-.13,4.66-.14.72,0,1.96.07,3.03.07,2,.01,2.62-.07,3.1-.07,6.84.01,12.21.17,19.93.02,2.62-.02,2.87.06,3.01.15,4.61-.04-1.41-.16.11-.29,3.85,0,3.66.16,6.05.22,3.32.01.79-.26,1.67-.36,12.11-.04,23.4-.08,33.8-.12,1.7,0,2.25.14,3.01.15,1.67-.01,6.67-.05,9.23-.06,3.1,0,7.72.07,9.23-.06,1.22.06,4.17.05,4.54.15,7.7-.21,25.17.06,36.86-.11,1.25.23-4.04.15-4.71.28-6.11-.08-9.17-.08-15.33-.01-2.97.03-1.32.28-6.22.21,4.71.25,9.14-.14,13.86-.13,1.51.17,10.26,0,9.09.3,2.71-.11-1.45-.31,3.23-.43,4.36-.06,3.93.1,7.65.08,1.62-.22-3.37-.13-6.08-.15,2.25-.17,10.48-.19,15.42-.2,4.32,0,8.77,0,12.26.01.96,0,2.09.04,2.98.08.89.04,1.55.07,1.57.07,1.83,0,2.16-.13,3.11-.14,3.43-.04,5.98.17,9.24-.06,2.61-.02,2.86.06,3.01.15,4.48.02,4.77-.16,9.26-.14-.43.13-2.71.16-6.19.14.98.14,4.61.17,6.02.29,3.57-.02,7.19-.04,6.24-.28,1.02.06,9.06.19,7.69-.07-1.41-.18-5.92.09-10.73,0,1.34-.11,4.98-.1,7.73-.14-.87-.22-8.2-.15-9.06-.37-6.86.1-8.12.01-12.22-.15.75-.16,6.5.28,7.69-.07-.34-.09-3.01-.08-3.06,0-4.9-.17,7.27-.47-4.44-.44.84-.34,12.23.17,13.89-.2-5.67-.07-9.07-.25-16.78-.23-4.52.06,1.92.18-.15.36-3.85-.06-3.79-.3-5.97-.44-3.59.02-6.38.14-9.2,0,5.77-.37,15.99-.06,26.15-.19-.7.11-4.84.06-3.17.29,5.91.07,2.62-.31,9.28-.21.28-.08-.29-.13-1.49-.15,5.14-.14,11.44-.23,12.5-.57,4.91-.06,4.7.12,7.6.15,6.8.06,9.24-.09,15.36-.06.22.16-1.34.23-4.69.21,4.47.35,16.29-.02,16.7.45,6.46-.09-.11-.41-2.87-.51-.2-.16,5.45-.03,7.69-.07-4.66.22,2.23.31,2.88.51,7.62-.12,10.86-.45,21.64-.41,4.14-.05,2.9.15,4.51.22,1.25-.01,1.56-.07,3.1-.07,3.16-.08-4.38-.19,1.65-.29,3.28-.03,2.88.11,2.98.22,4.66-.09,8.42-.23,15.41-.2,4.01.03,4.19.23,10.68.15-.22-.08-2.78-.06-4.58-.08,4.62-.21,21.52.05,30.73-.12,3.12.07,1.16.37,5.99.37,2.29-.03-.56-.09.08-.22,8.82.01,17.71.03,24.57-.05.12.21,1.78.34,7.55.29-.96-.07-3.49-.08-2.97-.22,3.02-.08,2.34.14,3.01.15,3.26.05,7.1-.2,10.73,0-5.21.25-10.23.05-18.45.13-3.63.02-2.95.25-7.75.21,4.81-.27-11.15-.07-13.72-.23-1.59.07-3.16.14-4.68.21-3.86-.06-3.81-.3-5.97-.44-4.69.2-5.29-.18-12.24-.08-2.3.43,9.29.3,4.34.65-3.95-.13-7.67-.27-7.44-.58-6.6-.07-7.1.19-3.18.29-1.04.12-3.55.04-3.05-.07-5.51.04-7.38-.09-10.67-.15-2.96-.03-2.37.33,1.44.22-2.12.22-6.76-.14-9.22.06-.48.12,1.4.13,1.45.22,2.59-.09,9.75.03,9.28-.21,6.14-.07,4.54.22,10.68.15.78.16-2.97.1-3.15.21.46.16,2.76-.07,3.1-.07,1.96,0,2.42.16,4.54.15,2.51-.01,4.11-.15,7.72-.14,2.09-.02,1.34-.18,1.64-.29,6.23-.02,6.99.2,10.63.3,4.79.04,4.39-.18,6.25-.28,3.48.1,4.82.3,7.5.44,3.09-.29,12.39-.28,20.07-.34-1.55.26,6,.11,9.14.15,4.77-.04,3.19-.38,10.85-.28-1.15.07-2.83.11-4.65.14.32.17,6.71.05,7.66,0-1.18-.09-1.77-.13-2.99-.22-4.17-.22-7.24-.08-4.48-.29-4.6,0-9.2,0-13.8-.01,2.78-.25,9.6-.02,16.9-.06,5.43-.03,15-.04,24.53.02-1.19.22,1.46.26,1.36.43,8,.1,11.62-.02,18.38.09-.74.16-2.82.25-6.25.28,4.31.23,6.85-.25,10.85-.28,5.44-.03,3.66.26,9.11.22,2.9,0-.26-.31-4.52-.22,3.23-.36,5.39.11,9.15.15,6.22-.08,2-.25,4.76-.43,6.05.04-1.97.31,4.46.36.92-.17,7.83-.06,6.28-.35,4.64.13,13.18-.07,9.14.15,4.17-.04,12.13.1,13.83-.06,2.7.06.17.13-.08.22,4.92.07,2.25-.23,4.71-.28,2.41.27,4.21-.12,12.27.01-.96.15-3.31.23-4.74.36-28.92-.11-40.54.21-66.05.23-2.16.02-.18.13,1.48.15-5.42.05-11.14.15-15.39.13-1.27,0-2.63-.14-4.54-.15-1.06,0-3.69.06-3.1.07-2.41-.04,2.11-.2-6.08-.15,2.77-.45,10.68-.1,15.43-.2-6.54-.27-16.14-.4-27.44-.45.84-.06,1.64-.12,1.62-.22-6.21.06-3.62.35-1.76.57,6.7.08,5.14-.24,10.82-.21-.94.33-6.97.66,2.79.72-12.41,0-29.83.31-44.49.03-4.77.21-15.68.12-24.59.12-2.97.03-1.32.28-6.22.21-3.59-.19-3.51-.34-4.41-.51-7.37.03-5.82.02-15.36.06-.71.15.98.19,1.43.29,2.47-.15,8.6-.12,10.84-.28,9.13.47-6.41.62-14,.49.11,0,1.8-.14,1.59-.14-.75,0-9.1,0-7.72.14-8.86-.03-27.81.02-41.46.11-9.41,0-19.47-.02-27.6-.02-3.94.06-8.92.13-13.88.2-6.08.03-11.96,0-15.41.2.81.25,8.79.17,9.03.44,6.85-.13,18.12-.08,19.85.23,1.65-.26,6.45-.37,12.44-.42,1.34-.2-2.09-.19-1.4-.36,9.38-.08,4.78.4,2.85.58,1.42.05,7.74,0,12.24.08,2.96,0-2.28-.27,1.67-.36-.58-.13-7.39.24-10.73,0,1.56-.1,4.21-.14,4.71-.28,11.18.1,24.33-.02,41.4.03,4.84.15-9.52-.03-7.75.21.11.18,5.09.15,9.15.15,4.03.02,1.31-.28,6.22-.21-3.76.21,1.92.28,4.52.22,3.53-.08.11-.32,3.1-.07,2.38.2,6.88.29,10.68.15-1.49-.14-6.73-.12-5.99-.36,4.83-.03,3.97.2,7.58.22,1.25-.01,1.55-.07,3.09-.07,1.14-.19-3.11-.14-4.51-.22-1.41-.16,4.49-.07,4.62-.07,3.52-.05,3.64-.12,6.19-.14,6.8,0,16.07.01,24.53.02-3.91.19-5.92.05-12.29.06.09.18,5.08.15,9.14.15.02.21,3.4.27,5.99.37,5.02-.12-3.91-.19-1.37-.43,8.92-.05,6.01.44,10.52.59,5.72,0,9.67.08,13.75.16,2.84,0,1.03-.24,3.18-.29,7.89-.05,6.27.33,15.25.23-.99.33,5.66.31,4.35.65-5.19-.2-10.83.07-13.88.2.44.1,3.81.06,6.1.08-1.21.06-1.7.16-1.64.29-3.35.01-4.86-.06-4.52-.22-2.19-.04-3.85.28-4.63.07-2.16-.13-1.35-.17,3.12-.14-2.81-.13-1.43-.38,1.7-.43-2.06-.21-5.33.12-9.22.06-.43-.17-2.32-.27-1.34-.5-4.64,0-1.62.36-6.27.35-.53.19,5.92.06,4.49.29-2.21-.04-7.96.08-7.64-.08-2.51.1-3.87.25-9.27.21,2.7-.24,2.06-.44-6-.37-4.01-.17,4.14-.19.14-.36-1.89.08-2.86.2-7.73.14.61-.12-1.15-.14-3.01-.15,1.04-.16,3.21-.43.22-.58-2.74.06-2.07.29-7.74.21-1.88-.29,5.1-.14,3.23-.43-6.02-.1-4.06.19-6.25.28-2.95-.03,0-.33-6.05-.22-.92.08-.56.27-4.74.36,1.24.17,3.86-.2,9.23-.06-2.45.19,3.38.14,4.52.22.62.05-.42.16-.08.22.49.08,3.84.07,2.98.22-1.8.06-4.15.09-7.7.07.58-.09,2.75-.11,3.15-.21-3.81-.01-6.38.03-7.72.14.56.35,7.79.28,13.72.23,1.46.22-3.47.12-6.19.14,2.78.19,4.3.34-.19.5.35.08,3.03.05,3.01.15,3.83-.02,5.22-.27,9.23-.06-1.27.32-13.92.17-23.09.2-5.17.02-9.21.12-13.82.06-.14-.05,4.72-.11,6.16-.07-4.79-.16-5.26.06-9.23.06-2.33,0-4.37-.15-4.54-.15-2.68.01-4.8.18-7.75.21-2.48.02-3.42-.08-6.11-.08-5.08,0-11.72.17-15.33-.01,1.32-.36,7.43-.5,15.48-.35-.39-.24-6.88-.21-12.18-.23-4.48.06-1.78.11-1.65.29-3.06-.03-4.8.01-4.65.14-2.73.01-7.66-.08-6.19.14.1.14,5.76-.11,7.64.08-7.27.18-15.83-.02-24.56.05-1.96.02-3.88.13-6.19.14-6.74.02-16.09.04-23.03.05-11.57.02-24.4.05-32.2-.03-.25,0,.29-.13.06-.14-1.49-.07-4.23.13-6.16.07,3.39-.47-3.28.13-10.73,0-1.8.01-1.35.13-1.62.21-6.27-.02-14.81.06-16.82-.16-4.82-.04-3.55.22-9.25.14-1.1-.25.99-.34,6.25-.28.22-.22-4.55-.22-9.13-.22-1.19.22,1.47.26,1.37.43-73.16.24-146.84.02-217.8-.04-11.98-.01-21.73-.02-33.73-.03-2.48,0-2.69.08-4.63.07-5.25-.02-15.26-.06-24.51-.09-5.12,0-9.92.1-15.37.06-7.29-.05-29.17-.1-41.4-.04-7.13.04-16.23.26-26.07-.02-7.93.09-13.86.15-19.94-.02.97.07,3.5.08,2.99.22-11.39-.12-19.98.02-33.74-.03.58-.09,2.75-.11,3.15-.21-6.23-.08-4.02.24-7.78.28-3.58-.02-.76-.32.14-.36-4.34.03-6.58.17-10.82.21-4.82-.12-7.92-.01-13.8-.01-2.76-.03-5.18-.05-7.64-.08-3.83.01-10.13.22-18.46.13-2.19-.02-3.93-.14-4.54-.15-2.66-.02-4.1.24-7.66,0-5.22.06-17.64.19-24.64.27-2.86.01-5.43-.08-6.11-.08-2.76,0-3.25.08-6.16.07-3.15-.01-3.11-.13-4.55-.15-.77,0-2.83.07-4.62.07-6.61-.02-16.89-.14-22.98-.09-2.69.02-4.49.12-7.72.14-1.1-.07-2.75-.11-4.54-.15-3.17.14-9.32.07-13.84.06-3.27,0-7.3.13-10.78.13-2.75,0-3.2-.08-6.1-.08-10.32.03-24.03.08-35.33.11-2.49,0-2.63-.08-4.57-.08-10.43.02-19.64.16-26.12.12-3.27-.02-2.23-.1-4.54-.15-8.29.04-15.3.14-24.59.12-.97-.07-3.5-.08-2.99-.22-1.8.01-1.34.13-1.62.21-9.95-.05-17.2.32-24.54-.02-5.47.03-5.57.03-12.29.06-1.7-.09-4.32-.13-2.93-.36-6.86,0-2.02.16-4.71.28-7.06.06-7.34-.19-13.74-.16-2.84,0-1.04.24-3.17.29-7.64-.13-18.31.04-29.14-.03-3.24-.05-7-.1-10.68-.15-9.44-.03-26.52.25-32.18-.1-1.45.05-2.37.13-3.15.21-10.12-.19-16.18.17-27.6-.02-2.55.31-6.03.14-12.34.21-.57.08,2.43.21,2.98.22,1.63.02,2.79-.13,4.65-.14,2.34,0,2.88.09,4.57.08,2.24-.02,4.16-.13,6.19-.14,3.37,0,5.57.07,9.17.08,3.65.01,8.68-.07,15.33.01,1.91.02,4.19.15,4.55.15,1.68.01,6.76-.08,10.76-.06,5.08,0,5.87,0,12.27.01,5.4,0,12.99.01,21.47.02.39.12-1.5.12-1.62.21,4.66,0,10.1-.03,9.12.22,1.8-.01,1.35-.13,1.61-.22.32-.16-5.42-.04-7.64-.08,4.64-.26,15.27-.17,23.03-.05,3.8.1,4.91-.28,6.16-.07,3.12.15-.71.14-3.15.21-1.56.05.42.16-3.12.14-1.25,0-1.49-.08-3.04-.07.28-.08,2.81-.06,4.63-.07-4.86-.2-10.12.04-15.31-.09-2.45.39,11.96.02,9.03.44,8.53-.1,11.24-.44,21.58-.27,2.13-.31-7.26-.1-5.99-.36,7.12-.02,13.27.01,16.81.16-2.65.1-11.39.1-6.27.35,2.97-.03,1.32-.28,6.22-.21-1.46.41,10.07.27,12.25.08-1.37-.13-4.74-.16-9.15-.15,1.55-.28,7.76-.05,12.3-.06-3.63.28,2.72.29,5.97.44,1.81-.28-5.32-.26-1.37-.43,4.14.05,3.7.3,9.09.3,4.4-.03-2.43-.11-3.01-.15,14.98-.14,36.91-.1,56.79-.1,1.82,0,8.35.19,10.76-.06,8.53.12,25.36.12,32.18.1-2.43.24-10.43.12-16.93.13-9.3,0-17.97-.04-24.56.05.42.26,4.16.18,1.38.43,5.61-.06,8.11.13,10.72,0-1.95-.04-3.14-.06-7.6-.15,3.64-.36,9.26.06,15.33.01.67-.17-7,.03-4.52-.22,35.34.03,85.04.07,122.67.1,2.55.03,5.11.05,7.64.08,3.46,0,6.05-.08,9.22-.06,5.16.03,11.28.35,15.31.09.51.17,6.09.1,7.58.22,1.94-.02,1.6-.14.06-.14,27.06-.35,56.77.14,78.29-.15,2.21.03-.19.06-.07.14,5.35-.08,11.04-.15,18.45-.13-.21.19-6.02.1-6.24.28,4.83.01,11.68-.26,15.36-.06-.17.31-6.44-.09-7.75.21-4.85.03-5.37-.13-10.7-.08-1.25.01-1.55.07-3.09.07-.49.16.27.27,2.95.29-4.92.08-5.92.4-6.33.5,2.4.28,9.01,0,12.22.15.76.23-4.93.06-6.17.07-1.6.01-.87.14-1.59.14-4.48.02-10.2.03-16.89.06-2.56-.13-2.16-.54,1.75-.57,1.19-.16-5.53-.3-6.08-.15-4.75-.12,3.24-.23,3.21-.36-3.34-.02-4.91.05-4.69.21-4.84.03-3.39-.22-9.14-.15,2.72-.29,9.88.09,12.35-.21,5.25,0,11.48.32,16.84.09,2.15-.3-12.19-.01-6.02-.29-6.37.17-10.65,0-15.42.2-2.92-.03-6.59-.03-6.05-.22-6.48.2-19.36.06-30.67-.03-5.81.16-13.97.24-18.45.13-4.27.09-7.88.2-13.89.2-.15-.13,1.94-.15,1.64-.29-3.84-.02-3.78.16-6.22.21-5.21.02-12.41-.07-15.35.06.97.1,3.22.14,6.07.15-2.96.12-9.85.06-12.35.21-6.92-.02-8.84-.26-15.22-.3-2.29.03.57.09-.09.22-6.51.01-8.18-.2-15.27-.16-1.58.05-1.66.16-4.66.14-.61.12,1.15.14,3.01.15-5.04.14-8.77.03-12.23-.08-3.48.04,1.81.11-1.62.21-5.02-.06-1.97-.48-10.6-.37.97.07,3.5.08,2.98.22-5.17-.14-5.7.17-9.22.06.43.01,1.72-.19.08-.22-1.43-.02-4.19.16-1.59.14.61.2-8.34-.06-7.73.14,1.83.2,14.25-.08,12.16.3,2.09-.02,1.34-.18,1.65-.29,2.55,0,5.11,0,7.66,0Zm160.85.57c-.19-.23-.92-.43-5.97-.44l-.17.43h6.14Zm-1.18-.94c-1.53,0-3.07,0-4.61,0,1.45.22,1.41.5,9.04.44,2.73-.34-7.16-.1-4.43-.44Zm-116.48-.24c4.49.03,1.16.42,9.09.3,1.84-.23-2.34-.18-2.96-.29,1.14-.12-7.19-.12-6.13,0Zm729.75-2.98c3.51-.1,9.91-.06,9.34-.35-4.9-.07-3.24.18-6.21.21.29-.18.41-.35-2.93-.36l-.19.5Zm-72.01-.2c-1.53,0-3.06,0-4.6,0,1.02.22-1.67.26-1.7.43,5.63.03,4.74-.26,6.3-.43Zm2.81.65c-3.36.21-1.75.34-7.86.5,5.42,0,14.86-.34,7.86-.5Zm27.74-.34c-.13.22-6.65.41,1.37.43-1.52-.27,3.31-.23,4.74-.36-2.9.01-3.35-.08-6.1-.08Zm-1.36-.43c.4-.1,2.57-.12,3.14-.21-2.07-.02-2.88-.1-6.1-.08-.49.16.27.27,2.96.29Zm-7.98.79c-.52.1-2.23.14-1.65.29,2.68,0,4.77.02,6.11.08.38-.21.34-.39-4.46-.36Zm-28.77-.96c4.7.19,9.74-.07,16.86.01.33.1,2.48.12,2.98.22-.05.1-2.71.06-3.12.14,3.75.07,3.31.32,9.1.3,3.12-.02,4.13-.14,6.21-.21-.4-.36-3.24-.61-10.49-.66-1.1.14,2.01.1,3.01.15,1.58.08,4.51.31,1.4.36-3.76-.07-6.59-.17-5.97-.44-7.74-.01-14.75.02-19.99.13Zm-2.54-1.37c4.4.02,7.8-.01,9.26-.14-5.58.13-4.52-.02-9.18-.08l-.08.22Zm-31.87-.89c1.25.06,11.91.21,10.76-.06-1.1-.14-11.3-.12-10.76.06Zm-15.63.78c7.75-.04,13.17.31,19.89.09,1.77-.39-6.72-.31-9.14-.15-6.05.03-7.91-.16-10.76.06Zm-21.48-.02c5.03.24,11.83-.22,16.87.01-2.56-.39-12.11-.12-16.87-.01Zm-5.83-.8c6.98,0,14.81.35,19.94.02-7.92.1-15.04-.21-19.94-.02Zm57.06,3.22c-.11.04-.27.09-1.57.07-.54.19,2.03.24,6.05.22.51-.19-.44-.31-4.48-.29Zm-1.04-1.3c-1.04.28,8.39.09,12.21.15-2.61.24.25.28,6.02.29,1.58-.47-13.49-.49-18.23-.45Zm-.19.5c4.94-.06,4.76.12,6.05.22,2.86,0,5.14-.04,6.19-.14-6.03-.03-6.65-.13-2.95-.29-3.93-.01-11.39.17-9.29.21Zm-1.95,1.08c-4.31-.09-2.6-.45-10.59-.37-1.69.16,2.77.15,2.95.29.01,0-.21.02-.54.03-.33.01-.77.03-1.2.04-.86.03-1.66.08-1.4.14.24.07.52.18,6.08.15-1.42-.4,2.45-.14,4.71-.28Zm-35.09-.46c-1.46-.44,12.7.13,7.8-.35,5.29.06,6.5-.07,9.25-.14,5.06.15,10.03.3,16.74.37l.11-.29c-6.85.02-10.78-.04-7.56-.29-8.16.08-13.83.13-21.54.2,1.67.32-14.52.23-4.8.5Zm-17.26.99c6.17-.04,10.58-.17,15.45-.28,5.52.13,13.07.16,21.42.16.55-.17-.14-.28-1.4-.36-2.77.09-8.93,0-10.79.14,3.87.13,5.4-.08,7.63.08-4.32.17-10.02-.02-12.21-.15,8.09-.11,2.49-.29,7.83-.42,2.91-.01,3.35.08,6.11.08.33-.2-4.54-.17-4.46-.36.61-.04,7.49-.1,3.12-.14-5.13.07-4.96.39-12.41.35,3.96.33-2.35.34-4.74.36,2.91,0-1.06.28-3.18.29.72-.36-10.69-.18-12.11-.44l-.14.36c4.07,0,9.04-.03,9.14.15-4.16.02-11.31-.11-9.29.21Zm-7.16-1.3c-4.36.06-3.94-.1-7.64-.08-2.82.32,8.01.27,7.64.08Zm-9.48.71c6.58.04,2.03-.19,4.68-.21,4.07,0,9.01.05,9.26-.14-5.83-.07-9.83.11-12.27-.01,1.19.2-2.24.18-1.67.36Zm-9.34.35c2.7-.02,7.58.21,9.2,0-1.19-.02-1.76-.06-1.48-.14-3.79-.01-7.43-.02-7.72.14Zm-10.68-.15c-5,.08-1.08-.23-6.08-.15-2.42.03-1.4.23-6.19.14-1.98.23,4.94.06,2.96.29-4.56.01-7.46-.29-9.2,0,4.5-.02,4.65.17,9.15.15,5.72-.11,9.35-.33,17-.35.27-.08-.19-.2,1.62-.21,7.56-.09-4.15-.08-4.64.07-2.05,0-4.51-.3-6.1-.08,1.65.02,3.63.12,1.48.15Zm-18.21-.52c1.78.08,5.39.09,9.18.08,1.98-.23-4.95-.06-2.96-.29,4.71-.05,5.57.08,9.18.08,2.6-.14-.11-.09.11-.29-4.59.07-12.26,0-13.89.2,7.16.01-1.14.13-1.62.21Zm-6.3.43c-1.32-.16-2.82-.67-7.5-.44,2.69.02,3.44.13,2.96.29-2.73.01-7.65-.08-6.19.14,5.29-.03,8.58.04,12.24.08,2.02.01,11.1.02,6.17-.07-2.56,0-5.11,0-7.67,0Zm4.96-.93c-1.97-.06-14.69-.2-10.71-.08.25.14,8.85.25,10.71.08Zm-12.16-.3c4.92.09,1.26-.23,6.18-.14,2.42,0,1.13.18,4.55.15l.11-.29c-5.8.05-7.29-.09-12.24-.08-.83.23,5.22.2,1.4.36Zm-12.54.71c-1.89.23,13.1.28,9.14.15-6.11.09-3.04-.24-9.14-.15Zm-5.88-.65c4.29.06,6.2.24,12.18.23.86-.26-8.86-.39-12.18-.23Zm-16.95.2c3.8.05,12.1.3,13.8.01-3.78-.05-13.31-.24-13.8-.01Zm-6.41.71c3.86-.03,7,.33,9.14.15-1.91-.12-7.26-.45-9.14-.15Zm-.26.65c3.66.14,12.31.06,18.38.09,1.6-.28-8.56-.04-7.56-.29,2.13,0,1.68-.18-1.48-.15-.88.1,1.65.37-1.68.36-1.47-.17-5.63-.17-7.66,0Zm-56.7-.12c-3.61,0-4.47-.13-9.18-.08-1.13.11,1.15.16,3.71.17,1.28,0,2.64-.01,3.68-.02.52-.01.96-.02,1.28-.03.31-.01.5-.02.51-.04Zm52.68-1.4c-1.19.02-3.03,0-3.09.07,6.06.07,4.85-.2,6.28-.35-2.05,0-4.09,0-6.13,0-1.2.2,2.99.15,2.95.29Zm-5.12,1.36c-.34.18,2.27.23,4.49.29.53-.1,2.23-.14,1.65-.29-2.05,0-4.09,0-6.13,0Zm-20.94-1.39c7.99.1,9.8-.11,15.39-.13-.08.19-4.34.18-6.25.28,4.67.19,8.29-.14,10.85-.28-8.07-.1-13.2.05-18.32-.23,1.19.2-2.23.18-1.67.36Zm4.19,1.08c-15.52.06,6.11.21,6.16-.07-2.86,0-3.45.06-6.16.07Zm-19.91-.09l-.14.36c-.17.1-11.05.04-6.19.14,5.93,0,11.3,0,15.3.09,2.56-.35-7.88-.11-5.97-.44,2.89.02,3.42-.08,6.16-.07-1.03.38,14.25.65,16.79.23-6.17-.04-11.81-.07-13.77-.08-2.81-.36,5.17-.19,4.76-.43-7.14,0-8.57.27-16.94.2Zm-22.62-1.03c4.21-.05,3.03.15,6.07.15,3.44-.1-1.86-.18,1.62-.21.58.12,1.98-.01,4.6,0,.82.23-2.96.22-.13.36,2.29-.01,5.64.03,6.16-.07-.86,0-1.72-.06.02-.07,7.86-.1,6.46.23,10.62.3-.4-.29,2.89-.4,1.82-.72-6.43.08-7.57-.01-13.78-.08-.21.09-.52.17-3.12.14-4.76,0-4.29-.23-10.68-.15-.7.14-4.43.13-3.2.36Zm1.37.43c5.77.18,2.73.26,7.64.08-1.75.27,3.73.21,2.91.43,3.13.07,5.89-.23,3.15-.21-.04.07-2.73.09-3.06,0l.05-.14c3.2-.04,10.04.1,10.76-.06-2.85-.15-7.23-.04-10.73,0-4.01-.27-9.09-.14-15.25-.23-1.14.19,2.63.09,4.54.15Zm-17.09.56c2.71.04,6.35.04,7.61.15-3.58,0-7.16,0-10.74,0-1.32.08-2.1.19-1.67.36,9.11.1,9.56-.22,16.95-.2,1.03-.15-2.7-.14-2.98-.22.02,0,.79-.03,1.56-.05.39-.02.77-.04,1.06-.05.29-.02.49-.03.49-.04,0,0-.19,0-.47,0-.28,0-.65-.02-1.02-.02-.75-.03-1.5-.05-1.55-.05-.64-.07,3.22-.16-1.47-.15,2.95.36-7.01.1-7.78.28Zm-13.59-.59c2.85.13,10.12.06,15.32.08-.96-.43-10.92-.24-15.32-.08Zm-5.12.33c-.57,0-1.35-.02-2.65-.05-1.78-.03-1.05-.14-4.54-.15-1.13,0-5.8-.04-6.19.14,2.68.04,9.05-.08,9.17.08-7.25-.07-4.31.17-6.22.21-1.77-.08-5.38-.09-9.17-.08.85.31,12.06.16,16.76.3-.02.07-1.28.08-1.58.14,4.7.05,2.93.05,7.67,0,2.36-.27-6.85-.02-4.49-.29,2.56,0,5.11,0,7.67,0,1.69-.3-6.86-.03-7.58-.22-.31-.08.46-.1,1.17-.1,1.62.02.91,0,0,0Zm-24.03-.28c8.16.08,3.71-.12,6.19-.14,6.39-.05,13.3.18,18.37.09-2.26-.01-1.34-.18-1.42-.29-7.16.2-12.45.04-23.04.05l-.1.29Zm-41.35-.18c-.11.1.66.16,1.45.22,3.84.02,4.85-.11,6.22-.21-1.98-.09-5.62-.1-7.67,0Zm-17.11.63c2.71-.04,8.97.09,9.22-.06-1.93-.1-9.12-.13-9.22.06Zm-33.93.48c2.99.12,1.94,0,6.13,0,1.32-.28-7.24-.28-6.13,0Zm-1.26-.72c3.49.06,11.04.3,15.3.09-3.74-.05-12.81-.22-15.3-.09Zm-28.77-.96c2.4.03,1.23.23,6.08.15l.08-.22c-2.3.01-5.65-.03-6.16.07Zm-12.37.28c5.14.13,11.58.08,10.84-.28-.94-.02-5.83-.18-6.13,0,.94,0,1.81.01,1.51.07-4.89-.07-4.84.11-6.22.21Zm-21.36-.31c-.75.34,6.16.02,9.2,0,3.74-.01,10.53.21,12.29-.06-7.01.03-16.85-.09-21.5.05Zm-12.57.78c1.93.1,9.12.13,9.23-.06-2.72.04-8.98-.09-9.23.06Zm84.97-1.58c5.02,0,5.78.21,12.21.15.27-.36-7.61-.28-12.21-.15Zm-16.84-.09c5.19-.09,8,.29,10.71.08-6.17-.08-3.56-.17.11-.29-4.58.02-9.35.03-10.82.21Zm-18.15-.66c1.44.17.33.46,5.97.44.77-.27-3.11-.33-5.97-.44Zm-4.73.36c8.28.1-5.84.43,4.43.44,2.41-.23-.62-.57-4.43-.44Zm-41.52.25c-1.78-.01-1.62-.12-1.45-.22-2.66,0-4.78.01-6.16.07-1.15.18,6.43.31,7.61.15Zm-11.91-.95c.22.11-.65.27,1.42.29-.41-.15,4.42.02,4.57.08-.17.11-3.93.05-3.15.21,6.81.03,16.08-.13,23.03-.05,3.8.04,5.4.27,9.09.3-4.89,0-13.59.21-10.88.35,3.21-.23,13.64-.21,15.51-.42-.21.02-4.9-.05-3.01-.15,2.71.05,6.44-.21,7.66,0-1.8,0-4.34-.02-4.62.07,2.26.09,6.23.1,7.58.22-1.75.1-1.72.17,1.45.22-1.07-.22,5.32-.08,3.21-.36-3.85,0-4.85.13-6.11-.08,1.57-.21,3.26-.43,4.85-.64-2.04,0-4.09,0-6.13,0-2.09.18,5.98.23,1.42.29-1.47,0-6.76,0-6.1-.08-.13.01,4.27-.04,3.09-.07-4.34-.09-8.91-.01-13.8-.01-3.17,0-8.6-.2-9.23.06,7.31,0,9.17.24,15.23.3-4.53.22-8.83-.16-12.18-.23-3.09.03-11.44.17-13.8-.01-.19-.2,10,.1,7.74-.21-7.27.12-9.34-.05-16.84-.09Zm-29.77,1.63c.68.21,5.31.6,10.6.37-1.71-.02-2.35-.08-3.01-.15,2.01-.1,6.69-.07,10.76-.06-1.85.22,2.33.18,2.95.29,5.29.06,5.93-.1,10.76-.06-.99-.22-1.02-.14.14-.36-10.73,0-21.47-.02-32.21-.03Zm-43.04.25c5.58.03,9.98,0,13.83-.06.4.17-4.47.08-4.68.21,1.19.02,3.03,0,3.04.07,1.02,0,2.04,0,3.06,0,.31-.11-.44-.27,1.65-.29,2.01.32,7.92.01,12.26.01l-.07.22c6.35-.22,16.06.26,16.89-.06-6.47.06-11.26-.18-7.53-.37-5.98,0-11.23.04-13.88.2-8.05.05-21.61-.44-24.56.05Zm-31.4-2.11c4.54-.1,5.67.09,7.72-.14-3.58-.1-2.86,0-7.63-.08l-.09.22Zm-9.72,1.36c1.77.08,5.39.09,9.17.08,1.13-.11-1.15-.16-3.72-.17-1.28,0-2.64.01-3.68.02-.52.01-.96.02-1.27.03-.31.01-.5.02-.5.04Zm-1.78.65c10.21-.02-1.47.24,2.93.36,6.87.04,11.5-.03,16.9-.06,3.79-.09-2.68-.22,1.64-.29,3.55.15,6.58.31,12.13.37,2.66-.09,4.26-.23,4.77-.43-5.54,0-12.27-.03-6.19.14-5.3-.04-8.08-.2-13.72-.23-3.65.33-13.72-.08-18.45.13Zm-1.67.36c-1.85-.02-.92-.08.05-.14-4.09,0-3.24-.23-7.58-.22-3.06.1,4.08.57,7.53.37ZM140.96,12.36c1.83-.01,4.36.02,4.64-.07-5.57-.05,4.28-.36-2.96-.29-1.73.06-.54.13-1.68.36Zm-75.97-1.86c6.76.02,10.53.12,15.36-.06-1.67-.04-12.15-.05-15.36.06ZM-7.67,12.3c1.13,0,2.02,0,2.79,0,.8.01,1.46.02,2.09.03,1.25.03,2.37.06,4.18.06.13-.11-2.09-.18-4.37-.2-1.14-.01-2.3,0-3.2.01-.88.02-1.58.06-1.48.11Zm-1.07,6.51c-.43.04-.87.05-1.3.05,0-.65.04-1.31.05-1.91,0-.15,0-.3,0-.45,0-.33,0-.65,0-.96v-.54s-.01-.25-.01-.25v-.1c-.02-.14-.04-.28-.05-.42,0,.1-.02.29-.03.55,0,.53-.02,1.19-.03,1.91-.02.72-.03,1.59-.03,2.28.87-.01,1.5-.05,1.4-.16Zm145.41.13c-1.6.09-1.6.26-3.21.36,2.05,0,4.09,0,6.13,0,.29-.18.42-.35-2.93-.36Zm69.96,1.57c-5.86.03-3-.34-10.66-.22-.84.23,5.22.19,1.4.36,4.39.02,7.79-.01,9.25-.14Zm25.23-1.78c-4.86.08-3.69-.12-6.08-.15-.46.21,2.8.25,4.46.36-.07.14-4.21.09-3.17.29,9.16.04,3.61-.18,4.79-.5Zm87.32.29c-4.4-.02-7.79.01-9.25.14,5.74-.04,8.91.21,9.25-.14Zm39.31,1.47c-2.56,0-5.11,0-7.67,0-1.6.29,9.05.3,7.67,0Zm12.68-1.07c-4.07,0-9.01-.05-9.25.14,3.17-.04,10.6.13,9.25-.14Zm24.45.24c-5.2-.05-12.83.15-9.3.28.64-.09,11.83.15,9.3-.28Zm34.85,1.11c-1.03-.21-4.66-.31-10.62-.3-2.76.38,5.18.28,10.62.3Zm29.69-1.42c-4.66-.21-10.07,0-15.25-.23-1.04.19,2.52.09,4.55.15,3.51.1,9,.37,10.7.08Zm23.73,2.11c-6.71.04-10.67.21-13.96.42,4.24-.02,10.68.22,13.8.01-3.4-.03-1.05-.38.16-.43Zm-38.45.26c-1.04.28,8.4.09,12.22.15,2.08-.02,2.97-.1,6.16-.07-.99.19.52.26,4.52.22,1.23-.22-4.16-.14-2.93-.36,5.91.07,6.68-.11,9.29-.21-9.35.07-21.01.38-29.26.26Zm-81.24-.14c1.19.02,1.76.06,1.49.15,4.73-.05,2.96-.05,7.67,0,1.49-.22-10.06-.2-9.15-.15Zm-29.18.12c3.49.02,5.76-.01,6.19-.14-2.07-.02-2.9-.1-6.1-.08-.03.07-.06.14-.08.22Zm-10.71-.08c1.75.2,2.32.46,9.04.44,1.7-.26-1.81-.14-2.96-.29.13.02,2.3-.1.05-.14-2.04,0-4.09,0-6.13,0Zm-102.9.34c4.41.02,7.8-.01,9.26-.14-4.51.01-4.65-.17-9.15-.15l-.11.29Zm95.15-11.47c.54.14-3.45.19-7.77.28,3.04,0,1.87.2,6.07.15.9-.09,7.99-.45,1.7-.43Zm33.79-.12c-1.19-.02-1.76-.06-1.48-.15-5.14-.05-5.08.14-7.75.21,2.71-.04,8.97.09,9.23-.06Zm759.61-.87c-3.84.05-6.18-.32-9.17-.08,1.61.05,6.95.29,9.17.08Zm22.81.52c-2.76,0-3.57-.07-2.98-.22-4.83-.04-5.47.12-10.76.06-.46.13,7.36.32,9.09.3.69-.01-.16-.18,1.59-.14-.02.11,4.09.24,3.07,0Zm26.23-.41c.75-.18-7.9-.29-9.15-.15,2.85.06,5.57.13,9.15.15Zm452.6-.26c5.88.06,6.04-.34.11-.29l-.11.29Zm-41.46.11c-.23.22,4.55.22,9.12.22.99-.26-4.45-.22-9.12-.22Zm-16.3-5.49c2,.12-.73.46,4.43.44,1.32-.08,2.1-.19,1.68-.36-2.91.01-3.35-.08-6.11-.08Zm-39.81-.18c-.51.14,2.02.14,2.98.22-1.05.17-3.24.37,2.93.36.1-.1-.66-.16-1.45-.22,3.34.02,4.89-.05,4.68-.21-5.32.05-6.44-.09-9.14-.15Zm-7.17,6.69c4.27-.06,14.34.16,13.85-.13-1.25-.21-2.36.16-6.16.07-.14-.09-.39-.17-3.01-.15,2.28.26-5.23.04-4.68.21Zm-6.85-6.13c3.78-.02,9.73-.15,7.81-.35-5.79.02-9,.44-15.42.2-1.47.21,4.9.16,7.61.15Zm-18.54.34c2.36-.15,7.74-.16,7.84-.43-7.02-.09-14.46.3-7.84.43Zm-94.22,5.68c-3.6-.03-2.76-.25-7.58-.22-.97.19,6.17.37,7.58.22Zm-114.26-2.04l.11-.29c-1.53,0-3.07,0-4.6,0-.51.19.44.31,4.49.29Zm-193.35.2c4.55.02,14.84-.05,12.32-.13-2.95.06-15.25.03-12.32.13Zm-19.74-.52c3.73.04,3.16.28,9.12.22-.09-.17-6.59-.4-9.12-.22Zm-14.18,1c.59-.3-8.9-.06-10.74,0,3.48.04,7.78.15,10.74,0Zm-56.46-.77c4.14-.05,2.91.15,4.52.22,6.1.03,11.33.01,13.86-.13.36.1,3.33.09,4.54.15,8.32-.24,20.3-.11,29.17-.05-1.4-.13,8.79-.04,3.12-.14-2.89-.02-3.41.08-6.16.07-.49-.17-5.89-.26-9.09-.3-2.77-.03-3.91.07-7.69.07-3.69-.05-8.69-.11-12.21-.15-1.99,0-2.12.09-4.63.07-4.06-.03-15.25-.1-15.42.2Zm-185.65.13c3.61.03,7.11.21,10.65.23,4.08.02,4.78-.12,7.73-.14,1.53,0,1.14.07,1.5.07,1.37.01,1.44-.07,1.56-.07,7.81-.02,12.12-.06,13.91-.28-5.64-.07-14.52.1-23.05.12-4.4.01-10.56-.25-12.29.06Zm-214.28,2.77c3.58.03,6.28.15,9.2,0,1.52-.26-10.06-.17-9.2,0Zm27.79-.48c-5.77-.15-6.2.32-3.2.36-1.06-.22,5.32-.08,3.2-.36Zm-7.53-.37c3.61.03,2.75.25,7.58.22,8.1-.18-4.69-.57-7.58-.22Zm190.83-1.64c.48-.21-3.38-.22-2.9-.43,1.2-.02,3.03,0,3.1-.07-8.29.02-9.65.48-.2.5Zm-86.1-3.46c2.96.14,9.47.03,12.29-.06-6.09.02-9.31-.18-12.29.06Zm-41.46.11c5.81-.15,5.59.1,10.68.15.24-.18,2.96-.22.14-.36-2.61.12-11.18-.05-10.81.21Zm-87.49.14c1.92.1,7.47.12,7.7-.07-1.92-.1-7.47-.12-7.7.07Zm6.2,3.82c5.35.14,6.87-.03,12.29-.06-1.57.29,5.77.07,6.11.08,3.22.02,3.88.21,7.58.22-1.01-.32,8.41-.13,9.34-.35,2.71.02,7.71-.07,6.08.15-4.83.03-6.2-.17-7.69.07,2.49.07,4.87.11,7.64.08,2.81-.03,12.94-.5,13.85-.13-.85,0-1.76.06-.03.07,2-.21,8.86.32,10.76-.06-.9-.1-5.89-.02-6.08-.15,7.37-.02,12.78.2,16.89-.06,1.2,0,2.43.21,2.99.22,1.31,0,9.83,0,10.73,0,.23,0-.27.14-.06.14,2.98.02,6.26-.14,9.23-.06.21.08-.34.2,1.45.22,3.38-.15-.1-.23-1.4-.36,6.39-.07,1.77-.29,9.34-.35,3.04,0,1.87.2,6.08.15,1.1-.12,4.17-.12,6.19-.14,9.2-.07,20.23-.08,30.67.03,1.38-.1,2.39-.23,6.22-.21,16.45-.04,24.17-.06,41.46-.11,1.35-.51-11.35-.15-16.81-.16-9.39-.06-17.97-.11-26.01-.17.03.12-1.25.18-3.15.21-13.19-.14-20.18.04-32.26.12-.92-.16,4.43-.23-1.45-.22-1.84.13-5.94.15-7.77.28-11.23-.07-22.11.1-27.58-.1-6.01.13-12.56.12-16.87-.01,1.74.35-7.84.16-10.84.28.51-.15,4.2-.14,4.71-.28-5.28.13-7.36-.02-13.8-.01-2.56.28,6.61.03,6.05.22-1.08.26-7.34-.03-13.83.06-.21.09-.52.17-3.13.14,3.07-.23-.54-.05-4.57-.08-6.47-.04-11.39-.06-13.85.13-.07-.13.43-.22,1.64-.29-5.68-.08-5.01.15-7.75.21-9.86-.06-19.02-.05-21.39-.23.25-.09,2.79-.16.08-.22-2.31.08-2.49.27-4.74.36-4.17,0-7.07-.31-9.2,0,6.58.1,11.82-.05,13.75.16-2.56.07-7.01.09-10.79.13-6.55.08-2.25-.03-7.64-.08-7.74.47,28.09.36,27.55.17Zm-72.21.3c1.17-.25-5.28-.26-7.61-.15-1.17.25,5.28.26,7.61.15Zm-46.58,1.47c4.41.01,10.05-.03,12.24.08-1.01-.12-5.47-.45-7.55-.29.93,0,1.81.01,1.5.07-2.86,0-5.14.04-6.19.14Zm-10.46-.73c2.43.12,7.88.07,9.23-.06-2.43-.12-7.88-.07-9.23.06Zm-4.46-.36c-.33.29,3.86.19,7.61.15,1.66-.24-4.73-.12-7.61-.15Zm-3.02-4.11c4.38.19,7.42-.13,10.81-.21-5.44-.02-9.2.04-10.81.21Zm-2.9-.43c.79-.22-3.2-.23-7.59-.22-.79.22,3.19.23,7.59.22Zm-21.64.41c3.8.01,7.44.02,7.73-.14-2.25-.12-8.7-.11-7.73.14Zm-18.22,3.51c5.76.11,3.02-.2,7.73-.14,3.01.06,15.25.34,16.86.01-5.5-.06-11.71.1-13.77-.08.38.03,4.87-.05,1.56-.07-2.64.17-13.71-.08-12.38.28Zm-1.71-3.53c4.35-.06,3.93.1,7.63.08.17-.13-.26-.22-1.42-.29-3.83-.02-4.85.11-6.22.21Zm-45.91,3.71c7.78-.17,12.28.2,15.37-.06-4.66-.07-4.67-.35-10.6-.37-1.82.11-1.85.18-.11.29-2.64,0-3.95.05-4.66.14Zm-15.14-.52c4.03.03,5.07-.1,4.71-.28-4.13,0-7.43.16-4.71.28Zm-84.3-.14c1.19.02,1.75.06,1.47.15,2.15.04,4.8.01,6.92-.01,2.12-.02,3.73-.04,3.81.02-.47.15-6.8.01-6.22.21,5.44.14,5.63-.02,10.76-.06-2.21-.22.61-.28-1.36-.43-5.76.11-11.41.11-15.39.13Zm-92.23.5c2.9-.01,3.35.08,6.1.08-1.19-.2,2.23-.18,1.67-.36-4.49,0-5.76.16-7.77.28Zm-21.47-.02c3.43.06,5.86.25,9.14.15.1-.1-.66-.16-1.45-.22,5.35-.22,9.32.17,12.27.01-1.53-.21-9.8-.12-13.72-.23-.31.11.44.27-1.64.29-.18-.13-5.18-.05-6.08-.15-9.93.2-3.61.06,1.49.15ZM7.97,26.53c-6.38,0-8.38-.13-12.29.06,1.84.02.91.08-.06.14,5.29-.11,10.13.24,12.36-.21Zm3.13-.14c0-.07-2.65-.09-3.07,0,3.13.07,3.06.29,7.56.29,1.44-.23-3.92-.15-4.49-.29Zm21.41.16c-2.07-.1-9.22-.08-9.26.14,4.22-.12,7.15.12,9.26-.14Zm30.1-2.5c-3.94.05-8.72.06-10.81.21,6.51.1,7.81.01,10.81-.21Zm6.73,2.45c-5.77-.04-6.95-.1-9.25.14,3.21.16,8.34.03,9.25-.14Zm105.08-2c-3.78-.01-7.39-.02-9.23.06.16.13.91.24,2.95.29-1.89-.31,4.45-.22,6.28-.35Zm9.14.15c-.94-.04-4.51-.3-6.1-.08,3.81.33-3.91.04-6.19.14.38.43,10.6.1,12.29-.06Zm63.96,1.21c-2.03-.1-10.65-.15-10.76.06,4.14-.16,7.76.11,10.76-.06Zm58.3-.02c-.67.09-2.04.15-4.66.14-.82.23,1.8.3,4.46.36-.15-.13,1.58-.17,4.65-.14.82-.23-1.79-.3-4.46-.36Zm13.66.37c-.7-.18-2.78-.3-4.44-.44.37.2-2.36.53,4.44.44Zm.56-1.44c-5.85.11-16.81-.04-18.52.27,2.6.11,1.82-.04,4.63-.07,4.71-.04,14.28.11,13.89-.2Zm51.91.62c2.92-.08,7.08-.09,7.78-.28-4.36.06-3.93-.1-7.64-.08l-.14.36Zm-7.83.43c-3.54-.03-5.89,0-7.69.07-1.29.16,1.51.48,2.95.29-3.52-.08,3.1-.28,4.74-.36Zm24.45.24c-3.88.06-13.15-.15-12.33.13,3.88-.06,13.15.15,12.33-.13Zm.02-.07c-.49-.31-12.83-.08-18.34-.16-.22.14-5.1.05-4.69.21,10.38-.01,12.49-.18,23.03-.05Zm293.5-16.7c1.02-.2,4.32-.28,9.31-.28-.7.09-2.02.15-4.65.14-.31.06.57.07,1.5.07-.51.1-3.86.06-6.16.07Zm450.74,11.93c-.97.24-5.83.1-9.22.06,1.61-.2,6.22-.09,9.22-.06ZM125.16,9.61c-3.83.13-16.49.22-21.5.05-.14-.3,2.35,0,4.61,0,4.21-.16,12.39-.07,16.89-.06Zm-75.47,12.13c4.69-.08,10.93-.04,19.96-.05-5.6.09-14.82.15-19.96.05Zm946.64,3.39c-2.38.39-13.78.17-19.99.13-4.21-.03-11.41.13-12.21-.15,10.8.16,24.08.07,32.19.03Zm183.39-2.22c-2.75-.01-3.27.09-6.16.07-1.45-.17-2.55-.36-2.85-.58,4.72.09,8.56.23,9.01.51Zm-152.81,2.46c-3.69.16-13.76.01-19.96.05,4.56-.18,14.19-.05,19.96-.05Zm-136.36-.4c8.75,0,19.08.02,26.07.02-14.53.32-27.28-.07-47.57.03-3.03-.12,15.08-.06,21.5-.05Zm298.22-1.69c-5.11,0-10.22,0-15.32-.01,2.93-.05,14.65-.3,15.32.01Zm43.02-.18c-2.21.18-5.33.12-9.22.06,2.22-.18,5.34-.12,9.22-.06Zm-24.59.12c-5.98.14-9.51.01-15.31-.09,2.5-.12,6.96-.15,12.32-.13-.11.12,1.08.19,2.99.22Zm-145.06-1.71c-6.33-.09-6.04.15-10.79.13-3.55-.44-9.94.03-13.78-.08.84-.06,1.65-.12,1.62-.21,3.16.05,10.1-.08,10.71.08,3.41-.06,12.6-.3,12.24.08Zm-115.43-10.35c-10.07.08-20.15.03-32.2-.03,8.29-.11,18.4-.13,29.19-.12,2.62-.02,2.87.06,3.01.15ZM306.67,4.29c3.58,0,7.15,0,10.73,0-.36.12-11.49.28-10.73,0Zm917.33-.16c.28-.12,6.44-.21,9.28-.21,2.35,0,8.52.06,7.59.22-6.63-.1-8.56.01-16.87-.01Zm-842.16.15c3.25.13,10.64.07,16.84.09,6.19.02,14.57-.11,15.28.16-10.01-.11-29.56.21-32.12-.24Zm383.32.4c-5.12-.25,11.56-.07,13.88-.2.22.08,2.77.06,4.57.08-2.3.3-16.23,0-18.46.13Zm-288.53.4c3.91.01,7.88.02,7.59.22-4.4.01-8.37,0-7.59-.22Zm-105.78-.16c-.61-.2,8.34.06,7.72-.14,1.21.18,12.02-.07,10.65.23-6.53-.01-10.68-.13-18.37-.09Zm-49.07-.04c7.03-.04,8.45.18,13.72.23-.28,0-15.59.1-13.72-.23Zm53.56.33c5.05,0,10.86-.02,10.65.22-2.51-.12-11.21.04-10.65-.22Zm19.85.23c1.25-.24-6.2-.1-4.46-.36,5.11,0,5.15.24,10.65.23-.41.13-2.7.16-6.19.14Zm626.76,5.57c-2.86.25-11.72.13-16.92.13-14.32-.01-25.69-.02-38.34-.03-6.33-.01-14.72.26-16.84-.09,12.18.17,25.34-.05,38.36-.04,9.95,0,21.33.02,33.74.03Zm-133.49.1c-2.9.02-11.39.08-15.34-.01,3.86-.21,10.41-.09,15.34.01Zm-88.91-.15c-2.36.1-6.78.11-10.79.13-1.12-.27,7.29-.09,10.79-.13Zm70.54.06c.29.28-16.75.12-19.96.06,3.69-.16,13.77-.01,19.96-.06Zm266.95-.13c-4.85.18-8.61.08-15.36.06,2.18-.16,10.68-.02,15.36-.06Zm122.81-.26c-1.71.24-5.51.05-9.23.06-13.2.03-31.67.08-44.52.11,2.35-.4,9.91-.13,13.86-.13,11.06-.01,22.35-.02,39.9-.04Zm-217.97.39c-1.97.24-18.54.17-16.87-.01,4.46.09,9.18-.04,16.87.01Zm76.75-.15c-.11.2-7.3.17-9.23.07.25-.16,6.52-.03,9.23-.07ZM167.05,4.39c3.19-.16,12.75-.01,18.43-.06-3.19.16-12.74.02-18.43.06Zm460.84,21.59c-2.1.12-6.86.11-9.29.21.65.06,1.3.13,3.01.15-2.51.26-2.23-.17-6.1-.08,2.85-.14,9.11-.38,12.38-.28Zm36.74.18c-1.41.37-7.44.12-12.3.06,1.2-.16,8.61-.02,12.3-.06Zm-50.94.82c-4.57,0-9.35,0-9.12-.22,1.05.16,10.64-.06,9.12.22Zm35.35-.19c-2.45.2-9.21,0-10.71-.08-3.81,0-4.8.13-7.67,0,5.15-.2,13.98.02,18.38.09Zm-33.59-.39c-1.37.16-4.98.01-7.7.07-.97.02-1.25.14-1.58.14-2.45.03-2.68-.09-4.57-.08-1.42.01-4.36.3-9.29.21-1.46-.22,3.47-.12,6.19-.14-.68-.23,3.73-.29-1.4-.36,1.97-.25,3.16.07,4.58.08,2.11,0,.48-.12,1.59-.14,2.35-.05,6.22.17,10.71.08-.28.08.29.13,1.48.15Zm-85.9,0c-7.64-.03-9.25.23-18.46.13.77-.15-2.13-.14-4.54-.15,3.88-.31,12.94-.3,18.43-.06-.1-.18-2.79-.23.15-.36-6.72.05-24.38.03-25.94-.38,6.41.02,9.01.2,15.25.23,1.85.02,5.37-.2,1.63-.21,9.85-.23,26.87.11,35.29-.04-2.76.27-10.77.21-13.91.28-1.2.16,5.54.3,6.08.15,5.63.19-5.88.15-9.26.14-2.8-.13.75-.21,1.68-.36-6.18.04-8.73-.08-13.78-.08-1.37.28,4.88.17,6.05.22.42.02-2.36.11-1.59.14,1.09.04,5.75-.01,4.52.22-1.49,0-1.22.09-1.59.14Zm85.48,1.08c-6.21.03-11.53.26-17,.35-4.04.06-2.07-.12-6.13,0-7.98.23-21.6.27-38.47.33-1.46-.1-5.13-.1-6.05-.22-.4-.33,8.85-.18,4.79-.5,5.46-.11,6.84.04,12.29-.06.05-.31-9.12-.2-15.25-.23-.14-.13,1.93-.15,1.65-.29,7.66.28,17.95.06,29.1.1.66.15-2.24.14-4.65.14-3.51.05-4.67.21-6.28.36,5.47.22,4.87-.05,7.73-.14,12.15.03,22.74.26,32.21.03.97.1,3.22.14,6.07.15Zm-29.19.12c-.36-.1-3.33-.08-4.54-.15-1.12.29,5.75.21,10.65.23,10.43-.01-1.71-.12-6.11-.08Zm-42.55-1.04c.41-.08,3.07-.05,3.12-.14-.13-.16-6.49-.04-9.17-.08.02.07,1.85.06,3.04.07.7.23-4.32.32,2.95.29-3.45.19-4.56.11-9.24.06-1.18-.01,3.3-.09,3.1-.07.59-.07-8.76.02-10.74,0-.65-.15,2.24-.14,4.66-.14,4.37-.28,11.15-.44,21.64-.41-.84.06-1.65.12-1.62.21,3.16-.09,2.93-.35,9.31-.28-.51.19.45.31,4.49.29-1.67.42-9.63.25-15.46.35-.06-.2,2.6-.14.11-.29-2.42.03-1.39.23-6.19.14Zm126.13-.9c-.38.1-4.58.02-4.65.14-4.01,0-8.89,0-12.27-.01-5.37-.02-11.84,0-12.19-.23,3.71-.03,3.29.13,7.64.08.02-.07.05-.14.09-.22-4.32-.24-8.88-.03-16.85-.09-1.63-.27,4.8-.11,7.72-.14,2.34-.04,5.36-.1,7.73-.14,7.73-.05,16.03.03,21.49-.05,3.7.17-2.34.13-1.67.36-1.29-.29-12.89-.26-18.34-.16,1.21.2,4.14.33,9.06.37.99-.19-.52-.26-4.52-.22,5.88-.19,10.85.26,16.75.3Zm-162.93.87c-6.19.31-7.73-.15-16.84-.09,6.68.1,2.98.25-3.17.29.99-.34-5.92-.11-9.07-.37,1.07-.05,6.55-.22.08-.22,1.56-.28,7.76-.05,12.29-.06-1.1.17-8.06.05-6.27.35,1.49,0,1.22-.09,1.59-.14,3.57,0,7.15,0,10.73,0,2.48-.01-2.37-.34,4.71-.28,2.97.22-6.27.52,5.94.51Zm208.68-.18c5.42.03,3.69.2,9.17.08.79.28-10.14.1-9.17-.08Zm918.74-3.83c3.69-.16,13.77-.01,19.96-.05-3.69.16-13.78.01-19.96.05Zm-917.15,3.69c-3.07.1-7.2.14-7.81.35-5.32-.02-11.79.02-12.18-.23,3.15.14,10.16.06,13.8.01-.02-.07-1.87-.06-3.04-.07,1.35-.14,6.8-.19,9.23-.06Zm940.3-.07c-.42.13-2.7.16-6.19.14-.21.2,2.5.15-.11.29-5.73.12-12.04.09-18.45.13-9.88.06-20.07.12-30.75.19-2.36,0-4.17-.08-4.57-.08-15.42-.01-30.83.2-46.11.25-2.71-.02-6.33-.05-9.17-.08-1.72,0-4.33.14-6.19.14-2.43-.02-5.24-.05-7.64-.08-10.58.02-23.88.11-35.29.04,1.34-.2-2.1-.19-1.4-.36-6.18.09.37.15-.13.36-11.31.06-16.69-.02-21.55.2-3.51.17-4.27-.07-6.11-.08-3.34,0-6.46.23-10.73,0,1.65.46-4.48.12-7.78.28,3.12.07,4.16.24,6,.37,2.56-.11-.59-.27,3.24-.43,4.85-.03,5.35.13,10.7.08-.03.1-.07.19-.11.29,5.13.03,1.02-.38,7.84-.43.14.13-1.94.15-1.65.29,5.96.06,8.06-.26,12.3-.06,4.34-.16,8.44-.32,16.97-.27-2.19.11-5.35.18-9.28.21,1.47.1,4.03.15,6.05.22,3.36,0-1.41-.15-1.47-.15.85-.11,2.72-.01,4.62-.07,2.38-.07,2.55-.37,7.72-.14,1.5.19-3.36.08-4.65.14-1.31.06.32.27-3.18.29,5.73.29,9.14.1,15.28.16.14-.34-6.14-.06-7.59-.22-1.79-.31,5.18-.19,6.27-.35,5.13.07.71.13,1.4.36,2.76.13,4.05.33,10.62.3-.09.26-5.78.46-7.74.21-4.2.06,4.03.14,1.39.36-3.25.17-7.12,0-10.74,0-1.46,0-3.37.08-6.16.07-7.06-.05-15.2-.11-22.95-.16-3.13.03-4.17.05-6.16.07-10.99-.03-24.56-.13-35.24-.1-4.62.01-7.92-.06-12.23-.08-25.81-.14-52.94-.19-78.06-.43-2.5-.02-3.93-.12-6.08-.15-5.27-.08-10.51,0-16.87-.01-4.88,0-6.89-.13-12.27-.01-4.83.03-3.98-.2-7.58-.22-7.64.13-16.13-.1-24.57.05-2.75.02.01-.28,3.15-.21-5.53-.26-13.77.09-12.36.21-5.59-.08-12.81-.08-13.66-.37-7.33.33-19.65-.25-26.12.12-2.88.06-3.63-.14-4.55-.15-1.07,0-2.57.09-4.62.07-6.68-.06-18.29-.24-27.52-.24-2.22,0-7.59.02-7.73.14-1.79-.01-1.24-.13-1.46-.22-8.42.07-15.13.07-21.46-.02-1.49,0-1.22.09-1.59.14-5.69-.13-8.74.05-12.21-.15-3.39-.04-2.24.14-4.66.14-3.44-.09-10.29-.15-16.82-.16-3.96.02-11.48.05-13.83.06-3.2.05-6.31.09-9.25.14-11.22.05-22.65,0-32.2-.03-9.02-.03-18.49.25-24.54-.02-2.6.02-3.48.13-6.18.14-2.45,0-2.7-.08-4.58-.08-3.49.04-8.49.09-12.32.13-8.68,0-16.89-.13-26.04-.09-2.34.03-2.74.04-4.62.07-2.64-.03-5.08-.05-7.64-.08-1.97,0-4.41.13-6.18.14-.8-.01-2.83-.05-4.57-.08-2.74.03-3.27.04-6.16.07-11.9-.01-24.76-.1-35.27-.03-2.51.02-2.61-.08-4.57-.08-5.56.03-12.75.28-21.49.05-6.05.21-14.94,0-26.1.05.22-.14,5.09-.05,4.68-.21-3.83-.02-4.84.11-6.22.21-2.85-.13-10.1-.06-15.31-.08-3.52-.03-1.78.21-4.67.21-15.55-.01-29.68-.03-42.93-.04-3.54.05-5.96.09-9.26.14-9.63.03-19.45-.09-29.1-.1-2.93.02-6.4.04-9.23.06-2.82-.01-4.49-.12-7.61-.15-2.79-.03-4.74.07-7.69.07-11.32-.05-24.57-.12-36.74-.18-.84-.22,5.95-.02,10.76-.06,2.9-.02,10.03-.33,10.73,0,5.41.04,3.86-.25,9.28-.21-.11.12,1.07.19,2.98.22-.7-.16,5.37-.31,9.23-.06,1.73-.27-5.7-.12-4.46-.36,10.38-.02,14.7-.03,23.03-.05,1.44-.28-6.65-.12-4.44-.44,10.65.17,18.05-.26,26.03.09,3.2-.04,3.3-.11,1.62-.21,3.53-.1,5.7.19,6.13,0,3.62.02-1.83.19-1.64.29,10.83-.16,17.63-.24,29.19-.12-.02-.07-1.86-.06-3.04-.07,5.48,0,19.66-.15,27.6.02,5.41.04,3.87-.25,9.29-.21,1.84.11,5.22.14,9.14.15,2.6.03,2.91-.05,3.12-.14,3.39.03,8.25.17,9.22-.06-1.07-.16-8.59-.04-12.23-.08.5-.19-.44-.31-4.49-.29-1.25.01-1.55.07-3.09.07.97.07,3.49.08,2.99.22-37.97-.06-54.57-.09-90.44-.15-1.81-.1-.56-.11.08-.22-9.79,0-18.09.06-26.08-.02-1.67.02-1.1.14-3.13.14-4.21-.05-8.56-.08-7.52-.37-4.09.08-4.79.06-3.18.29-1.55-.05-1.52-.17-4.55-.15.72-.26,6.59-.27,9.37-.42,5.63.14,5.48.1,13.78.08,2.28.26-5.23.04-4.68.21,3.01.17,12.09.03,7.74-.21,5.98.08,8.97-.15,12.27.01.66.15-2.24.13-4.65.14,2.13.19,9.85.05,9.25-.14,7.74.08,16.58.1,26.07.02,4.32.04,6.46.18,10.65.23,1.68-.02,1.1-.14,3.13-.14,14.3.06,32.74-.07,44.44.11,1.48.24-4.8.11-7.72.14,5.35.26,11.23-.09,13.88-.2,19.24.18,33.49.15,52.11.12,1.09.14,4.55.05,1.45.22,4.79.09,3.77-.11,6.19-.14,12.13.11,25.8.15,36.78.1,5.72-.02,12.93-.04,18.42-.06,4.74.03,7.99.05,12.24.08,2.41-.02,5.26-.04,7.69-.07,2.37,0,3.51.14,6.08.15,2.11-.01,14.62-.1,18.46-.13,1.6-.03,1.15-.14,3.12-.14,3.69.11,5.13.1,10.71.08,5.12-.01,6.48.17,9.22-.06,4.86,0,5.06.2,10.68.15-.22-.08-2.77-.06-4.57-.08,1.72-.28,5.77-.07,9.22-.06,19.18.01,36.39-.07,59.81.05,7.21,0,20.44.02,30.66.03,2.76,0,3.2.08,6.11.08,6.15-.01,13.79-.2,16.84.09,1.38-.17,15.49-.23,18.46-.13.68.02-3.56.1-4.63.07-.54.13,8.54.14,6.16-.07,2.43.13,6.34.18,12.21.15,0-.07-1.85-.06-3.03-.07,6.22-.16,18.9,0,27.63-.05,5.65.19,11.99.35,22.88.31-.9-.15-7.74-.03-6.02-.29,8.81.08,10.24-.19,19.98-.13,5.72.04,11.74.16,18.35.16-.28.08-2.82.06-4.63.07,3.26.2,10.22,0,6.22-.21,3.5-.02,5.76.02,6.08.15,9.1-.2,23.94-.02,35.32-.11-5.28.21,6.48.3,9.15.15-.86-.26-7.83.19-6.08-.15,14.74.01,32.65.03,42.92.04-.47.12,1.4.13,1.46.22,1.59-.07,3.15-.14,4.67-.21,6.61,0,13.52.01,19.94.02,11.11-.04,23.1.09,35.24.1,2.86-.02,6.37-.04,9.23-.06,12.87.01,35.72.03,52.14.04,5-.05,9.19-.09,13.86-.13,9.97,0,19.39.02,29.13.02,12.19-.04,24.08-.08,35.32-.11,2.75,0,3.2.08,6.11.08,3.03-.03,4.25-.05,6.16-.07,4.01,0,8.39.18,12.29-.06,18.7.02,21.16.02,39.87.03.14.13-1.93.15-1.64.29-4.09,0-8.18,0-12.27-.01-3.33-.02-.8.25-1.68.36,3.38.04,2.25-.13,4.66-.14,3.87-.01,1.36.12,3.01.15,2.56.05,4.12-.07,4.63-.07,3.81.01,4.38.29,7.61.15Zm-798.93-.6c-3.08.01-6.08-.33-9.17-.08,3.08-.01,6.08.33,9.17.08Zm-64.82,1.03c-2.87-.08-7.21-.1-10.68-.15-.98.26,7.98.44,9.06.37-4.42-.04,2.4-.11,1.62-.21Zm15.03.8c.04-.1-2.49-.17-5.3-.2-2.8-.03-5.87-.02-6.91.05,3.33.08,6.19.19,12.21.15Zm52.22-.17c-3.46-.05-12.79-.2-13.83.06,5.32-.12,9.2.12,13.83-.06Zm38.95-1.55c-2.05-.16-13.75.06-10.79.13,1.35-.15,9.77.04,10.79-.13Zm103.8,1.31c-4.05-.08-7.79-.08-10.76.06,3.33.04,9.84.18,10.76-.06Zm46.06-.11c-.39-.17-4.18.08-4.66.14,4.61,0,9.2,0,13.8.01,1.55-.26-6-.11-9.14-.15Zm185.79-.49c-4.8-.04-6.3.08-7.76.21,3.91,0,7.89,0,7.76-.21Zm7.91-.64c-5.68.07-18.05-.31-19.96.05,5.85.09,2.34.04,4.62-.07,4.92-.22,14.55.49,15.34.01Zm33.79-.12c-2.89-.13-9.44-.03-9.28.21,5.9.07,6.68-.12,9.28-.21Zm3.01.15c4.49-.01,4.65.17,9.14.15,2.05-.24-7.66-.3-9.14-.15Zm65.31,1.71c-2.05,0-4.1,0-6.13,0-2.57.33,7.82.26,6.13,0Zm23.02-.05c-8.16.09-4.62-.36-12.16-.3.05.23,5.19.24,7.53.37,1.8.23-4.99.05-3.18.29,5.22,0,5.8-.21,7.81-.35Zm48.79.76h6.14c1.31-.27-7.24-.28-6.14,0Zm9.48-.71c-4.39-.02-7.79.01-9.25.14,1.72.02,2.36.08,3.01.15,3.91,0,5.99-.1,6.24-.28Zm79.52.64c3.02.15,4.34.37,9.04.44,2.56-.25-4.29-.23-6.02-.29-.49-.02.44-.12.05-.14-.18,0-2.7-.07-3.03-.07-1.97-.06-4.07-.03-6.11-.08-1.62.22,3.37.13,6.08.15Zm-10.81.21c-2.55,0-5.11,0-7.67,0-2.43.22,9.93.23,7.67,0Zm-13.61-.52c1.18.36,7.95.05,10.63.3-.41-.17,4.46-.08,4.67-.21-5.79-.1-8.51.02-15.31-.08Zm-12.52.64c3.83.1,4.42-.11,7.73-.14,1.6-.01,8.14.25,7.69-.07-2.88-.11-15.66-.08-15.43.2Zm-24.48-.16c3.75-.04,7.92-.06,7.78-.28-3.75.04-7.91.05-7.78.28Zm157.27-2.1c-.59-.14-.44-.31-4.5-.29-2.76.15-3.54.21-1.69.43,4.16.06,3.14-.14,6.19-.14Zm21.63-.41c-1.72-.02-2.36-.08-3.01-.15,1.63,0,3.91-.03,1.56-.07-3.37.16-5.2-.06-10.73,0-.65.31,5.51.2,9.14.15-.51.12,1.99.2,3.04.07Zm-929.49-.14c-7.45,0-8.62.16-15.44.27-4.18-.12-7.39-.28-10.58-.44,3.25-.26,10.54-.32,17.04-.42-2.58.14-5.24.28-10.85.28-.53.19,2.03.24,6.05.22,1.2-.36,19.4-.77,21.55-.2-3.81-.01-4.7-.14-7.67,0,6.28.34,18.4-.13,22.95.16l.11-.29c-5.76-.06-7.37.08-12.29.06-2.97-.42,14.6-.36,15.38-.13,4.33-.08,8.01-.08,12.27.01-1.44.13-5.69.11-6.25.28-2.88-.01-.97-.24-4.51-.22-2.22.01-.62.21-3.16.21.44.1,3.83.06,6.12.08-1.87.31-8.61.34-13.94.35-5.08,0-11.13-.24-16.79-.23Zm1.18.94c-1.54,0-3.06,0-4.6,0,3.81-.17-2.24-.14-1.4-.36,4.84,0,5.2.19,6,.37Zm26.23-.41c5.92.05,5.45,0,9.18.08,0,.01-.2.03-.51.04-.31,0-.76.02-1.27.03-1.04,0-2.4.01-3.68.02-2.57,0-4.84-.05-3.72-.17Z"/>
</svg>