<?xml version="1.0" encoding="UTF-8"?>
<svg id="Layer_1" data-name="Layer 1" xmlns="http://www.w3.org/2000/svg" viewBox="0 0 334.13 396.7">
  <defs>
    <style>
      .cls-1 {
        fill: #064e68;
        fill-rule: evenodd;
        stroke-width: 0px;
      }
    </style>
  </defs>
  <path class="cls-1" d="M93.98,9.43c-.03.13-1.72.08-1.3.26h-1.88c-.32-.1,2.47-.16.66-.2.21-.09,1.58-.05,2.52-.06ZM102.21,8.98c-.17.07-1.25.04-1.28.13-1.29.07-.88-.12-1.23-.14-1-.05-3.69.1-3.11-.14,2.62-.03,4.24.05,5.62.14ZM93.96,9.57h3.13c-.04.21-3.72.27-3.13,0ZM129.23,8.64c-1.5.09-1.19.14-3.15.06-1.16,0-.42.22-1.3.26h-6.27c-1.98-.07,1.13-.1,1.89-.07-.17-.16-2.15-.13-1.82-.34-1.16,0-.42.22-1.3.26-3.65.05-4.1-.23-5.58-.41-1.86.09-3.89.08-5-.08,2.85-.14,7.17.14,10,.22-.39-.07-1.43-.07-1.22-.2,2.29.03,4.95.02,4.97.28,3.51.16,5.85-.21,8.81-.18-.16,0,.4.21,1.23.14.14-.19-2.1-.13-1.19-.4,2.01.14,2.78-.06,4.4-.06,1.14,0,1.91.14,3.75.07-.03.06-.78.05-1.27.06-2.12.17-1.64.63-5.13.66,1.57-.08,1.24-.36,2.59-.46-.09-.08-1.13-.06-1.87-.07-.47.16-.79.19-1.33.46-1.34.03-1.18-.1-1.22-.2ZM106.5,9.52c.4.23-2.24.23-3.16.13.12-.15,1.6-.14,3.16-.13ZM120.3,9.55h-1.25c-2.01.05-1.92-.11-3.11-.14-5.52-.06.93-.02,1.9-.13.72.1,2.59.08,2.46.27ZM110.87,9.67c-1.32.03-1.65-.05-2.49-.07.75-.12,3.33-.04,2.56-.33,1.39.03.43.35-.07.4ZM103.46,8.99c-1.73-.03,0-.21,1.28-.13-.51-.17-4.37.01-4.99-.14,1.46-.14,2.22.03,4.4-.06.17.16,2.16.13,1.82.34-1.18.06-2.06-.2-2.51,0ZM90.28,9.09c-.69-.29,5.17-.28,4.39,0-1.76-.07-2.6-.07-4.39,0ZM7.56,319.64c-.22-.68-.11,1.93-.14,3.11-.12-.52-.2-2.98,0-3.13,0-1.17-.22-.42-.26-1.3.12-1.47,0-3.54.08-5,.01-.25.18.23.2.03.05-.4-.04-4.41.14-2.48.06,2.54-.11,2.77-.21,3.73,0,1.6.03,2.99.13,3.78.28-.78,0-2.06,0-3.76.32-2.03.03-11.41.23-15.64.07,9.07.02,20.79-.06,29.46-.19-1.52.08-7.28-.12-8.8ZM8.39,339.85c.29.83.08,3.43.19,5.05.07.99.05.62,0,2.51-.48,1.09-.18-6.98-.19-7.56ZM8.6,334.24c-.05-.44-.18-1-.2-.04-.04,1.28.12,1.52.13.65.2,1.19-.08,2.97,0,5.01l-.13-.02c-.04-4.79-.26-9.35-.24-13.21,0-2.08.21-2.37.08-5.01.09-.74.11-.22.2.04.18-.56.16-3.14.21-4.98.26-.55-.08,5.14.13,3.78.21,1.25-.2,1.83-.27,2.46.1,1.57-.12,1.55-.14,1.86-.03.67.03,1.9,0,2.51-.02.29-.2.05-.14,1.23.01.66.08.29.13.02.17-.78.01-1.33.14-3.11,0-.11.12.91.13.65.06-1.08-.11-3.65.14-3.11-.03,5.07-.11,7.64-.15,11.26ZM8.4,332.95c.03-1.19.19-1.1.14-3.11-.2-.78-.29,2.59-.14,3.11ZM98.49,8.71c-2.58,0-2.46-.27-5.61-.21,1.77-.21,3.47-.19,5.02,0,1.28-.16,4.11-.29,5.65-.06,1.45.15-1.64-.06-3.14,0-1.29.02-1.28.18-1.93.26ZM8.76,352.45c.04,2.45-.32,5.56-.34,1.82.22,2.18.11-2.2.34-1.82ZM8.31,347.36v3.14c-.21.93-.2-4.13,0-3.14ZM88.33,9.49h1.88s-.04.27-.04.27h-1.88c1.07-.13-.05-.09.04-.27ZM8.84,314.84c.17.46.14,2.87.33,3.19-.03,4.36.04,9.78-.09,13.15-.16-3.78.04-8.27-.04-11.92-.04-1.93-.18-2.51-.19-4.42ZM10.55,113.21c.35,2,.21,5.5.18,10.06-.22-.55-.03-3.09-.06-5.03-.02-1.98-.14-3.27-.12-5.04ZM136.07,8.98c-2.7,0,1,.29-1.93.26.39.07,1.43.07,1.22.2-1.18.06-2.01-.05-3.13-.07-1.06-.03-3.67.08-3.11-.14,1.46-.02,2.4.02,3.12.07,1.35,0,.13-.23.03-.2.46-.13,2.82,0,1.93-.26,2.89.17,3.51-.14,5.64.01-.34.05-.67.11-.66.2-.9-.04-3.25.07-3.12-.07ZM9.12,302.98c.18.98.11,2.73,0,3.76,0,.61.08.5.13.65-.14,1.45.06,2.98.06,4.4,0,.72.07,2.82-.14,2.49.09-2.66-.18-4.12-.19-5.68,0-1.98.17-2.95.14-5.62ZM210.18,390.03c.85.27-5.71.44-5.03.06,1.24,0,.77.18,2.49.14,1.49-.02-.67-.18-1.22-.2-2.71-.03-1.6.37-4.44.32.47-.23,2.74-.47,5.09-.46,1.53,0,1.48.14,3.11.14ZM158.18,389.73c-1.52.03-3.98.16-3.74-.14,1.19.03,1.1.19,3.11.14.51-.23-2.53-.09-1.82-.34,1.67.04,6.02.27,5.02.01.94-.18,3.43.03,3.1.21-.73.03-1.81-.04-2.51,0-.36.02-.53.13-.65.13-.76.02-1.72-.02-2.51,0ZM167.44,390.61c-1.92.15-6.47.01-9.41.05.85-.11,1.7-.22,1.33-.46,2.12-.06.94.21,1.2.33,1.67.06.77-.13,1.29-.2.34-.04,1.48-.07,1.26,0,.31-.1.22-.18-.58-.27-.38-.04-.78.06-.64.06-.62-.04-2.49-.3-3.73-.21.73-.16,3.23-.17,3.76,0,3.35.02,3.15-.2,6.28-.05-.1.17-2.12.13-3.79.13l-.03.2c2.46,0,2.54-.22,5.02-.06.74,0,.55-.12.66-.2,1.72-.05,1.24.14,2.49.14,1.78.02,1.26-.22,3.78-.13-.06.22-1.83.25-3.81.26-2.26.14-1.93.25-2.58.46-2.4.09-.07-.3-2.47-.2-.79.01-.66.13-.02.13ZM202.15,389.28c.9-.11,1.21.06,2.5.07,1.19.01,1.87-.08,2.52-.06,1.68.04,2.68.2,4.35.21-1.7.36-4.38-.17-6.91.05-.55-.12-1.37-.21-2.46-.27ZM193.34,389.46c-.28-.13,2.91-.21,3.15-.06,1.52-.08,2.35-.24,5.05-.19-3.19.1-1.13.28,1.2.34-2.76.35-5.3-.13-8.79.05.11-.08-.12-.12-.61-.13ZM137.49,389.69h1.88c-.38.16-.59.34-2.57.33-.48-.19.91-.17.69-.33ZM137.97,390.56c1.19.03,1.1.19,3.11.14.65-.04.68-.15,1.91-.13-.07.09-.14.19.59.2-1.56.07-5.45.14-5.61-.21ZM144.22,390.7c.72-.27,2.98.03,5.65-.06-1.16-.29,4.23.05,6.29-.12.43.29-3.28.17-5.05.19-2.56.03-5.4.13-6.89-.01ZM143.02,390.37c.03-.06.78-.05,1.27-.06.05-.11-.44-.17-1.22-.2-.09-.09,3.64-.08,1.29-.2.32-.24,2.2.06,2.5.07.74.03,1.8-.03,2.51,0,.3.01.36.12.61.13.93.05,2.2-.04,1.85.14,1.11.02,3.15-.06,2.49.14-1.6-.1-3.82-.07-5.62-.14-1.11-.05-2.16-.41-3.73-.14,1.09.13,4.13.06,3.7.34-3.14.05-3.03-.24-5.63-.08ZM210.28,389.43c-.38-.06-.74-.12.03-.13,2.63-.05,8.68.06,13.16.03,2.28-.04,2.25.12-.01.07-4.43.05-9.02.14-13.18.04ZM146.93,389.51c1.19-.1.8-.36,3.19-.33-1.89.09,1.59.35-1.31.33.37.14,3.16.03,2.46.27-2.35-.2-5.32,0-8.75-.15,1.66-.17-1-.05-.58-.27,2.87-.08,2.43.19,4.99.14ZM148.3,388.84c-2.04-.16,4.47.05,4.41-.12,1.75.11,2.68-.07,4.38.07-2.32.04-5.55.25-6.93.19,2.12-.13.53-.14-1.86-.14ZM192,389.99c1.29.04,1.43-.13,1.9-.13,1.6-.01.75.18,2.48.2-1.49.21.17.35-2.58.39-.42-.2,1.11-.19.7-.4-1.62-.04-3.59.23-1.94.33-.13.08-.64.04-.63,0h-1.26c-.43-.21,1.74-.13,1.31-.33-2.78.06-3.34.18-5.65.06.07-.2,1.47-.24,2.56-.33,2.05,0,1.66.16,3.1.21ZM266.71,389.47c-1.17-.13,5.04-.03,6.91-.05-1.11.3-4.26,0-6.91.05ZM242.03,390.75c1,.12,2.59.17,4.99.14-.27.21-4.35.21-4.4.06-.26.15-2.52.08-3.17.19,1.94.21,6.07-.03,6.91-.05-.12,0,.1.13-.02.13,1.33-.05,1.93-.16,2.55-.26,1.07,0,1.61.05,1.86.14,1.58-.03,3.47-.1,4.4-.06,2.4-.09.07.3,2.47.2.88-.02.07-.12-.61-.13.5-.15,3.52-.02,5.03-.06-.78.09-2.41.1-3.17.19.11.05.62.07.6.13,1.41-.03,2.02-.14,3.17-.19-.61.22,4.78.18,6.23.21-1.2.07-2.22.16-3.79.19.18.09,1.56.06,2.5.07-2,.19-9.29.26-13.21.24-1.06,0-1.18-.03-1.23-.14-.66.03-.48.11-1.28.13-1.32.03-.98-.14-1.23-.14-.78,0-1.07.11-1.9.13-1.35.02-3.23-.14-4.99-.14-2.8,0-5.34.08-8.16.05-2.48-.03-4.81-.17-7.49-.21-1.06-.02-1.64.06-1.89.06-4.18,0-8.24-.25-11.91-.02-.45-.06-1.12-.1-1.86-.14.52-.15,3.88.02,3.18-.26-1.81.09-3.68.18-5.07.32-2.93-.23-8.38-.05-12.51-.16-1.51-.04-1.36-.14-2.48-.2-1.56-.1-3.8-.03-4.35-.21.52-.31,3.63-.06,5.03-.06,1.93,0,4.21,0,5.64.01.67.01,1.27-.06,1.27-.06.47.01,1.68.14,1.85.14.75-.01,2.23-.04,3.15-.06,2.21.02,2.87.08,5.03-.06.14.2-2.56.24-.06.33.93-.03-.23-.09.03-.2,1.39-.07,3.47-.07,3.8-.26,4.9.12,8.14.05,11.88.22,2.41-.05,4.18-.17,5.08-.39,1.55.06,3.34.09,5.63.08l-.05.27c1.64.02,2.7-.02,2.54-.19ZM219.43,390.91c.12.07.68.11,1.23.14.03-.31-1.76-.13-3.74-.14.55.12.16.33,1.19.4,1.37-.15-.77-.29,1.32-.4ZM223.8,391.05c-1.97-.04-1.69.18-3.17.19,0-.07-1.08-.09-1.26,0,2.35-.07.95.25,3.1.21-.63-.25,1.59-.19,1.33-.4ZM228.16,391.19c-.27-.19-2.35-.2-3.72-.27-.55.19.85.17.57.33,1.51.03,1.38-.12,3.15-.06ZM255.05,391.64c.49.02.72.06.6.13,1.53-.03,3.23-.05,3.18-.26-1.8-.02-3.19.01-3.78.13ZM236.28,391.41c-2.01.07-6.15-.17-5.02,0,.75.06,6.46.14,5.02,0ZM238.24,390.95c-.37-.39-6.4-.04-6.93.19,3.59.08,3.02-.3,6.93-.19ZM8.62,356.82c-.05,2.13.27.84.19,3.17-.2-.25-.16-2.61-.46-1.96.02-1.1.12-1.41.27-1.21ZM326.78,390.25c-.85.28-3.12-.01-5.65.06-1.5-.13,4.14-.04,5.65-.06ZM211.42,390.1c2.39-.09,1.17.18,3.12.14-.91.21-3.08-.1-3.77.06-2.12-.07,1.75-.02.66-.2ZM215.71,390.7c.32.15-1.21.09-1.29.2-1.76-.07-2.6-.07-4.39,0,1-.31,2.81-.11,5.68-.19ZM229.74,389.33c.83,0,1.67,0,2.51,0-.34.05-.68.11-.66.2h1.25c.79-.01.65-.13.02-.13.8-.2,2.39.05,3.12.07.1-.12-.74-.14-.58-.27,1.49.23,3.29.18,6.25.15-.22.16-2.98.03-2.55.26-.19,0-.65-.03-1.07-.06-.42-.04-.78-.07-.78-.07-.4,0-.65.13-.65.13-1.36,0-2.71-.07-5.64-.01.02-.13-1.7-.09-1.2-.27ZM147.32,9.2c.1.2-2.28.23-3.16.13.12-.15,1.6-.14,3.16-.13ZM225.25,389.92c2.59,0,4.53.28,5.65-.06,2.35-.07,1.76.17,3.74.14,2.43.06,3.29-.24,5.03-.06-.6.13-2.63.17-5.05.19-3.14.03-8.82.09-9.37-.22ZM223.98,389.99c-.57.53-5.39.03-8.19.25.77-.3.38-.08-1.22-.2,2.22-.33,6.09.19,9.42-.05ZM228.89,390.6c1.12,0,1.34-.07,2.52-.06.96.26-2.71.02-2.54.19-2.97-.07-5.66-.16-9.38-.15-1.01-.19,7.65,0,9.4.02ZM323.85,385.32c-1.64.28-2.3.68-5.16.86-.44.03-2.17.01-3.15.06-.97.05-3.44.25-5.67.12-1.31.04-2.05.14-3.17.19-9-.07-14.72.11-20.69-.04.47-.06,1.16-.1,1.91-.13-.4-.21-1.66-.09-3.12-.07-.43-.21-3.67-.36-4.97-.28,1.78.2,3.61.4,5.57.41-2.48.16-4.62-.06-7.53.05,1.12-.22-1.81-.23,1.3-.26-.86-.09-3.07-.15-3.75-.07.09.21,2.45.19,1.8.47-1.05,0-2.09,0-3.13,0,4.06-.08-.67-.44-2.46-.27-.09.1,1.37.03,1.87.07,1.46.12-3.49.02-5.04.12-.4-.07-1.43-.07-1.22-.2-1.92.16-4.77-.12-6.86-.21,3.24-.1,7.1-.12,7.61-.52.67.02.4.13,1.23.14,1.89-.04-.58-.14.04-.27,2.35.06,3.01-.08,5.03-.06.6.2-1.42.12-2.53.13-.62.31,4.4.16,5.02,0,1.98-.03,1.38.21,3.74.14.65-.07,1.29-.13,1.92-.2,0-.15-2.02,0-1.88,0-.82-.02-.96-.13-1.86-.14-1,0-2.85.11-5.02,0,5.5-.05,11.3-.11,16.96-.17-.8.28-.76.47-.11.67,1.91.05,1.86-.11,3.77-.06,1.71-.06-1.65-.13-.57-.33,1.05,0,2.09,0,3.14,0-.21-.3-1.95-.26-4.35-.21,1.57-.26,6.45-.15,9.45-.25-.34.05-.67.11-.66.2,1.56.01,1.96-.1,3.16-.13-.27-.06-.53-.12-1.23-.14,2.67-.2,7.47-.17,11.33-.24-.72.09-.7.16.59.2,1.38.05,2.63-.24,1.3-.26.1-.15,2.66-.02,3.77-.06,1.61.21,1.8.56,3.64.74ZM279.22,385.97c.1-.21-4.66-.3-5-.08,1.75.1,2.57-.02,5,.08ZM290.51,385.92c-1.87-.18-2.6-.18-1.79-.54-3.22-.08-.98.39-1.95.4-.92-.17-5.84-.21-5.67.12,1.96.08,1.54-.1,2.53-.13,2.52.08,4.7.39,6.87.15ZM303.75,385.55c-2.48-.12-3.1.02-4.4.06-.88.03-4.02-.08-3.16.13.13.14,2.75.02,3.11.14.89-.32,2.9-.15,4.45-.32ZM302.43,385.95c-.22.17,1.28.17,2.47.2.67-.22-.83-.22-2.47-.2ZM306.9,385.42c-1.57-.01-1.98.1-2.54.2.85.02,1.18.1,2.5.07l.04-.27ZM308.82,385.23c-.52.05-1.76.46.55.4.96,0,1.46-.49-.55-.4ZM317.64,384.98c.66,0,.51-.08-.62-.07-.2.22.69.32,2.45.34.58-.21-2.06-.09-1.84-.27ZM20.43,388.53c-1.55-.08-4.89.02-4.98-.21,2.75-.04,3.51.12,6.26.08-.17.07-1.26.04-1.28.13ZM18.59,388.26c-2.1-.15,2.92-.29,3.79-.13-.71.14-3.06-.11-3.79.13ZM39.3,388.17c-.31.14-5.5.47-7.54.12-1.18.05-2.31.11-3.78.13-.11-.06.26-.06.64-.07.13-.06-.23-.06-.61-.07,1.95-.29,8.23.31,8.18-.18,1.78-.05,1.61.1,3.12.07ZM13.55,388.39c-.38,0-.72,0-1.02-.01-.21,0-.39,0-.56.01-.34.01-.62.04-.9.06-.57.05-1.18.09-2.21.06.32-.28,2.79-.15,3.54-.32.86.06,3.66.27,1.75.4.03.21,2.48-.2,2.51,0-.07.13-.78.18-1.67.18-.45,0-.93-.01-1.41-.02-.45-.02-.89-.03-1.26-.04-.16-.11-.02-.16.29-.2.35-.04.81-.07.95-.13ZM30.41,388.82c-3.99-.03-5.74-.05-10.02-.09.57-.3,3.07-.39,6.34-.39.96.26-2.71.02-2.54.2,1.9.23,5.25-.07,6.22.28ZM164.58,388.94c-.11-.11,1.1-.17.04-.2.97-.2,2.8.05,2.48.2h-2.51ZM8.43,385.78c.03.86-.04,1.65-.05,2.9.47,0,1.02,0,1.69-.04-.19.11-1.26.08-1.79.14-.02-.17-.06-.23-.12-.08.07-1.18.03-3.05.27-2.92ZM9.21,361.94c.15.54.21,6.5-.02,8.15-.25.52,0-1.13,0-1.88.02-1.79-.07-4.7.01-6.27ZM37.32,388.77c3.98,0,.51-.43,4.46-.39-.39.18-2.02.23-1.96.46-2.58,0-5.52.16-6.25-.14,1.89.05,5.31-.2,3.75.07ZM9.32,373.24c.15,1.51.01,5.63.05,8.16-.13-2.87-.15-5.71-.05-8.16ZM8.71,380.04c-.12,1.61.03,1.89-.07,3.75-.14-.2-.06-2.35-.19-2.54.05-.84.14-1.14.27-1.21ZM8.54,363.7c.17.22.22-.83.2-2.47.3,1.5-.04,5,.12,7.55-.09.61-.25.55-.27,1.83.04,1.88.14-.58.27.05-.05.55-.07,1.4-.07,2.49-.13.58-.22-1.91-.27-.04-.09-.24-.22-3.23-.06-3.77,0-1.25-.18-.83-.13-2.53.14-.27.13.92.13,1.9.11.19.12-.57.2-.59-.1-2.33-.39-3.05-.39-6.33.3,1.62.13-.87.07-2.5.12-.06.14.79.26.67.04,1.93-.12,1.83-.07,3.75ZM9.49,386.22c-.07.39-.08.88-.07,1.41.63-.02,1.34-.04,2.03-.05.3,0,.47.02.65.03.2.02.27.04.94.04,1.13,0,1.33-.07,2.52-.06,4.85.03,11.36.06,17.55.03-.23.37-4.2.11-5.67.12-1.82,0-2.92.18-4.4.06-.79.01-.65.13-.02.13-.66.17-2.77-.06-2.47-.2-2.69.04-5,.03-7.14.02-.74,0-1.45,0-2.15.01-.57.01-1.14.03-1.74.07-.09,0-.19-.02-.28-.03.06-.68.09-1.41.24-1.59ZM170.25,388.82c-1.62-.18,3.76-.23,5.04-.12-.31.19-4.72-.07-5.04.12ZM177.49,390.5c-1.2-.02-2.47-.18-3.74-.14-.32-.27,4.23.08,3.75.07.51,0,3.05-.03,5.03-.06,1.87,0,3.42.08,5.01,0,.13.12,1.05.15,2.49.14-1.99.19-4.51-.07-7.51-.08-1.91,0-3.38.09-5.03.06ZM172.07,389.22c.43.21-2.18.08-1.31.33-1.07,0-1.61-.05-1.86-.14,1.12-.06.84-.27,3.17-.19ZM168.89,389.42c-1.78-.02.68.44-1.94.33-.79-.17,1.88-.27.06-.33.21-.15,1.72-.15,1.88,0ZM171.22,390.49c1.91-.01,2.4.22,3.75.07,2.02.07-5.18.31-3.75-.07ZM69.57,387.16c2.6-.01,2.43.09,4.39,0,0,.38-3.74-.08-3.19.33-2.12.06-.94-.21-1.2-.33ZM138.55,387.16c3.37-.21,7.81.04,11.29.02,2.76-.02,4.46-.24,6.29-.12.15.19-2.41.1-3.78.13-1.18.03-2.21.11-3.16.13-.92.01-.92-.07-1.24-.07-.71,0-2.5.15-3.13-.07-3.23.11-3.07.11-6.27-.01ZM180.69,390.1c-.55.1-2.04.09-3.16.13-.4-.23,2.24-.23,3.16-.13ZM187.12,389.18c.96.1,2.42.14,3.72.21-2.01.5-7.69.23-11.95.24-.74,0-.55.12-.66.2-1.71-.25-3.39,0-5.65.06-1.97.03-1.62-.18-3.1-.21,2.07-.17,4.41.09,6.91-.05,1.13-.1,1.16-.32,3.19-.33.16.11-.61.11-.66.2,3.7-.1,8.09.23,8.21-.32ZM176.08,387.7c.66-.29,3.06-.27,5.68-.19.73-.13,5.39-.25,5,.08-3.6,0-8.45.18-10.68.11ZM324.59,130.61c-.12-3.01-.03-7.92-.11-11.31.17,3.1.17,7.78.11,11.31ZM4.37,317.84c.22.4.09,2.38.06,3.77-.22-.4-.09-2.38-.06-3.77ZM4.69,322.29v-5.64c.19-.16.24,6,0,5.64ZM4.03,321.55c-.21-.47-.08-1.69-.06-3.15.17.09.15,2.36.06,3.15ZM4.84,283.44c-.15-.3-.02-3.09-.06-4.4.25.61.04,2.53.06,4.4ZM3.43,322.7c.09,4.46-.05,6.62-.02,10.03-.25-.96-.02,2.8-.27,1.83.09-2.05.02-3.99.08-5.63,0-.13.12.13.13.02.06-.53-.04-2.48,0-3.13-.06-.96-.1.16-.26-.67.22-1.5,0-3.31.14-5.62-.01-.71-.07-.36-.07,0-.2-.65.08-1.66.07-2.5.15-.24.16,3.8.26,1.93.16,1.21-.11,3.16-.27,1.83.07.59.02,2.32.2,1.91ZM4.8,335.48c-.24-.48-.08-4.58-.12-6.92.28,1.35-.04,4.41.12,6.92ZM3.92,273.25c.17.14.21-.93.27-1.83-.05-.6-.12-.97-.2-1.29.02-1.47.11-2.33.08-4.38.16,1.53.21.31.33,1.94-.1,2.45-.08-.13-.27-.05.03,2.2.3,2.18.19,5.68-.37-.25-.19,1.17-.21,3.73-.29-.08-.33-2.36-.32-5.07.11-.21.12.51.13,1.28ZM3.81,333.43c.13.72-.09,3.35-.01,5.64-.21-.2-.03-4.1.01-5.64ZM2.89,327c-.14.08-.03-2.23-.06-3.14.26.3.17,2.18.06,3.14ZM3.81,261.31c-.08-1.1-.22-1.68-.19-3.8.2.01.16,2.23.19,3.8ZM3.91,243.77c-.04.5-.07,1-.07,1.87-.08-1.1-.22-1.68-.19-3.79.14.21.13,1.72.26,1.93ZM4.8,337.99c-.05,8.56-.06,10.86-.1,19.42-.1,1.95-.06-2.27-.06-3.77,0-4.59.02-11.88.03-16.93.11-.21.12.51.13,1.28ZM3.76,218.04c-.02-2.71.17-2.39.34-1.82.02,1.91-.22,1.26-.34,1.82ZM3.02,189.69c-.02-1.64.03-2.69.2-2.47.02,1.64-.03,2.69-.2,2.47ZM3.04,214.15c-.11-3.66-.04-8.41.09-12.53.04-1.97-.2-1.45-.13-3.78.05.13.06.64.13.65.08-3.38-.07-4.67-.12-6.92.33.86.32-1.53.41-3.07.31,1.57,0,5.71-.15,6.87.25.45.5,3.33.39,5.08-.18.24-.06-2.35-.19-2.54-.21.58.03,2.12.06,2.52-.07.6.08,2.98,0,3.76,0,.07-.13-.09-.13-.02,0,.8.11,1.45.13,2.53.02.97-.07.88-.07,1.25-.01.85.15,1.64,0,3.13-.02.28-.05.98-.07,1.24-.09.76-.34-1.4-.34,1.83ZM3.24,211.68c-.05-2.83.36-4.92-.12-5.04.02,1.89-.08,4.86.12,5.04ZM4.81,263.99c.23.37.1,3.04.06,4.4-.15-.3-.02-3.09-.06-4.4ZM4.48,262.68c.15,1.3.01,5.21.05,7.53-.15-1.3-.01-5.21-.05-7.53ZM4.97,177.48c-.22-1.22-.04-2.54-.06-5.03.12-1.65.04,3.68.06,5.03ZM4.93,198.8c-.11-2.24-.05-5.43-.05-8.79,0-2.84.05-12.96.08-7.51,0,4.14-.02,11.75-.03,16.3ZM20.36,7.23c1.64.3-4.83,0-6.92.12,1.33-.15,3.69-.26,5.03-.06.89,0,1.77.01,1.9-.06ZM29.73,7.45c-2.28-.05-4.54-.1-7.51-.08,1.66-.15,7.25-.2,7.51.08ZM34.02,7.99c1.56.01.15.23-.05.27-1.56,0-1.92-.11-3.11-.14.53-.18,2.92.15,3.15-.13ZM4.62,362.41c.12,1.82.08,7.58-.02,9.4-.16-3,.02-7.42.02-9.4ZM3.62,187.91c-.58-.37-.56-5.57-.31-9.46-.02-.88-.12-.08-.13.6-.2-1.82.1-4.08.14-5.62,0-.77-.08-.29-.07-.01-.08-1.47-.06-5.58.08-6.88-.1-.95-.01-3.58-.26-3.18.2-2.44.1-5.28.08-8.77.09-1.5.34-1.38.34-3.7-.13-1.54-.15,3.46-.4,1.18-.02-1.26.02-1.96.14-1.86-.03-4.26.1-9.92-.04-13.17,0-1.37.06-1.98.2-1.85-.24-.94-.24-4.49-.12-7.54-.17-.69-.12-3.43-.19-5.05.14-.27.13.92.13,1.9.2-1.59-.09-3.94.08-5.63-.01-.71-.07-.36-.07-.01-.25-.68.05-1,.07-1.87,0,0,0-2.76,0-3.14,0-1.03,0-2.12,0-3.14.01-.76.14-1.85.14-1.85,0-.71-.17-1.59-.19-2.54-.03-.98.07-1.09.07-1.87,0-.52-.07-.63-.06-1.27.03-2.45.17-4.03.08-5.63-.01-.2-.08.92-.08,1.57-.09-2.81.07-5.79.09-8.47,0-.98-.07-2.03-.06-3.15,0-.35.09-1.38.07-2.5-.01-.87-.1-.14-.13-.65-.07-1.14.06-3.2,0-4.39.12.17.15,1.1.13,2.53.11-2.49.24.89.4-.56-.01-.51-.07-.64-.06-1.26-.04-1.88-.14.58-.27-.04-.11-.51.03-1.36,0-2.51-.02-.23-.12-1.79-.13-1.91,0-.3.21-2.82-.06-2.52-.03-1.4.13-.87.14-1.86.03-1.06-.05-1.19-.13-1.28.14-2.69.2-4.67.01-7.52.08-1.58.19-2.84.21-4.98-.11-.25-.13.47-.14,1.23-.1-1.09.03-2.28-.06-4.4,0-1.16-.22-.42-.26-1.3.1-1.95-.16-2.73-.19-3.79-.02-.59.03-2.07,0-3.13-.11-4.48,0-13.16.04-20.06,0-1.36-.17-3.55.07-4.38.04-1.38-.13-.91-.13-1.9.03-7.08.05-12.68.06-17.83,2.12.03,4.18.07,6.24.1-1.89.09-3.94.07-6.1.04-.03,2.1-.06,4.31.01,6.49.24,1.55.14-3.58.14-6.11,0-.07,0-.15,0-.23,1.25,0,3.04.07,2.89.07,2.44-.02,3.5-.16,5.14-.13,1,.03,2.05.06,3.11.09.89.02,1.78.03,2.62.03,1.7,0,3.22-.05,4.2-.17,5.55.1,10.1-.09,13.77.16,3.64-.24,10.54-.04,15.05.03,1.44-.28,6.26-.05,10.66-.05,3.36-.04,6.59-.08,9.43-.12,3.99,0,7.99.02,11.29.02,3.39,0,6.93.18,9.41-.05,1.62.22,2.99.01,5.01,0,1.03,0,1.05.06,1.87.07,3.47.02,7.8-.1,11.93-.11,2.22.03,4.23.05,6.26.08,1.3,0,2.46-.11,3.78-.13,1.42-.02,2.89.08,4.38.08,2.11-.01,4.25-.17,6.28-.05.61,0,.5-.08.65-.13,1.49.04,2.84.1,5,.08,1.91.15,2.97.39,6.84.35,1.23.2-2.62.31-1.99.66.71.18,3.27,0,4.39,0,.96-.06-.15-.1.67-.27,2.36-.05,1.32.26,3.09.27,2.33.08,1.81-.16,3.78-.13-.1.12.74.14.58.27,2.16.06,2.43-.09,4.4-.06.16.11-.61.11-.66.2,2.31-.04,4.32-.11,5.63.08.75,0,.31-.08.01-.07,1.83-.08,5.97-.05,7.51.08,1.19-.05.47-.2,1.89-.06,1.71-.04,2.96-.13,3.81-.26.84.07.77.23,1.83.27.51-.03,1.03-.07,1.89-.06.04-.16-1.05-.2-.56-.4,1.6,0,.76.05.6.13,1.75.07,1.66-.11,3.15-.06,1.55.05,3.08.55,4.36.14-.13-.08-1.86-.09-1.88,0-1.03-.07-.63-.28-1.18-.4,1.51-.04,2.88-.09,5.02-.06-.28.15-3.43-.02-3.17.19,2.31.16,7.11.02,8.18-.18,2.04.08,5.99-.05,5.6.28,2.33.08,1.81-.16,3.78-.13,1.14.05-.39.07-1.27.06.24.21,3.97.28,1.79.54.82.1,3.54.1,4.39,0-.51-.1-2-.1-3.11-.14,1.03-.1-.93-.38,1.95-.4,2.93.01-.7.1-.05.27,2.12,0,2.76-.22,3.76,0,1.89-.04-.58-.14.05-.27,1.17.12,4.13.06,6.26.08,1.2.1-1.14.28,1.2.33,1.07,0,1.63-.05,1.9-.13-.13-.1-1.87-.03-1.86-.14-.6-.22,1.97-.1,3.16-.13-.53-.25-2.51-.05-4.38-.07,1.1-.35,4.28-.08,7.55-.12-.24.09-1.12.1-1.29.2,4.1-.12,3.98.2,5.59.34.51-.01.64-.07,1.27-.06-.91-.21-2.65-.34-3.03-.6,1.37.06,2.48.14,2.45.34,1.96.03,2.58-.08,3.17-.19.83.05,1.14.14,1.21.27,2.01-.03.77-.15,3.77-.06.97.03,2.51.04,2.49.14,2.32-.04-.23-.2,1.31-.33h-1.88c.66-.13,4.57-.04,3.73.2,2.8-.05,3.75.1,6.26.08-1.48-.14-6.65-.15-4.95-.41,1.77,0,1.43.2,3.1.21.51-.01.64-.07,1.26-.06.1-.12-.74-.14-.58-.27-1.31-.03-1.67.04-2.52.06-1.1-.17,3.88-.12,5.01,0,.06.12-.79.14-.67.27,2.43-.11,6.64-.09,7.5.15,1.23-.12-.5-.23-1.2-.33,3.48-.18,6.44.38,10.64.15,1.94-.05.72.23,3.11.14,2,.06,1.33-.17,2.54-.19,2.99.14,4.91.02,6.86.21.65-.04.68-.15,1.9-.13.86-.06.85-.22,1.92-.26-.68-.08-.52-.14.65-.13.13.2-1.82.4.55.47,1.62-.01-.84-.12.05-.27,2.42.04,3.93-.13,5.66-.12,2.34,0,3.94.24,6.86.21,1.5.03-.29-.3,1.92-.2,1.96-.02.29.08.6.13.38.06,2.02.03,1.85.2,2.54-.07.82-.23,1.95-.4,1.88.09,4.99.1,6.9.01,1.34.14-.11.21-.68.33,1.03.14,3.86,0,6.28-.05-.57.23.37.3-1.95.4.18.09,1.56.06,2.5.07,1.39,0,.31-.28.7-.4.96,0,1.34-.06,1.77-.11.21-.03.44-.05.75-.07.16,0,.33-.01.54-.02.26,0,.56,0,.91,0,1.16,0,.88-.12,1.07-.2,2.6.02,5.1.04,7.51.05,0,1.85,0,3.66,0,5.41,0,.88,0,1.74,0,2.59,0,.67-.02,1.32-.02,1.97,0,.61.08.5.13.65-.04,2.63.03,4.57-.01,6.27,0,.11-.12-.12-.13-.02-.06.53.04,2.48,0,3.13.02.68.13.45.13,1.28.21.81.05-2.02.27-1.21.18,2.85-.39,1.48-.14,4.99-.11.16-.11-.61-.2-.66-.09,1.93.19,3.51,0,4.39,0,.74.12.55.2.66-.12,3.72-.03,6.04.05,9.41-.1-.16-.02-1.87-.13-1.9-.22.76.26,6.92.2,2.54.15.3.02,3.09.06,4.4-.14-.29-.18.4-.27.58.01.71.07.36.07.01.23,1.53-.23,6.05.12,6.92.03,1.98-.21,1.39-.14,3.74.14.32.13-.87.14-1.86.14.64-.02,3.62-.08,4.38.02,1.08.23-.77.2,1.91.03,1.34-.1,1.18-.2,1.22-.05,2.08.15,3.95.19,6.3,0,.37-.06.74-.07,1.24-.01.82.07,1.07.06,1.27,0,1.54-.04,4.27-.01,6.89,0,1.16,0,3.21,0,4.39,0,1.62.17,3.08,0,4.39-.04.28-.12,1.56-.07,2.5,0,.1.13.65.13.65,0,.23-.32,4.35.06,5.03.02,2.47.03,3.87.05,7.53,0,.73.06,2.71.06,2.52-.01.83-.13.96-.14,1.86,0,1.99.22,1.75,0,3.13.07.65.13,1.29.2,1.91.02,9.27.07,18.28.22,26.38-.05.58-.12.93-.2,1.22.32,6.05.27,12.21.36,18.25-.02,1.65.26.54.19,2.54-.21-.33-.27.74-.34,1.82.2.5.13-1.7.34-1.2,0,1.56,0,3.04-.14,3.11.04.85.14,1.19.26,1.3.04,4.35-.01,5.84-.02,10.66-.3-1.75-.35-1.66-.73-2-.03,1.33.09,1.21.2,1.29-.04,1.74-.26,1.71-.4,2.44.12,3.08-.13,5.8.12,7.55.03,1.4-.13.87-.14,1.86.02.68.13.45.13,1.28.05,2.18-.1,2.39-.08,4.38-.14.35-.25.92-.21,3.1.22,1.47.09-5.12.2-1.22.03,1.03,0,2.3,0,2.51.03,1.54.12,1.9.13,2.53.01,1.1-.07,1.33-.07,2.5,0,4.88.12,10.96.04,13.8,0,.74.12.55.2.66-.13,3.02-.05,8.32.18,11.32.03,1.29-.07,2.04-.07,3.12,0,1.16.13,1.52.13,1.9,0,.76-.12.85-.14,1.23,0,.31.06,2.92.06,3.14.01,1.15.09,1.95.06,3.77.09-.18.06-1.56.07-2.5.13-1.5.04,4.14.06,5.65-.16-1.48-.21,1.81-.33-.68-.18.54.17,1.2.06,3.15.15.89.25-1.57.27.05,0,2.48-.1-.22-.2,1.22-.03,1.16.16.79.2,1.29.04.51-.09,3.32.13,2.53.03,3.47-.05,5.9-.08,8.77-.21-.35-.26,1.32-.4-.07-.11,2.41-.12,8.68-.02,11.29.02.54.06.55.13.65.08,5.21-.2,10.97.04,13.8-.06,2.7-.19,6.81.12,6.92-.07,1.7.05,3.25.06,5.03,0,1.21-.08,2.77-.07,3.75,0,.7.12,1.47.13,1.9.08,2.51.03,5.58.05,8.16.02,2.16-.03,6.07.05,9.42.05,2.16.18,3.68.19,5.68.01,2.3-.05,4.58.05,6.91-.2-.49-.24.6-.4.56.05-2.35-.25-1.41-.26-3.18-.18.55.09,1.98,0,3.76-.21-1.59-.59-2.15-.73.5-.02.35.12,1.4.13,1.9.02,1.33-.05,4.35-.01,6.89.03,2.28.2,3.42.06,5.65.23,1.43.15,7.9.24,11.96.03,1.26.15,1.87.19,3.17.12,3.61-.06,7.29-.09,10.64-.26-.38-.28,1.55-.47,1.8-.1,3.46-.54,3.69-.68,6.78-.24-1.3-.26,0-.34,1.82-.32-2.36-.47,1.56-.74,1.76.02-1.01-.06-1.09-.06-1.89-.09.18-.06,1.56-.07,2.5-.16-1.53-.21-.31-.33-1.94-.11-.25-.13.47-.14,1.23-.04-.83-.18-.49-.26-1.3-.02-.18.02-1.12,0-1.25-.1-.66-.3.28-.33-.68-.01-.42.09-.71.07-1.24-.06-1.23-.13-1.77-.33-2.56.06-2.17-.09-2.43-.06-4.4,0-.74-.12-.55-.2-.66.26-3,.22-8.96.55-11.19v-5.01c-.39-.3-.54,1.87-.86,2.36-.05-4.16-.41.35-.6-1.35v-2.51c-.15-.04-.19,1.05-.4.56.04-3.43.05-3.97.08-6.88.14-.35.23-1.17.27-2.46-.02-2.19-.18.02-.2-1.29v-2.51s.27.04.27.04c-.07-2.48.21-4.32-.06-5.03-.1.04.12,3.76-.21,3.1l.04-19.43c-.02-.83-.12-1.01-.13-1.9-.16-.04-.2,1.04-.4.56-.06-3.03-.23-2.74-.12-6.29-.2-.67-.12,1.38-.14,2.48-.06,1.98-.09-1.13-.06-1.89.08-4.33-.16-11.73.22-13.13-.11-1.24-.27-2.07-.19-5.05.1.16.02,1.88.13,1.9.05-.11.07-.62.13-.6-.04-1.5-.08-2.94-.26-3.18-.05-4.38.19-7.77.02-11.29.19,3.24.16-2.61,0-3.13,0-3.93.06-8.52.02-11.91-.09-9.16.22-20.92-.08-27.6.05-1.11.12-.07.2.03,0-.73.02-1.11.07-1.24,0-1.79-.12-1.52-.13-3.16,0-1.11.14-2.63.14-3.74,0-1.33-.16-1.68-.13-3.16,0-1.37.06-1.98.2-1.85-.08-1.36-.28-1.55-.19-4.42.07.17.04,1.25.13,1.28.12-.73,0-2.63.07-4.38.02-.2.13-1.14.14-1.23.07-4.56-.1-9.66-.04-12.55-.05-.59-.12-.97-.2-1.29.25-2.4.07-6.83.02-10.03l.2.03c-.05-1.4-.03-3.41-.19-3.79.07-1.91.18.75.27.67.01-2.16-.12-2.97-.19-4.42.07-2.73.04-6.53-.12-8.8.05-.91.09-1.57.14-2.49-.28-8.92-.37-19.26-.21-29.51-.07-1.52-.13-3.04-.19-4.42.05-2.49.15-4.46.15-7.5l.27.04c-.11-2.27-.39-6.14-.12-8.17.18.77,0,3.27,0,4.39.06,1.55.29,1.45.26,3.81.09-.4.13-1.32.14-2.48.1,2.03.41,1.01.53,1.97.28,2.3.09,5.58.25,8.82-.03,1.19-.03,2.69-.2,2.47.05.93.08,1.61.13,2.53.12-.13.15-1.05.14-2.48.15,1.47.04,5.91-.01,7.52-.21-.73-.18-.32-.33.57.01,1.57.25,2.14.06,3.77.08-.09.12.16.13.65.21-.12-.09-5.18.21-4.35,0,2.73.01,5.64-.08,7.51.05,2.36.23.08.33,1.31.01-1.93-.15-3.57,0-5.01.12.11.22.45.26,1.3.1-.34.16-.95.2-1.85-.12-2.29-.19,1.08-.33.57.03-1.33-.09-1.21-.2-1.29-.04-1.92.07-2.27.07-3.75.09.21.05,1.58.06,2.52.3-.92-.03-3.36-.12-4.41,0-2.34.17-3.02.27-4.34-.04-1.28-.34-.23-.26-2.55.07-1.06.21-1.34.34-1.82-.06-.86-.22-.85-.26-1.93.01-5.9.03-13.75.04-21.31.02-1.44-.19-.73-.2-1.91-.09.4-.13,1.32-.14,2.48-.21-1.75-.42.64-.6,1.15v-1.25s0-1.25,0-1.25c.2.93.38.59.4-1.81-.2-.5-.08,2.15-.33,1.2.19-2.43.09-4.19-.05-6.28-.14,1.09,0,2.39,0,3.76-.03,2.43-.2,3.7-.28,5.6-.09-.9-.35-2.32-.4-.07-.09-2.06-.18-4.07-.32-5.7-.04-1.72.13-1.24.14-2.48.06-1.72-.05-3.2-.06-5.03,0-1.03.07-1.06.07-1.87,0-2.13-.09-3.78-.06-5.65.06-3.79.02-11.58.03-15.67,0-1.15.19-3.08-.06-3.77-.05-1.72.13-1.24.14-2.48.03-1.06-.05-1.19-.13-1.28-.05-2.02.22-.82.2-2.47.05-2.29-.16-3.51.01-5.02,0-.74-.12-.55-.2-.66.13-1.88.17-4.73.15-8.13-.05-.6-.12-.97-.2-1.29.03-6.93.08-24.07,0-35.74-.04-1.77-.08-3.13-.12-5.04-.02-2.05,0-4.04,0-5.94,0-.95,0-1.87,0-2.77,0-.44-.01-.88-.02-1.31-.01-.27-.02-.54-.04-.8-.03.57-.05.95-.06,1.17-.02.3-.04.37-.06.23-.02-.1-.04-.61-.05-.85-.01-.32-.02-.75-.03-1.27,0,.43.01-.42.02-1.87-3.63,0-9.91-.01-12.81-.02-1.03,0-1.06-.07-1.87-.07-1.13,0-2.81.07-4.4.06-1.35-.03-2.43-.06-3.12-.07-1.47,0-2.54.19-5.67.12-.64-.01-1.99-.14-1.86-.14-.96,0-2.07.17-3.17.19-.34,0-1.12-.07-1.87-.07-1.62,0-3.28.12-5.04.12-1.61,0-8.37-.07-10.66-.02-.69.01-.64.17-1.9.13-.16-.11.61-.11.66-.2-1.12-.01-1.34.08-2.52.06-.12.08.12.12.6.13-.3.18-1.97,0-1.23-.14-1.49.09-2.26.08-3.77.06-.48,0-3.46.13-4.41.12-1.2,0-2.37-.08-3.75-.07-3.76.01-8.58.07-11.92.04-1.6-.02-3.47.12-5.04.12-1.01,0-1.07-.05-1.87-.07-1.87-.04-3.63.07-5.03.06-1.22-.01-2.28-.12-3.11-.14-1.16-.03-2.94-.08-3.75-.07-.55,0-1.66.13-1.9.13-1.04,0-1.05-.06-1.87-.07-1.11-.01-1.34.07-2.52.06-1.32,0-2.51-.08-3.75-.07-1.82.01-6.69.27-10.04.05-.55.13-5.17.18-8.81.18-.9,0-2.18-.08-3.12-.07-6.72.03-13.68.2-19.46.1-1.22-.02-2.29-.2-3.75-.07.09.08,1.13.06,1.87.07-1.38.12-7.21.13-6.87-.15-.46.17-1.55.07-3.78.13-1.08.03-2.64.22-5.67.12-.27-.14.92-.12,1.9-.13-.37-.06-1.42-.25.66-.2-.38-.2-1.35.06-2.51,0,.5-.06.7-.15.67-.26-1.76-.06-1.64.09-3.15.06.75-.27-1.87-.33-3.1-.21.76.23,3.43.26,3.67.54-.96.1-2.66.11-3.18.26-.89-.08-.91-.26-1.82-.34-1.82,0-1.56.31.58.27-2.28.23-4.03-.15-4.33-.34-1.18.14-3.72.13-3.21.46-.89,0-1.77-.01-1.89.06-1.26-.13-4.12-.1-4.33-.34,1.64-.02,3.14-.02,2.47.2h3.13c.56-.25-3.01-.08-2.45-.33,1.98-.07,1.66-.03,3.12.07-.15-.22-2.75-.2-3.07-.41-1.93-.01-2.86.23-4.4.06.1-.31,4.59-.49,3.87-.66,1.48-.13,3.37.06,5.65-.06-1.07.13.04.08-.04.27,2.95.03,1.27-.45,4.46-.39,1.6,0,.76.05.61.13,1.38.04.91-.13,1.9-.13,2.87-.08,2.43.19,4.99.14,2.09-.1-1.28-.17-.57-.33.36.12,2.97,0,3.11.14,1.5-.02-.67-.18-1.22-.2,1.57-.11,4.45.07,6.29-.12-1.15-.23-2.22.11-3.77.06-.25-.16-2.74-.18-1.2-.33-2.84-.09-2.49.18-5.04.12-2.18-.02-.48-.17-3.12-.07-1.24.04-1.95.11-3.16.13-1.18-.1-2.7-.16-4.35-.21-2.15.07,1.74.02.59.2-2.43.21-7.82-.13-8.8.12-1.03-.09-2.07-.18-4.37-.14,1.13-.35,3.47.15,5.03-.06-2.13-.26-5.07-.44-7.41-.68-2.27.22,1.59.36,3.07.41-.29.24-4.86,0-3.83.39-1.07,0-1.62-.05-1.86-.14-1.12.17-4.19.13-6.92.12.19-.14,2.78-.01,2.54-.2-1.35-.06-2.86-.14-4.35-.21-1.6,0-1.28.22-1.32.4-1.49-.04-4.56.07-5-.08-.12-.31,2.73.09,3.78-.13-1.72-.31-3.64.07-5.63-.08-.1.12.74.14.58.27h-5.64c-1.92-.16,4.49.04,3.79-.2-1.49-.16-4.54.08-6.91.05,3.34.22-3.48.1-5.67.12-1.79-.12,3.21-.05,4.4-.06-.87-.29-4.84-.08-6.27-.01-1.62-.18-6.24-.3-8.14-.08.84.15,4.36.03,6.26.08.08.14-2.23.03-3.15.06-2.28,0-4.94-.05-5.66.12-3.54-.2-6.14-.09-10.63-.15-.68.02-.45.13-1.28.13-1.65.02-2.04-.1-1.83-.27-4.24.21-6.85-.15-10.66-.02-1.24-.14.3-.13.67-.27-1.02.02-1.07-.07-1.87-.07-.8.01-.85.2-.03.2-1.75.26-4.47.11-6.93.19-.07.09-.14.19.59.2-1.48.13-3.37-.06-5.66.06,1.37-.14.3-.36-1.19-.4.45-.2,1.33.07,2.51,0,.14-.14-.48-.21-1.84-.2-2.75.05.28.35-1.33.46-2.77-.13-3.01-.12-6.87-.15l.04-.2c-3.13,0-4.07.23-7.56.18.92-.17-1-.16-1.22-.2-.42-.08.45-.28-1.21-.27-2.09.16,2.25.2,1.17.47-2.5.04-1.75-.26-4.35-.21-.88.02-.07.12.6.13-1.37.17-2.7-.07-4.38-.08-1.52,0-3.46.11-5.04.12-1.58,0-3.12-.11-4.21,0-.17-.11.52-.11.55-.2-1.77-.02-2.14.21-3.41.06-.28-.15,1.61-.07,1.64-.2-1.83-.06-1.73.09-2.64.12,0,.2.01.45,0,.78.06-.06.1-.33.13-.64.74.07,1.6.11,1.62.27-.25-.02-.84,0-1.34,0,0,.35,0,.66-.01.76-.02.14-.1-.91-.13-.68-.16,1.14-.28,2.28-.34,5.51.06,1.72.15-1.88.27.05-.05,1.74-.09,3.24-.14,4.99l-.2-.03c-.09,1.33.02,1.4,0,2.51-.05,2.2-.24,2.29.06,3.77.07-1.29.24-4.07.27-.58.15-1.05.03-4.78.08-6.88.23-.2.12,2.84.12,4.41,0,1.99,0,4.25-.01,5.64l-.33-.06c-.01,2.62.12,3.44.33,2.56,0,1.26,0,2.51,0,3.76-.09-.23-.1-1.12-.2-1.29.03,2.87-.12,3.88-.08,6.89-.05-.13-.07-.64-.13-.65-.09,4.83,0,7.5-.09,11.9.23.55.32,2.46.25,5.68.26-.15-.07-3.55.14-4.99.15,1.1.02,4.79.05,6.91-.11.21-.12-.51-.13-1.28-.07,2.2-.25-.14-.33,1.2-.06,2.91.17-.83.2,1.29.07,2.84-.3,1.35-.21,4.35,0,1.21.25-.93.33.68-.17,1.47.12,5.37-.14,3.74.12,3.06.12,6.04.05,8.79.32.96.17-2.6.21-4.36.26.56.03,2.72.06,4.4.02,1.48.17,2.19.13,3.78-.22.59-.22-.91-.2-2.54-.15.07-.15,1.56-.14,3.11-.17-.36-.23-.87-.33.57.03.84.29-.7.33,1.31.17.7.24-2.66.33-.57,0,1.6-.05.76-.13.6.06,3.25.02,4.08-.01,7.52-.34.03.1-3.16-.19-3.17-.19,1.29-.05,1.81-.14,3.74,0,1.38.22.09.2.04.23.6-.05,2.24.26,1.92-.04,2.33.16,4-.01,5.64.21,1.45.07,7.16.11,11.93.02,2.67.09,2.93-.08,5,.02.68.13.45.13,1.28-.07,8.05.15,12.78-.04,19.43.02.69.13.45.13,1.28.02,1.51-.12,1.34-.07,3.12-.25.62-.21-1.35-.33-1.94.12-1.09.32-3.57.14-5.62-.2.33-.03,2.29-.14,3.74-.03.34-.19.33-.2.59-.06,1.08-.03,2.47-.07,3.75.21.81.06-2.02.27-1.21.09.97.22,4.8.33,1.94.09.32.15,5.68-.08,5.01.23,3.16.05,7.89.04,13.17-.01,5.76.06,12.94.1,17.58.05,1.72-.13,1.24-.14,2.49.06,1.37-.01,2.95,0,3.13.03,1.02.23.99.13,3.16-.22,1.15-.13-1.08-.2-1.92-.03-.4-.18-.86-.2-1.28-.03-.81.2-3.49-.06-3.15-.12.19.05.9,0,1.88-.01.27-.33.39-.2,2.47.16.28-.03-2.86.2-1.84.08,2.96-.17,6.67-.15,9.38.24,0,.06-4.09.21-4.98.27-.82.21,1.4.4,1.32.11,6.28-.05,11.47-.16,16.28.2,3.72.23,8,.11,11.93.25.51.33-.65.34-2.45.16.23.06,2.75.19,3.17.25-.01,0-1.78,0-2.51.02-2.07.05-4.29.08-6.88-.02-.68-.13-.45-.13-1.28-.04-2.26.08-3.02.14-4.37-.03-1.42-.11.74-.2-.66.14-4.28-.09-9.04.09-13.16.23,1.74.18-3.47.41-3.69.02-1.66-.37.52-.26-1.92-.08.09-.06,1.13-.07,1.87-.06,1.98-.09-1.13-.06-1.89.07-1.42.21-2.19.21-4.35-.2-.67-.12,1.38-.14,2.49-.22-.11-.05-1.85-.06-3.15-.02-2.61-.1-6.58-.05-10.04.14-.27.12.92.13,1.9.32-1.09-.01-3.54-.12-4.41.03-5.05.33-5.47.29-9.98-.25-.55-.09,2.95-.14,4.37-.32-4.83.04-11.05-.04-15.05,0-.46-.13-1.19-.13-1.28,0-.95.13.12.13.03,0-1.24-.13-2.66-.13-3.78,0-2.43.23-3.01.21-4.99,0-.73-.12-.55-.2-.66.09-5.86-.17-11.11.1-15.04,0-.77-.08-.29-.07-.01-.11-2.13-.08-7.94.08-9.39-.06-1.33-.1-2.8-.19-3.79.04-5.03.2-11.92.37-17.5.31-.81.41-2.61.67-2.39-.07-5.41.01-7.91.03-13.16-.05-.59-.12-.97-.2-1.29-.02-1.46.02-2.41.07-3.13-.02-1.5-.18.67-.2,1.22-.09,2.85.27,3.53.06,5.65-.13-1.25-.19-3.18-.19-5.67-.06.27-.12.53-.14,1.23-.12-.39-.02-.96,0-1.26.03-.45.08-1.63.27-1.21,0-.82,0-1.69,0-2.51,0-.39.04-.85.07-1.21.04-.36.06-.63.06-.64,0-1.14-.21-1.23-.13-3.16.25-.14.17-3.47.41-3.69-.08-1.92-.26.88-.33-.68-.03-1.96.09-3.02.2-1.85-.2-1.57.18-4.61-.19-4.42-.24.46.2,2.98,0,3.14-.23.62-.1-2.72-.13-3.79-.01-.54-.12-1.62-.13-1.9-.05-3.31-.05-8.43.15-10.01-.1-1.69.05-4.44.01-6.9-.03-1.49-.13-2.9-.19-3.79-.19,2.74.08,4.96-.01,7.52-.23-1.16-.19-3.76-.19-5.68,0-1.98.14-4.51.08-7.51.21-.51.13,1.65.26,1.93-.06-1.93-.2-3.1-.26-5.06.1-.66.11-1.33.11-2.21,0-.44,0-.92,0-1.49,0-.28,0-.58,0-.9,0-.3.01-.62.02-.97-.09-.17-.07.69-.07,1.48,0,.78,0,1.45-.13.93,0-.86,0-1.97,0-2.88,0-.67-.03-1.21-.13-1.32.05-.59.11-1.3.16-1.88.46.04.84.1,1.06.18.54-.06,1.54-.05,1.11-.26,1.12-.07,1.81.21,1.77-.06,2.3,0,2.36.24,3.71.34,1.71-.06-1.65-.13-.57-.33,4.34.23,7.95-.02,11.9.09.65-.04.67-.15,1.9-.13-1.71.28,1.42.12,1.82.34.76-.12,5.13-.2,3.82-.33.65-.22,1.23.08,1.87.07,1.77-.06-.88-.18.67-.27,6.07.06,11.47-.01,16.31-.04,1.02,0,1.08.07,1.87.07,1.63,0,2.96-.16,5.04-.12.64,0,1.87.02,2.48.14,2.25-.02,5.11-.04,7.53-.05,6.9-.07,12.23-.02,15.59.5-.26.27-.07.49,1.79.54-.17.12-1.1.15-2.53.13,1.34.14-1.54.51,1.79.54-2.18.04-2.06.34-3.21.46-.51.05-2.53-.05-1.9.13-6.36-.18-13.6-.13-20.03-.24-1.04-.02-1.94-.13-3.11-.14-1.61-.02-3.24.08-5.03.06-1.08-.02-1.34-.07-2.5-.07-2.2,0-3.48.21-5.01,0-.68.01-.45.13-1.28.13-1.7-.03-3.4.03-5.02,0-.36,0-.82-.04-1.19-.07-.37-.03-.65-.06-.67-.06-.68,0-1.17.11-1.9.13-1.49.04-3.09-.09-4.38-.08-1.18.01-1.47.1-2.53.13-2.02.05-4.03,0-6.26-.08-1.06-.03-1.19.05-1.27.13-1.86-.06-4.08-.07-6.52-.06-1.55.01-3.25.02-5.02.04-.55-.1.23-.27-.75-.33,0,0,0,.01,0,.02.08.86.26-.09.33.58-.02,1.1-.03,1.84-.04,2.57,0,1.62,0,3.21.01,5.59-.08-.29-.13-.83-.13-1.9-.13,1.05-.09,1.84,0,2.37.04.27.09.47.13.6s.07.2.08.19c.05,2.93-.17-.89-.2,1.22-.03,1.33.09,1.21.2,1.29v4.39c-.14,1.02-.09-.07-.27-.05v1.88c.04,1.32.28-2.27.26,1.3.01,2.57-.09-.12-.27.58,0,1.71-.11,1.25,0,2.51,0,1.39.28.32.4.7v4.38c-.07-.5-.16-.7-.27-.67.09.81,0,3.31.26,2.55.05,3.5-.07,5.27-.28,6.22-.03,1.18.33,2.94,0,3.14.06,1.73.27-1.41.2,1.92.06-.27.12-.53.14-1.23.02.34.2,5.74-.14,4.37,0,1.91.24,1.54.19,3.79l-.2-.03c.11.41.11,1.91.19,2.54,0,1.83-.16,2.3-.27,3.09.3.15.16,4.7.19,5.67,0,.14.11-1.3.07-1.87.2,3.45-.08,7.74-.02,11.91-.23,1.05-.41,1.71-.61,4.28-.05,1.92.18,1.24.13,3.16.25-1.81.29,2.02.4-.56.14.8-.04,4.45.33,3.19.17,7.32-.06,17.1.02,23.83-.25-.42-.11-3.79-.12-6.29-.01-2.3.03-4.76-.05-6.28-.1,1.19-.11,3.16-.27,3.72-.05,2.52.28,1.59.26,3.81l-.13-.02c.02,2.99-.09,4.67-.21,6.24.02.68.13.45.13,1.28v4.39c-.1,1.51-.14.36-.21,1.22-.02,2.48.1-.18.2,1.29,0,1.65-.07,3.92.19,3.17-.15,3.79-.02,9.47-.09,12.52-.15-2.13-.01-6.89-.05-10.04-.1-.75-.16-1.84-.33-1.93-.02,1.63.02,2.7.19,2.54-.14,2.36.05,4.16-.01,7.52-.09-.77-.1-.26-.2-.03.06,5.39.09,10.58.1,17.58-.09,1.52-.2-1.16-.27.58,0,2.7.35-.85.26,3.18-.16,1.28-.35-.94-.39-2.58-.25.4-.11,4.12.19,3.17-.03,1.2.04,2.27.06,1.27.03,12.26-.15,30.13-.01,42.01.01.71.07.36.07.01.04,1.44.01,4.04.05,6.9-.21.35-.09-2.27-.26-.67-.15,1.67-.05,2.61-.07,3.12-.08,1.62,0-2.26-.13-3.16-.08,2.38-.21,4.33-.28,6.85.31.7.44,3,.59,5.12-.04,1.52-.06,3.21-.27,3.09.22,2.91,0,6.51.04,12.55-.06.48-.15.65-.27.58-.03,1.33.09,1.21.2,1.29-.07,2.87-.01,6.21-.02,10.03,0,5.57-.18,11-.23,15.64-.02,2.25.13,4.51-.08,5.63.02.83.12,1.01.13,1.91-.01,1.6-.13,2.17-.21,3.1.25,4.85-.02,11.44.03,19.45-.16,1.51-.12-.96-.33-.69,0,3.01.41,2.45.32,6.33-.12-.58-.17-1.78-.4-1.32-.05,2.26.27,2.47.06,4.4-.13-.42-.04-2.94-.19-3.17-.16,1.45.22,3.28.12,6.29-.18.16-.22-.91-.2-2.54-.23,1.15.11,2.22.06,3.77-.14.14-.02,2.76-.14,3.12.11,1.7.42,4.01.32,5.7-.09-.65-.24-.66-.33-1.31,0-1.13.08-1.31.07-2.5-.31-.39-.19,3.52-.14,4.99-.19.13-.2-1.45-.4-1.32.07.98.19,1.57.26,2.55.03,2.19-.17,2.16-.27,3.08-.02-2.98-.25-9.99.09-12.52-.03-1.42-.11.74-.2-.66.03-2.67-.05-6.47.08-8.14,0-.61-.08-.5-.13-.65-.01-3.68.22-6.12-.05-8.79.2-1.69.08-8.16-.05-10.67.17-.88.16-3.56.21-5.61-.25-.14-.22,2.52-.34,3.7-.27-.85.02-1.29,0-3.13.01-1.36-.24-.32-.33-.68-.06,3.87.15,5.17.32,6.95-.07,7.88.01,12.43-.1,18.17-.08-1.55-.36-1.28-.39-3.2-.15.23,0,3.32-.14,3.74.13.23.21-.09.2-1.22.21.17.11,3.14.12,5.04-.11.03-.25-.34-.27.58-.07,2.27.32.34.19,3.17-.22-1.13-.16-1.14-.33.57.04,1.08.15.42.13-.6.1.16.02,1.87.13,1.9-.11,1.48-.18,2.93-.4,1.81-.03,2.56.21,2.57.12,5.66.01,2.48-.29,1.87-.27,4.34.09,1.78.16,3.71.39,2.57-.01,3.49.1,5.2.32,5.07.05,1.78-.1,1.61-.07,3.12-.14.27-.12-.92-.13-1.9-.19.01-.25,1.39-.34,2.45.11,2.49.11,1.94,0,4.39-.22.74-.05-2.04-.26-1.3-.16-.02.02,1.71.13,1.27,0,2.06.11,3.14.06,5.65.15.23.26-.06.33-.57-.09-.82-.06-2.73-.06-4.4.33.45.23-3.32.54-3.05-.07,7.18.04,19.82-.12,26.32-.3-.12-.07-1.47-.06-2.52.01-5.28.03-13.37.04-18.81-.13,1.7-.11,4.93-.34,5.59-.05,2.14.27.84.19,3.17.03,1.4-.13.87-.14,1.85-.11,1.45.12,1.7.13,1.91,0,.29-.06.8-.07,1.24-.01.82.06,1.07.06,1.27-.01,2.8-.16,4.99-.02,8.15.02,1.07-.05,1.17-.14,1.23.04,1.88.14-.58.27.04,0,1.57-.15,1.5-.2,2.47-.01,1.36.24.32.33.68.04,4.95.12,9.57.11,13.82,0,.69-.13.92-.14,1.23-.01.66.05,2.77.06,3.72,0,1.06-.06,2.72.06,3.15-.04.35-.05,1.01-.08,1.4.11.01.18.03.19.05.72-.05,1.61-.07,2.62-.08,1.08,0,2.29,0,3.54.01,2.78.02,5.76.04,8.14-.04.51.21-1.65.13-1.93.26-2.5-.07-3.75-.07-6.27-.01-.61.01-.74.08-.98.13-.24.05-.58.1-1.48.06.85.11,1.82.08,2.75.02.93-.06,1.87-.15,2.84-.14.62.15,4.2,0,3.72.27,1.11-.1-.59-.29,1.32-.4,1.78-.05,1.61.1,3.13.07.66-.2-1.38-.12-2.49-.14.92-.16,4.29-.17,6.3-.19,1.77-.01,3.59-.02,5.01,0,.39,0,.85.04,1.22.07.36.04.63.06.64.06.75,0,.88-.12,1.27-.13,1.4-.04,2.44.16,3.78-.06,1.07-.02,1.17.05,1.23.14,1.83.02,1.95-.15,3.79-.13-.18.12-1.11.15-2.53.13.4.13,1.88.16,2.46.27,1.46-.02,2.94-.04,2.55-.26.42.05,3.7.18,3.14-.06-.58-.17-2.42.09-4.39,0,.55-.1,2.04-.09,3.16-.13-.36-.2-3.35-.14-3.71-.34-2.8.09-3.32.01-4.99-.14.31-.15,2.66.26,3.15-.06-.14-.08-1.23-.07-1.25,0-2-.16,2.97-.43-1.81-.4.34-.31,5,.16,5.68-.19-2.32-.07-3.71-.23-6.86-.21-1.85.05.79.17-.06.33-1.58-.06-1.55-.28-2.44-.4-1.47.02-2.61.13-3.76,0,2.36-.34,6.54-.05,10.69-.18-.29.1-1.98.05-1.3.26,2.42.06,1.07-.29,3.79-.19.11-.08-.12-.12-.61-.13,2.1-.13,4.68-.21,5.11-.52,2.01-.05,1.92.11,3.11.14,2.78.06,3.78-.08,6.28-.05.09.15-.55.21-1.92.2,1.83.33,6.66-.02,6.83.41,2.64-.08-.04-.38-1.17-.47-.08-.14,2.23-.03,3.15-.06-1.9.2.91.29,1.18.47,3.12-.11,4.44-.41,8.85-.38,1.69-.04,1.18.14,1.84.2.51-.01.64-.07,1.27-.06,1.29-.08-1.79-.18.67-.26,1.34-.03,1.18.1,1.22.2,1.91-.08,3.44-.21,6.3-.19,1.64.03,1.71.22,4.37.14-.09-.08-1.14-.06-1.87-.07,1.89-.2,8.8.05,12.56-.11,1.28.07.47.34,2.45.34.94-.03-.23-.09.03-.2,3.61.01,7.24.03,10.04-.05.05.19.73.32,3.09.27-.39-.07-1.43-.07-1.22-.2,1.24-.08.96.13,1.23.14,1.33.05,2.9-.18,4.39,0-2.13.23-4.18.05-7.54.12-1.48.02-1.21.23-3.17.19,1.97-.25-4.56-.07-5.61-.21-.65.07-1.29.13-1.91.2-1.58-.06-1.56-.28-2.44-.4-1.92.19-2.16-.16-5-.08-.94.39,3.8.28,1.78.6-1.61-.12-3.14-.25-3.04-.54-2.7-.06-2.9.18-1.3.26-.43.11-1.45.04-1.25-.07-2.25.03-3.02-.08-4.36-.14-1.21-.03-.97.3.59.2-.87.2-2.76-.13-3.77.06-.2.11.57.12.59.2,1.06-.09,3.98.03,3.79-.19,2.51-.06,1.85.2,4.37.14.32.15-1.21.09-1.29.2.19.15,1.13-.06,1.27-.06.8,0,.99.15,1.86.14,1.03-.01,1.68-.14,3.16-.13.85-.02.55-.17.67-.27,2.55-.02,2.86.19,4.34.27,1.96.04,1.8-.16,2.55-.26,1.42.09,1.97.28,3.07.41,1.26-.27,5.07-.26,8.2-.32-.63.24,2.45.1,3.74.14,1.95-.03,1.3-.35,4.43-.26-.47.06-1.16.1-1.9.13.13.16,2.74.04,3.13,0-.49-.06-.72-.14-1.22-.2-1.7-.2-2.96-.08-1.83-.27h-5.64c1.14-.24,3.92-.03,6.91-.06,2.22-.03,6.13-.04,10.03.02-.49.2.6.24.56.4,3.27.09,4.75-.02,7.51.08-.3.15-1.15.23-2.56.26,1.76.21,2.8-.23,4.44-.26,2.22-.03,1.5.24,3.72.21,1.19,0-.1-.28-1.85-.2,1.32-.33,2.2.11,3.74.14,2.54-.07.82-.23,1.95-.4,2.47.03-.8.29,1.82.34.38-.16,3.2-.05,2.57-.33,1.9.12,5.39-.06,3.74.14,1.71-.04,4.96.09,5.65-.06,1.1.05.07.12-.03.2,2.01.06.92-.22,1.92-.26.99.25,1.72-.11,5.02,0-.39.14-1.35.21-1.94.33-11.82-.1-16.57.2-27,.21-.88.02-.08.12.6.13-2.21.04-4.55.14-6.29.12-.52,0-1.07-.13-1.86-.14-.43,0-1.51.06-1.27.06-.98-.03.86-.19-2.48-.14,1.13-.41,4.37-.09,6.31-.19-2.67-.25-6.6-.37-11.22-.42.34-.05.67-.11.66-.2-2.54.06-1.48.32-.72.53,2.74.08,2.1-.22,4.42-.19-.39.3-2.85.61,1.14.67-5.07,0-12.19.29-18.19.03-1.95.19-6.41.11-10.05.11-1.21.02-.54.26-2.54.2-1.47-.18-1.43-.31-1.8-.47-3.01.06-2.38.01-6.28.05-.29.14.4.18.58.27,1.01-.14,3.51-.11,4.43-.26,3.73.43-2.62.57-5.72.46.04,0,.73-.13.65-.13-.31,0-3.72,0-3.16.13-3.62-.03-11.37.02-16.95.1-3.85.06-7.96-.06-11.28-.02-1.61.02-3.65.17-5.68.19-2.48.03-4.89,0-6.3.19.33.23,3.59.16,3.69.41,2.8-.12,7.41-.07,8.12.21.67-.24,2.64-.34,5.08-.39.55-.19-.85-.17-.57-.33,3.83-.07,1.95.37,1.17.53.58.04,3.16,0,5.01.08,1.21,0-.93-.25.68-.33-.24-.12-3.02.22-4.39,0,.64-.09,1.72-.13,1.93-.26,4.57.1,9.95-.02,16.92.03,1.98.14-3.89-.03-3.17.19.04.17,2.08.14,3.74.14,1.65.02.54-.26,2.54-.19-1.54.2.78.26,1.85.2,1.44-.07.04-.3,1.27-.06.97.19,2.81.27,4.37.14-.61-.13-2.75-.11-2.45-.34,1.97-.03,1.62.18,3.1.21.51-.01.64-.07,1.26-.06.46-.18-1.27-.13-1.84-.2-.58-.15,1.83-.06,1.89-.06,1.44-.05,1.49-.11,2.53-.13,2.78-.04,6.57.04,10.03.02-1.6.18-2.42.05-5.03.06.04.17,2.08.14,3.74.14.01.19,1.39.25,2.45.34,2.05-.11-1.6-.18-.56-.4,3.65-.05,2.46.4,4.3.54,2.34,0,3.95.07,5.62.14,1.16,0,.42-.22,1.3-.26,3.23-.05,2.56.3,6.24.21-.41.3,2.31.29,1.78.6-2.12-.18-4.43.06-5.68.19.18.09,1.56.06,2.5.07-.5.06-.7.15-.67.26-1.37,0-1.99-.06-1.85-.2-.9-.04-1.58.26-1.89.06-.88-.12-.55-.15,1.28-.13-1.15-.12-.59-.35.69-.4-.84-.2-2.18.11-3.77.06-.18-.16-.95-.25-.55-.47-1.9,0-.66.33-2.56.33-.22.17,2.42.06,1.83.27-.9-.04-3.25.07-3.12-.07-1.03.09-1.58.23-3.79.19,1.11-.22.84-.41-2.45-.34-1.64-.16,1.69-.18.06-.33-.77.07-1.17.19-3.16.13.25-.11-.47-.13-1.23-.14.43-.15,1.31-.4.09-.53-1.12.06-.84.27-3.17.19-.77-.26,2.08-.13,1.32-.4-2.46-.09-1.66.18-2.55.26-1.2-.03,0-.3-2.47-.2-.38.07-.23.25-1.94.33.51.16,1.58-.18,3.77-.06-1,.18,1.38.13,1.85.2.25.04-.17.15-.03.2.2.07,1.57.07,1.22.2-.74.05-1.7.08-3.15.06.24-.09,1.12-.1,1.29-.2-1.56-.01-2.61.03-3.16.13.23.32,3.18.26,5.61.21.6.2-1.42.12-2.53.13,1.14.17,1.76.32-.08.47.14.07,1.24.05,1.23.14,1.57-.01,2.14-.25,3.77-.06-.52.3-5.69.15-9.44.18-2.11.02-3.77.11-5.65.06-.06-.05,1.93-.11,2.52-.06-1.96-.15-2.15.06-3.77.06-.95,0-1.79-.14-1.86-.14-1.1.01-1.96.17-3.17.19-1.01.02-1.4-.07-2.5-.07-2.08,0-4.79.16-6.27-.01.54-.34,3.04-.46,6.33-.32-.16-.22-2.81-.19-4.98-.21-1.83.05-.73.1-.68.26-1.25-.03-1.96,0-1.9.13-1.12.01-3.13-.07-2.53.13.04.13,2.35-.1,3.12.07-2.97.17-6.47-.02-10.04.05-.8.01-1.58.12-2.53.13-2.76.01-6.58.03-9.41.05-4.73.02-9.97.04-13.16-.03-.1,0,.12-.12.02-.13-.61-.07-1.73.12-2.52.06,1.39-.44-1.34.12-4.39,0-.74,0-.55.12-.66.2-2.56-.02-6.05.05-6.88-.15-1.97-.04-1.45.2-3.78.13-.45-.23.4-.32,2.55-.26.09-.21-1.86-.2-3.73-.21-.48.2.6.24.56.4-7.7.03-15.4.06-23.1.1.04-23.04.09-46.02.13-68.34,0-4.9.02-8.88.03-13.79,0-1.02-.07-1.1-.06-1.89.02-2.14.05-6.24.09-10.02,0-2.09-.09-4.06-.05-6.28.05-2.98.1-11.93.03-16.92-.04-2.91-.24-6.63.02-10.66-.08-3.24-.14-5.67.02-8.15-.07.4-.07,1.43-.2,1.22.11-4.65-.02-8.17.03-13.8.09.24.1,1.12.2,1.29.08-2.55-.23-1.64-.26-3.18.02-1.46.29-.31.33.06-.03-1.78-.16-2.69-.19-4.42.11-1.97.01-3.24.01-5.64,0-1.13.08-2.12.07-3.12-.01-1.56-.2-4.14-.12-7.55.02-.9.13-1.61.14-1.86.02-1.09-.23-1.68,0-3.13-.04-2.13-.22-7.21-.25-10.07-.01-1.17.07-2.22.07-2.5,0-1.13-.07-1.33-.06-2.52.01-1.29.12-1.27.14-1.86,0-.31-.07-1.16-.06-1.89.02-2.7.13-6.9.08-9.39-.02-1.1-.11-1.83-.13-3.16.06-.45.1-1.13.14-1.86-.13-1.3-.06-3.81-.06-5.66,0-1.34-.12-2.98-.12-4.41,0-1.12.08-1.31.07-2.5-.03-4.22-.07-9.83-.11-14.44,0-1.02.07-1.07.07-1.87-.02-4.27-.15-8.03-.11-10.68.02-1.34.09-.91.14-1.86-.03-3.39-.12-6.26-.11-10.05.07-.4.07-1.43.2-1.22,0-.74-.12-.55-.2-.66.04-4.07-.29-7.03.02-10.03-.03-2.24-.03-2.27-.06-5.02.08-.69.12-1.77.33-1.2,0-2.8-.15-.82-.26-1.93-.06-2.89.17-3,.14-5.62,0-1.16-.22-.42-.26-1.3.12-3.12-.04-7.49.02-11.91.02-1.32.13-2.86.14-4.37.03-3.86-.23-10.84.09-13.15-.05-.59-.12-.97-.2-1.29.18-4.14-.16-6.62.02-11.28-.29-1.04-.13-2.46-.19-5.05-.07-.23-.2.99-.2,1.22-.01.67.12,1.14.13,1.9,0,.96-.09,1.18-.07,1.87.02.92.12,1.7.13,2.53,0,1.38-.06,2.28-.07,3.75-.01,1.49.07,3.55-.01,6.27-.02.78-.13,1.71-.14,1.86,0,.68.08,2.76.06,4.4,0,2.08,0,2.4,0,5.02,0,2.21-.01,5.31-.02,8.78-.11.16-.11-.61-.2-.66,0,1.91.03,4.13-.21,3.73,0,.74.12.55.2.66.14.13.03-2.22.07-3.12.24,1.9.16,6.24.05,9.42-.09,1.55.26,2.01.06,2.52-.14,1.27-.13-.29-.2-1.29-.04-.64-.15.17-.13-1.28,0-.51.07-.61.07-1.24.08.11.05,1.15.06,1.89.18-1.98-.04-4.14.08-6.26-.36-1-.02,4.89-.41,3.69.09,3.49.41,4.59.25,8.82.29.87.09-2.97.34-2.45.01,2.91-.01,5.43-.15,6.87-.09-1.08-.09-4.65-.33-2.56.02,1.21.26.54.2,2.54-.38-.6-.25,4.12-.08,5.01.12-.56.15-1.94.14-3.74.26.64.05,3.17.06,5.03-.26-1.48-.27,1.11-.4,2.44.26.74.24-2.18.4-.56-.04,1.69-.28,1.51-.27,3.71.03,1.8.1-.99.14-1.23.13,6.13.09,15.09.09,23.22,0,.74-.18,3.41.06,4.4-.11,3.49-.11,10.37-.09,13.15-.23-.99-.11-4.27-.12-6.92,0-3.8.04-7.35-.05-10.04-.24.17-.17,1.7-.4.56.05,2.29-.12,3.32,0,4.38.04-.8.06-1.29.14-3.11.34,1.49-.05,3.79-.01,6.27.16.28-.03-2.86.2-1.85-.03,14.45-.07,34.77-.1,50.15,0,1.04-.08,2.09-.07,3.12,0,1.41.07,2.47.06,3.77-.02,2.11-.33,4.61-.08,6.26-.15.21-.09,2.49-.21,3.1.01.79.13.66.13.02.33,11.06-.13,23.21.14,32.01-.03.9-.06-.08-.13-.03.08,2.19.14,4.51.12,7.54-.17-.09-.09-2.46-.26-2.55-.01,1.97.24,4.77.05,6.28-.29-.07.08-2.63-.19-3.17-.03-1.98.12-2.19.08-4.38-.01-.51-.07-.64-.06-1.27-.15-.2-.25.11-.27,1.21-.07-2.01-.37-2.42-.46-2.59-.26.98,0,3.68-.14,5-.21.31-.05-2.02-.06-2.52-.01-.66-.13-.36-.13-.65-.01-1.83-.03-4.17-.05-6.9.12-1.05.5-.88.53.71.15.49.28-2.26.14-2.48.11-1.94.21,1.33.33,1.31.01-1.36-.05-2.01-.2-1.92-.03-1.98.21-1.39.14-3.74.27,1.11-.09,4.04.19,5.05,0,2.14-.3,4.69-.08,6.89.28.88.01-4.98.27-2.46-.16-2.6,0-4.35-.19-6.31.03-1.19.03-2.69.2-2.47-.19-2.65-.06-7.92.02-12.54-.15-2.38-.22-5.71-.12-7.54-.08-1.75-.19-3.22-.19-5.68.12-.06.14.79.27.67.01-1.57-.15-1.55-.19-2.54-.01-2.13.06-5.07-.05-6.28-.09.4-.13,1.32-.14,2.48-.12-1.21-.05-4.03-.19-5.05.02-2.83.24-3.61.28-6.22-.03-.94-.09.23-.2-.04-.01-2.66.18-3.34.14-6.24-.04-.65-.15-.68-.13-1.91-.11-.25-.13.47-.14,1.23-.13-2.06-.03-3.59.08-5-.03-1.42-.11.74-.2-.66.05-2.05.44-.81.34-4.33-.07.4-.07,1.43-.2,1.22.13-2.11-.16-2.33-.06-3.77-.01.18.18.7.2.03.02-.58-.15-1.71-.13-.65-.19.25.06-3.41-.13-3.16-.18.75.07,5.82-.28,4.97.02.85.17.55.26.67v3.13ZM3.09,253.67c.21-.08.4-.38.4-2.44l-.4-.07v2.51ZM3.96,253.19v-1.88c-.2.59-.46.58-.4,3.69.31,1.12.09-2.93.4-1.81ZM4.19,205.57c-.03,1.84-.39.47-.27,3.72.21.75.16-.96.27-1.21.11.47.11-2.94,0-2.51ZM120.49,390.12c1.44-.09,4.05-.05,3.82-.33-2-.06-1.33.17-2.54.2.12-.17.17-.32-1.2-.33l-.08.47ZM91.05,389.93c-.62,0-1.25,0-1.88,0,.42.2-.68.24-.7.4,2.3.03,1.94-.24,2.58-.39ZM92.2,390.53c-1.38.2-.71.32-3.21.46,2.21,0,6.07-.32,3.21-.46ZM103.54,390.22c-.05.2-2.72.38.56.4-.62-.25,1.35-.21,1.94-.33-1.19.01-1.37-.08-2.49-.07ZM102.98,389.82c.16-.09,1.05-.11,1.28-.2-.84-.02-1.18-.1-2.5-.07-.2.15.11.25,1.21.27ZM99.72,390.55c-.21.09-.91.13-.67.26,1.09,0,1.95.02,2.5.07.16-.19.14-.36-1.82-.34ZM87.96,389.66c1.92.18,3.98-.06,6.89.01.14.09,1.01.11,1.22.2-.02.09-1.11.06-1.28.13,1.53.06,1.35.3,3.72.27,1.28-.02,1.69-.13,2.54-.19-.16-.33-1.32-.56-4.29-.61-.45.13.82.09,1.23.14.65.07,1.84.29.57.33-1.54-.06-2.69-.16-2.44-.4-3.17,0-6.03.01-8.17.12ZM86.92,388.39c1.8.02,3.19-.01,3.79-.13-2.28.12-1.85-.02-3.75-.07l-.03.2ZM73.89,387.57c.51.06,4.87.19,4.4-.06-.45-.13-4.62-.11-4.4.06ZM67.5,388.29c3.17-.04,5.38.28,8.13.08.72-.36-2.75-.29-3.73-.14-2.47.03-3.23-.15-4.4.06ZM58.72,388.27c2.06.22,4.84-.21,6.9.01-1.05-.36-4.95-.11-6.9-.01ZM56.34,387.54c2.85,0,6.05.32,8.15.02-3.24.09-6.15-.2-8.15-.02ZM79.66,390.51s-.11.08-.64.07c-.22.17.83.22,2.47.2.21-.17-.18-.29-1.83-.27ZM79.24,389.31c-.42.26,3.43.08,4.99.14-1.07.22.1.25,2.46.27.65-.43-5.51-.46-7.45-.41ZM79.16,389.78c2.02-.05,1.95.11,2.47.2,1.17,0,2.1-.04,2.53-.13-2.46-.03-2.72-.12-1.21-.27-1.61-.01-4.66.16-3.8.19ZM78.36,390.77c-1.76-.08-1.06-.41-4.33-.34-.69.14,1.13.14,1.21.27.02.03-1.49.07-1.29.2.1.06.21.16,2.48.14-.58-.37,1-.13,1.92-.26ZM64.01,390.35c-.6-.41,5.19.12,3.19-.33,2.16.06,2.66-.07,3.78-.13,2.07.14,4.1.28,6.84.35l.05-.27c-2.8.02-4.41-.03-3.09-.27-3.34.02-5.65.15-8.81.18.68.3-5.94.22-1.96.46ZM56.96,391.27c2.52-.04,4.32-.16,6.32-.25,2.26.12,5.34.15,8.76.15.22-.15-.06-.26-.57-.33-1.13.08-3.65,0-4.41.12,1.58.12,2.21-.07,3.12.07-1.77.16-4.1-.02-4.99-.14,3.31-.1,1.02-.26,3.2-.39,1.19-.01,1.37.08,2.5.07.13-.19-1.85-.16-1.82-.34.25-.03,3.06-.09,1.28-.13-2.1.06-2.03.36-5.07.32,1.62.3-.96.31-1.94.33,1.19,0-.43.26-1.3.26.29-.34-4.37-.16-4.95-.41l-.06.33c1.66,0,3.7-.03,3.74.14-1.7.02-4.62-.1-3.8.19ZM54.03,390.06c-1.78.05-1.61-.1-3.13-.07-1.15.3,3.28.25,3.13.07ZM50.15,390.72c2.69.04.83-.18,1.91-.2,1.66,0,3.68.04,3.78-.13-2.38-.06-4.02.1-5.02,0,.49.19-.91.17-.68.33ZM46.34,391.05c1.1-.02,3.1.19,3.76,0-.49-.02-.72-.06-.6-.13-1.55-.01-3.04-.02-3.16.13ZM41.97,390.9c-2.04.08-.44-.22-2.48-.14-.99.03-.57.21-2.53.13-.81.21,2.02.05,1.21.27-1.86.01-3.05-.27-3.76,0,1.84-.01,1.9.15,3.74.14,2.34-.1,3.82-.3,6.95-.32.11-.08-.08-.19.66-.2,3.09-.08-1.7-.07-1.9.06-.84,0-1.84-.27-2.49-.07.67.02,1.48.11.6.13ZM34.53,390.42c.73.08,2.2.08,3.75.07.81-.21-2.02-.05-1.21-.27,1.93-.04,2.28.07,3.75.07,1.06-.13-.04-.08.04-.27-1.88.06-5.01,0-5.68.19,2.93.01-.47.12-.66.2ZM31.95,390.82c-.54-.14-1.15-.62-3.07-.41,1.1.02,1.41.12,1.21.27-1.11.01-3.13-.07-2.53.13,2.16-.03,3.51.03,5,.08.82.01,4.54.02,2.52-.06h-3.14ZM33.98,389.96c-.8-.05-6.01-.19-4.38-.07.1.13,3.62.23,4.38.07ZM29.01,389.68c2.01.09.52-.21,2.53-.13.99,0,.46.17,1.86.14l.04-.27c-2.37.05-2.98-.09-5.01-.08-.34.21,2.14.18.57.33ZM23.88,390.34c-.77.21,5.36.25,3.74.14-2.5.08-1.24-.22-3.74-.14ZM21.48,389.73c1.76.06,2.53.22,4.98.21.35-.24-3.62-.36-4.98-.21ZM14.55,389.92c1.55.04,4.95.27,5.64.01-1.54-.04-5.44-.22-5.64-.01ZM11.89,390.58c1.65-.02,2.88.31,3.77.14-.8-.11-2.94-.41-3.77-.14ZM11.71,391.18c.22.01.48.02.76.04.25,0,.52.02.81.02.58,0,1.24,0,1.93.01,1.38,0,2.88,0,4.13,0,.65-.26-3.5-.03-3.09-.27.87,0,.69-.17-.6-.13-.36.1.67.35-.69.33-.3-.08-.88-.12-1.48-.12-.3,0-.61,0-.9.03-.3.02-.63.05-.87.09ZM6,372.05c0-1.48.12-1.83.07-3.75-.21-.92-.18,3.72-.07,3.75ZM10.37,389.78c-.45.01-1.14,0-1.2.06,2.28.07,1.91-.19,2.45-.33h-2.19c-.55.18,1,.13.94.26ZM7.46,391.04c-.29.17.92.21,1.97.27.3-.09,1.12-.13.89-.27h-2.86ZM7.31,382.93c-.04,1.67-.02,2.56.02,3.35.04.79.09,1.44.1,2.45-.18.12-.17-1.49-.26-2.19-.13,1.41,0,2.5.14,3.21.33-.04.63-.08.9-.12-.26,0-.52-.01-.76-.02.01-1.26.02-2.31.03-3.27.01-.97.05-1.74.16-2.74-.19.49-.17-.91-.33-.68ZM6.31,384.65c-.03-3.19-.08-2.55-.09-1.14,0,.36,0,.77,0,1.18,0,.45.01.9.02,1.31.02.8.06,1.4.13,1.37,0-1.26-.05-1.51-.06-2.72ZM6.39,376.51l-.33-.06c-.09-.07-.03-4.52-.13-2.53,0,2.42,0,4.62-.08,6.26.33,1.05.11-3.22.4-2.44-.02,1.18.07,1.4.06,2.52-.17-.21-.33,1.25-.38,2.88,0,.41-.02.83-.03,1.24,0,.46.01.91.02,1.33.03.84.08,1.49.18,1.74.02-2.98.05-5.13.08-5.96.33-1.15.17,2.11.4,1.94,0-2.92-.25-3.5-.19-6.93ZM7.34,367.26c.05,1.72-.13,1.24-.14,2.48.09,1.41.16-.76.2.66-.11.24.01.81,0,1.88-.21.34-.2-1.21-.33-.05,0,.94-.03,2.31.06,2.52,0-.35.05-.7.07.01.09,3.21-.21,2.64-.27,4.34.27-.16.37,1.18.66.74-.07-2.63.01-3.09.08-5.63-.08-.09-.16-.21-.13-1.28,0-1.94.21-1.76.14-4.37-.13-.29-.12-1.81-.33-1.31ZM6.94,367.82c-.17,2.36-.24,1.12-.07,3.12-.25-.71-.19,1.52-.4,1.19-.06,1.28.21,2.41.2,1.29-.07-.02-.08-1.11,0-1.25l.13.02c.04,1.31-.09,4.1.06,4.4.13-1.17.04-2.96,0-4.39.25-1.64.13-3.72.21-6.24-.18-.46-.08,1.07-.14,1.86ZM6.42,360.84c-.04,1.11-.04,2.6-.14,3.11v-4.39c-.07-.54-.17-.86-.32-.68-.09,3.72.2,3.91.19,6.93.13.42.13-1.1.2-1.22,0,0,.02.32.05.64.03.32.06.63.08.64-.03,0,.06-1.21.07-1.25.06-.26.15,1.32.13-.6-.34,1.21-.09-2.87-.26-3.18ZM6.96,355.28c-.12,1.17-.06,4.14-.08,6.26.4-.39.22-4.46.08-6.26ZM6.66,353.19c0-.23.02-.55.04-1.08.03-.73.13-.43.14-1.86,0-.46.04-2.37-.13-2.53-.04,1.1.07,3.7-.07,3.75.06-2.96-.16-1.76-.19-2.54.08-.72.08-2.2.07-3.75-.29.35-.15,4.93-.28,6.85-.07,0-.08-.52-.13-.65-.05,1.92-.05,1.2,0,3.14.25.96.02-2.8.27-1.84v3.14c.27.69.03-2.81.2-3.1.07-.12.09.19.09.48-.02.66,0,.37,0,0ZM6.92,343.36c-.07,3.34.11,1.52.13,2.53.04,2.61-.16,5.44-.08,7.51.01-.92.16-.55.27-.58-.19-2.93-.04-5.09-.05-9.42l-.27-.04ZM7.08,326.46c-.09-.04-.15.27-.2.59-.01,1.57.1,1.98.19,2.54.09-.81.09-2.3,0-3.14ZM6.5,319.46c.04,1.11-.09,3.67.06,3.77.09-.79.12-3.73-.06-3.77ZM6.06,305.59c-.11,1.22,0,.79,0,2.51.26.54.26-2.96,0-2.51ZM6.72,305.08c-.05,1.43-.27,4.51-.08,6.26.04-1.53.2-5.24.08-6.26ZM7.61,293.31c-.03.98-.21.5-.14,2.49l.2.03c0-.94.03-2.31-.06-2.52ZM7.36,288.26c-.12,2.1-.07,4.73.26,4.43.02-.38.17-2.38,0-2.51,0,.38-.01.74-.07.62.06-2-.1-1.98-.19-2.54ZM7.64,279.52c-.31-.31-.02,2.52,0,3.76.01,1.53-.19,4.3.06,5.03-.02-2.87.08-6.89-.05-8.79ZM6.92,274.38c-.09.79-.12,3.73.06,3.77-.04-1.11.09-3.67-.06-3.77ZM8.38,309.12c0,2.05-.19,2.36-.14,4.99.33.11.25-3.11.14-4.99ZM8.46,302.24c.08,2.12-.27,3.27-.07,4.38.08-2.52.15-1.45.27.05-.02-1.87-.03-3.82-.19-4.42ZM9.07,294.81c-.16.59-.42.14-.4,2.44.25.31.31-1.27.4-2.44ZM8.74,292.88c-.09,3.39-.39-2.39-.4,1.81.21.98.53-.25.4-1.81ZM8.51,275.91c.01-.73.11-.66.2-.59,0-1.09-.01-1.95-.06-2.52-.16-.47-.29,2.63-.14,3.11ZM9.39,271.04c-.1.09-.25-.27-.27.58.14-.17-.02,1.81-.07,1.87-.1-.07-.05-1.61-.2-1.29-.02,2.79.12,6.57.05,9.41-.04,1.55-.25,2.21-.27,3.72,0-2-.2-5.55-.32-4.45.22,1.31.19,5.57.39,6.34-.02-.09.05-2,.14-1.23-.04,1.11.19,2.63,0,3.13,0-.74.02-1.78-.06-1.89-.08.92-.09,2.55-.21,3.1-.09-.72-.16-.7-.2.59.21-.44.08,2.17.33,1.31,0-1.57-.12-1.98.07-2.5.2.65.4,1.33.6,1.98,0-.83,0-1.67,0-2.51-.17-.85-.21,2.44-.27.58,0-.6,0-2.77.07-2.49-.01-.05.04,1.75.06,1.26.09-1.78.01-3.64.01-5.64,0-1.3.18-3.52-.06-3.77,0,2.99-.23,3.75-.28,6.22-.21-1.85.15-3.61.21-4.98-.03-1.26-.16-4.68.01-5.64.19-.08-.09,4.09.19,3.17-.11-2.97.05-3.82.08-6.88ZM7.88,258.87c-.19.28-.56,2.17-.34,4.33.02-.7.08-.96.14-1.23.09.82.06,2.73.06,4.4-.21-.76-.16.95-.27,1.21-.06,2.16.09,2.43.06,4.4.21-.4.13-.42.33.06l.03-13.17ZM7.64,241.27c-.03,2.28,0,4.08.06,5.65-.15.16-.07-1.83-.2-1.91-.02.48,0,1.24-.07,1.24v1.25c.1.13.24-.18.26.67-.29.82-.01,3.24,0,5.01l-.2-.03c.21,2.6-.24,6.57.05,6.91-.05-2.65.16-4.6.34-3.08,0-2.45-.04-4.59-.19-5.67-.05-3.29.41-8.83-.05-10.04ZM9.6,228.43c.1,1.85-.08,2.32.13,3.16.09-1.46,0-1.17.07-3.12l-.2-.04ZM8.34,224.46c-.08.72-.08,2.2-.07,3.75.21.92.18-3.72.07-3.75ZM7.74,223.73c.02,4.17-.22-.6-.33,1.2-.04,2.81.02,4.7.05,6.91.09,1.55.2-1.1.26.67-.13,1.45-.29,2.69-.34,4.96.08,1.09.22,1.74.4,1.95,0-2.26.03-5.02-.13-2.53.04-2.17.18-3.3.21-5.61-.3-1.49.07-5.61-.12-7.54ZM7.41,223.05c.02-.75.08-.37.13.02,0-1.67.21-1.33.21-3.1-.09-1.25-.53,1.67-.34,3.08ZM70.06,9.92c.75,0,1.78.01,1.9-.06-2.28-.05,1.75-.33-1.21-.27-.71.06-.22.12-.69.33ZM39,8.2c2.76.02,4.3.11,6.28-.05-.68-.04-4.97-.04-6.28.05ZM11.2,9.87c.37-.02.61,0,.82.02.1.01.2.02.31.04.05,0,.11,0,.17.01.15,0,.32,0,.5,0,.03-.05-.2-.09-.51-.12-.14-.03-.33-.05-.53-.06-.4-.02-.8,0-.76.11ZM10.28,13.46c-.04-.43-.05-.87-.05-1.31,0-.2.02-.35.03-.52.03-.34.05-.63-.04-.98-.03.1-.08.63-.09,1.14,0,.14,0,.28,0,.4,0,.27.01.52.02.72.02.41.06.64.12.54ZM10.16,73.64c-.09-.66-.24-.66-.33-1.31,0,.84,0,1.67,0,2.51.17.12.32.17.33-1.2ZM8.71,102.24c-.03-2.4.31-1.22.21-4.36-.21-.34-.18,2.14-.33.57-.02,1.8.01,3.19.13,3.78ZM10.35,112.55c-.07-1.99.11-1.51.14-2.49-.19-.19-.23,1.14-.34,1.82-.13-.03-.08-1.72-.26-1.3-.04,3.75.17,1.48.46,1.96ZM10.09,148.25c.02-1.8-.01-3.19-.13-3.78.04,2.34-.19,3.64.13,3.78ZM8.72,164.32v-3.14c-.26-.66-.27,3.7,0,3.14ZM9.71,169.51c0-1.66.04-3.68-.13-3.78.04,1.3-.12,4.33.13,3.78ZM9.49,179.5c.05-2.13-.14-5.25-.26-3.8.08.26-.14,4.83.26,3.8ZM8.47,193.75c.2-.42.28-1.9.27-4.34-.36-1.13-.26,2.12-.27,4.34ZM9.78,205.89c.19-1.91,0-4.12.21-6.23-.18-.43-.08,1.03-.14,1.86-.09,1.44-.34,3.68-.07,4.37ZM7.83,215.59c-.04-2.74-.2-4.36-.39-5.71.02,1.73-.2,4.37-.01,5.64.03-1.39.35-.43.4.07ZM7.59,199.87c-.26-.43-.08,3.43-.14,5,.02.85.09,1.21.06,2.52-.17-.41-.24.21-.2,1.85.2.5.13-1.7.34-1.2-.06,2.42.11,2.73.19,3.8-.07-3.82-.35-8.59-.24-11.96ZM7.72,166.66c-.02.49-.06.72-.13.61.04,1.94.04,1.21,0,3.13.2.61.18-4.11.14-3.74ZM7.61,154.73c-.02,1.43.01,2.36.13,2.53.02-.85.1-1.18.07-2.5l-.2-.03ZM7.69,150.35c-.19.72-.43.95-.41,3.7.24.7.13-.74.27-1.21-.01.05.09.94.13.02v-2.51ZM7.37,108.28c-.02,1.8.01,3.19.13,3.79-.01-1.84.15-1.9.14-3.74l-.27-.04ZM141.85,8.19c.22.13-1.41.18-3.18.26,1.24,0,.77.18,2.48.14.37-.09,3.26-.42.69-.4ZM155.66,8.09c-.48-.02-.72-.06-.6-.13-2.1-.05-2.08.13-3.17.19,1.11-.04,3.67.09,3.77-.06ZM325.96,145.9c-.04-1.57.3-2.53.07-3.75-.05.66-.27,2.84-.07,3.75ZM325.48,155.22c0-1.13.07-1.46.2-1.22.04-1.97-.12-2.23-.06-4.4-.12-.19-.3,3.01-.27,3.72.01.28.16-.07.13.65-.1,0-.22,1.67,0,1.25ZM325.86,165.94c.17.31.27-3.23.14-3.74-.06,1.16-.12,2.28-.14,3.74ZM326.1,350.98c-.06,2.4.31,2.47.27.04l-.27-.04ZM326,334.03c-.21-.09-.2,1.86-.21,3.73.24.41.21-1.82.21-3.73ZM331.07,327.37c-.11.82-.42-.3-.4,1.81.08.54.18.86.33.69-.01-1.19.08-1.37.07-2.5ZM331.24,311.09c-.13-.21-.13.82-.2,1.22-.16-.43-.34-1.32-.34,1.2.09.04.15-.27.2-.59-.01,1.36.05,2,.2,1.91-.05-2.18.08-2.63.14-3.74ZM325.05,308.16c.06,1.74-.15,5.86.12,5.66.2-.51-.15-.96-.06-2.52.08-.06.16-.16.14-1.23-.24.93-.04-2.14-.2-1.91ZM330.71,305.36c.02,1.55.13,3.98.33,3.19-.02-2.37-.41-3.68-.19-6.3-.19-.6-.15,2-.14,3.11ZM330.4,297.78c.14.96.15,3.16.39,3.2.08-2.87-.28-5.91-.39-3.2ZM325.14,259.26c.02-1.47.23-1.13.21-3.1-.18-.4-.34,2.52-.21,3.1ZM327.03,212.55l.27.04v-1.88c-.17-.21-.28.18-.27,1.84ZM326.85,133.5c-.02,1.86.05,6.07.12,5.04-.05-1.21-.03-6.24-.12-5.04ZM327.33,125.43c-.04,1.52-.26,1.29-.21,3.73.15-.04.37-2.7.21-3.73ZM326.41,119.64c.27.24.05-3.64,0-4.39-.03,1.42-.14,3.18,0,4.39ZM327.12,96.55c.04,1.69-.14,1.19-.2,1.85-.03,2.49-.01,4.63.12,5.66-.09.15-.08,1.36-.14,1.85.22,3.4.11,8.3.04,11.92.12-.57.03,3.59.13,1.28.02-1.18-.07-1.39-.06-2.52.16-.2.24-2.41.27-3.72.03-1.13-.06-1.6-.06-3.15,0-1.51.14-3.55.14-4.99,0-.81-.08-.87-.06-1.89.03-1.66.09-6.24-.19-6.3ZM327,20.66c-.03,1.48-.19,2.91-.21,4.35-.02,1.67.11,1.96.13,3.16,0,.62-.06.46-.07.61-.01.56.07.59.07.64.02,3.19.06,4.96.26,5.69.07-2.31-.1-5.94-.12-9.42,0-1.8.23-4.32-.06-5.03ZM253.36,8.81c1.46.02,2.57.13,3.76,0,.62-.24-4.11-.16-3.76,0ZM264.73,8.36c-2.36-.14-2.54.3-1.31.33-.43-.21,2.18-.08,1.31-.33ZM261.65,8.02c1.48.02,1.13.23,3.1.21,3.31-.17-1.92-.53-3.1-.21ZM326.74,19.36c.2.2.21-1.38.4-1.19.01.49,0,1.24.06,1.27-.02-3.39-.45-3.95-.47-.08ZM304.47,3.31c1.21.13,3.87.03,5.03-.06-2.49.02-3.8-.16-5.03.06ZM287.52,3.41c2.38-.14,2.29.09,4.37.14.1-.16,1.21-.2.06-.33-1.07.11-4.57-.05-4.42.19ZM251.75,3.55c.78.09,3.05.11,3.15-.06-.78-.09-3.05-.11-3.15.06ZM254.29,7.08c2.19.13,2.81-.03,5.03-.06-.64.26,2.36.07,2.5.07,1.32.02,1.58.19,3.1.21-.41-.29,3.44-.12,3.82-.33,1.11.02,3.15-.06,2.48.14-1.97.03-2.54-.16-3.15.06,1.02.07,1.99.1,3.12.07,1.15-.03,5.29-.46,5.66-.12-.35,0-.72.05-.01.07.82-.19,3.62.3,4.4-.06-.37-.09-2.41-.01-2.48-.14,3.01-.02,5.22.18,6.91-.05.49,0,.99.19,1.22.2.53.03,4.02-.02,4.39,0,.09,0-.11.13-.03.13,1.22.02,2.56-.13,3.77-.06.08.08-.14.19.59.2,1.38-.14-.04-.21-.57-.33,2.61-.06.72-.27,3.82-.33,1.24,0,.77.18,2.48.14.45-.11,1.71-.11,2.53-.13,3.76-.07,8.27-.07,12.54.02.56-.1.98-.21,2.54-.19,3.07-.02,5.4-.04,7.75-.06.01,2.63.02,5.28.04,9.05.24.28.27-.88.25-2.39-.02-1.5-.11-3.43-.1-4.55,0-.8.01-1.6.02-2.32-3.05-.05-5.85-.09-8.51-.14.01.11-.51.17-1.29.2-5.39-.13-8.25.04-13.19.11-.38-.15,1.81-.21-.59-.2-.75.12-2.43.14-3.18.26-4.59-.06-9.04.09-11.27-.09-2.46.12-5.13.11-6.9-.01.71.33-3.21.14-4.43.26.21-.14,1.72-.13,1.92-.26-2.16.12-3.01-.01-5.64-.01-1.05.26,2.7.03,2.47.2-.44.24-3-.02-5.65.06-.09.08-.21.16-1.28.13,1.26-.21-.22-.05-1.87-.07-2.64-.04-4.66-.06-5.66.12-.03-.12.18-.21.67-.26-2.32-.08-2.05.14-3.17.19-4.03-.06-7.77-.05-8.74-.22.1-.08,1.14-.15.03-.2-.94.08-1.02.25-1.94.33-1.7,0-2.89-.29-3.76,0,2.69.1,4.83-.05,5.62.14-1.04.06-2.87.08-4.41.12-2.68.07-.92-.03-3.13-.07-3.16.43,11.49.33,11.26.15ZM224.77,7.35c.48-.23-2.16-.24-3.11-.14-.48.23,2.16.24,3.11.14ZM205.72,8.72c1.8.01,4.11-.03,5,.08-.41-.12-2.23-.42-3.09-.27.38,0,.74.01.61.07-1.17,0-2.1.04-2.53.13ZM201.45,8.04c.99.12,3.22.07,3.77-.06-.99-.12-3.22-.07-3.77.06ZM199.62,7.71c-.14.27,1.58.18,3.11.14.68-.22-1.93-.11-3.11-.14ZM198.39,3.91c1.79.18,3.03-.12,4.42-.19-2.23-.02-3.76.04-4.42.19ZM197.2,3.51c.32-.21-1.31-.22-3.1-.21-.32.21,1.3.22,3.1.21ZM188.36,3.89c1.55.01,3.04.02,3.16-.13-.92-.11-3.56-.1-3.16.13ZM180.91,7.14c2.35.1,1.23-.18,3.16-.13,1.23.06,6.24.32,6.89.01-2.25-.06-4.79.1-5.63-.08.16.03,1.99-.05.64-.07-1.08.15-5.61-.08-5.06.26ZM180.21,3.87c1.78-.05,1.61.1,3.12.07.07-.12-.1-.21-.58-.27-1.57-.01-1.98.1-2.54.19ZM161.44,7.3c3.18-.15,5.02.18,6.28-.05-1.91-.07-1.91-.33-4.33-.34-.74.1-.76.17-.04.27-1.08,0-1.62.05-1.91.13ZM155.25,6.82c1.65.02,2.07-.09,1.93-.26-1.69,0-3.04.15-1.93.26ZM120.79,6.69c.49.02.72.06.6.13,1.76.07,4.32-.1,4.39,0-.19.14-2.78.01-2.54.19,2.23.13,2.3-.02,4.4-.06-.9-.2.25-.26-.56-.4-2.35.1-4.66.1-6.29.12ZM83.08,7.15c1.19-.01,1.37.08,2.49.07-.49-.19.91-.17.68-.33-1.84,0-2.35.15-3.18.26ZM74.31,7.13c1.4.05,2.4.23,3.74.14.04-.09-.27-.15-.59-.2,2.19-.2,3.81.16,5.02,0-.63-.2-4.01-.11-5.61-.21-.12.1.18.25-.67.26-.07-.12-2.12-.05-2.49-.14-4.06.18-1.48.05.61.13ZM3.14,21.03c0-2.61.12-3.43-.06-5.03-.02.75-.08.37-.13-.03.1,2.16-.23,4.14.19,5.05ZM3.27,22.3c.07,0,.09-1.08,0-1.26-.06,1.28-.26,1.25-.27,3.09.21.59.14-1.6.27-1.83ZM3.12,31.06c.09-.84.07-3.77-.13-3.79.11,1.73-.11,2.92.13,3.79ZM5.43,43.36c-.05-1.61-.06-3.56-.19-4.42-.09,2.66-.01,3.19.19,4.42ZM3.16,46.11c.04-2.36.09-2.84-.13-3.78-.15,1.31-.03,3.41.13,3.78ZM5.01,89.07c.01-1.55.02-3.02-.06-3.77-.12.06-.22.37-.27,1.21.29-.77.21,1.82.33,2.57ZM4.87,92.81c.04-.39.27-1.84.07-2.49-.3,1.56-.04-1.6-.13-2.53-.4.16-.09,4.33.06,5.03ZM3.75,118.96c.09-.83.14-4.35-.06-4.4.15,1.69-.11,3.17.06,4.4ZM3.77,142.79c-.08-.27-.13-.83-.13-1.9-.21-.33-.27.73-.34,1.82.12-.06.15.65.13,1.9.21.34.27-.73.34-1.82ZM3.43,148.37c.17-.29.28-1.14.4-1.81-.18.15-.49-.96-.4,1.81ZM4.76,148.6c-.1-2.39.03-6.87-.25-7.57-.1,1.06.04.74.06,1.89.04,1.92-.1,5.84.19,5.68ZM4.19,169.82c.07,1.19.09,2.9.26,3.18-.05-1.78.1-1.61.07-3.12l-.33-.06ZM3.79,166.62c.02-1.45,0-2.41-.06-3.15-.15-.53-.45.62-.27,1.21.08-1.44.26,1.27.33,1.94ZM3.58,176.62c-.05-1.58.14-5.38-.12-5.04.05,1.58-.14,5.38.12,5.04ZM3.64,176.63c.28-.2.07-5.24.15-7.5-.13-.09-.04-2.08-.2-1.92.01,4.25.17,5.1.05,9.41ZM291.28,7.08c.42-.18,1.77-.26,3.81-.26-.29.08-.83.14-1.9.13-.13.06.23.06.61.07-.21.09-1.58.05-2.52.06ZM97.47,389.01c-.4.22-2.38.09-3.77.06.66-.18,2.54-.08,3.77-.06ZM63.6,7.38c-1.57.12-6.74.2-8.79.05-.06-.28.96,0,1.88,0,1.72-.15,5.06-.07,6.91-.05ZM7.57,38.08c.07,1.92.04,4.47.05,8.16-.09-2.29-.14-6.06-.05-8.16ZM41.67,392.63c-.97.36-5.63.15-8.17.12-1.72-.03-4.66.12-4.99-.14,4.41.15,9.85.06,13.16.03ZM116.65,390.58c-1.12-.01-1.34.08-2.52.06-.59-.16-1.04-.33-1.17-.53,1.93.09,3.5.21,3.68.47ZM54.18,392.86c-1.51.15-5.62.01-8.16.05,1.87-.17,5.8-.05,8.16-.05ZM4.58,381.84c0,3.58-.01,7.66-.02,10.66,1.38,0,2.32,0,3.17,0-1.11.03-2.18.06-3.25.08-.03-1.76-.04-3.55-.03-5.37.01-1.54.03-3.11.04-4.76.04-2.76.09-5.79.04-9.4.11-1.24.05,6.17.05,8.79ZM120.35,390.92c-2.09,0-4.18,0-6.26-.01,1.2-.04,5.99-.28,6.26.01ZM137.94,390.76c-.91.16-2.18.11-3.77.06.91-.16,2.18-.11,3.77-.06ZM127.89,390.87c-2.44.13-3.89.01-6.26-.08,1.02-.11,2.85-.14,5.04-.12-.04.11.44.17,1.22.2ZM68.58,389.29c-2.59-.08-2.47.14-4.41.12-1.45-.41-4.06.03-5.63-.08.34-.05.67-.11.66-.2,1.29.04,4.13-.07,4.38.08,1.39-.06,5.15-.28,5,.08ZM324.42,79.16c-.08-4.12-.03-8.24.03-13.17.1,3.39.12,7.52.11,11.93.02,1.07-.05,1.17-.14,1.23ZM137.81,2.46h4.39c-.15.12-4.7.27-4.39,0ZM330.93,192.52c.11.11.2,2.63.19,3.8,0,.96-.06,3.48-.21,3.1.1-2.71-.01-3.5.01-6.9ZM168.54,2.45c1.33.12,4.35.06,6.88.08,2.53.02,5.96-.1,6.25.14-4.09-.1-12.08.19-13.13-.22ZM327.9,2.82c-1.59-.11.18-.13,2.66-.14,0,2.64-.01,6.08.05,6.89-.04.08-.05.56-.06,1.17,0,.54,0,1.19-.01,1.74-.03-.1-.05-.19-.06-.4-.01-.27-.03-.59-.04-.94-.02-.72-.03-1.6-.03-2.55.01-1.92.03-4.11.04-5.79-1.19,0-2.13,0-2.55.03ZM207.29,3.19c1.6.01,3.22.02,3.1.21-1.8,0-3.42,0-3.1-.21ZM164.04,3.05c-.25-.19,3.41.06,3.16-.13.5.17,4.91-.07,4.35.21-2.67,0-4.37-.12-7.51-.08ZM143.98,3.01c2.87-.03,3.45.17,5.61.21-.12,0-6.37.09-5.61-.21ZM165.88,3.32c2.06,0,4.44-.02,4.35.21-1.03-.11-4.58.03-4.35-.21ZM174,3.53c.51-.23-2.53-.09-1.82-.34,2.09,0,2.1.22,4.35.21-.17.12-1.1.15-2.53.13ZM324.57,109.91c-.23-1.17-.12-4.79-.12-6.92.01-5.85.02-10.5.03-15.67,0-2.59-.24-6.02.08-6.88-.16,4.98.05,10.36.04,15.68,0,4.07-.07,8.72-.03,13.79ZM324.47,55.34c-.02-1.18-.07-4.66.01-6.27.19,1.58.08,4.25-.01,6.27ZM324.61,18.99c-.1-.96-.1-2.77-.12-4.41.25-.46.08,2.98.12,4.41ZM324.55,47.83c-.26.12-.11-6.85-.05-8.16.15,1.51.01,5.63.05,8.16ZM324.68,156.96c-.17-1.98-.07-3.52-.05-6.28.15.89.02,4.37.05,6.28ZM324.91,207.17c-.22-.7-.05-2.25-.06-3.77-.03-5.4-.07-12.95-.1-18.2.37.96.12,4.05.12,5.66,0,4.52.02,9.14.04,16.31ZM324.55,118.06c-.22-.81-.16-7.58.01-6.9-.09,1.82.04,3.75-.01,6.9ZM324.69,149.44c-.18-.04-.15-2.98-.06-3.77.15.1.02,2.66.06,3.77ZM80.73,2.55c1.3-.15,5.21-.01,7.53-.05-1.3.15-5.21.01-7.53.05ZM3.65,274.46c-.11-.86-.1-2.8-.19-3.8-.06.27-.12.53-.14,1.23-.24-1.03.16-.91.07-2.5.13,1.16.35,3.72.26,5.06ZM3.49,289.48c-.34-.58-.11-3.04-.06-5.03.15.49.02,3.52.06,5.03ZM2.73,268.65c0-1.87,0-3.82.21-3.73-.15.43.05,4.35-.21,3.73ZM2.91,283.11c-.18-1,0-3.76.08-4.38,0-1.56-.12-1.96,0-3.14.19,2.1-.02,5.72-.08,7.51ZM3.26,269.37c-.15-.56-.01-2.04-.06-3.15-.02-.4-.13-.51-.13-.65-.03-1,.08-1.09.07-1.87-.01-.58-.27-1.78-.19-3.8.2-.6.12,1.42.13,2.53.21-.28.27,1.52.33-.57.23.81-.06,1.29-.07,1.87,0,.86.11.2.13.65.05.96-.16,2.54-.07,4.38-.08-.11-.12.12-.13.6ZM3.27,234.26c.03-3.12-.22-3.78-.12-7.55.14.32.13-.87.14-1.86.29,1.58.28,5.29.05,7.53.17-.04.21-1.14.33.06-.04-2.75-.03-9.97.35-10.6-.01,2.62-.19,3.68-.21,6.23-.02.76.19,2.2.2.66.21,4.03-.1,10.98.04,14.43-.25-1.13-.19-4.4-.26-5.69-.15-.49-.28,2.26-.14,2.48-.17,2.3-.14-2.4-.13-3.79.12-1.14.19.31.33.69-.04-2.53.07-3.57.08-5.63-.26-.56-.15,2-.2,2.47-.02.17-.1-.96-.13-.65-.04.45.01,2.35-.2,1.85,0-.61-.08-.5-.13-.65ZM2.27,269.2c-.03-2.54-.24-4.71-.32-6.95-.06-1.65.11-.84,0-2.51-.21-3.26-.25-8.83-.3-15.73.09-.6.09-2.1.2-2.47.3-.16.17,3.62.46,1.96.1,2.23-.04,2.8.06,5.03.28.02.18-3.73.21-6.23.12-.06.14.79.26.67-.26,3.13-.05,7.34-.09,11.9-.14.27-.13-.92-.13-1.9-.05-1.43-.2-1.91-.33-2.57-.2,2.23.05,1.99.13,3.16-.03,4.97-.24,9.3-.03,13.17-.09.4-.13,1.32-.14,2.48ZM2.16,257.27c.09-.15.08-1.36.14-1.86-.26-.46-.2,2.35-.21,4.35.01,4.26.11-.7.07-2.5ZM3.12,239.87c.07.17.04,1.26.13,1.28.15-.05.03-2.65.07-3.75-.06,0-.05.76-.07,1.24-.21.29-.29-1.77-.27,1.21-.17-1.41-.11-1.86-.06-3.78.01-.48.09,1.35.06,1.27.06.24-.02-3.58,0-4.39.14-.27.12.92.13,1.9.26,1.79.4,4.56.38,8.84-.05-.34-.11-.67-.2-.66.08,1.29.32,1.2.26,3.81-.17-.21-.29.18-.27,1.83-.39-.68-.23-3.94-.32-6.32.18-.03.13,1.06.27.04-.03-.99-.21-.57-.13-2.53ZM3.95,291.44c-.1-.16-.02-1.87-.13-1.9,0-1.64,0-3.63,0-5.02.02-2.2,0-4.84.21-4.98.02,1.52-.12,1.35-.07,3.13l.2.04c.22-1.77.03-3.63.08-6.89.25-.67.1,1.96.13,3.16.02.96.11,2.19.13,3.16.04,3.16-.03,6.55.05,8.79-.16,1.51-.12-.96-.33-.68.27-.53.24-5.27.15-7.5-.19.49-.31,1.69-.34,3.7.17.4.24-.21.2-1.85.18,2.41-.24,4.43-.28,6.85ZM3.15,224.83c-.29-2.53.14-3.16.08-6.89-.09,2.73-.23,1.22-.26-1.3.31.4.1-2.42.34-3.71.05.44.21,2.68.2.03.26.64.05,3.17.06,5.03-.15-.45-.04-3.29-.33-2.56,0,.61.08.5.13.65,0,1.46,0,2.92,0,4.39.01,1.01.32-.97.26,1.93-.21,1.21-.48-2.56-.47,2.43ZM3.32,310.14c-.03,2.22-.19,1.51-.07,3.75-.26.32-.09-4.15.07-3.75ZM302.33,390.2c1.51-.15,5.63-.01,8.16-.05-1.51.15-5.63.01-8.16.05ZM3.45,310.79c-.09-1.26-.13-2.94-.33-3.19.02-2.17-.01-4.82.21-4.98-.13,1.29-.06,4.15-.01,5.64.06,0,.05-.76.07-1.24.13.55.18,2.78.06,3.77ZM311.79,393.55c-.17.12-1.1.15-2.53.13-.09.18,1.02.14-.05.27-2.34.11-4.92.08-7.54.12-4.04.06-8.2.16-12.57.18-.96,0-1.71-.07-1.87-.07-6.3-.01-12.61.19-18.85.23-1.11,0-2.59-.08-3.75-.07-.7,0-1.77.13-2.53.13-.99,0-2.14-.08-3.12-.07-4.32.02-9.76.1-14.43.04.55-.19-.86-.17-.57-.33-2.53.08.15.14-.05.33-4.62.06-6.82-.02-8.81.18-1.43.15-1.75-.07-2.5-.07-1.36,0-2.64.21-4.39,0,.68.43-1.83.12-3.18.26,1.28.07,1.7.22,2.45.34,1.05-.1-.24-.25,1.32-.4,1.98-.03,2.19.12,4.37.08l-.04.27c2.1.03.42-.35,3.2-.39.06.12-.79.14-.68.27,2.44.06,3.29-.24,5.03-.06,1.78-.14,3.45-.3,6.94-.25-.9.1-2.19.17-3.79.19.6.09,1.65.14,2.47.2,1.38,0-.58-.14-.6-.13.35-.1,1.11-.01,1.89-.06.97-.06,1.04-.34,3.16-.13.61.18-1.38.07-1.9.13-.54.06.13.25-1.3.26,2.34.27,3.74.09,6.25.15.06-.31-2.51-.05-3.1-.21-.73-.28,2.12-.17,2.56-.33,2.1.06.29.12.57.33,1.13.12,1.66.31,4.34.27-.04.24-2.36.42-3.17.19-1.72.06,1.65.13.57.33-1.33.16-2.91,0-4.39,0-.6,0-1.38.07-2.52.06-2.89-.02-6.21-.15-9.38-.15-1.28,0-1.7.07-2.52.06-4.49-.02-10.04-.12-14.41-.09-1.89.01-3.24-.05-5-.08-10.55-.13-21.64-.18-31.91-.39-1.02-.02-1.61-.11-2.49-.14-2.15-.07-4.3,0-6.9-.01-1.99,0-2.82-.12-5.02-.01-1.97.03-1.63-.18-3.1-.21-3.12.12-6.59-.1-10.04.05-1.12.02,0-.26,1.29-.2-2.26-.24-5.63.08-5.05.19-2.29-.07-5.24-.07-5.58-.34-3,.3-8.03-.23-10.68.11-1.18.06-1.48-.13-1.86-.14-.44,0-1.05.08-1.89.06-2.73-.06-7.48-.22-11.25-.22-.91,0-3.1.02-3.16.13-.73-.01-.51-.12-.6-.2-3.44.06-6.18.06-8.77-.02-.61,0-.5.08-.65.13-2.32-.12-3.57.05-4.99-.14-1.39-.04-.92.13-1.9.13-1.41-.08-4.21-.13-6.88-.15-1.62,0-4.69.04-5.65.06-1.31.02-2.58.11-3.78.13-4.59.05-9.26,0-13.16-.02-3.69-.02-7.56.23-10.03-.02-1.06.02-1.42.12-2.53.13-1,0-1.1-.08-1.87-.07-1.43.02-3.47.12-5.04.12-3.55,0-6.9-.12-10.65-.09-.96,0-1.12.06-1.89.06-1.08,0-2.08-.07-3.13-.07-.8,0-1.8.12-2.53.13-.33,0-1.16-.07-1.87-.07-1.12,0-1.33.06-2.52.06-4.87-.01-10.12-.09-14.42-.03-1.03.02-1.07-.08-1.87-.07-.53.01-1.11.03-1.72.04-.34.01-.69.02-1.05.03-.57,0-1.16.02-1.77.03-2.42.04-5.16.05-8.01-.03.01-.35.02-.71.03-1.08-.1-2.09-.1-4.84-.08-8.01.01-1.02.02-2.12.03-3.28,0-1.02,0-2.1,0-3.24.13.09.04,2.08.2,1.91.01-1.57-.1-1.98-.19-2.54.12-1.17.06-4.13.08-6.26.02-1.44-.19-.73-.2-1.91-.05-6.36.1-12.14.03-17.55-.02-1.45-.12-2.44-.13-3.79-.03-3.94.08-7.95.09-11.9,0-1.2-.07-2.62-.06-3.77.01-1.15.11-1.84.14-3.11.02-1.14-.06-1.94-.06-3.15.05-4.62.11-10.04.16-15.02.2-.34.02,2.43.06,4.4.02,1.18.3,4.1,0,4.39-.04,2.21.23,1.58.19,3.79-.11-.04-.17.44-.2,1.22.15-.28.29,2.19.06,3.77.25.71.11-2.33.34-1.82.02,4.25.03,6.01.05,9.42.26.59.11-2.72.4-1.81-.16,4.35.24,7.38-.09,10.64.03,1.31.1,1.35.2.66.09,1.44-.18,2.33,0,2.51-.02,1.48-.18-.75-.26-.67.15,4.43.23,7.21.11,11.93.06,0,.05-.76.07-1.24,0,2.24.14,8.04-.02,11.28-.04,2.21.23,1.58.19,3.8-.1.75-.13,2.13-.14,3.74-.03,1.06.05,1.19.13,1.28-.03,1.39-.16,3.37.06,3.77.15-.44.03-3.51.08-5,.17.2.29-.18.27-1.84-.01-.51-.07-.64-.06-1.27-.07.4-.07,1.43-.2,1.22.18-15.52-.02-22.31.14-36.97.09-.74.1-.23.2.03,0-4-.05-7.39.02-10.66-.02-.68-.13-.45-.13-1.28.04-1.72.08-3.5.34-3.07-.08-1.67-.05-1.96-.26-1.3.04-.63.15-.62.14-1.86.24.29.25,2.69.39,3.83-.13,2.3-.09,2.24-.08,5.63-.24.93-.04-2.14-.2-1.91-.16,1.23-.02,4.94.19,3.17-.07,2.44.14,3.67,0,5.02-.14.27-.12-.92-.13-1.9-.18.87-.04,4.03.13,3.78-.07,3.16-.09,6.78-.02,10.66-.04,1.77-.17,2.64-.21,4.35.01.68.13.45.13,1.28-.05,5.84.06,13.38-.1,18.17-.23.6-.1-1.96-.13-3.16-.24,2.19.08,4.59.19,5.67-.04,2.73-.08,5.21-.11,7.61,0,3.29-.01,6.46-.02,9.74,2.93,0,5.96-.02,9.23-.02.45.13,1.86.05.59.2,1.96.08,1.54-.1,2.53-.13,4.96.1,10.55.14,15.04.1,2.34-.02,5.29-.04,7.53-.05,1.94.03,3.27.05,5.01.08.98-.02,2.15-.04,3.15-.06.97,0,1.44.13,2.48.14.86,0,5.98-.06,7.55-.12.65-.02.47-.12,1.28-.13,1.51.1,2.1.09,4.38.08,2.09-.01,2.65.16,3.77-.06,1.99,0,2.07.18,4.37.14-.09-.08-1.13-.06-1.87-.07.7-.26,2.36-.06,3.77-.06,7.84.01,14.88-.06,24.45.05,2.95,0,8.36.02,12.53.02,1.13,0,1.31.08,2.5.07,2.52-.01,5.64-.19,6.89.08.56-.16,6.33-.22,7.55-.12.28.02-1.45.1-1.89.06-.22.12,3.49.13,2.52-.06,1,.12,2.59.17,4.99.14,0-.06-.76-.05-1.24-.07,2.54-.15,7.73,0,11.3-.04,2.31.18,4.9.33,9.36.28-.37-.14-3.16-.02-2.46-.27,3.6.07,4.19-.17,8.17-.12,2.34.03,4.8.15,7.5.15-.11.08-1.15.05-1.89.06,1.33.18,4.18,0,2.54-.2,1.43-.02,2.35.02,2.48.14,3.72-.19,9.79-.02,14.44-.11-2.16.2,2.65.28,3.74.14-.35-.24-3.2.17-2.48-.14,6.03.01,13.35.03,17.55.03-.19.11.57.12.6.2.65-.07,1.28-.13,1.91-.2,2.7,0,5.53.01,8.15.02,4.54-.04,9.44.08,14.41.09,1.17-.02,2.6-.04,3.77-.06,5.26,0,14.6.09,21.32.04,2.04-.04,3.76-.08,5.67-.12,4.08-.04,7.93.03,11.91.02,4.98-.04,9.84-.07,14.44-.11,1.12,0,1.31.07,2.5.07,1.24,0,1.74-.07,2.52-.06,1.64,0,3.43.16,5.03-.06,7.65.01,8.65.02,16.3.03.06.12-.79.14-.67.27h-5.02c-1.36-.02-.33.23-.69.32,1.38.04.92-.12,1.9-.13,1.58-.01.56.11,1.23.14,1.05.04,1.68-.06,1.89-.06,1.56.01,1.79.27,3.11.14ZM4.07,368.59c-.01-1.26.3-2.49.07-3.75.01,1.26-.3,2.48-.07,3.75ZM3.13,342.09c.08-1.17.09-2.95.14-4.37-.24-.4-.4,3.26-.34,3.7.04-1.81.1.98.2.66ZM2.38,348.23c.18.03.27-4.14.14-4.99-.08,1.36-.18,2.53-.14,4.99ZM2.54,369.58c.05-1.42.18-5.23-.06-5.65.11,2.17-.11,3.76.06,5.65ZM3.97,385.97c.02-.16.03-.41.04-.72,0-.28,0-.6.01-.96,0-.55-.01-1.19-.03-1.76-.04-1.15-.11-2.04-.14-1.44.07.28.06,1.27.06,2.26,0,.52,0,1.03,0,1.44,0,.59.03,1.03.07,1.18ZM44.53,394.3c-1.65-.07-3.18-.08-4.4.06,1.36.04,4.02.17,4.4-.06ZM63.36,394.21c-.16-.16-1.71.07-1.9.13,1.88,0,3.76,0,5.64.01.64-.24-2.45-.1-3.74-.14ZM139.31,393.75c-1.96-.04-2.58.08-3.17.19,1.6,0,3.23,0,3.17-.19ZM142.55,393.16c-2.32.07-7.38-.29-8.16.05,2.39.09.96.03,1.89-.06,2.01-.21,5.95.45,6.27.01ZM156.36,393.05c-1.18-.12-3.86-.03-3.79.19,2.41.06,2.73-.11,3.79-.19ZM157.59,393.19c1.84-.01,1.9.15,3.74.14.84-.22-3.13-.28-3.74-.14ZM184.29,394.77c-.84,0-1.67,0-2.51,0-1.05.31,3.2.24,2.51,0ZM193.7,394.72c-3.34.08-1.89-.33-4.97-.28.02.22,2.12.22,3.08.34.73.22-2.04.05-1.3.26,2.13,0,2.37-.19,3.19-.33ZM213.65,395.43h2.51c.54-.25-2.96-.26-2.51,0ZM217.52,394.77c-1.8-.02-3.19.01-3.78.13.7.02.96.08,1.23.14,1.6,0,2.45-.09,2.55-.26ZM250.03,395.36c1.23.14,1.78.34,3.69.41,1.05-.23-1.75-.21-2.46-.27-.2-.02.18-.11.02-.13-.08,0-1.1-.06-1.24-.07-.81-.05-1.66-.03-2.5-.07-.66.2,1.38.12,2.48.14ZM245.61,395.55c-1.04,0-2.09,0-3.14,0-.99.2,4.06.21,3.14,0ZM240.04,395.08c.48.34,3.25.05,4.35.27-.17-.15,1.82-.07,1.91-.2-2.37-.09-3.48.02-6.26-.08ZM234.93,395.67c1.56.09,1.81-.1,3.16-.13.65-.01,3.33.23,3.15-.06-1.18-.1-6.4-.07-6.31.19ZM224.92,395.51c1.53-.04,3.24-.05,3.18-.26-1.53.03-3.23.05-3.18.26ZM289.22,393.57c-.24-.13-.18-.29-1.84-.27-1.13.14-1.45.19-.69.4,1.7.05,1.28-.13,2.53-.13ZM298.06,393.19c-.7-.02-.96-.08-1.23-.14.67,0,1.6-.03.64-.07-1.38.15-2.13-.06-4.39,0-.26.29,2.25.18,3.74.14-.21.11.81.18,1.24.07ZM4,301.48c0-3.04-.14-3.53-.25-6.31.11-1.71.26-3.02.41-4.32.24,1.33.29,4.31.39,6.97-.13-1.06-.26-2.14-.26-4.44-.18-.22-.22.83-.2,2.47.33.49.71,7.93.18,8.81.01-1.56.13-1.92,0-3.14-.31,2.57.12,7.52-.15,9.38l.27.05c.06-2.35-.08-3.01-.06-5.03.38-1.21.33,5.97.12,6.29.07,1.77.07,3.27,0,5.02-.12-.59-.11-2.32-.26-2.55,0-1.18.22-.4.2-1.84-.01-.91-.2-.26-.2-1.29-.09.18-.06,1.57-.07,2.5-.28-.76-.31-3.52-.32-5.7,0-2.08.22-4.55.21-6.87ZM3.14,301.96v-1.88c.16,1.56.13-.91.34-.57,0,1.98-.17,2.13-.34,2.45ZM3.51,312.68c-.05,2.42,0,2.23-.07,3.75-.1-.03-.14-4.67.07-3.75Z"/>
</svg>