<?xml version="1.0" encoding="UTF-8"?>
<svg id="Layer_1" xmlns="http://www.w3.org/2000/svg" viewBox="0 0 138.39 137.23">
  <defs>
    <style>
      .cls-1 {
        fill: #fff;
      }

      .cls-2 {
        fill-rule: evenodd;
      }

      .cls-2, .cls-3 {
        fill: #064e68;
      }
    </style>
  </defs>
  <g>
    <circle class="cls-3" cx="69.19" cy="68.61" r="55"/>
    <path class="cls-2" d="M25.24,50.6c.31.13.07.42.52.51l-.14.37c-.25-.03-.19-.64-.42-.31-.2-.13,0-.36.04-.56h0ZM24.92,48.54c.15.11-.02.29.18.38.04.32-.35.05-.43.1-.22.14-.11.82-.62.47.18-.54.51-.79.87-.95ZM25.55,50.73c.09-.2.14-.42.25-.61.44.2.35.99-.25.61ZM26.92,42.91c.03.41.16.4-.23.67-.12.23.44.37.43.58l-.74,1.15c-.35.3-.07-.32.08-.43-.37-.16-.53.25-.95-.07-.11.23.45.35.45.57-.24.78-.91.54-1.45.63.01.47-.2.87-.66.92-.03-.73,1.01-1.3,1.46-1.76-.19,0-.3.2-.57,0,.26-.44.56-.96,1.14-.64.75-.46.22-1.37.62-1.9-.02.03.51.21.43-.05-.39-.28-.53.22-1-.3.54-.2.2-.61.39-.93.13-.22.51-.18.59-.63.13.1.02.22-.01.33.12.65,1.15,1.18.81,1.86.02-.39-.63-.72-.69-1.11-.18-.09-.25.14-.37.26.28.3.33.41.84.87-.09.29-.34.09-.57-.04v.02ZM26.55,48.29c.56.18.33.67,0,.73-.32-.17-.17-.45,0-.73ZM27.91,45.72l-.14.22c-.1.43-.42.23-.61.42-.63.99.03-.2-.11-.52.29-.02.47-.37.87-.12h-.01ZM27.27,47.62c-.06.28-.26.26-.39.39-.21-.28.21-.68-.51-.86.2-.23.84.32.89.47h.01ZM25.04,48.3c-.24.3-.48-.22-.18-.39-.43-.07-.39.87-.81.84-.18-.43.29-.4.29-.93.38.13.5-.29.94,0,.03.3-.66.19-.25.48h0ZM24.17,51.02c-.72-.12-.26-1.32.34-.88-.3.29-.37.46-.34.88ZM60.06,120.92c-.26.53.41.34.67.46-.17.29-.79.38-.74-.13-.28-.02-.2.54-.42.61-.3-.35-.85-.13-1.16-.37-.05-.04.14-.43.11-.49-.07-.12-1.04-.15-.5-.48.61,0,.58.41.76.69.38.05.72.03.95-.18-.06-.73-.48-.08-.88-.15-.32-.84-2.61-.72-3.46-1.45,1.06.17,2.23.5,3.41.79,1.19.21,2.36.47,3.36.72-.43.43-1.67-.45-2.1-.02ZM64.98,119.46c.25-.72.79-.17,1.18-.42.23-.15.15-.11.57.04.19,1.23-1.62.37-1.74.38h-.01ZM63.77,118.84c-.11.12-.27.42-.06.5.28.14.37-.26.18-.31.32-.47.65.25,1.13.09l-.03.33c-1.1.11-2.19.41-3.07.25-.47-.1-.46-.6-1.11-.36-.13-.25,0-.27.09-.5-.05-.47-.64-.5-1.02-.69,0-.67,1.11.38.89-.19.36-.47.32.56.44.76.39-.2.3.36.37.4.14.1.44-.02.56.1.06.06-.06.5.23.38.15-.01.09-.18.05-.33-.12-.44-.3-.07-.65-.45-.02-.02.25-.26.19-.31-.22-.19-.85.14-.64-.45,1.11.24,1.65.53,2.45.77h0ZM63.42,119.29c-.26-.12-.19-.52-.66-.46-.24.46.5.82.66.46ZM23.93,48.99c-.25.51-.86.23-.96.94-.35-.57-.2-.93.44-1.03-.25-.42-.27-1.13.42-1.19.49-.13-.29.27-.32.62-.09.28.28.44.42.65h0ZM67.88,118.66c.54-.08,1.24.87.39.87.5-.53-.49-.29-.39-.87ZM66.68,119.75l.72.05c.2.53-.97.45-.72-.05ZM24.96,51.77l.14-.37.62.25-.14.36c-.23-.33-.2-.07-.62-.25h0ZM59.56,117.6c.19-.42.7-.24.85-.71.93.22,2.13.21,2.82.67-.88.28-1.79-.38-2.61-.29-.44.05-.63.38-1.06.33ZM28.7,89.51c.48-.02.71.17.87.47.17.29.31.68.51,1.09-.54.18-.4-.49-.66-.79-.24-.32-.61-.43-.72-.77ZM28.43,42.09c-.3.5.72.21.34.72.19.02.31-.16.56.05-.01.29-.32.3-.5.47-.17.16-.24.77-.64.38.12-.29.3-.42.5-.47.17-.24-.47-.33-.42-.27-.23-.26.31-.52-.34-.71.68-.31.11-.85.66-1.04.07.14.15.28.34.4-.18.11-.21.7-.5.48h0ZM57.17,116.27c.32-.4.64-.13.79.22.13.03.15-.17.21-.29.23.42.66.03.96.1.15.05.64-.06.46.45-.53-.32-.97.24-1.31.18-.43-.09-.53-.58-1.11-.66ZM116.42,95.68c.7.16.22,1.76-.51,1.12.16-.26.49.08.61-.34.15-.33-.48-.09-.59,0-.4.53.59.81.13,1.36-.42-.4-.65-1.19-.34-1.66.21-.31.49-.13.69-.47h0ZM108.36,105.3c-.19.32-.35.99-.86.42.25-.16.53.14.75-.31-.33-.48-.57.29-.91-.26.33-.23,1.46-.59.81-.86-.18-.46.61-.54.88-.2-.07.17-.36.26-.41.43-.03.09.15.31.14.34-.08.18-.31.27-.41.44h.01ZM111.54,105.11c-.04.6-1.07,1.22-1.49,1.82-.06-.35-.12-.69-.63-1.04.23-.49.54.19.82.35.4-.2-.12-.37-.15-.57-.02-.13.11-.39.21-.22-.14-.22-.31-.35-.6-.34-.14,0-.02.24.02.22-.17.05-.97-.07-.99.32-.17-.41.22-.86.63-.66.59-.57.14-.89.92-1.22.31.3-.1.59-.38.89l.37.34c.4-.46,0-.83.72-1,.1-.15-.14-.3-.27-.44.19-.38.47,0,.67-.23.29-.32-.25-.6.3-.94.43.36.23.75-.05,1.16-.1.63.16.76.47,1.22-.22.6-.58-.47-.81.12-.1.17.14.34.25.22h-.01ZM113.8,96.35c-.12-.32.27-.16.46-.41.17-.23.06-.48.17-.59.3-.28.77-.28.99-.61.58.8-.92.67-.74,1.47-.32-.04-.62,0-.88.14ZM113.1,98.38c-.29-.12-.07-.87.27-.71.01-.42-.22-.8.21-1.27-.18.77.47.61.86.21.41,1.03-.92.9-.98,1.86-.15-.13-.26-.14-.37-.07v-.02ZM104.74,108.67l.34-.3c.2.36.47.74.09,1.03-.4-.28-.12-.47-.43-.74h0ZM106.28,110.23c.27-.14.53.18.81-.26.05-.19-.13-.39.13-.56.15.19.3.37.46.27-.16.4-.78,1.18-1.4.55ZM107.68,109.45c-.33-.61.6-.45.95-1.05-.71-.31.83-.66.85-1.36.6.42-.25.9-.51,1.27-.4.5-.77,1.16-1.3,1.14h.01ZM106.88,109.03c-.11-.12.06-.22.12-.33-.19-.22-.38-.25-.57-.17-.17-.15.52-.74-.11-.57-.36-.49.5-.25.57-.28.18-.07.27-.34.46-.4.08-.02.28.16.35.14.26-.06.31-.45.56-.08.22-.17.41-.68.66-.21-.44.13-.75.58-1.23.73-.29.1-1.11-.39-.92.36.42.05.85-.57,1.27,0-.49.61-.97.07-1.16.8h0ZM115.12,94.91c-.18,0-.35,0-.29-.17.1-.3.41-.71.71-1.18.28-.49.59-1.02.79-1.52.13-.53.5-.34.15.08-.17.5-.32,1.02-.51,1.52-.18.5-.5.92-.85,1.28h0ZM106.09,106.83c.04-.36-.5-.79-.02-1.09-.17.46.9.37.36.8.31.19.59-.47.91.08-.76.03-.96.85-1.81,1.14,0-.58-.27.06-.56-.4.37-.59.75-.04,1.12-.53h0ZM105.16,105.41c-.63.02.84-.61.5-.93.46-.11.28-.58.81-.61-.28.46-.39,1.41-.75,1.5.12-.57-.16-.33-.56.04ZM114.01,99.39c.27-.2-.05-.46,0-.55.18-.34.46.09.74-.23.26.61.76.45.5,1.09-.48-.2-.26-.51-.74-.71-.28.28-.04,1.03.41.85.14.13-.02.18-.1.12l-.19.25c-.49-.21,0-.52-.49-.73-.28.63-.11.92-.71,1.19-.39-.3-.29-.65-.3-.98.3-.39.58-.08.87-.3h0ZM120.31,82.66c-.39.18.22-1.17.28-1.62.66.43-.26.98-.28,1.62ZM121.49,89.4c.36-.13.63-.46.77-1.05.48.25.1,1.23-.25,1.1.33.2-.02.68.18.94.67-.26.47-1.49.48-1.71,0,.03.31.09.31.12,0-.36-.22-.61-.4-.84.09-.26.27-.34.49-.33.07-.4.07-.91.25-1.1-.01-.65.72.22.71-.44.02-.23-.28-.11-.38.04-.16-.12-.09-.33.02-.57.09-.24.21-.5.22-.7.18.26.09.67.26.93.14.02.21-.1.37-.05.03-.37-.2-.61-.26-.93.5.31.74-1.07.92-1.41.1.35.25.66.22,1.08.23.02.24-.36.34-.58.34.63.05,2.56-.4,3.5-.11.26-.19.27-.43.2,0,.19.23.21.2.42-.06.35-.41.13-.43.19-.07.19.18.36.14.58-.07.36-.62.68-.79,1.11-.29.68-.26,1.41-.66,2.05-.34.56-.95.96-1.34,1.55-.15.23-.04.45-.07.51-.48.99-1.46,1.66-1.43,2.76-.2.02-.38.12-.55.25-.25-.3.57-.84-.15-1.02-.03.51-.09,1.03.04,1.52-.91.35-1.24,1.8-2.03,2.57-.28.28-.47.11-.76.26-.39.22-.61.76-1.06.62-.55-.54.42-.82.6-1.13.27-.41.52-.93.77-1.21.12-.13.03-.36.03-.36.08-.09.51-.19.54-.22.11-.15.15-.57.28-.76.33-.46.55-.53.54-1.16.45.21.2.86.73.42.06-.24-.22-.05-.44-.25.03-.39.29-.85-.11-1.15.81-.97,1-1.79,1.81-2.45.15-.61.06-1.14-.34-1.56.3-.29.6-.65.74-1.21l.62.27c.19-.37.19-.66-.23-.79h-.07ZM119.48,94.75c.18.06.31-.03.44-.12-.69-.37-.49.25-.73.69.32.01.76.36,1.03.2-.18-.49-.74-.17-.74-.77ZM120.28,93.91c-.3.41.21.59.08.95-.15-.08-.31.15-.15.29.11-.62.67.07.81-.48-.63-.14-.24-.58-.75-.75h.01ZM121.09,93.06c-.47-.14-.71.33-1.03.55.36.34.49,0,.82.24.24-.32-.12-.45.21-.79ZM124.74,87.03c.08-.11.2-.13.38-.04.05-.41.17-.84-.34-.98-.2.43-.26.79-.03,1.02h-.01ZM122.49,91.4c-.06.54-1.09,1.26-.58,1.16.22-.11,1.05-1.37.58-1.16ZM121.61,90.48c-.91-.28-.77,1.42-.31,1.79.57-.75-.34-.99.31-1.79ZM68.85,119.07c.48.16.19-.65.71-.49-.05.51-.58.44-.44,1.18-.25-.06-.32-.31-.27-.69ZM124.23,68.61c.7.21-.07.77.07,1.39-.34.36-.04-1.02-.07-1.39ZM116.72,95.51c.1-.61.56-.02.7-.48.34.45-.61.53-.35.87-.43.35.19-.39-.35-.39ZM118.61,95.35c.37.11.05.38.27.52-.39.29-.5.47-.59.94-.55-.61.13-.74.32-1.46ZM117,90.72l.27-.53c.09.13.18.25.39.35l.13-.27c.05-.18-.24-.27-.3-.14-.38-.37.36-.45.49-.59-.27-.14-.4.02-.68-.14.7-.08.72-.54.88-1.22.35.2-.16.69.4.82,0,.1-.47.28-.47.28-.02.09.24.27.24.27-.14.3-.44.51-.61,1.2-.3-.14-.38.27-.74-.03h0ZM30.29,40.42c.42.28.18.73-.15.73-.28-.23-.08-.48.15-.73ZM117.88,92.33c.28-.56,1.12-.69.47-1.29.09-.58.57-.21.72-.67.4-.47-.22-.96.34-1.18.25.26.19.77-.04,1.32-.27.72-.72,2.05-1.49,1.82ZM117.89,92.68c1.13.72-.51,1.22-.31,2.09-.59-.53-.13-.17-.6.01-.46-.86,1.08-1.1.9-2.11h0ZM119.8,92.25c.13-.25-.03-.38.13-.63.71.06-.25.63.17.78-.47.6-.98,1.1-1.36,1.95-.53,0,.85-1.7,1.06-2.09h0ZM111.75,69.17c.69.32,1.68.47,2.1,1.06.06.09,0,.43.12.64.11.2.59.73.25,1.16.08.27.32.44.46.68-.05.46-.12.87-.17,1.25-.05.38-.08.74-.1,1.07-.06.67-.12,1.27-.4,1.83-.14-.12-.21-.28-.26-.44-.53-.01-.27.29-.27.59-.54,0-.97.55-.86.84.6-.23,1.11-.51,1.21-.9.33.58-.27.9-.17,1.52-.5-.34-.66.23-.58-.39-.27.12-.53.51-.37.68.52.1.58-.37,1.25-.09l-.18.62c.01-.84-1.11-.12-.79.32.24.08.14-.25.27-.32.38-.21-.13.69.05,1.07-.19.03-.25.24-.55.11.29.48-.52.85-.85,1.18-.08-.7.04-1.45-.89-1.81.07-.11.34.01.39-.14,0-.38-.38.02-.65-.18.25-.4-.04-.6.1-.97.52,0,.21.33.19.55.72.31.6-.73.27-.93.03-.38.58-.15.53-.62-.12-.15-.26-.31-.41-.46-.36-.07-.08.38-.08.35-.09.14-.37.11-.43.27-.07.18.13.59-.27.92.04-.53.13-1.06.17-1.6.01-.54.03-1.09.04-1.63.67.26,1.14.33,1.66.29.19-.35-.22-.4-.04-.75-.09-.35-.36.27-.85-.01l.11-.59c-.77-.06-.7.28-.65.74-.6-.39-.19-1.25-.34-1.83.12.08.25.15.48.18.07-.29-.18-.39-.24-.62-.15.04-.3.07-.36.19-.46-.55-.37-1.42-.51-2.14.23.15.4.15.51-.08.14-.25-.58-.51-.65-.27-.37-.04-.03-.49-.11-.69.53-.28,1.42-.3,1.9-.64h-.03ZM112.41,77.94c-.52-.13-.98.71-.44.91.34-.27.08-.5.44-.91ZM112.67,75.73c-.5.29-.52.43-1.39.12-.29.57.95.36.93.54-.45.1-.67,1.02.14,1.16.26-.34-.21-.35-.24-.55.26-.45,1.11-.74.56-1.27ZM112.13,73.06c-.38.44-.06.59,0,.85.04.18-.33.74.22.65.35.02.14-.52.44-.55-.78-.27-.28-.6-.67-.94h0ZM113.09,73.42c.42.09.5-.2.57-.43-.56-.19-.54.11-.57.43ZM111.84,72.42c-.05.3.23.4.47.54.06-.16.25-.21.2-.47l-.67-.07ZM111.36,72.02c.11.11,1.14.43,1.01-.03.01-.19-1.22-.37-1.01.03ZM110.81,70.32c0-.12-.21-.1-.18.11.55.06.82-.1.88-.43-.53-.13-.26.38-.7.32ZM79.43,118.28c-.39-.15-1.09.22-1.21-.35.59-.21.84.21,1.42-.04,0,.19-.25.18-.21.4h0ZM78.89,117.67c-.53-.3.5-.8.76-.48-.08.4-.71-.12-.76.48ZM83.3,116.33c.04.35-.88,1.44-1.55.7-.22.19-.44.39-.74.52-.06-.13.02-.17.1-.2,0-.15-.09-.14-.17-.13.23-.83,1.98.3,1.64-.9.35-.22.41.15.72,0h0ZM77.83,118.15c-.7-.06-.65.57-1.35.51-.08-.71.82-.51,1-.98.24.11.93.55.57.94.1.51.47-.58.56-.07.09.65-.56.57-.94.46-.2-.51.14-.54.15-.87h.01ZM81.79,118.41c-.93.05-1.28.31-2.27.36-.02-.77.47-1.13,1.18-1.32.36.6-.58.2-.44.62.55.46,1.11-.47,1.53.33h0ZM107.9,102.84c-.23-.17-.15-.47-.37-.34-.23-.49.53-.38.77-.08,0,0-.4.42-.4.42ZM75.53,119.13c.36-.18.73.2,1.41-.19,0,.4-.66.19-.48.74-.36-.12-.91.06-.93-.55ZM69.98,117.55c.12-.38,1.39-.6,1.78-.05.15.63-.25.03-.41.01-.39-.03-1.02.23-1.37.04ZM83.29,117.89c.88-.24-.19-1.06.7-1.19.05.46-.27.67-.09,1.23-.58.13-1.12.71-1.48,0,.45.02,1.04-.78.88-.03h0ZM72.43,117.15c.3-.4,1.22-.09,1.76-.21-.59.36-1.21.43-1.76.21ZM74.06,118.62c.39.3.42-.11.85.08,0,.35-.51.23-.52.58-.2-.11-.3-.35-.34-.66h0ZM70.41,119.22c.04-.44-.2-.55-.57-.48.32-.77,1.12.05,1.68-.39.15.22.15.62.44.66.42-.12-.15-.36-.03-.67.13.13.32.17.57.15.15.31-.4.57.03.67-.04.24-.7.59-.85.19-.28.01-.17.46-.56.35-.07-.36.2-.33.42-.35.03-.27-.14-.28-.16-.5-.51.29-.65,1.01-1.41,1.05.36-.78-.2-.31-.57-.15-.01-.3.18-.36.15-.68.43-.14.42.28.85.14h.01ZM75.5,116.42c.35.31.84-.08,1.34-.18.24-.04.31.13.56.1.24-.03.25-.22.51-.23,1.06,0,2.42-.4,3.71-.76.19.91-.81.51-1.11.61-.38.12-.52.59-.89.38-.16.08-.07.36.07.33-.05.45-.62,0-.63-.37-1.12.36-2,.19-2.79.7-.28-.15-.65-.15-.76-.58h0ZM108.55,101.68c-.58,0,.13-1.01.49-1.09.17.18-.03.37-.22.56-.2.18-.43.35-.26.53h0ZM112.9,103c-.23.2-.72.21-.83.52-.57-.36.78-.71.7-.63.09-.09.34-.69.63-1.08.28-.37.68-.55.76-.98.26.15.47.02.65-.29.09.67-.82.79-1.28,1.37-.3.37-.33.81-.63,1.09ZM109.61,102.02c.47.26-.2.5.43.76-.17.19-.36.2-.56.1.07-.29-.38-.58.13-.87h0ZM109.49,102.88c-.31.29.95.59.32.88-.44-.14-.22-.78-.63-.56-.26-.29-.02-.55.31-.32ZM111.93,104.21c.3-.37.8-.12.72-.61.46-.28-.18,1.53-.72.61ZM88.55,111.67c.48-.27.56-.01.84-.38.4.86-.8.16-.26,1.04-.34.35-.4-.39-.58-.66ZM100.67,103.76c.17-.86,1.29-1.03,1.81-1.56.4-.43.21-1.11.68-1.18.36.3-.17.54-.3.81-.11.24-.12.54-.25.7-.12.15-.26.01-.32.05-.12.09-.13.63-.62.31-.32.65-.3.63-1,.87ZM112.59,101.76c.12.26-.11.54-.21.82-.52-.28-.14-.8.21-.82ZM111.65,99.14c.34-.03.64-.24.95-.4.75,1.1-.62,1.81-1.21,2.64-.09.16.16.29.3.44-.75-.07-.48.65-.71,1.18-.26.4-.61,0-.9.22.02-.62.87-.65.93-1.37-.04-.38-.48-.73-.2-1.11.24.14.14.29.3.43.32-.85,1.61-1.2.52-2.03h.02ZM107.18,98.87c-.48-.56-.15-.96.36-1.28-.17-.33.18-1.3.8-.75-.46.62-.74,1.73-1.16,2.02h0ZM88.99,23.28c-.7-.06-1.66-.55-2.42-.64.39-.08.84-.03,1.27.08.21.06.43.13.62.22.19.1.37.22.53.34ZM58.2,128.78c.21-.53.68-.13,1.04,0-.2.53-.68.13-1.04,0ZM59.53,128.16l-1.5-.26c.04-.44,1.69-.32,1.5.26ZM59.07,129.78c-.21.5-.5.14-.89.02.1-.42.71-.28.89-.02ZM49.51,125.28c-.2.33-.8-.23-1.16-.27.37-.54.67.13,1.16.27ZM59.14,131.33c1.28-.03,1.84.4,2.81.47-.34.59.78.16.44.75-.56-.3-1.13-.23-1.57-.43-.03,0,.08-.3.05-.33-.13-.16-.71,0-.88-.15-.29.1,0,.26-.29.63-.34-.62-.94-.16-1.54-.6-.21,0-.13.15-.03.16-.27.48-.44-.27-.67-.29,0-.38,1.14-.23.66-.57.41-.34.84.41.4.75.2-.15.66.06.62-.41v.02ZM63.08,128.42c-.19.59-1.24.03-1.88.03.45-.66,1.16.27,1.88-.03ZM46.09,126.47c.19-.38-.04-.58-.22-.81-.2.05-.37.19-.52.34-.36-.19-.49-.51-1.03-.67.55-.2.29-.45.81-.53.5.53-.11.17-.28.61.58.19.85-.48,1.63.13-.41.84.13.55.77.84-.27.67-.91.54-1.62.27.05-.29.25-.24.46-.18ZM62.26,130.83c.23-.28.91.34,1.57.16-.1.52-1.16.04-1.57-.16ZM60.16,132.86c-.03.37-.65-.03-.92,0,.19-.63.69-.34.92,0ZM42.93,125.4c-.36.06-.66.3-1.17-.02.23-.46.74-.1,1.17.02ZM38.68,122.97c.07.15.15.3.36.42-.36.03-.68.25-1.15-.12.22-.27.57-.03.79-.3ZM63.75,128.46c2.28.24,2.9.21,5.2.52.53.28-.61.12-1.02.1-1.24-.04-3.2-.24-4.55-.31-.03-.29.17-.31.37-.31h0ZM32.45,119.4c-.64-.42-.28-.75.09-.99.45.27-.05.66-.09.99ZM25.05,115.72c-.38-.29-.52-.58-.17-.85.37.29.52.57.17.85ZM30.48,120.21c-1-.42-2.05-1.33-2.7-2.39-.36-.45-.64.11-1.01-.49.12-.08.24,0,.36-.13-.59-.8-1.12-.76-1.68-1.11.74-.44.23-.89.05-1.34.87-.28,1.18,1.1,1.2,1.59.52-.38,1.53-.31,1.71.22-.25.4-.59-.33-.85-.11-.22.5.49.35.63.36.02.24.75.41.78.72,0,.03-.23.24-.22.26.17.15.5.04.78.18.25.13.1.28.17.35.18.17.61-.02.7.55.02.1.16.25.18.35.04.31-.85.44-.09.99h-.01ZM30.22,119.37c-.73-.39-.55-1.56-1.34-.62.46.29.99,1.01,1.34.62ZM44.64,123.43c.32-.48.83.13,1.12.37-.22.31-.77-.31-1.12-.37ZM43.97,124.04c.48-.21,1.28.61,1.91.73-.49.26-1.3-.56-1.91-.73ZM26.11,109.85c-.62.14-.52-.44-1.01-.89-.07-.53.74.65,1.01.89ZM30.15,113.83c-.63-.18-1.17-.87-1.82-1.48-.28-.26-.89-.87-1.3-1.29-.39-.44-.55-.72-.04-.21.85.7,2.23,2.2,3.16,2.98ZM16.28,65.41c.78-.34-.08,1.14.22,1.65-.36-.32-.62-.9-.08-1.19.03-.21.06-.42-.14-.46ZM16.93,63.25c-.15.52-.31,1.04-.29,1.75-.37-.41-.43-1.76.29-1.75ZM18.44,62.42c.09-.35.57.04.67.09-.04.35-.34.4-.46.65-.42-.17.49-.61-.21-.75h0ZM70.29,129.14c.49-.32,2.03-.3,2.54-.08-.79.45-2.01.06-2.54.08ZM25.72,114.28c-1.07.98-2.21-.03-2.46-1.31-.21-.15-.23.19-.13.36-.73-.03-.6-1.04-.82-1.43-.15-.16-.21.08-.13.11-.43-.18-1.2-1.08-1.17-1.59-.37-.04-.71-.74-1.11-.25-.11-.83-.76-1.34-1.4-2.1-.09-.48.44-.84.05-1.37-.53-.15.3,1.01-.61.88-.26-.26-.3-.48-.04-.64-.77-.95-1.53-2.38-2.28-3-.23-.32-.17-.56.15-.73-.64.1-1.18-.78-1.37-1.68-.48.06-.77-.69-1.16-1,.27-.24.41.07.57.3.2-.64-.77-.86-.66-1.47-.13-.16-.2,0-.15.08-.65.14-.04-.3-.1-.55,0,0-.34-.71-.38-.81-.1-.28-.3-.53-.38-.81-.06-.21.08-.63.08-.63-.09-.18-.58-.22-.76-.44-.19-.22.03-.36-.07-.56-.07-.13-.24-.08-.3-.26-.23-.67-.11-1.21-.51-1.53-.05-.04-.07.32.01.48-.58-.62-.5-1.59-.7-2.32-.08-.27-.36-.48-.45-.79-.03-.1.07-.45-.08-.73-.11-.22-.25.05-.38-.06-.28-.25-.16-.91-.41-1.19.3-.05.46.17.55.57,0-.75.66.03.9-.48-.08-.12-.22-.11-.28-.28-.28-.47-.29.27-.64.21-.31-.05-.07-.39-.23-.67-.03-.06-.48-.38-.49-.41-.04-.08.24-.92-.38-.63-.18-.36.25-.34.19-.61-.01-.31-.21-.29-.41-.26.14-.84.14-1.42-.51-2.09.08-.49.26-.9.16-1.5-.29,0-.28.2-.25.42-.32-.24-.09-.65-.45-1.18-.1-.32-.58,0-.74-.22.1-.6-.55-.69-.69-.98-.07-.16-.01-.61-.13-.9-.24-.62-.39-1.57-.5-2.61-.08-1.04-.24-2.17-.2-3.17,0-.39-.48-.99.12-1.28.08-.41-.33-.24-.35-.53.02-1.05-.05-1.95-.07-2.78,0-.41,0-.81.03-1.19.06-.38.17-.75.31-1.11.21.33.13.69.05,1.05-.06.37-.12.75.09,1.11.61.25.33-.64.31-1.08,0-.22.2-.56.2-.53-.03-.43-.37-.63-.28-.91.44-.94.6-2.11.01-2.7.17-.79.15-1.51.17-2.17.03-.66.19-1.24.58-1.72-.45-1.11.36-3.01.72-4.24-.66-.55.26-1.78.58-3,.25-.93.17-1.91.4-2.7.27-1.12.73-2.18,1.05-3.07.33-.92,1.11-1.71.82-2.59.67-.24.33-.8.53-1.34.1-.28.27-.21.38-.42.47-.88.73-2.13,1.23-3.21.27-.58.73-1,.96-1.53.15-.34.06-.77.23-1.11.18-.37.61-.61.82-.99.29-.53.26-1.27.82-1.62.09-.15-.1-.23-.19-.34.32-.31.65-.57.92-1.13.62-.25,1.24-.2,1.81-1.14.62,0,.21,1.05,1.04,1.4.49.1.55-.72.74-.97.04-.3-.23-.11-.43-.54.3-.6.75.08,1.07-.29.54-.4-.03-.65.38-1.03.22.2.41.05.63.28.47-.39.21-.68.62-1.06.24.13.12.31.28.46.31-.56.48-1.14,1.11-1.09.14-.15-.1-.19-.13-.11.19-.5.99-1.31,1.53-1.39.13-.32-.28-.43.23-.49.24-.41.31-.82.23-1.22.28-.06.56.23.83.1.03-.16.07-.33.24-.49-.28-.28-.55-.13-.83-.59.3-.33.23-.07.36.11.46-.23.12-.53.48-.75.41-.21,1.6.42,1.14-.56-.17-.13-.54.18-.39.34-.33.07-.63-.39-.95-.5.25-.35.44-.71.94-1.06.2.33-.74.62-.32.95.76-.14,1.49-1.31,1.38-1.89.55-.24,1.17-1.22,1.63-.53.6-.29.11-.65.58-.95.32-.11.03.21-.16.36.38.35,1.28-.17,1.23.71.33.04.93-.38.97-.71-.27-.11-.6.13-.9.24.07-.36-.82-.59-.2-1.1.68-.47,0,.31.41.53.46-.37.27-.89.84-.61.36-.39-.35-.19-.4-.54.45.04,1.01-.58,1.52-.89.42.01.16.75.76.49.24-.17.29-.36.23-.58-.17-.18-.45.25-.61.03-.47-.36.29-.53.52-.79-.49-.44-.64.31-1.09.58-.27-.89.85-.87,1.53-1.51.07.22-.11.4,0,.62.75-.93,1.22-.18,1.77-.13.1-.1.06-.23.21-.32-.5-.32-1.09-.33-1.56-.83.41-.09.79-.07,1.05.35.51-.21.51-.54.49-.87.26-.03.47.14.65.4.43-.36,0-.44.82-.67.27-.08.65-.27.77-.06.5-.43-.31-.4-.11-.91l-.46.27c0-.37,1.05-.74,1.15-.09.61-.51,1-.34,1.61-.67-.55-.16-1.8.56-1.71-.25.42-.27.59.23,1,.02.11-.09.08-.22.24-.3-.12-.28-.36-.22-.46-.52-.37.09-.37.31-.55.48-.24-.11-.05-.33.28-.48.33-.14.77-.23.99-.15.15.26-.04.41.14.68.48-.55,1.58-1.02,2.05-.58.18-.42-.37-.46-.67-.61.69-.85,2.04.09,2.86-.94.45-.33.4.43.94-.02.58-.05.19-.53.48-.7.92.04,1.32-.43,2-.16.13-.16.05-.42.39-.49.17-.23.04-.61.29-.81-.25-.13-.25-.28.07-.38.2.46-.15,1.13.53,1.06.42-.19-.32-.2-.2-.64.68-.13.94-.68,1.41-.84.64-.17,1.25.28,2.02.01.43-.04-.29-.72.39-.61.52-.2.13.18.25.28.15.13.57-.07.63.37.64-.36.08-.61.29-1.1.57.09,1.43-.11,1.91-.45.44.26.08.54,0,.86.35.28,1.05-.27,1.7-.49-.05.6.24.72-.35,1.06.09.22.45.08.71.07.37-.07-.04-.71,0-1.02.53-.06.32-.65.97-.64.2-.05.1-.32.1-.52,1.18.07,2.21-.3,3.2-.26.17-.03.12-.22.15-.36.75-.04,1.29-.18,1.78-.11.03,0,0,.31.02.34.16.13.69-.13.89-.03.19-.05.1-.34.34-.35.2-.55-.58-.11-.39-.66.79-.5.48.97,1.45.29.06.27-.16.29-.16.51.55.2.98-.53,1.24-.04.21-.03.15-.31.17-.51,1.07.25,1.72-.03,2.69-.15-.05.24-.54.03-.55.3.2.56,1.98-.55.73-.46.09-.37.89-.01,1.27-.09-.1.34.1.45.14.68.2-.02.11-.16,0-.17.47-.56,1.69.67,1.99-.2.57-.04.36.54,1.04.41.12-.35-.22-.34-.5-.37.21-.35,1.03.1,1.23.26.31-.02-.16-.63.6-.43.39-.02.31.29.29.56.57.22,1.16-.22,1.85-.2.11,0,.19.19.33.23.23.06.33-.12.38-.11.44.08,1.2.28,1.96.34.33.03.91.15,1.24.22.45.13.96-.21,1.22.33.06.11.37.4.66.35.03,0,.26-.28.26-.28.07.02,1.01,1.08,1.44.22.7.15,1.11.19,2.15.43.21.04.8.06.75.05.22.11.16.41.4.51.54.21.65-.35.85.32.23-.09.45-.18.68-.28,1.28.44,2.54.86,3.78,1.24,1.21.44,2.38.89,3.54,1.23.1.19.11.4.1.61.97.02,1.87.25,2.71.58.82.37,1.6.81,2.42,1.18.39.3.47-.47.9-.03-.36.4-.18.7.01,1,.4-.36-.25-.54.15-.9.4.23.78.46.6.78.27.04.49-.11.69-.36,1.18.57,1.45.97,2.59,1.84-.86.31-.9.42-1.54,1.15.26.3.42.02.59-.18.35.38.02.83-.03,1.25.9.28,1.13,1.27,1.92,1.07.38.18,0,.41.21.59.18.09.31-.18.5-.04.58.29.4.61.86.94-.15.33-.21.67.33.99.67-.14-.95-1.15.07-.62.27.14.48.46.53.49.39.23.61.14.76.25.25.19.16.39.41.62,1.03.95,2.57,1.9,2.96,2.68.16.14.33-.09.49-.21.37.87,1.54,1.86,2.56,2.14.31.23.27.56.48.8.22.26.54.13.62.21.16.16-.07.38-.02.49.04.09.63.59.67.64.23.25.52.32.78.79.15-.18-.16-.46-.3-.7-.02-.55.81.92,1.11,1.25-.59-.1-.11.75-.79.34-.27.4.56.01.67.65.46-.01.24-.75.55-.39.45.58-.25.1-.2.59.14.32.47-.05.63.01.17.07.4.92.71.41.69.77.9,1.5,1.27,2.27-.5.2-.35.69-.86.53.14.75,1.05,2.31,1.66,2.84.13.11.22.06.39,0,1.02,1.19,1.06,3.06,1.97,3.53.21.78.43,2,1.15,1.7.05.53.53.81.77,1.28.17.31.1.84.24,1.1.09.18.42.3.5.4.44.63.64,1.53.96,2.23.26.59.56,1.71,1.06,2.59.28.58.71.93.89,1.5.21.66.23,1.35.65,1.97-.53-.02-.55.32-.94.4-.04-.71-.72-.25-.87-.75-.41.27.36.5.26,1.07-.62-.33-1.59-.24-1.76.57-.02.11.4.32.45.45.13.36.22,1.22.42,1.92.18.63.65.87.39,1.57.64.31.72,2.18,1.12,3.31.12.35.46.49.62.85.38,1.02-.02,2.13-.04,3.1-.65-.07-.68.48-1.16.58-.21.99-1.3,1.09-1.62,1.96-.62-.35-.67.01-.83.51-.84-.63-1.16.43-1.83.48.04-.27-.17-.29-.18-.5-.23.05-.13.41-.15.66-.43-.4-.53-.08-.85-.5-.29-.06-.31.12-.33.32-.11-.21-.46-.12-.68-.33-.05-.05.04-.29,0-.32-.27-.16-.76.08-.85-.16-.03-.1.23-.18.16-.32-.16-.31-.34-.44-.86-.62.12-.54-.27-.59-.2-1.08-.03-.18-.31-.12-.51-.13.61-.78.46-2.25,1.23-2.89l-.17-1.25c-1.01.06-1.31.64-2.09.85-.27-.98-1.01.21-1.54-.14l-.08-.58c-.39.04-.46.31-.98.26.02-.8-.03-.92-.04-1.6.33-.14.53-.36.59-.68-.12-.5-.45.08-.53-.21l-.07-.58.66-.12c-.24-.54.31-1.11-.38-1.13-.25.06.52.79-.34.81l-1.03-4.41c-.1-.17-.34-.14-.42-.33-.38.11-.42.38-.94.42-.31-.62-.74-.41-.74-1.26-.53.02-.18.39-.14.63.01.46-.29-.17-.3-.35-.15-.98-1.27-2.32-.48-2.96-.36-.16-.79-.18-.83-.88.24-.06.19.38.45.27.12-.08.11-.2.27-.26-.19-.29-.47-.52-.89-.4-.55-.82-.33-1.77-1.05-2.3.75.44.11-.71-.29-.64-.19-.4-.34-.86-.56-1.27s-.45-.79-.68-1.1c-.63-.82-1.12-1.9-1.63-2.89-.59-.93-1.23-1.77-1.97-2.14-.05-.28.23-.2.4-.3-.12-.12-.12-.23-.03-.33-.25-.32-.45-.09-.68-.37-.15-.19-.07-.7-.23-.9-.18-.24-.55-.04-.71-.33-.23-.21-.19-.43.11-.64-.35-.11-.77.2-1.04-.42.16-.09.27.14.44,0,.11-.32-.4-.44-.53-.86-.01-.05.07-.42.06-.44-.58-.9-1.65-1.48-2.07-1.99-.18,0-.37.07-.56.16.02-.82-1.03-1.18-1.65-1.57l.34-.37c-.32-.12-.63-.47-.96-.22-.21-.43.41-.22.55-.41-.35-.36-.7-.23-1.07-.29-.39-.51-1.13-.98-1.78-.96-.11-.2-.13-.42-.24-.62-1.99-.74-4.14-1.61-5.89-3.2-.36-.06-.75-.05-1.11-.02-.44-.35-.72-.78-1.35-1.06l.3-.6c-.59.02-1.66.29-1.8-.54.34-.33.66.34.89.45.38.03.61-.52,1.06-.21.02-.24-.14-.42-.37-.56.54-.03.65-.83.99-1,.8-.4,1.3.37,2.18.35.22.19.55.34.29.71.23.04.44-.01.67.03.12-.28-.03-.47-.34-.61.48-.14,1.27.65,1.53.97-.42.36-.29.34-.31.8.33.16.75-.27.84.34.08-.18.19-.23.31-.2.25-.46-1.18-.44-.62-.99.56.35,1.18.68,1.44,1.11.55.19.33-.48.72-.54-.39-.28-.95-.13-1.03-.66.19-.25.39-.42.62-.4.06-.25.02-.47-.12-.67-.64-.04-.02.54-.32.79-.24-.24-.38.05-.53.26-.46-.15-.38-.44-.69-.64.16-.17.4.09.61.19.19-.76-.75-.36-1.08-.29-.49-.3-.42-.76-.57-1.16-.32-.08-.45.71-.87.29-.15-.26-.04-.61,0-.94-.27.05-.45.41-.73.38-.67-.27-1.41-.67-2.2-1.09-.39-.21-.8-.43-1.21-.65-.42-.2-.86-.35-1.3-.51-.31-.18-.34.39-.62.3,0,.25.18.41.44.53-.59.35-.24,1.03-.31,1.5l-.27-.11-.27-.11c.39-.39.49-.85-.04-1.09-.3.44.4.38-.04.89-.36-.65-.85-.56-1.43-.38.12.42.53.17.82.32.51.27.63.77.97,1.1-.28.13-.82.63-.39.93-.52.05-1.04.12-1.5.32-.4-.03-.14-.41-.4-.52-.31-.29-.72-.14-1.11-.25-.22-.07-.17-.26-.34-.31-.45-.16-.86-.09-1.25-.25-.78-.36-2.5-.7-3.39-.95-.25-.07-.57-.63-.85-.07-.4.03-.21-.38-.48-.43-.22-.1-.29.08-.35.28-.47.07-.08-.58-.46-.59-.49-.21-.85.27-1.12-.2-.17,0-.17.28-.22.47-.37-.4-1-.58-1.76-.65-.15.1-.25.26-.34.45-.76-.15-2.11-.21-3.59-.32-.74-.03-1.52-.13-2.27-.08-.75.06-1.48.12-2.13.21-.4.05-.68.29-1.11.37-.45.08-.9.05-1.32.04-.42,0-.82.09-1.16.3.72.04.54.39-.22.54.44-.07-2.83.25-3.96.54-.22.07-.26-.11-.44-.07-.24.06-.56.34-.91.39-.3.04-.56-.05-.71,0-.31.09-.42.6-1.13.61-.14,0-.52-.22-.49-.23-.2.07-.32.53-.54.64-.07.03-.29-.1-.44-.04-.33.14-.58.54-.94.68-.33.13-1.78.47-2.2.75-.13.08.03.45-.27.44-.14-.24.02-.31-.05-.51-.24.06-.2.28-.46.33.05.19.14.27.25.27.12.45-.4.14-.38-.22-.22.33-.37.39-.69.49-.1.03-.55.62-.73.71-.24.11-.55.04-.81.19-.71.4-1.61.94-2.27,1.25-.32.15-.49.66-.78.84-.18.12-.26,0-.43.06-.4.12-.58.56-.85.69-.24.11-.58,0-.76.05-.25.07-.66.16-.8.27-.1.07-.13.46-.16.5-.17.15-.27,0-.42.1-.21.12-.14.31-.35.46-.23.16-.56.16-.76.34-.3.27-.75,1.4-1.68,1.4.06.16-.11.41-.33.7-.22.3-.52.63-.81.9-.14.13-.47.17-.62.32-.51.52-.97,1.11-1.44,1.64-.49.52-.86,1.11-1.39,1.46-.22.15-.71.02-.68.47.16.12.27-.08.4-.18,0,.42-.79,1.36-1.27.85.26.35-.09.37-.31.81-.12.21.06.78-.52,1.15-.32-.18-.13-.35-.01-.53-.17-.04-.67-.15-.3-.43-.44-.25-.06.33-.33.43-.05-.18-.2-.36-.43-.54-.35.22-.04.43-.29.65-.43-.55-.91-.18-.82.23.56.21.97-.21,1.56.18.07.32-.11.64.11.95-.28.03-.63-.23-.91-.2-.22.33.43.74.62.3.17.73-.82.46-1.25.24.13.41-.21.84.53,1.23-.13.14-.26.28-.11.41-.46,0-.7.58-1.23.29.15-.33.32-.6.7-.17l.42-.52c-.45-.46-.56.39-1.02-.06.11-.44.16-.33.56-.44-.48-.3-.77.19-1.25-.05-.28.33.15.85-.39.9-.64-.44-.5-1.56-.93-1.66-.06-.45.59-.52.66-1.11.12.38.18.12.54.4.46-.49-.74-.89-.19-1.39.22-.29.21-.06.35.09.27-.19-.13-.36,0-.55.24-.65.71-.16.97-.69.1-.53-.5-.03-.74-.42.28.12.41-.55.7-.36.17-.3-.45-.17-.56-.1-.01-.48.79-.68.71-1.31-.62-.17-.14.56-.48.75-.34-.21-.74.22-.82-.31-.57.4,0,.75-.47,1.15-.35.38-.4-.16-.59.48-.09.3-.05.54-.19.79-.36.08-.71.27-1.04.52-.17.5.3-.29.5.18.05.38-.29.7-.6.99-.29.3-.52.6-.33.87-.32.08-.63.17-.83.68-.62-.71.74-.49.49-1.09-.81.07-1.56.43-2.37.6.18.75.97.14,1.25-.09.48.38-.58,1,.37,1.3-.13.22-.31.26-.52.2.23.45-.23,1-.58,1.54-.28-.21.32-.57-.12-.75-.34.17-.67.4-1,.63-.16.35.36.54.74.76-.25.27-.29,1.05-.68.97-.71-.33.48-.48.11-.95-.86,0-.23.86-.75,1.12.26.16.4,0,.66.18l-.6,1.18c-.54.24.57-.9-.05-1.02-.51.14-.28,1.06-.59,1.53.86-.47-.13.84-.3,1.33-.44.27.21-.73.31-.99-.75-.11-.69.95-.63,1.34-.55.18-1.21,1.12-.85,1.73.43-.05.43-.94.69-1.32.34.12-.12.52-.11.75-.19.5-.51,1.05-.17,1.36-.74.62-.74,1.27-1.2,2.23,0,.17.29.2.24.39-.05.39-.35.4-.76.23.25,1.11-.76,1.48-.68,2.44-.41.2-.3-.14-.61-.31-.02.25-.22.21-.28.4-.02.19.43.31.49.12.55.55-.03,1.08.08,1.7.23.06.46.12.52-.04.26.4-.28.75-.06,1.34-.3-.38-.89-.23-1.04.1-.48-.19.21-.29.1-.59-.35-.1-.55.02-.57.35.03.67.87.08,1.11.51-.43.59-.42.65-.61,1.55l-.5-.08c-.13.74.43,1.03.19,1.84-.41-.26-.41.2-.52.24-.21.08-.69-.18-.69.23.37.54.53-.5,1.19-.17.06.6-.66.36-.57.99.04.21.29.04.35-.12.42.36-.2.63-.24,1.03-.03.36.24.84.25,1.22,0,.38-.31.72-.07,1.04-.27.03-.28-.15-.49-.17-.08.46.5.6.1.91-.39.04-.16-.44-.47-.46-.21.56.37.44.29.91.43-.09.44-.62,1.03-.58-.1.11.08.51-.02.59-.06.04-.25-.23-.34-.15-.39.35-.67.69-.79,1.5.16.41.36-.46.67,0-.08.42-.22.78-.3,1.21l-.5.02c-.21.33.07.34.02.61-.1.54-.57.6.2.9.15-.33.55-1.02.67-.19.38-.28.03-1.14.12-1.65.57-.07.34.66.37,1.03.04.47,0,1,.04,1.33l-.84.06c0,.63.36.79.85.53l.11.88c-.23-.03-.3-.23-.54-.24.19.67-.17.96.05,1.65-.14-.01-.19-.13-.35-.11-.04,1.19.26,1.79.21,2.88.59.02.86.43.92,1.2.65-.18-.41-.78.09-1.23.38.19.3,1.09.51,1.56-.27.11-.34-.05-.4-.22-.04.55-.62.11-.75.47.02.72.38-.29.56.19.35.62-.65.49-.25,1.14.08.28.56-.37.85-.05-.33.45.61,1.16-.12.96.49.63.6,1.33.7,1.99.84-.03.18-.7.19-1.15.65-.06.23.6.45.95.18.31.58.35.61.74-.49.31-.59-.03-.67-.41-.34.13-.22.46-.08.81-.43.06-.62,0-.75.4.14.17.63-.4.89.02.46.01.35-.79.75-.41.13.35-.06.21-.27.25.41.67.37.89.58,1.68-.79.31-.01-.8-.71-.53-.34.46.03.45-.02.97.11.32.52-.18.47-.18.59-.08.06.55.77.18.08.56.7.72.48,1.24.64.09.9,1.43,1.47,2.41.32.54.49.51.34,1.15.1.13.34-.06.42.11.77,1.73,1.85,2.36,2.25,3.94.11.12.33-.09.43.07.24.26-.12.46.24.71-.43.47-.64.05-.94.09.12-.4.24-1.16-.39-1.33-.38.33.22.5.16.95-.01.11-.35.32-.35.4,0,.31.23.55.34.85.56-.15-.17-.46.39-.61.33.06,1.13.59.96-.1.24-.07,1.1.84.54,1.05.91.25,1.21,1.39,1.93,2.41.85,1.05,2.15,2.14,2.93,2.88.35.22-.05.45.14.67.33.12.44.53.49.55.22.11.58-.26.77.27-.19.59-.41.06-.68.05-.13,0-.47.19-.58.15-.21-.07-.2-.96-.62-.44-.18.24.23.08.29.34.02.07-.54.67.06.77.33-.24-.56-.41.04-.66.65.34.88,1.37,1.39,1.78.41-.44-.62-.77-.52-1.18.33-.62.61-.16.92-.51,1.27.78,1.88,1.89,2.55,2.86,1.02.14,1.85.66,2.41,1.45.47-.43.37-.75.05-1.02.28-.28.59.26.87.04.37-.51-.31-.26-.45-.35-.39-.27-.65-.76-1.13-1.09-.15-.06-.29.2-.44.08-.48-.23-.41-.58-.54-.9-.29-.15-.05.32-.43.28-.49-.92-1.68-1.23-2.07-2.19.68-.15-.28-.85.09-1.3-.23-.29-.57.75-.79.18-.13.15.09.28.19.41.23.41-.34-.02-.43-.18-.09-.37.05-.74-.29-1.1-.46.24,0,.44.13.66-.42.38-.37-.22-.59-.42-.43-.4-1.2-.93-1.63-1.61.23-.28.38-.05.54.1.43-.72-.56-.57-.91-.53-.74-.88-.16-1.47-.86-2.21-.57.29.22.68.31,1.01-1.28-.38-1.42-2.07-2.12-2.67-.08-.07-.43-.03-.45-.04-.14-.17.29-.17.28-.19-.16-.23-.63-.3-.78-.51-.28-.48.13-.9-.14-1.26-.11-.13-.32.06-.5.14-.5-1.25-1.68-1.96-1.57-3.04-.09-.15-.21.04-.15.08-.49-.28-.97-1.54-.75-2.01-.26-.21-.5-.46-.81-.57-.21-.54-.39-1.2-.54-1.89-.12-.7-.14-1.45-.16-2.11.67-.45.76-.9,1.4-1.09-.55-1.05-.6-1.61-.89-2.71-.15-.09-.34-.12-.55-.13-.12-.3-.09-.52,0-.71-.12-.31-.41.26-.42.4-.05.67.83.56.45,1.16-.42-.16-.64-.54-.78-1.07-.13.1-.26.2-.26.36-.31,0-.1-.2-.06-.27.05-.12.1-.4.59-.44-.02-.18-.12-.35-.13-.54,0-.18.23-.48.23-.48-.06-.24-.58-.13-.49-.59.6-.18.22-.83.8-1.01-.3-.36-.58.33-.85.04-.18-.4.05-.69.4-.5-.61-.22.24-1.07-.66-.85-.57.22.58.55.11.68-.55.25-.37-.54-.45-.76-.05-.11-.36-.3-.38-.36-.24-.7-.41-1.84.05-2.25-.3-.34-.01-.99-.2-1.51-.12-.32-.37-.61-.54-.79-.48.66.3,1.08.15,1.67-.6-.19-.63-.78-.64-1.21-.03-.45.31-1.04.12-1.7.54-.15.36.35.68.38-.17-.42-.54-.65-.7-1.09.49-.32.11-.61.3-1.27-.45-.04.18.78-.49.57-.07-.43.15-1.09-.37-1.13.24-.35.32-.84.84-.97-.13-.21-.09-.54-.64-.44-.17-.38.56-.59-.13-.57.04-.52.63-.51.9-.8-.13-.39-.34.35-.85.09.62-.95.03-1.8.36-2.67-.1-.15-.37-.19-.3-.46.68.45.33-.29.9-.32-.28-.2-.32-1.19-.68-.94-.53-.22.23-.25.24-.39-.09-.42-.48.14-.64-.24.38-1.34.32-2.6.51-3.69.05-.23.25-.2.28-.38.07-.36-.21-.74-.01-1.18.06-.13.15-.41.48-.46.05-.52.22-1.15.3-1.7.08-.8.35-1.45.72-1.95.37-.5.87-.85,1.61-.97.61.29,1.15.44,1.4.11.26.14.27.36.12.63.42-.15,1.09.75,1.4.12-.06.47.65.7.86,1.02.09.14-.3.44.17.47-.42.53-.8,1.14-1.02,1.8-.22.66-.43,1.32-.73,1.93-.09.19-.41.31-.5.54-.13.31.04.69-.13,1.03-.09.21-.26.23-.3.46-.06.45.42.81-.17,1.02.02.15.31.15.29.32-.13.33-.03.7-.18,1.02-.07.14-.4.33-.4.33-.03.14.23.28.26.43.06.32-.32.6-.33.87-.01.24.21.33.24.55.1.43-.02.83-.26,1.27-.08.21.11.25.32.29-.34.75-.19,1.81-.23,2.95-.27.25-.69-.24-.86.25.22.4.63-.18.84.14-.02,1-.07,1.35.07,2.32-.21-.05-.35-.15-.35-.38-.62.47.46.64.52.63.16.59-.44-.16-.5.28-.07.28.25.23.51.23l.02.9c-.33.24-.21,0-.67.05v.39c.12.26.69-.54.69.2.12.52-.23,0-.65.19.06.35-.24.29.07.52.06.28.72-.02,1.02.02l.12.88c-.16-.08-.39-.09-.68-.04.25.13.1.67.73.42.24.68-.02,1.09-.5,1.37-.03.26.9.45.08.64.19.33.63-.42.54.29.14-.08.28-.17.3-.31.01.07.74,1.03-.17.94.08.38.66.17.67.64l-.49.11c.3.02.36.32.61.38.07.36-.27.55-.51.78.74-.16.62.82.74,1,.02.02.21-.33.08-.42.33.27.37.66.38,1.08.01.42.06.86.26,1.24-.49.39-.85.66-1.14,1.33.01.42.52.09.53.51.46-.57.83.13.91-.46.38.03.22.88.99.31.22.31.39.66.54,1.04.16.38.35.75.49,1.15.31.78.59,1.56.96,2.13-.59.21-.57-.56-.82-1-.22-.41-.36-.89-.68-1.08-.12.31.02.69-.3.97.11.52.77,0,.93.41l-.3.14c.31.52.21.96.07,1.39.09.11.33-.07.4.08.11.28.25.54.41.79-.04.38-.26.23-.31.46.23.46.21-.16.57-.02.17.29.27.77.76.3.08.84.94,1.67,1.12,2.3-.54-.16-.74-1.19-1.15-1.69-.29,0-.54-.11-.92.09.13.32.33.45.69.19-.05.6.54.67.77,1.34-.26-.02-.25.1-.42.27.33.45.73.85,1.11,1.29.39.45.78.94,1.23,1.51,0,.4-.54.11-.46.51.33.46.59-.68.91.12-.16.47-.8.39-1.1.19-.44.45.3.87.78.23.09.25.36.32.28.11.84.96,1.87,2.15,2.86,3.37,1.07,1.14,2.25,2.17,3.26,2.89.13.08.16-.08.11-.13.28.13.66.52,1.2.79-.28.47-.52-.11-.53.44.04.51.37.42.42.54.15.36-.39-.28-.74-.15.27.47.41.97.75,1.43.58-.53,1.17-.5,1.74-.55.19.27.45.54.12.95.78-.05,1.15.76,2.3,1.33,0,.18-.08.4-.25.64.2.22.34-.07.49-.28.43.47,1.11.72,1.79,1.15,1.06.52,1.91,1.41,2.75,1.96.41.27.99.13,1.01.71.19.02.32-.19.51-.16.31.14.32.45.43.71,1.22-.25,2.28.95,3.99,1.33.2.47-.29.24-.39.76.65.14.81-.86,1.56-.44-.2.25-.49.31-.55.89.45.25.7-.53.98.1-.17.3-.65-.07-.8.3.21.46.85-.37,1.43.05-.07.44-.32.48-.67.34.11.62.55-.15.85.07-.05.35.58.21.6.52.43-.18,1.08-.81,1.4-.52-.18.19-.26.58-.45.78-.26-.02-.24-.27-.51-.3-.13.38.04.54.28.61.25.04.57-.02.74-.05-.06.49-.42.45-.49.94.26-.15.45-.41.7-.56.5,0,.41.5.58.78-.34-.03-.94.05-1.51,0-.56-.05-1.08-.29-1.26-.78-.33,0,.11.3-.26.45-.58-.23-1.48-.25-1.76-.67-.14-.03-.16.17-.23.28-.83-.19-1.22-.85-2-.41-.21-.62-1.7-.84-2.36-.74-.04-.48-.63-.66-1.03-.94-.27.59.34.72.5,1.09-.43.56-.27-.15-.68-.26-.29-.14-.29.53-.46.72.81.47,1.29.06,1.83-.19.83.4,1.52.65,2.15.88.63.2,1.22.34,1.83.66-.41.1-.53.79-1,.77-.05.38.77.22.78.56.14-.31.12-.51-.15-.56.18-.49.79-.07,1.24,0-.06.26-.24.6-.03.69.49.31.27-.77.85-.29-.39.47-.36.33-.06.85.28-.04.18-.35-.06-.37.09-.22.45.06.52-.2.28.37.58.63.2,1.1.59.24.71-.36,1.41-.03.6.06.32.78.92.84.47-.16.96-.26.78-.89.83.16,1.28-.07,1.32-.62.43-.06.35.3.71.29.02.37-.25.28-.49.26-.06.49.25.68.48.93.63-.18.49-.19,1.06.17.12.57-.51.07-.38.63-.05.4.42,0,.34-.29.51.03.79-.23,1.39-.07.08-.39.03-.64-.07-.85-.22.22-.67.12-1.07.09.18-.8-.73-.65-.58-1.43.82.22,2,.18,3.14.26,1.15.04,2.27.18,3.04.36-.02.77-.35.2-.6.16-1.25-.12-3.17-.16-4.45-.32.37.35,1.15.32,1.27.93.51.16.24-.67.79-.45.34-.07.19.34.43.37.34.3.42-.29.47-.3.07-.02.19.17.29.19.19.04.26-.15.31-.15.66.07,1.19.48,1.94.06.25-.07.28.12.3.33.45-.12-.15-.35,0-.67.37-.04.36.36.6.49.33.02.06-.6.13-.85,1.17-.15,2.23-.41,3.23-.43.16,0,.25.31.32.33.16.02.62-.23.86-.28.29-.06.76.05.86-.28.14.13.41.05.48.28.65-.61,2.44-.19,3.46-.84.23.5-.31.43-.31.76-.62-.08-.92-.05-1.48.19-.27.11-.02.66-.52.58.56.5.84-.45,1.29-.51.22.36,1-.13,1.02.53.21-.31-.28-.68.1-1.06.38-.23.42.14.76,0,.04-.53-.38-.22-.65-.19.13-.45.88-.68,1.33-.83.39-.13.8-.25,1.14-.27.19-.01.52.22.52.22.17-.04.12-.34.2-.39.29-.17.67.24.82-.36.23-.12.31.06.38.25.43-.08.32-.51.74-.6.05.29-.13.45-.46.51.19.29.54.22.76.45.31-.17.63-.33.36-.83.13.09.97.13.64-.4-.27-.35-.46.4-.98.34.04-.28.37-.39.59-.56-.25-.46-.84-.06-1.08-.51-.54.43-.7.31-1.19.03-.04-.36.77.43.63-.38-.09-.19-.32-.07-.27.09-.55-.24.3-1.25-.69-.85-.15-.74,1.17,0,1.04-.87-.54,0-.93-.23-1.59-.03-.35.23.29.37.23.81-.38-.05-.53-.59-.81-.85-.3.12-.47.44-.8.18.14-.47.47-.59.86-.66.4-.06.87-.07,1.23-.4.02.27-.36.28-.06.73.54-.03,0-.77.62-.75-.04-.19-.12-.27-.23-.28.32-.47.77-.84.58-1.62.35-.27.47.12.73.11.6-.07.67-.46,1.19-.58.16.33.09.53-.2.6.68.64,1.31-.52,1.76.42.43-.43-.4-.88-.69-.98-.16-.33.4-.27.54-.43-.16.65.47.59.71.97.49-.55.42-1.37,1.29-1.69.27-.25.38.21.58.29.09-.07.05-.21.17-.26.16-.29-.55-.23-.18-.65.22-.18.34.11.47.34.13-.18.24-.37.38-.55.13-.19.29-.37.56-.51.33-.12.58.29.97-.17-.12-.16-.28,0-.43.05.09-.63,1.65-.87,2.12-1.61.32,0,.56.67.92.44.13-.16-.16-.15-.28-.42.64-.41,1.27-.86,1.63-1.37.29.38.6.55.94.16-.17-.09-.35.04-.51-.25.09-.31.35.13.42.12.3-.08.21-.74.76-.54,0,.73-.65.63-1.11,1.2-.23.23.13.62-.26.81-.03-.77-.88.46-1.27.29-.02.21-.05.42-.07.63-.37.06-.67-.41-1.01-.58-.09.61-.62-.11-1.01.39.35.95,1.07.18,1.13,1.09-.46-.07-.91-.17-1.28-.82-.57.16-.3.7.11.71.07.29-.22.25-.32,0-.37.33-.66.16-.97.18-.26.07.2.77.36.37.09.54-.67.03-.62.56.09.26.25.19.35.38.09-.31.78-.38.46-.85.38-.41.6.23.99-.18.25.28-.11.34.02.57.23.3.13-.27.15-.28.15-.08.38.2.53.08.18-.14.13-.5.42-.63.13-.14-.12-.41-.23-.64.44-.33.79.08,1.19.09.42-.14.1-.56.09-.86.38.01.74.32,1.12.44-.17-.72.51-1.19.97-1.72.25.56.58-.12.87-.21.29-.32-.33-.87.37-1.08.02.18-.04.34-.12.5.27.29.56-.27.55-.4-.17-.04-.35-.18-.53-.23-.62-.18-.63.23-.74-.3l-.98.69c-.16-.6.64-.53,1.09-.98.35-.32.9-.94,1.62-1.37.26.45.5.37.76.67.68-.3.72-.73,1.35-.94.21.31.22.6.04.85.65.13.06-.84.27-1.12.3-.39.68.22.96-.19.16-.21-.51-.47-.65-.08-.37-.77.52-.15.81-.34.24-.54-.29-.53-.44-1.01.42-.33.4.63.88.29-.24-.34.37-.61-.23-.98.5-.1.66-.96.8-.36.17-.34.9-.64.72-.99.26-.09.24.19.38.33.42-.22-.28-.5-.23-.73.64.25.02-.46.68-.83.22.28.24.57.4.86-.91.92-1.47,1.63-1.92,2.4-.23.38-.47.75-.71,1.15-.13.2-.27.4-.42.6-.17.19-.36.38-.57.58-.11.17.19.22.34.15-.29.41-.51.94-.83,1.16-.1.07-.4-.09-.54.02-.08.06-.16.33-.1.31-.22.08-.18-.48-.64.11-.5-.95.56-.82.71-1.29-.86-.07-1.69.27-2.5.84-.03-.15-.07-.3-.22-.48-.3.48.28.83.75,1.13.56-.26-.02-.74.4-1.02.44.63.53,1.58,1.3,1.1-.42.38-.77,1.02-1.29,1.52-.51.5-1.1.96-1.83,1.1-.06.65-.99,1.08-1.64,1.59-.19.21.26.61-.21.71-.53-.2-.71-.49-1-.78-.5.46-.43.3-1.12.84.13.33.31.33.46.51.01-.41.53-.65.5-1.07,1.31.48.27,1.53-.49,1.64.01,0-.03-.37-.05-.36-.07.03-.72.44-.45.65-.37.18-.92.53-1.5.93-.6.36-1.26.75-1.78,1.13-.73.51-1.71.65-2.35,1.07-.3.22-.61.71-1.03.92-.52.26-1.06.37-1.2.94.27.51.93.08,1.18.66.51-.52,1.58-.75,2.01-.2-.1-.63.22-1.07.69-1.42-.08-.49-.36-.31-.47-.71.72-.55.81.66.81,1.11.17.04.68-.33,1.16-.34.25-.13-.48-.47-.22-.82-.18-.26-.4.81-.94.43.04-.27.23-.47.12-.79.53-.12,1.05-.38,1.62-.69.28-.16.59-.3.9-.49.31-.19.63-.39,1-.57.56.06-.81.41-.39.81.22.37.59.04.93-.15.36-.15-.22-.63.26-.73-.06.61.49.46.63.21.2-.33-.39-.65.17-.29.44.29.93.23,1.07-.23-.3-.21-.7.1-.95-.42.36-.3.57.19.9.06.09-.09.04-.22.17-.29-.15-.43-.44-.12-.65-.21-.32-.25.28-.35.29-.36.22-.27.14-.42.32-.57.48-.43,1.28-.81,1.89-1.33-.03.59-.37.44-.84.81.25.35.58,0,.9-.23.29.4.63.31.96.34.22-.52-.57-.13-.71-.73.61-.6,1.07.47,1.63.48.45-.33.87-.42,1.3-.52.21-.18-.28-.5-.17-.7.5-.58.95.18,1.45-.58.43.64.89.17,1.32.85-.69,0-.7.85-.73,1.3.18.15.38-.15.58-.28,0,.19.12.4.31.62-.24.25-.46.22-.67-.08-.23.08.12.77-.25.44-.37-.11-.34-.2.03-.47-.41-.04-.67-.59-.52-.89-.46-.24-.21.58-.62.7-.28-.28-.58-.36-.85-.84-.37.26.4.75.02,1.02.23.38.56-.24.78.26-.24.06-.53.62-.73.32-.06.33.05.7-.45.95-.11-.6-.46-.95-.99-.32-.55-.08.07-.6-.49-.69-.04.26.05.55-.42.72-.12-.27-.28-.19-.44-.1-.14-.37-.33-1.01-.76-1.11-.13.28.23.67-.32.85-.52-.44.2-.57-.32-1.01-.58.16-.05.6-.1.9-.28.1-.43-.63-.78-.12.02.19.3.55.07.93.32.27.07-.57.68-.59.05.5.45.09.64.17.11.05.18.34.28.42.15.13.4-.09.53.24-.07.22-.2.43-.53.57-.07-.21.08-.37-.02-.59-.32.2-.49.4-.46.68.5.66,1.04.15,1.42-.33.41.33-.11.45-.31.64.47.19.8.4.64.98.13.13.32-.09.44.1.3-.27.08-.83.68-.69.32.67-.91,1.22-1.71,1.73-.44.31-.67.74-1.15.87-.08-.1.28-.48.47-.47-.62-.05-.39.4-.74.63-.21.13-.57-.06-.58-.05-.22.17-.21.62-.44.84-.2.18-.39.03-.63.17-.23.14-.44.38-.66.57-.23.17-.48.28-.75.17-.27-.81.15-1.34,1.01-1.48-.32-.48-.82-.03-1.33.15-.35.32-.05.3.16.66-.31.08-.43.24-.28.5-.24.15-.8.18-.43.57.16.28.42-.48.8-.18-.49.71-1.51.68-2.26,1.22-.17.12-.24.45-.45.58-.61.37-1.49.83-2.17,1.08-1.13.47-2.38.99-3.21,1.11-.03,0-.07-.31-.1-.32-.2-.1-.32.44-.56.37-.01-1.19-.21.45-1.08.32-.18.07-.05.33-.02.52-.66.11-1.49.52-1.82.09-.51.04-.24.59-.87.55-.25-.53-.09-.8.47-.8-.11-.51-.58-.38-1.05-.27,0,.53.29.56.38.95l-1.38.45-.7.21-.71.14c-.95.19-1.9.36-2.86.52l-1.44.23-.72.11-.72.04-2.9.11c-.96,0-1.92.11-2.88.01-.96-.08-1.91-.15-2.86-.23-.95-.09-1.89-.12-2.83-.27-.93-.16-1.85-.33-2.78-.49-.62-.1-1.19-.19-1.75-.27-.28-.05-.56-.1-.85-.15-.28-.08-.57-.17-.87-.27-.25-.09-.31.1-.51.03-.52-.19-1.51-.58-2.45-.85-.52-.15-1.07-.04-1.6-.27-.69-.36-2.8-1.28-4.07-1.56-.37-.09-.83-.1-1.28-.2-.45-.13-.88-.39-1.22-.91-.83-.18-1.46-.32-1.87-.94.02.2.25.32.06.59-.48-.38-.96-.6-1.48-.82-.53-.2-1.07-.45-1.65-.89.16-.16.38-.07.53-.26-.46-.51-.64.28-1.03.15-.3-.24.3-.68.43-.72-.43-.17-.79-.02-1.22-.17-.29-.5-.7-.46-1.23-.78-.25-.15-.36-.45-.59-.57-.37-.17-1.18-.17-1.76-.87-.15-.18-.14-.52-.18-.57-.2-.2-.68.2-.63-.49-.49-.25-1.83-.67-2.46-1.07-.27-.15-.33-.5-.38-.55-.21-.21-.37-.09-.58-.32-.23-.24-.04-.45-.13-.58-.05-.07-.33-.07-.47-.21-.48-.51-1.1-1.44-1.65-1.79-.24-.15-.55-.11-.83-.32.03-.19-.04-.37-.1-.57-.45-.02-.78-.61-1.08-.98-.22-.27-.73-.37-1-.63-.21-.21-.08-.38-.3-.6-.39-.39-.85-.82-1.33-1.27-.49-.44-.89-.97-1.28-1.42-.17-.21-.02-.34-.15-.5-.7-.85-1.55-1.45-1.89-2.05-.17-.3.05-.32,0-.58-.58-.67-1.12-1.2-1.62-2.05.09-.18-.04-.41.27-.54-.12-.15-.33.04-.52.11-.45-.95-1.59-1.2-1.31-2.25-.4-.45-.28-.52-.71-1.1.1-.26.08-.56.62-.67-.31-.65-.43-.02-.81-.15-.45-.61.05-.89-.3-1.47-.15-.26-.56.14-.75-.02-.06-.87-.98-1.7-1.19-2.87-.07-.34.05-.82-.06-1.19-.28-.95-1.53-2.46-.95-3.27-.16-.11-.35-.15-.56-.18.16-1.16-.82-1.56-.68-2.86-.77-.09-.47-.55-.79-1.17-.19-.02-.42.36-.42.43,0,.18.38.22.44.41.08.24-.14.35-.05.52.11.22.41.36.48.57.11.34,0,.62.07,1,.07.39.39.86.39,1.61.01.21-.17.53-.16.57.04.18.43.63.54,1.05.13.54.24.59.43,1.25.16.56.4,1.35.76,2.2-.24.14-.32-.04-.52.03.16.49.48.99-.11,1.13.11.17.34.01.54-.04.35-.11-.18-.56-.16-.83.71.25,1.06,1.34,1.16,2.22-.03.47.82.2.43.54-.17.46-.32.07-.6-.09-.17-.11-.31.2-.45-.17-.05-.13.1-.23.01-.37.19-.05.26.22.36.39.19-.67-.57-.95-.54-1.59-.96.13.51,1.2-.51,1.31.62.76,1.46.68,1.6,1.87.74-.12-.15-.81.48-.97.37.68.6,1.3.46,1.81-.33-.15-.74-1.01-1.03-.23.2.27.64-.17.73.39-.46.15-.48.48-.32.76.17.28.54.51.79.5.19-.28.04-.61-.18-1.04.63-.15.52.67.79,1.09-.77-.02-.43.58-.55,1.07.66-.16.22-.8.8-.63.13.44-.4.7-.08,1.2.32.37.08-.36.12-.46.57.62,1.14,1.44,1.71,2.35.55.92,1.28,1.8,1.91,2.68.12.16.18,1.01.82.85.17.46.53,1.05.91,1.61.41.53.86.99,1.13,1.25-.6.17-1-.65-1.45-1.19-.63-.8-1.1-1.64-1.71-2.08-.45.39-.06.62-.72.73.49.42.3.92.7.97-.06-.23-.07-.39-.23-.89.92-.19.51.9,1,1.38.36-.19-.53-.57.1-.72.29.39.56.83.9,1.24.34.4.7.82,1.07,1.25.74.85,1.52,1.75,2.3,2.64.81.87,1.72,1.66,2.56,2.46.87.77,1.65,1.59,2.5,2.19.23.17.33.49.56.65.31.22.65.25.91.49.42.39.52,1.41,1.24,1.18-.18.35.41.6.38.93.2.1.33-.17.2-.27.71.3,1.42.61,2.09,1,.67.38,1.3.82,1.91,1.25.62.43,1.21.86,1.81,1.21.62.3,1.24.54,1.85.65.19.18-.08.12-.16.3.62.09,1.26.22,1.98.62-.2.38-.7-.08-.91.3.48.26,1.43.02,1.61.62-.31.66-.57-.49-.99.07-.52-.17-.41-.54-1.01-.69-.14-.03-.23.07-.38,0-.22.32-.25.58,0,.76-.59-.07-1.02.53-1.17.73-.03.71.94.45,1.13.94-.14.52-.58-.13-.72-.17-.18-.06-.23.24-.31.22-.52-.13-1.09-.5-1.85-.75-.13-.41.36-1.22.8-1.1.29-.27-.24-.9-.47-.61-.36-.49.58-.3.72-.58-.32-.2-.56-.13-.71.2-.53-.18-.09-.64-.73-.82.3-.21.51-.02.72.17.22.17.45.33.73.08.52.26.82,1.24,1.62,1.01.53-.53-1.22-.63-.3-.91-.82.05-1.07-.51-1.78-.34-.26-.21-.6-.44-.34-.79-.85.04-1.93-1-2.9-1.83-.76-.01-1.65-.34-1.92-.83-.5-.12-.98-.14-1.53-.54.16-.26.38-.16.54-.43-.32-.29-.55.05-.85-.02-.49-.32-1.02-.96-1.47-.93-.05.25.1.47.34.69-.45.03-.98-.56-1.42-.47-.6-.52-.45-1.05-.92-1.61-.24-.12-.09.21-.33.38-.57-.48-.4-.97-1.05-1.44-.2-.04-.39.16-.61-.11-.24.16-.12.33.03.49-.64-.15-.8-.62-.91-1.08-.35-.2-.03.33-.48.24-.34-.48.6-.96-.3-1.44-.04.2.17.4-.1.6-.21-.63-.76-.16-.88-.61.02.05.46-.18.36-.35-.09-.14-.59-.08-.37.11-.29.38-.54-.81-.83-.43-.1.24.22.51.45.77.25.25.43.49.04.72.21.13.41-.19.61-.35l.64.61-.06-.13ZM40.19,126.09c.22-.49.36-.94-.16-1.21l-.48.89.64.33h0ZM41.06,124.08l-.47-.24c-.08.52-.39,1.11.47,1.37.63-.56-.64-.57,0-1.13ZM30.33,116.47c.36.36-.51.84.39,1.16.49-.29.04-.48.15-.73.27-.13-.46-.71-.54-.42h0ZM102.26,112.13c.14-.39.71-.69.24-1.2-.48.17,0,.53-.19.76-.23-.35-.47-.67-.75-.5l.7.95h0ZM96.05,115.69l-.39.23c.34.4.16.62.34.96.52-.23.11-.77.05-1.19ZM97.04,116.86c-.05.61.25.78-.12,1.43.48-.31.91-1.49.12-1.43ZM99.03,114.74c.27.43-.06,1.15.67.78-.48-.45,0-.62-.05-.94-.23.18-.4.01-.62.17h0ZM98.36,113.96c-.1-.22.06-.36,0-.58-.2.06-.37-.06-.61.16.16.35.36.52.61.42ZM98.66,115.92c.07.22-.03.39.21.65.23-.15.45-.21.63-.17-.22-.43-.46-.79-.84-.48ZM95.07,115.48c.61.15.74-.63,1.43-.83.15.19.35.12.51.28.11.19-.15.27-.09.44.4-.06.67.47,1.13.12.25-.2.18-.49.27-.74-.48-.69-1.03-1.03-1.69-.77.08.34.29.09.43.14.22.07.76.39.56.65-.4.06-.77,0-1.03-.57-.66.37-1.2.78-1.52,1.27h0ZM93.33,112.8c.37-.17.6-.4.57-.72-.29.52-.37.18-.8.27l.24.45h0ZM89.81,112.2c.16.08,1.16-.02.79-.54-.24-.25-1.01.18-.79.54ZM89.3,114.47c.59-.39,1.39.12,1.73-.6-.25-.88-.86-.39-.9.04-.47.3-.8-.02-.82.56h-.01ZM87.47,115.16c.64.34.83-.82,1.45-.52-.55-.7-1.13.13-1.45.52ZM86.31,113.61c.57-.2,1.53.31,1.66-.56-.57.45-1.42,0-1.66.56ZM94.28,118.29c.04.1.07.19-.07.22.15.42.44.41.79.19-.15-.41-.37-.62-.72-.41ZM92.82,115.63c.21.63.83-.16,1.23-.19.03.59.33.57.85.34-.38-1-1.72-.45-2.07-.15h-.01ZM93.33,116.69c.38-.33.54.04.77.2.25-.14.41-.31.4-.55-.57.19-.73.01-.58-.47-.36.13-.82.84-.6.82h.01ZM94.28,119.02c-.49,0-.7-.82-1.35-.31,0,.4.4.19.56.48.04.07-.26.33-.08.59.09.13.23.35.72.04-.54-.78.08-.41.15-.81h0ZM90.61,119.58c-.52-.86,1.27-.28.38-1.09.53-.1.51-.44.7-.69.59.1,1.19.2,1.88.06l-.29-.61c-.59.34-1,.39-.97-.29-.7.39-1.07.92-1.72,1.34.46.65-1.13,1.05.02,1.27h0ZM89.8,122.35c.57-.32.9-.75,1.28-1.15.65.08,1.39-.23,2.18-.59-.11-.38-.29-.58-.48-.7-.17.31-.82.41-.88.77.48.1.43-.41.79-.18-.24.57-.96.42-1.29.22.65-.59-.03-.72.33-1.26.25-.16.39.03.63-.11-.17-.44-.58-.16-.76-.58.02-.11.58-.54.15-.44-.39.37-.07,1.06-.79,1.29.66.52.1.85-.12.95.29-.08.15.64-.05.73-.25-.81-1.19,0-1.55-.53l.29.79c.4-.13.85-.39,1.02,0-.39.19-1.2.16-.73.79h-.02ZM88.05,119.76c-.36.27-.45-.1-.78.09-.02.8.96.31.78-.09ZM87.71,121.65c.66-.14.05-.49.28-.63.39-.14.9-.21.77-.62-.61.05-.85.58-1.17.4.27.41-.07.48.12.85ZM87.06,122.76c.25-.13.9.19.91-.31-.13,0-.22-.07-.26-.27-.38.1-.74.22-.65.58ZM85.91,122.78c-.44.32-.27-.49-.71-.18-.22.13,0,.54-.53.47-.05.57.53,0,.48.57-.45.15-.93-.46-.94.22.45-.15.58.25,1.02.1.51-.41.74-.94,1.47-1.28-.03-.2-.17-.45,0-.53.66-.46-.45-.03-.4.31-.19.1-.64-.51-.65.02.18,0,.45.18.25.29h.01ZM83.77,122.08c.23.15.58.06.95-.05.04-.57-.52,0-.48-.58.43-.23.59.04.95-.05.16-.38-.07-.2-.18-.65-.4.27-1.19.28-1.21.8.71-.15-.03.32-.03.52h0ZM83.4,123.21c-.23-.32-.66-1.44-.99-.8.27-.02.41.2.45.58-.26.1-.8.02-.54.47.51-.2.88-.14,1.27-.13.21-.03,1.12-.24.58-.31l-.77.18h0ZM83.33,120.98c-.23-.08-1.52-.1-1.07.08.1.3,1,.35,1.07-.08ZM82,120.6c.52.09-.01-.55.51-.46.23-.04.21.39.52.22l-.16-.65c-.51.25-.74-.04-1.19.11.05.53.6.32.33.78h0ZM81.17,122.53c-.07.58,1.43.29.97.11-.55.35-.42-.47-.97-.11ZM80.28,121.18c.44.04.71.39,1.28.22-.06-.6-1.04-.68-1.28-.22ZM78.73,121.92c.39.05,1.32.49,1.35-.18-.39-.05-1.4-.35-1.35.18ZM78.37,123.66c.38-.12.84.66.98.21-.25-.25-.91-.91-.98-.21ZM78.59,125.16c.43.27,1.3-.07,1.94-.09.04-.68-.9.05-.91-.56.22-.04.09-.44-.21-.31-.05.25.33.83-.02.85-.22-.36-.65-.31-.8.11ZM72.68,125.54c-.38.02-.48-.27-.96-.14-.21.54.97.39.96.14ZM77.63,121.73c-.11.05-.29.04-.28.21.62.08.4-.54.48-.91l-.59.08c-.05.47.34.3.39.63h0ZM77.59,124.95c.03.42.31.49.57.6.02-.23.18-.35.07-.69l-.63.08h-.01ZM75.09,122.07c.8.1.92-.4,1.45-.53.05.44-.36.48-.52.75.52.37.77-.45.96-.81-.81-.12-1.26.31-1.83-.27.17.46-.17.46-.07.86h.01ZM75.79,124.51c-1.57.38.68.39.61-.25-.29.04-.33.18-.61.25ZM73.74,124.49l.05.84c0,.23-1.14.14-.62.36.62-.05,1.18-.04,1.62.12.19-.83-.85-.22-.71-.98.3.03.34-.2.62-.19-.03.93,1.64,1.32,1.78.3-.64.06-1.23.05-1.43.02-.37-.78.48-.52.38-1.07-.71.11-.8.71-1.67.61h-.02ZM71.33,122.22c.41-.13.31.32.61.32.33-.25-.2-.4.13-.51.07.28.19-.04.45-.01.11.53-.26.53.04.84.23-.03.56.04.6-.19-.08,0-.18-.13,0-.17.76-.26.68.49,1.11.64-.1-.67.2-.94.02-1.68-.61.21-.74,0-1.35-.13,0,.21-.02.4-.28.34-.46.03-.45-.52-1.05-.3-.05.32-.42.32-.28.85h0ZM71.51,123.22c.59.4.3.59.77.14-.14.63.4.47.35,1,.33.14.56-.57.29-.51,0,.17-.26.22-.31,0l-.02-.34c.31-.11,1.03.18,1.07-.2-.31-.32-.73-.06-1.08.03-.44-.62-.92-.29-1.54-.46-.1.45.27.19.46.32v.02ZM69.82,124.62c.28.08.65.07.79.31l-1.1.03c-.13.2-.21.46-.17.85.95.19.99-.56,1.75-.56.09-.34-.29-.31-.32-.49,0,.02.31-.24.31-.35,0,.08-.31-.14-.31-.16-.07-.16.31-.39-.16-.33.32.83-.71.27-.78.7h-.01ZM68.45,123.24c.14.16.39.21.67.23.28,0,.59-.05.85-.03-.11-.98-1.08-.51-1.53-.2h.01ZM67.92,123.98c-.06-.02-.13-.06-.26-.12-.18-.09-.1-.34-.45-.37-.11,0-.58-.12-.64.29.27.12.92-.14.92.23-.73-.2-.45.38-.65.46-.17-.21-.54-.23-.92-.23.04.74,1.21.44,1.68.79,0,.17-.14.19-.17.32.48.15.3.14.79.06.25-.62-.71-.08-.45-.7l.78.05c.18-.69-.7-.11-.76-.56-.03-.18.05-.23.12-.23.16.06.09,0,0,0h0ZM65.54,123.2c.8.22.39-.26.64-.29.64-.08,1.31.48,1.82.3-.22-.05-.12-.42-.12-.68-.72.43-1.23.03-2.27,0l-.05.67h-.02ZM61.49,122.36c-.04.23,0,.38.07.52.38.09.51-.17.68-.39-.17-.25-.52-.31-.75-.13ZM59.56,123.56c.29-.05.87.36.95,0-.16-.26-.86-.45-.95,0ZM55.92,123.94c.24.36.2.04.61.17.27-.59-.57-.83-.61-.17ZM56.19,122.27c.31.22.93.95,1.45.58-.35-.2-1.14-.81-1.45-.58ZM54.02,119.4c.2.13-.04.54.47.48l.15-.48c-.22-.03-.51-.2-.62,0ZM52.68,119.67c.38.48,1.03.51,1.2-.3-.07-.07-.42-.54-.57-.17.08.04.16.09.09.21-.4-.31-.52.08-.72.26ZM50.96,118.28c-.34.72.55.25.83.32.35.1.81.81,1.16.27-.66-.18-1.46-.75-1.99-.6h0ZM49.15,119.56c.09.28.75.6.92.18-.29,0-.76-.51-.92-.18ZM58.06,118.44c.45.12.41.64,1.04.61.18-.8-.56-.77-1.04-.61ZM56.59,117.85c.51-.08.56.84.92.43-.51-.33-.23-.46.16-.65-.42-.06-.85-.14-1.08.22ZM55.4,115.95c0,.42-.27,1.03.25,1.12.24-.59-.07-.81-.25-1.12ZM54.74,116.64c.67.41-.81.82.11,1.08.37-.46.32-1.29-.11-1.08ZM50.95,115.93c-.14-.09-.04-.3.06-.52-.22-.1-.42-.12-.59-.05-.26.35.29.88.53.57ZM50.76,113.51c-.08.24-.29.55-.14.67.09-.33.36.17.32.3-.11.24-.38,0-.45.37.56.27,1.48.22,2.01.6.29.21.25.77.55.94-.43-.13-1.34.04-1.22.43.47-.41,1.35-.03,1.67-.43-.04.04-.38-.27-.15-.42.2.19.7-.25.65.26-.16-.04-.36-.17-.44,0,.13.26.47.41.49.74-.22.17-.27.34-.02.52.06-.52.54-.06.53-.72-.35-.07-.52.18-.48-.33.29-.44.57-.87.86-1.31-.18-.04-.35-.11-.51-.18-.3.33.34.7-.08.69-.12-.04-.57-.21-.46-.36-.02.03.39.04.31-.06-.3-.34-.73-.31-1.15-.45-.27-.1-.56-.7-.82-.14.61.22.58.82,1.05,1.13-.56.35-.63-.63-.86-.88-.28-.04-1.11.01-1.15-.45.16-.45.76.51.82-.22-.71.04-.74-.4-1.33-.7h0ZM46.73,115.84c-.15.47-.14,1.5.56,1.22-.13-.11-.13-.27-.12-.44.27-.12.64.14.99.32-.37.4.04.48,0,.75.41.36.63,0,1.03.25.11-.51.03-.34.33-.77l-.72-.28-.69-.35s-1.37-.7-1.37-.7ZM42.8,114.45c.43.34.83.5,1.21.57-.15.36-.45-.07-.63.2.08.09.25.16.17.31.08.05.17.11.26.15.15-.21.26-.57.46-.52-.17.73.68.36,1.05.53l-.23.45c.79-.2,1.14,1.23,1.54.59-.62-.16-.8-.84-.28-1.09-.52-.24-1.01-.38-1.41-.15-.79-.19-1.32-1.88-2.13-1.04h0ZM42.91,108.75c.47,0,.32.43.75.08-.14-.35-.22-.11-.47-.5l-.28.42ZM40.4,110.92c0,.27.31.45.62.62.47-.34-.49-.8-.62-.62ZM39.42,112.06c.81.55-.43.38-.25.87.51.45.99.54,1.48.75.43,0,.05-.57.49-.48.11.46.16.95.55,1.35.33-.05.63-.25.9-.62-.44-.29-.97-.68-.68-.03-.39-.35-.42-.8-.85-1.14-.7.44-1.05-.8-1.66-.7h.02ZM38.81,112.65c-.12-.14.04-.21.19-.27-.31-.25.06-.63-.29-.86-.37.01-.46,1.33.09,1.14h.01ZM24.77,55.72c.01-.16.12-.35-.06-.43-.23.43-.72-.59-.71.05.11.19.29.13.77.37h0ZM19.14,61.37c.14-.61.43-.91.08-1.43-.12.13-.28,1.1-.08,1.43ZM22.81,68.11c-.09-.4.21-.47.23-.77-.49-.04-.75.74-.23.77ZM22.98,70.06c-.41-.35.28-.74-.2-1.04-.14.13-.43,1.13.2,1.04ZM24.68,82.38c-.24-.07-.62.05-.86-.02.04.17.07.35.13.51.41-.1.78-.21.73-.49ZM23.5,89.43c-.3-.46.6-.57.05-1.09-.52.14-.21.61-.72.45.14.38.34.64.66.64h.01ZM28.2,89.62c-.34-.29.11-.4.09-.62-.45.18-.42.47-.6.72-.3.15-.34-.23-.71.06.26.76.51.09,1.22-.16ZM31.52,96.24c-.19-.33-.42-.52-.73-.45.38.33.07.9.73.45ZM30.96,101.12l-.46-.53c-.62.32.03,1.06.46.53ZM33.61,100.32c-.23-.27-.45-.65-.78-.39.26.14.41.88.78.39ZM34.64,102.28c-.22-.42-1.02-.6-1.03-.16.18-.1.46,1.03,1.03.16ZM35.14,106.31c.26-.43.17-.82-.26-1.17-.8.48-.1.81.26,1.17ZM39.28,105.57c-.03-.59-.67-.56-.66-1.27-.35.28.03.3.07.53.06.4.04,1.18.59.74ZM38.01,110.75c-.57-.31-1.12-.22-1.67-.03.36.21.53,1.03,1.06.83-.22-.26.45-.78.61-.8ZM34.73,108.93c-.5.42.45.73.66,1.06.19.08.38,0,.58.24-.35.28-.34.5.03.67.41-.33-.12-.5.3-.83.36.47.68.18,1.01.15-.81-.4-2.19-.5-2.59-1.28h.01ZM29.41,103.17c.05.11,0,.22-.16.33.39.27.28.14.49.56.47-.23-.31-1.02-.33-.89ZM27.41,101.17c.16.3.36.43.61.28-.07-.2.03-.37-.21-.58,0,0-.4.3-.4.3ZM26.94,100.23c-.28.42-.72.83-.29,1.33.58-.24.16-.35.36-.65-.02.03.32.03.27-.2l-.34-.48ZM21.05,92.14c.15.41.36.68.68.67-.22-.38.15-.58-.07-.96l-.61.29ZM27.48,39.92c.31.16.16.5.13.95.15-.23.46.11.6-.26-.13-.19-.42-1.18-.74-.69h.01ZM29.15,37.25c-.1.06-.21.04-.35-.1-.39.31-.02.59-.04.88.08-.26.67-.53.39-.78ZM93.63,21.68c-.38-.06-.2-.93-.71-.55.09.18.3.89.71.55ZM94.94,23.81c-.23-.12-.2-.33.01-.59-.35-.32-.59-.02-.95-.4-.17.24.23,1.02.4,1.05.07.01.19-.37.29-.21-.13.22.05.69.24.16h0ZM97.57,24.29c.29-.32-.29-.98-.57-.76.16.26.3.53.57.76ZM121.62,59.33c-.06.59.87.45.66-.11l-.66.11ZM120.52,55.46c-.51.11-.39.55-.29.97.61-.05.4-.54.29-.97ZM132.42,50.39c-.21.31-1.05.21-.84.79.22.1.49.12.86-.03-.12-.33.09-.44,0-.76h-.01ZM131.3,45.71c-.33.06-.23.34-.36.51-.43.02-.94-.07-.68.61.22-.07.32-.2.42-.33.1.39.32.51.66.36-.33-.56-.08-.8-.05-1.16h0ZM116.43,50.49c.27.32.1,1.37.73,1.1.43-.28-.44-.08-.34-.48.19-.08.36-.17.22-.38-.49.41-.25-.42-.61-.23h0ZM129.49,44.6c.19.4.72.96,1.09.57-.29-.64-1.34-.63-1.08-1.56-.5.02-.15.69,0,.98h0ZM127.92,42.89c.44.11.74.67,1.3.45-.16-.84-1.37-1.27-1.3-.45ZM111.61,40.54c-.13-.31.38-.56.04-.88-.21.09-.3.33-.3.53,0,.21.08.39.26.35ZM108.21,28.98l.48-.47-.34-.32c-.34.28-.47.55-.14.8h0ZM91.91,18.37c.39.24,1.4.53,1.25.26-.33-.01-1.42-.6-1.25-.26ZM90.56,16.43c.32.24.06.69.66.83.15-.38-.26-1.13-.66-.83ZM88.36,18.1c.3-.63-.78-.43-.99-.38.29.2.6.59.99.38ZM83.53,14.67c.44,0,.2.41.31.61.58.22,1.1.31,1.44.05-.03.24.27.27.34.45.96-.24,2.02.45,2.8.91-.02-.34.87.23.41-.2-.26-.14-.39.05-.64-.07.09-.4-.36-.77-.64-.97-.24-.17-.43.02-.79-.13-.35-.13-.72-.66-1.08-.74-.2-.06-.27.15-.51.03-.38-.18-1.46-.62-1.66.06h.02ZM64.8,13.28c.37.06.75.44,1.11.47.41.03.46-.3.76-.36.15-.03.12.16.16.16.14.03.14-.17.15-.17.79-.08,1.22-.21,1.39-.72-.58-.14-1.48.32-2.34.41-.44.05-1.12-.52-1.24.21h0ZM46.97,24.88c.32-.09.66.06.75-.34-.14-.6-1,.03-.75.34ZM48.76,22.77c-.62-.09-.2.93.08.89-.3-.43.35-.39-.08-.89ZM47.78,22.3c.33-.09.48.42.85.17.51-.72-.94-1.03-.85-.17ZM64.54,13.96c0-.49-.38-.5-.38-1,.12-.04.31-.01.3-.18-.85.08-.87,1.17.08,1.17h0ZM54.12,7.54c.4.22,1.07-.2,1.34-.49-.67.22-1.14-.14-1.34.49ZM49.61,9.07c.52-.55.67-.02,1.26-.05-.1-.4.18-.58-.23-.81-.21.32-1.26.3-1.03.86ZM40.54,13.24c.3.11.89-.13.72-.52-.3-.11-.89.13-.72.52ZM45.19,20.9c.62.07.57-.35,1.02-.65.15.67.58-.09.61-.1.3-.1.54.28.88.15-.39-.64.61-.63.49-1.15.26-.07.65-.41.69.11-.41.22-.72-.16-.63.42.28.04.53.05.76-.11.22-.16.75-1.52,1.15-.75-.08.03-.11.18.06.16,0-.52,1.07.41.93-.5-.16-.19-.55.16-.68-.12.67-.29,1.32,0,1.51-.7.11-.03.38.38.44.38.14.02.88-.38.99-.34.03.01.07.32.09.32.29-.03.49-.45.82-.37.07.19.1.46.28.45.22-.41-.16-.52-.37-.77.56-.3-.02-.69.67-1.02.29-.07.3.4.67.19.03-.3.33-.38.51-.47.42-.2.9-.37,1.4-.49.25-.06.51-.11.77-.15.26-.01.53,0,.8.01.09-.26.14-.55.52-.58,1.6-.38,2.35-.58,4.06-.87,0-1.22-1.17-.18-1.71-.12-.94.12-1.84-.04-2.66.02.05.28-.05.44-.23.54-.34-.03-.64-.02-.91.02-.27.05-.5.15-.73.25-.46.21-.89.47-1.46.71-.18-.34.31-.62-.26-.45-.11.34-.49.49-.59.83-1.13.15-2.08.73-2.72.52-.47.5-1.09.69-1.6.55.44.72-.61.61-.79.98-.07-.34.28-.44.21-.78-.39.46-.71.22-1.31.45,0,.7.65-.16.76.27.12.6-.71.19-1.24.6.06.2.1.38-.16.41.08-.6-.1-.11-.48.03-.61.2-1.08.36-1.11.87-.13-.26-.18-.49-.13-.68-.59.07-.3.53-.49.78-.94.29-1.75.7-2.16.43-.07-.19.08-.45-.23-.45-.12.27.07.67-.04.94-.38.16-.96-.28-.8.43.66-.15.97-.66,1.37-.32-.15.26-.54.46-.79.76-.46.49-.23.04-.73.23-.05.67.64.49,1.3.12.7-.32,1.39-.84,1.27-1.03l-.02.04ZM39.5,25.01c-.23-.55-.76-.2-.79.15.24.54.76.2.79-.15ZM38.08,30.36c.34-.21.68-.6,1-.51-.25-.18-1.05-.53-.97-.13.08-.04.15-.08.22.05-.2.17-.31.36-.25.59ZM36.26,29.67c.36.07.64-.37.55-.68-.38-.11-.66.36-.55.68ZM35.4,29.31c.42.53.56.1.76-.22-.24-.54-.5.09-.76.22ZM28.9,22.27c.66.01.42-.78.59-1.18-.49.37-.71.77-.59,1.18ZM27.99,21.73c-.28-.45-.63-.16-.99.19.28.45.63.16.99-.19ZM26.83,24.09c.34-.26.65-.53.42-.82-.37-.03-.91.47-.42.82ZM31.2,31.24c.56-.23-.13-.55.3-.76.33-.09,1.65-.42,1.25-1.08-.5.26-.68.95-1.13.77.08.03.27-.41,0-.22.04.23-.24.42-.45.62-.19.22-.3.44.04.69v-.02ZM25.2,25.61c.24-.45.46-.16.72-.49-.19-.22-.39-.35-.59-.37-.32.29-.19.58-.12.86h0ZM28.4,34.93c.21-.81,1.15-.58.9-1.19-.43.22-.93-.2-1.35.2.07.29.2.4.51.44-.18.18-.17.36-.05.54h-.01ZM26.57,35.36c.28-.28.13-.54-.24-.78-.25.33-.15.82.24.78ZM21.66,42.11c.1-.08.22-.08.37.04.38-.27.32-1.02.57-.89.27.21-.32.59.11.77.57-.29.24-.5.42-.97-.56-.08-.53-.39-.94-.4-.08.62-.38,1.1-.53,1.46h0ZM19.02,50.84c.07-.28.3-.24.37-.5-.49-.05-.33-.35-.73-.44-.15.42.15.66.36.94ZM18.26,52.79c.24-.28.75-.36.64-.73-.22-.08-.37-.06-.53-.03-.3-.65.69-.73.43-1.12-.52-.02-.6.81-.97,1.09.23.1.6.15.58.36-.3-.08-.29.44-.52.46.2,1.07.04.38.36-.04h.01ZM5.09,72.78c-.06-.75.26-.99-.22-1.43-.03.22-.18.12-.34,0,.29.61-.51,1.23.55,1.43h0ZM5.44,73.12c.17-.01.2-.32-.01-.36-.14.38-.65.4-.64.93.54.13.33-.49.65-.58h0ZM5.24,75.65c.18-.26.07-1.09-.42-1.05.29.47-.22.87.42,1.05ZM11.51,78.2c-.18-.4-.29-.9-.65-1.07-.12.73.1.84.65,1.07ZM5.98,79.91c0-.69.1-.84-.48-1.02-.3.43.07.99.48,1.02ZM13.65,90.08c-.11-.4-.24-.77-.49-.89-.29.12-.5.29-.52.54.61-.45.66.27,1.01.35ZM13.66,91.15c.05-.13.47-.72-.06-.69-.57.67-.23-.37-.54-.52-.92.4.19,1.18.6,1.21ZM14.19,98.83c.06-.3-.25-1.24-.7-1.03.54.25.14.93.7,1.03ZM17.77,104.45c-.22.06-.42,0-.59-.24-.49.22-.45.56-.39.9.24-.19.43-.08.59.25.49-.23.44-.57.39-.9h0ZM18.01,106.22c.29-.31.37-.67.52-1.01-.34.3-1.17.51-.52,1.01ZM20.75,104.28c-.59-.37-1.03-1.53-1.74-1.27-.03.37.2.11.44.32.39.36.74,1.42,1.3.95ZM23.26,109.66c.36.12.7.44,1.07.2-.42-.27-.11-.49-.44-.75l-.64.55h.01ZM21.92,109.66c-.22-.34-.46-.49-.7-.55-.39.13-.74.86-.29.69-.12-.43.74-.16.99-.14ZM23.4,112.11c-.4-.24-.76-1.36-1.19-.84.4.24.77,1.37,1.19.84ZM23.52,111.99c.48-.54-.85-1.21-1.14-1.81-.25.19-.47-.36-.73-.07.83.87,1.28.78,1.87,1.88ZM53.35,17.56c-.04-.46.22-.73.7-.85,0,.21-.1.38-.35.43,0,.14.1.14.19.13.02.23-.33.22-.54.3h0ZM96.17,112.9c.21.52-.36.48-.67.58-.11-.48.4-.48.67-.58ZM18.23,55.41c.21.44.11,1.65-.39,2.03-.7-.14.06-.22.12-.43-.27-.48.13-1.19.27-1.6ZM16.65,76.08c.25.42.25,1.03.42,1.89-.29-.5-.57-1.37-.42-1.89ZM87.12,126.98c0,.93-1.39.77-2.08.85-.47.06-1.17.6-1.41,0,1.25.06,2.65-.52,3.49-.84h0ZM102.19,113.62c-.24.15-.15.36-.41.5-.35-.23-.69-.52-1.01-.93.5-.11.99-.09,1.43.42h0ZM90.52,126.36c-.26.5-1.45.56-2.07.89.35-.58,1.46-.65,2.07-.89ZM75.54,128.95c.96-.13,2.09-.28,2.86-.38-1.5.98-3.01.36-5.23.64-.35-.27,1.66-.21,2.36-.27h.01ZM103.45,113.75l-1.29.93c.18-.27.79-1.47,1.29-.93ZM106.61,110.61c.11.46-.22.58-.6.75-.1-.46.22-.58.6-.75ZM104.9,112.51c-.28.63-.77.61-1.39.79.03-.38.36-.7.82-1,.17.23.36.27.57.21ZM90.54,116.67c-.63.07-.38.57-.81.73-.71-.83-.87.4-1.32.27.03-.15.05-.3-.04-.52.32,0,.83-.5,1.03-.17.26-.24.8-1.15,1.14-.32h0ZM78.08,20.4c-.92.05-1.79-.19-2.84-.5.77-.14,1.68-.05,2.63.12.24-.02.23.17.21.38ZM14.92,32.68c.22-.37.47-.7.74-1.04.1.1.03.46-.12.75-.14.3-.36.52-.61.29h-.01ZM110.78,18.04c.21-.2.89.13,1.14.37.2.2.67.8.34,1-.43-.71-.78-.66-1.48-1.37ZM20.36,25.61c.48-.09.96-.83,1.49-1.34.52-.51.99-1.45,1.48-1.08-.99.69-1.99,2.89-2.97,2.42ZM59.66,5.19c-.68-.5,1.32-.36,1.55-.71.05.19.34.1.55.1-.18.74-1.88.3-2.1.62h0ZM29.63,19.29c.38-.25.76-.51,1.02-.12-.39.32-.76.58-1.02.12ZM20.62,27.54c-.41-.25.76-.62.36-.88.41.17.81-1.15,1.22-.57-.52.54-1.06.72-1.58,1.44h0ZM17.07,32c.42-.7.93-.54,1.38-.96,0,.04-.89,1.57-1.38.96ZM21.48,27.6c.4-.42.8-.96,1.21-.56-.41.02-.79,1-1.21.56ZM23.41,26.28c-.32-.49-.64.37-.97-.2.4-.43.81-.06,1.21-.55.18.24.07.49-.24.74h0ZM84.7,21.72c-.42.45-1.07-.09-1.54-.17-1.25-.3-2.22-.59-3.31-.93-.54-.2-1.4.31-1.44-.5.25.14.52.21.8.28.27.08.55.13.84.16.58.07,1.18.1,1.74.26.86.27,1.83.57,2.9.9h.01ZM72.92,19.63c-.26.03-1.03.14-1.37-.1.37-.46.95-.16,1.37.1ZM64.91,19.31c-.19.26-.59.26-.94.38-.17-.64.63-.26.94-.38ZM71.28,19.34c0,.66-1.51.21-1.8.03.34-.36,1.24.03,1.8-.03ZM94.26,25.76c-.59.14-.76-.24-1.25-.61.35-.23.85.47,1.25.61ZM103.57,31.98c-.49.3-.46-.25-.73-.46-.48-.37-1.05-.82-1.61-1.26-.57-.44-1.19-.8-1.66-1.16.74-.61.91.31,1.21.51.83.59,1.61,1.27,2.79,2.36h0ZM86.37,22.37c-.36.47-1.69-.2-1.41-.55.3.35.81.2,1.41.55ZM92.85,24.86c-.23.4-.78.06-.83-.23.19-.32.56.2.83.23ZM7.85,47.61c-.23-.48.48-1.43.63-2.1.22.49-.49,1.43-.63,2.1ZM46.16,127.22c-.33.17-.83-.05-1.19.08,0,.16.03.33.2.44-.51.46-.09-.45-.6-.41.44-.19,1.32-.46,1.59-.1h0ZM50.01,129.06c-.41.76-.9-.04-1.39-.35.25-.31.95.29,1.39.35ZM43.72,128.79c-.49-.24-1.01-.48-.77-.94-.04.41,1.19.42.77.94ZM47.82,129.84c-.43.33-1.03-.38-1.13-.61-.43-.14-.64.09-.85-.33.74-.23,1.53.62,1.97.94h0ZM44.44,127.63c-.3.3-.54-.21-.88-.23-.12-.01-.26.23-.3.22-.29-.05-.2-.33-.41-.39-.16-.05-.75.41-1.19-.03.06-.53.49-.09.79.02.15-.52.67-.43.2-.84.45-.43.26.31.41.39.21.12.16-.23.3-.23.29.01.49.68,1.05.71-.11.17-.09.29.03.37h0ZM35.56,122.99c-.72-.52-1.22-.1-2-.88.28-.26-.04-.39-.25-.58.78-.34,1.66.21,1.89,1.03.21-.36,0-.61.46-.7-.36-.15-.97-.5-1.44-.93-.46-.43-.74-.99-.54-1.43.56.46.54,1.01,1.13,1.42.15.16.78-.08.43-.32,1.23.14,2.47,1.8,3.47,1.99-.57.38-1.29-.22-1.68-.26-.31.25.19.93.42.66.34.71-.75-.06-1.08-.28-.12-.43.33-.37.6-.62-.66-.28-.76-.67-1.24-.98-.48.47.27.62.31.8.02.06-.37.08-.33.19.05.15.58.32.18.71-.15-.09-.23.1-.33.19h0ZM43.42,129.93c-.72-.23-1.51-.04-2.21-.14-.51-.08-.11-.37-.68-.34-.56.03-1.23-.11-2-.37-.77-.27-1.67-.59-2.58-1.1-.04-.29-.43-.52-.39-.83.34-.69,1.14.18,1.08-.71.69.11.65.54,1.36.61.33-.61-.74-.93-1.33-1.38.13-.27.37-.19.5-.48.45,1.07,1.81,1.15,2.96,1.81-.09.36-.38.17-.65.05-.43-.08-.73.2-1.06.4.36.74.59.15.99.12,1.28.7,2.23,1.74,3.48,1.74.02.25.22.47.53.63h0ZM40.09,128.67c.06-.23-.28-.35-.35-.55-.42.54.41.75.94,1.04,1.16.53-.07-.34-.59-.49h0ZM36.75,124.13c.13-.13.36.09.48-.1.17-.33-.61-.46-.82-.71-.08.14.12.23.21.33-.2.5-.81.37-.05.76-.57.17-.6-.05-1.01-.44-.1-.1.45.02.4.05.14-.1-.91-.5-1.07-.68.13-.34.39-.13.64,0,.78-.28,1.63-.2,2.65.47-.15.07-.3.14-.41.34.42,0,.69-.53,1.24-.02-.26.36-.3.67.14.83-.65.81-1.27-.03-1.97-.19.22-.4.43-.13.34-.58-.28-.09-.4.37-.78-.09v.03ZM50.88,128.11c-.12.23-.51-.11-.6.15-.42-.18-.96-.34-1.31-.5-.56-.25-1.27-.47-1.13-.97.41.09.24.42.75.47l.18-.47c-.27-.7-.91-.42-1.71-.84.06-.66.59-.05.92,0,.27.04.66-.06.92,0,.84.19,1.65.68,2.28.69.28.49-.34.22-.43.74.07-.71-1.17-1.06-1.82-1.05-.03.49.18.89.68,1.16.24-.37.14-.59-.32-.66.76-.21.95,1.01,1.57,1.3l.02-.02ZM33.11,121.81c-1,.17-.53-.83-1.47-1.34.49.65-.06.69-.69.31.56-.57-.41-.62-.34-1.32.18-.02.92.04.31-.4.54-.41.79.43,1.22.73-.33.24-.81-.47-1.07.23.14.1.24-.08.35-.16l.99.76c.24.15.25-.82.82-.22-.02.63-1.29.57-.12,1.39v.02ZM55.57,130.98c.6.21.32.59,1.01.42-.04.68-1.21-.04-1.01-.42ZM123.77,74.6c-.28-.4.06-1.38.01-2,.34.4,0,1.38-.01,2ZM55.82,130.7c-.39.13-.88.11-1.06.58-.6-.2-1.35-.31-1.26-.86.27.42,1.12.44,1.55.42.03-.16-.18-.18-.3-.26.23-.27.86-.24,1.07.11h0ZM132.35,72.84c.29.07.36.34.29.74.45.06.36-.26.67.07.23.69.17,1.43.12,2.19-.02,1.17.05,2.4-.1,3.66-.03.28-.25.46-.26.51-.25,1.81-.3,3.67-.63,5.48-.06.32-.4.68-.45,1.01-.04.2.18.59.12.81-.08.28-.34.55-.41.83-.39,1.2-.73,2.77-1.35,4-.39-.32-.5.08-.84-.15-.06.76.34.09.78.32-.34,1.32-.73,1.86-.53,2.58.17.54-.38.4-.48.59-.19.35.14.92-.58,1.16,1.07.28.03.61.18,1.13.31-.27.72-.22,1.08-.29-.1-.4-.6-.21-.74-.78.19-.56.57-.45.73-1.09l.61.28c.34-.54-.76-.47-.5-1.26.28.1.22.35.53.45.46-.6-.19-1.14.43-1.45-.15-.63-.34-1.24.12-2.16.16.34.17.75.07,1.23.28-.08.49-.34.74-.51.14-.39-.4.04-.38.05-.21-.19.09-.32.04-.58-.05-.33-.7-.58.02-.99.49-.02.04.45.11.64.08.2.6.17.49.59.88-.43.6-.98.99-1.65-.74-.27-.38.67-.81.71-.75-.03-.2-.74-.52-.99.37-.53.33.02.86.11.41-.22.91-.22,1.1-1.02.57.19.78,1.01.14,1.06-.04.54.47-.37.86.1.25.51-.32.84-.48,1.27-.06.17.02.46-.12.78-.36.82-1.01,1.67-1.36,2.58-.15.37-.02.56-.14.78-.65,1.23-1.61,2.66-2.13,3.9-.23.54-.56.83-.85,1.29-.89,1.35-1.9,2.68-2.85,4.01-.49.66-.96,1.32-1.49,1.94-.55.6-1.11,1.17-1.68,1.71-.23.22-.51.23-.73.39-.54.4-.79,1.02-1.27,1.63-.38.46-.72.5-.95,1.16-.34.49-.68.07-1.01.35-.39.9-1.49,1.29-1.92,2.29-.19.28-.47-.45-.11-.62-.89.08-.97,1.37-.66,1.44-.3.19-.59.45-.89.59-.31.14-.61.18-.89-.03-.13,1.15-2.14,1.16-2.13,2.33-.16.34-.54.05-.63.11-.11.07-.1.36-.31.49-.35.21-.84.49-1.36.77-.54.26-1.1.55-1.55.88-.21.16-.7.58-.54.81-.19.11-.3-.16-.44-.3-.71.73-1.35,1.21-2.07,1.49-.14.11,0,.25.04.39-.71.16-.8.68-1.41.5-.4.13-.05.4-.29.57-.46.04-1.23.35-1.91.73-.41.23-1.12.8-1.34.97-.3.24-.51.64-.79.85-1.14.71-2.44,1.2-3.49,1.64-1,.4-1.76,1.51-2.68,1.19-.27.15-.27.43-.57.56-.27.12-.38-.07-.58.03-.38.18-.85.64-1.28.8-.98.37-2.01.4-3.02.86-.26.12-.27.24-.49.31-.31.09-.64-.02-.94.06-.23.06-.43.42-.63.5-.09.04-.37-.08-.58-.03-.32.07-.34.26-.68.34-.7.16-1.44.29-2.15.43-.36.07-.7.15-1.04.23-.34.06-.67.13-.97.22-.29.09-.35-.15-.58-.09-.64.16-1.41.89-2.53.52-.66.57-1.78.32-3.1.51,0-.32.6-.14.51-.52-.46,0-.55.28-.7.53-.37-.28-1.22-.07-1.85-.1-.42-.04-.19.49-.53.52-1.88.2-3.58-.04-5.18,0-.43.03-.73.26-1.13.26-1.17.02-2.34-.32-3.5-.41-.35,0-.79.11-1.13.03s-.51-.36-.87-.48c-.33-.11-.59.08-.94,0-1.35-.25-2.9-.67-4.3-1.11,0-.51.71.1,1.3.08.36,0,1.32-.57,1.27.22.63.2.55-.51,1.17-.31-.06.28.06.45.28.56-.03-.38.73-.63,1.11.02.28-.59-.64-.38-.41-.92,1.23.07,1.72.26,2.71.23.23-.63-.75-.34-.42-1.05,1.2.47,2.13-.48,3,.39.38-.07.39-.23.21-.49.42-.2.64.48.71.05.42.07-.23.43-.22.66,1.28-.33,2.06-.42,3.4-.17,0-.16-.22-.12-.35-.16.64-.02,2.26-.46,3.2-.1.63.07.41-.61,1.04-.54.23.23.63.3,1.08.3.31.05.33-.14.33-.35.4.07.99.32,1.04-.25-.16-.34-.99.03-1.42-.07.02-.44-.11-.72-.57-.65-.14.04-.16.17-.34.18.12.17.41.16.38.49-2.19-.12-3.73,0-5.26.03-1.52-.05-3.03-.1-5.05-.4-.19-.23-.04-.27.05-.5-1.11-.02-2.05-.09-2.92-.39-.19,0-.17.31-.39.27-.46-.18-.93-.34-.72-.97-.48.12-.55.05-.46.6-.16-.14-.11-.41-.45-.42.18-.58.83-.5,1.19-.82.57.41.57.32,1.49.42.18.63-.59,0-.58.41.28.45,1.33.26.92-.36.64.27,1.02-.19,1.35.19.04.36-.28.31-.55.28.19.49,1.09.18,1.06-.24.84.23,1.83.32,2.89.2.48.12.7.45,1.17.58.19-.03.13-.33.36-.31.8.14,1.71.04,2.58,0,.88-.05,1.72-.06,2.38.11.2.56-.52.28-.85.36.64.57,1.25-.26,1.52-.56.54.08,1.05.12,1.55.15.49,0,.95-.06,1.42-.11.93-.11,1.84-.29,2.86-.49.18.3.53.04.25.47.57.11.38-.32.63-.43.35,0,.71,0,1.07,0,.36-.04.71-.1,1.06-.17.7-.14,1.38-.31,1.97-.52.61-.22,1.38-.5,1.98-.65.52-.14.94-.01,1.38-.21.26-.1.51-.36.77-.44.25-.08.48.17.76.09.23-.07,1.51-.72,1.86-1,.15-.12,0-.34.21-.43.48.09.63,0,1.2-.24.53-.22.83.07.89-.55.49-.25.7.17,1.23-.19-.1-.17-.34,0-.54.06-.1-.69.52-.42.88-.59.98-.45,1.89-.94,2.86-1.42.96-.5,1.92-1.12,3.13-1.67.73-.37,2.04-1.09,2.96-1.8.25-.19.4-.05.66-.26.54-.44.97-1.31,1.65-.98-.11-.41,1.07-1.48,1.49-1.49.1,0-.17.43-.32.44.13.27.97-.34.46-.54.41.07.84-.11,1.29-.61-.11-.12-.24.04-.37.1.28-.76,1.57-1.45,2.24-2.19.77-.11,1.59-.3,2.4-1.26-.3-.15-.67.57-.97,0,.85-.56.49-1.15,1.33-1.85.49-.42,1.17-.73,1.67-1.28.13.15-.11.33-.23.5.59.03.8-.85.1-.85.24-.32.47-.45.72-.28.37-1.03,1.66-2.14,2.27-3.3.04.78,1-.18.91-.62-.55-.28-.18.97-.69.34.49-.67,1.07-1.39,1.61-2.06.5-.7.92-1.38,1.2-1.89.2.19.33.02.52.13-.04-.24-.09-.48-.14-.71.4-.63.88-1.26,1.2-1.91.14-.28.31-.55.48-.83.16-.29.33-.57.5-.85.35-.57.73-1.15,1.04-1.76.15-.29.18-.72.32-1.01.7-1.28,1.77-3.65,2.3-5.45.16-.55.11-1.07.24-1.57.28-1.09.66-2.09.93-3.16.28-1.35.49-2.68.66-3.94.04-.31.24-.32.28-.65.04-.34-.09-.5-.05-.71.09-.44.55-.87.07-1.39.39-2.07.4-2.35.58-4.44.3,0,.34.24.66.24l-.1,1.39c-.07.37.58.15.82.28.12-.38-.29-.29-.29-.57,0-.44.28-.13.36-.31.13-.29-.14-.49-.13-.54.05-.43.69-.45.4-.85h.01ZM72.02,130.43c-.35.05-.71-.73-1.04-.14.34-.05.71.73,1.04.14ZM64.54,132.73c-.32-.21-.82-.27-1.22-.42-.17.6.85,1.06.99.91-.51-.13.3-.24.23-.49ZM66.22,134.7c.03-.46-1.18-.73-1.45-.43.38.22.72.48,1.45.43ZM72.49,134.28c-.42-.1-1.54-.39-1.65.22.63-.3,1.12.23,1.65-.22ZM76.71,130.32c-.27-.33-1.53.38-1.18.49.12-.37,1.11-.08,1.18-.49ZM89.14,130.74c-.5,0-.94.11-1.18.51.42,0,1.26.08,1.18-.51ZM94.2,128.63c-.2-.35-.4.34-.39.5.52-.17,1.04-.37,1.53-.61-.08-.64-.73.1-1.13.12h-.01ZM111.93,115.99c-.47.31-.41.64-.35.97.33-.32.68-.63.35-.97ZM111.59,114.28c-.37.56-2,.83-1.6,1.62.64-.28.25-.12.29-.47.06-.76,1.99-.27,1.31-1.15ZM114.14,111.4c-.44.03-.77.74-.36,1.12.57-.39.32-.75.36-1.12ZM114.62,111.39c.32-.4.64-.13.96-.53-.26-.55-1.11.16-.96.53ZM122.59,108.05l-.46.59c.43.72,1.05-.4.46-.59ZM124.14,105.74c-.42.91-1.02-.02-1.44.78.45.31.82-.18,1.24-.24.58.13-.26.56.32.69.4-.5.02-.84-.12-1.23ZM128.77,101.56c.13-.22.28-.43.39-.66-.48-.44-1.02.46-.39.66ZM127.86,99.75c-.26.46-.41.85-.25,1.14.14-.16.31-.15.49-.15.22-.42.13-.76-.23-.99h-.01ZM133.13,91.42c.45-.24,1-.22,1.35-.73-.45-.49-.68.34-.9.49-.06.04-.24-.14-.32-.12.03-.01-.33.33-.29.3-.21.18-.24.45-.43.65.4.36.43-.29.59-.59h0ZM133.12,92.85l-.35.89c.37.48.93-.98.35-.89ZM131.41,93.99c.84.18.46-.87,1.1-.97-.38-.09.03-.58-.26-.72-.47.58-.31,1.01-.84,1.69h0ZM132.18,96c.4-.35.02-.59.1-1.01.04-.2.9-.73.2-.96-.18.12-.4.56-.49.99-.11.43-.12.85.19.97h0ZM130.52,98.6c.12-.46.31-.95-.17-1.16-.12.46-.31.94.17,1.16ZM131.67,79.18c-.33.01-.72-.07-.75.4.3.37.42.49.96.37.2-.46-.27-.42-.21-.77ZM131.09,76.59c-.07.19-.23.24-.39.29.04-.18,0-.45-.14-.2.31.43-.24.56-.2,1.2.7.18.56-.55.51-.97.26.09.49-.17.22-.32ZM53.61,128.7c-.82-.2-1.04.11-1.87.18-.39-.38-.63-.84-.87-1.29.53-.48,1.36-.41,2.12-.45-.37.25-.74.49-1.35.32-.18.41.06.59.51.67.38-.77,2.56-1.2,2.47.16-.41-.13-.43-.44-.83-.23.5.94,2.07.22,2.42,1.01l.15-.65c-.59-.29-.84-.02-1.36-.2-.09-1.02,1.75-.41,1.73.12.51-.07.91-.03,1.34.25-.21.26-.68.16-.81.54-.32-.08,0-.56-.4-.58-.25-.03-.17.47-.44.4,0,.24.39.26.64.32-.35.69-1.11.56-1.71.44-.57-.13-1.11-.85-1.73-1h0ZM53.2,130.85l-.52-.14c.53-.26-.17-.37.06-.86.55.13.47.58.46,1ZM56.38,130.67c.65.24.62.11,1.01.35-.05.25-1.38.13-1.01-.35Z"/>
  </g>
  <g>
    <rect class="cls-1" x="67.26" y="76.29" width="14.32" height="8.9" rx="1.76" ry="1.76"/>
    <path class="cls-1" d="M98.51,39.45h-49.17c-3.86,0-6.99,3.13-6.99,6.98v1.42h44.31c5.76,0,10.43,4.68,10.43,10.43v25.88h1.42c3.86,0,6.99-3.13,6.99-6.99v-30.74c0-3.84-3.13-6.98-6.99-6.98Z"/>
    <g>
      <path class="cls-1" d="M86.66,51.29h-49.17c-3.85,0-6.99,3.13-6.99,6.99v30.73c0,3.85,3.14,6.99,6.99,6.99h49.17c3.85,0,6.99-3.14,6.99-6.99v-30.73c0-3.85-3.14-6.99-6.99-6.99ZM37.49,56.32h49.17c1.08,0,1.95.88,1.95,1.95v4.13h-53.08v-4.13c0-1.08.88-1.95,1.95-1.95ZM86.66,90.97h-49.17c-1.08,0-1.95-.88-1.95-1.96v-18.59h53.08v18.59c0,1.08-.88,1.96-1.95,1.96Z"/>
      <path class="cls-1" d="M58.18,78.22h-14.11c-1.39,0-2.52,1.13-2.52,2.52s1.13,2.52,2.52,2.52h14.11c1.39,0,2.52-1.13,2.52-2.52s-1.13-2.52-2.52-2.52Z"/>
    </g>
  </g>
</svg>