<?xml version="1.0" encoding="UTF-8"?>
<svg id="Layer_1" data-name="Layer 1" xmlns="http://www.w3.org/2000/svg" viewBox="0 0 60 60">
  <defs>
    <style>
      .cls-1 {
        fill: #80c243;
        stroke-width: 0px;
      }
    </style>
  </defs>
  <path class="cls-1" d="M56.38,19.01c-1.44-3.39-3.49-6.44-6.11-9.06-2.62-2.62-5.66-4.67-9.06-6.11-3.51-1.49-7.25-2.24-11.09-2.24s-7.58.75-11.09,2.24c-3.39,1.44-6.44,3.49-9.06,6.11-2.62,2.62-4.67,5.66-6.11,9.06-1.49,3.51-2.24,7.25-2.24,11.09s.75,7.58,2.24,11.09c1.44,3.39,3.49,6.44,6.11,9.06,2.62,2.62,5.66,4.67,9.06,6.11,3.51,1.49,7.25,2.24,11.09,2.24s7.58-.75,11.09-2.24c3.39-1.44,6.44-3.49,9.06-6.11,2.62-2.62,4.67-5.66,6.11-9.06,1.49-3.51,2.24-7.25,2.24-11.09s-.75-7.58-2.24-11.09ZM19.96,30.11c0-3.91.35-7.68,1-11.12,2.57.34,5.24.52,7.95.54v11.71c-3.05,0-6.04-.16-8.95-.45,0-.23,0-.45,0-.68ZM17.54,30.51c-4.79-.62-9.3-1.64-13.36-3.02.43-4.31,1.92-8.32,4.2-11.76,3.13,1.28,6.56,2.25,10.19,2.89-.67,3.57-1.03,7.47-1.03,11.49,0,.13,0,.27,0,.4ZM31.33,4.24c2.07.7,4.11,3.18,5.71,7.04.64,1.54,1.2,3.25,1.66,5.07-2.39.39-4.86.63-7.37.71V4.24ZM28.91,4.24v12.86c-2.54-.01-5.03-.18-7.43-.49.47-1.92,1.05-3.72,1.72-5.33,1.61-3.86,3.64-6.33,5.71-7.04ZM28.91,33.66v9.61c-2.51.01-4.99.17-7.4.47-.79-3.19-1.3-6.76-1.47-10.51,2.88.28,5.85.42,8.88.43ZM28.91,45.69v10.29c-2.07-.7-4.11-3.18-5.71-7.04-.37-.9-.72-1.84-1.03-2.84,2.2-.26,4.45-.39,6.74-.41ZM31.33,55.98v-10.25c2.28.08,4.51.28,6.67.6-.29.91-.61,1.79-.96,2.62-1.61,3.86-3.64,6.33-5.71,7.04ZM31.33,43.3v-9.67c3.02-.07,6-.29,8.89-.64-.17,3.93-.7,7.66-1.55,10.98-2.38-.37-4.83-.59-7.34-.67ZM31.33,31.21v-11.72c2.69-.09,5.34-.35,7.9-.77.69,3.51,1.05,7.38,1.05,11.39,0,.15,0,.29,0,.43-2.9.37-5.9.59-8.95.67ZM41.61,18.28c3.54-.74,6.87-1.79,9.85-3.14,2.38,3.38,3.97,7.34,4.52,11.62-3.94,1.52-8.45,2.68-13.28,3.44,0-.03,0-.06,0-.09,0-4.15-.38-8.17-1.1-11.83ZM49.93,13.17c-2.69,1.16-5.67,2.09-8.84,2.74-.5-2-1.1-3.87-1.81-5.57-.97-2.34-2.1-4.23-3.34-5.66,5.54,1.27,10.41,4.3,13.99,8.48ZM24.31,4.69c-1.24,1.43-2.37,3.32-3.34,5.66-.74,1.79-1.38,3.77-1.89,5.9-3.27-.57-6.37-1.42-9.21-2.53,3.61-4.46,8.67-7.71,14.45-9.03ZM4.05,30c4.15,1.36,8.72,2.35,13.55,2.96.17,3.95.68,7.73,1.51,11.13-3.26.54-6.37,1.35-9.25,2.4-3.63-4.48-5.8-10.18-5.8-16.38,0-.04,0-.07,0-.11ZM11.6,48.44c2.55-.87,5.29-1.54,8.14-2.01.36,1.21.77,2.36,1.22,3.43.97,2.34,2.1,4.23,3.34,5.66-4.9-1.12-9.28-3.63-12.71-7.09ZM35.94,55.53c1.24-1.43,2.37-3.32,3.34-5.66.41-.99.79-2.04,1.13-3.14,2.73.53,5.33,1.26,7.76,2.18-3.35,3.22-7.55,5.55-12.23,6.62ZM49.96,47.01c-2.76-1.12-5.75-1.99-8.9-2.62.89-3.56,1.43-7.56,1.59-11.74,4.89-.74,9.48-1.88,13.52-3.38,0,.28.01.55.01.83,0,6.44-2.35,12.35-6.24,16.9Z"/>
</svg>