<?xml version="1.0" encoding="UTF-8"?>
<svg id="Layer_1" data-name="Layer 1" xmlns="http://www.w3.org/2000/svg" viewBox="0 0 60 60">
  <defs>
    <style>
      .cls-1 {
        fill-rule: evenodd;
      }

      .cls-1, .cls-2 {
        fill: #084f69;
        stroke-width: 0px;
      }
    </style>
  </defs>
  <g>
    <path class="cls-1" d="M7.04,41.06v-19.89H3.04c0-1.88-.01-5.92-.01-5.92,0,0,.73-.38,1.21-.67C12.17,9.92,20.1,5.28,28.09.73c.32-.18,1.23-.73,1.23-.73,0,0,1,.57,1.34.77,7.98,4.7,15.91,9.49,23.81,14.33.56.35,1.14.76,1.14.76v5.55h-4.34v19.65H7.04ZM46.15,35.63c0-6.14.03-19.02.03-19.02,0,0-.71-.43-1.21-.75-4.71-2.98-9.49-5.85-14.18-8.86-.54-.35-1.48-.93-1.48-.93,0,0-.96.53-1.52.86-4.58,2.79-9.23,5.47-13.77,8.31-.66.41-1.36.84-1.36.84,0,0,0,7.71,0,10.85,0,2.84,0,5.67,0,8.69h33.49Z"/>
    <path class="cls-1" d="M38.18,18.73v5.2h-17.83v-5.2h17.83Z"/>
    <path class="cls-1" d="M38.03,26.2v4.85h-17.69v-4.85h17.69Z"/>
  </g>
  <g>
    <path class="cls-2" d="M9.16,45.03v.74h-2.1v.85h1.93v.68h-1.93v.97h2.14v.73h-3.02v-3.98h2.97Z"/>
    <path class="cls-2" d="M12.54,48.87c-.26.15-.58.23-.96.23-.31,0-.58-.05-.82-.16-.24-.11-.45-.25-.61-.44-.17-.19-.29-.4-.38-.66-.09-.25-.13-.52-.13-.81s.05-.57.13-.83c.09-.25.22-.48.38-.67.17-.19.37-.34.61-.44.24-.11.52-.16.82-.16s.58.05.82.16c.24.11.44.26.61.44.17.19.29.41.38.67.09.25.13.53.13.83s-.04.56-.13.81c-.09.25-.22.47-.38.66l.49.45-.41.42-.56-.51ZM12.41,47.95c.07-.1.13-.22.18-.37.04-.15.07-.33.07-.54,0-.17-.02-.34-.06-.51-.04-.16-.1-.31-.19-.44-.09-.13-.2-.23-.34-.31-.14-.08-.3-.12-.5-.12s-.37.04-.5.12c-.14.07-.25.18-.34.31-.08.13-.15.27-.19.44-.04.16-.06.33-.06.51s.02.33.06.49c.04.16.1.3.19.42.09.13.2.23.34.31.14.07.31.11.5.11.09,0,.16,0,.21-.01.05,0,.09-.02.14-.04l-.37-.34.41-.43.45.41Z"/>
    <path class="cls-2" d="M17.05,48.7c-.3.26-.72.39-1.25.39s-.95-.13-1.25-.39c-.29-.26-.44-.66-.44-1.2v-2.47h.88v2.47c0,.11,0,.21.03.32.02.1.06.2.12.28.06.08.14.15.25.19.1.05.25.07.42.07.31,0,.53-.07.65-.21.12-.14.18-.35.18-.65v-2.47h.87v2.47c0,.54-.15.94-.45,1.2Z"/>
    <path class="cls-2" d="M20.23,45.03l1.49,3.98h-.91l-.3-.88h-1.49l-.31.88h-.88l1.5-3.98h.9ZM20.28,47.47l-.5-1.46h-.01l-.52,1.46h1.03Z"/>
    <path class="cls-2" d="M22.94,45.03v3.24h1.94v.73h-2.81v-3.98h.88Z"/>
    <path class="cls-2" d="M27.79,45.03v1.53h1.61v-1.53h.87v3.98h-.87v-1.71h-1.61v1.71h-.87v-3.98h.87Z"/>
    <path class="cls-2" d="M31,46.21c.09-.25.22-.48.38-.67.17-.19.37-.34.61-.44.24-.11.52-.16.82-.16s.58.05.82.16c.24.11.45.26.61.44.17.19.3.41.38.67.09.25.13.53.13.83s-.04.56-.13.81c-.09.25-.22.47-.38.66-.17.19-.37.33-.61.44-.24.1-.51.16-.82.16s-.58-.05-.82-.16c-.24-.11-.45-.25-.61-.44-.17-.19-.29-.4-.38-.66-.09-.25-.13-.52-.13-.81s.04-.57.13-.83ZM31.8,47.52c.04.16.1.3.19.43.09.13.2.23.34.3.14.07.31.11.5.11s.36-.04.5-.11c.14-.08.25-.18.34-.3.09-.13.15-.27.19-.43.04-.16.06-.32.06-.49s-.02-.34-.06-.51c-.04-.16-.1-.31-.19-.44-.09-.13-.2-.23-.34-.31-.14-.08-.3-.12-.5-.12s-.37.04-.5.12c-.14.07-.25.18-.34.31-.08.13-.15.28-.19.44-.04.16-.06.33-.06.51s.02.33.06.49Z"/>
    <path class="cls-2" d="M38.29,48.7c-.3.26-.72.39-1.25.39s-.95-.13-1.25-.39c-.29-.26-.44-.66-.44-1.2v-2.47h.88v2.47c0,.11,0,.21.03.32.02.1.06.2.12.28.06.08.14.15.25.19.1.05.25.07.42.07.31,0,.53-.07.64-.21.12-.14.18-.35.18-.65v-2.47h.87v2.47c0,.54-.15.94-.45,1.2Z"/>
    <path class="cls-2" d="M40.16,48.02c.05.09.11.17.19.23.08.06.17.1.28.13.11.03.22.04.34.04.08,0,.16,0,.25-.02.09-.01.17-.04.25-.08.08-.04.14-.09.2-.15.05-.06.08-.15.08-.25,0-.11-.03-.2-.1-.26-.07-.07-.16-.12-.27-.17-.11-.04-.24-.09-.38-.12-.14-.03-.28-.07-.43-.11-.15-.04-.29-.08-.43-.14-.14-.05-.27-.12-.38-.21-.11-.09-.2-.19-.27-.32-.07-.13-.1-.28-.1-.47,0-.2.04-.38.13-.53.09-.15.2-.28.34-.38.14-.1.3-.17.48-.22.18-.05.36-.07.53-.07.21,0,.41.02.6.07.19.05.36.12.51.22.15.1.27.24.35.4.09.16.13.36.13.59h-.85c0-.12-.03-.22-.08-.29-.04-.08-.1-.14-.17-.19-.07-.04-.15-.07-.24-.09-.09-.02-.19-.03-.3-.03-.07,0-.14,0-.21.02-.07.02-.14.04-.19.08-.06.04-.11.08-.14.14-.04.05-.06.13-.06.21,0,.08.01.14.04.19.03.05.09.09.18.13.09.04.21.08.36.12.15.04.35.09.6.16.07.01.18.04.31.08.13.04.26.1.39.19.13.09.24.2.34.34.09.14.14.32.14.55,0,.18-.04.35-.11.51-.07.16-.18.29-.31.4-.14.11-.31.2-.52.26-.2.06-.45.09-.72.09-.22,0-.43-.03-.64-.08-.21-.05-.39-.14-.54-.25-.16-.12-.28-.26-.38-.44-.09-.18-.14-.39-.13-.64h.85c0,.13.03.25.07.34Z"/>
    <path class="cls-2" d="M43.98,45.03v3.98h-.87v-3.98h.87Z"/>
    <path class="cls-2" d="M45.62,45.03l1.66,2.67h.01v-2.67h.82v3.98h-.88l-1.65-2.66h-.01v2.66h-.82v-3.98h.87Z"/>
    <path class="cls-2" d="M51.23,48.97c-.19.08-.38.12-.57.12-.3,0-.58-.05-.82-.16-.24-.11-.45-.25-.61-.44-.17-.19-.3-.4-.38-.66-.09-.25-.13-.52-.13-.81s.04-.57.13-.83c.09-.25.22-.48.38-.67.17-.19.37-.34.61-.44.25-.11.52-.16.82-.16.2,0,.4.03.59.09.19.06.36.15.52.27.15.12.28.27.38.44.1.18.16.38.18.6h-.83c-.05-.22-.15-.39-.3-.5-.15-.11-.33-.17-.54-.17-.2,0-.36.04-.5.12-.14.07-.25.18-.34.31-.09.13-.15.28-.19.44-.04.16-.06.33-.06.51s.02.33.06.49c.04.16.1.3.19.43.09.13.2.23.34.3.14.07.3.11.5.11.29,0,.51-.07.67-.22.16-.15.25-.36.28-.64h-.88v-.65h1.67v2.15h-.56l-.09-.45c-.15.2-.33.34-.52.42Z"/>
    <path class="cls-2" d="M7.87,51.11v6.84h4.09v1.55h-5.93v-8.39h1.84Z"/>
    <path class="cls-2" d="M19.27,51.11v1.55h-4.43v1.8h4.06v1.43h-4.06v2.06h4.52v1.55h-6.37v-8.39h6.27Z"/>
    <path class="cls-2" d="M22.44,51.11l3.5,5.63h.02v-5.63h1.73v8.39h-1.85l-3.49-5.61h-.02v5.61h-1.73v-8.39h1.83Z"/>
    <path class="cls-2" d="M32.93,51.11c.54,0,1.04.09,1.51.26.47.17.87.43,1.21.77.34.34.61.78.8,1.29.19.52.29,1.12.29,1.82,0,.61-.08,1.17-.23,1.69-.16.52-.39.96-.71,1.34-.32.38-.71.67-1.19.89-.47.22-1.03.32-1.67.32h-3.62v-8.39h3.62ZM32.8,57.94c.26,0,.52-.04.78-.13.25-.09.47-.23.67-.43.2-.2.35-.46.47-.78.12-.32.18-.71.18-1.17,0-.42-.04-.8-.12-1.15-.08-.34-.22-.63-.41-.88-.19-.24-.44-.43-.75-.56-.31-.13-.69-.19-1.15-.19h-1.32v5.29h1.65Z"/>
    <path class="cls-2" d="M44.29,51.11v1.55h-4.43v1.8h4.06v1.43h-4.06v2.06h4.52v1.55h-6.37v-8.39h6.27Z"/>
    <path class="cls-2" d="M50.15,51.11c.38,0,.72.06,1.02.18.3.12.56.29.77.5.22.21.38.45.49.73.11.28.17.58.17.9,0,.5-.1.92-.31,1.28-.21.36-.55.63-1.02.82v.02c.23.06.42.16.56.29.15.13.27.28.36.46.09.18.16.37.2.58.04.21.07.42.09.63,0,.13.02.29.03.47,0,.18.02.36.04.55.02.19.05.36.09.53.04.17.11.31.19.43h-1.84c-.1-.27-.16-.58-.19-.95-.02-.37-.06-.72-.11-1.06-.06-.44-.19-.76-.4-.96-.2-.2-.54-.31-1-.31h-1.84v3.28h-1.84v-8.39h4.52ZM49.49,54.9c.42,0,.74-.09.95-.28.21-.19.32-.49.32-.92s-.11-.7-.32-.89c-.21-.18-.53-.28-.95-.28h-2.02v2.36h2.02Z"/>
  </g>
</svg>