<?xml version="1.0" encoding="UTF-8"?>
<svg id="Layer_1" data-name="Layer 1" xmlns="http://www.w3.org/2000/svg" viewBox="0 0 60 60">
  <defs>
    <style>
      .cls-1 {
        fill: #80c243;
        stroke-width: 0px;
      }
    </style>
  </defs>
  <path class="cls-1" d="M50.09,42.56l3.86,5.67c2.17,3.03-.06,4.98-2.61,6.26-3.39,1.7-6.93,3.78-12.37,3.2-8.45-.9-13.57-6.38-19.03-12.23C15.01,40.18,1.74,25.98,6,11.15c.75-2.61,1.92-4.82,3.18-6.63,1.64-2.36,4.02-3.53,6.99-.43l5.89,5.4c3.57,3.37,3.7,4.93,2.27,7.63-.43.82-.54.78-1.11,1.49-.51.64-1.94,1.68-2.65,2.09l-1.57,1.26c-.07.04.81-.81.75-.75-2.54,2.34-1.84,5.43.33,8.17l8.59,10.81c2.3,2.89,6.44,3.52,9.49,1.43l.65-.44c4.52-4.81,7.59-3.88,11.3,1.4Z"/>
</svg>