<?xml version="1.0" encoding="UTF-8"?>
<svg id="Layer_1" data-name="Layer 1" xmlns="http://www.w3.org/2000/svg" viewBox="0 0 807.78 150.57">
  <defs>
    <style>
      .cls-1 {
        fill: #b7b7b7;
      }

      .cls-2 {
        fill: #fff;
      }

      .cls-3 {
        fill: #c5d452;
      }
    </style>
  </defs>
  <g>
    <g>
      <path class="cls-2" d="m171,8.13h28.95c11.27,0,19.65,1.59,25.12,4.78,5.47,3.19,8.2,8.15,8.2,14.89,0,4.43-1.19,8.22-3.58,11.35s-5.53,5.15-9.42,6.05v.54c5.15,1.3,8.87,3.46,11.18,6.49,2.31,3.03,3.46,6.95,3.46,11.78,0,7.17-2.83,12.82-8.49,16.95-5.66,4.13-13.37,6.19-23.13,6.19h-32.3V8.13Zm22.42,30.33h6.75c3.22,0,5.7-.63,7.46-1.89,1.76-1.26,2.64-3.14,2.64-5.62,0-4.43-3.52-6.65-10.56-6.65h-6.3v14.16Zm0,15.62v16.6h7.89c7,0,10.5-2.81,10.5-8.43,0-2.63-.94-4.65-2.81-6.05-1.87-1.41-4.59-2.11-8.14-2.11h-7.44Z"/>
      <path class="cls-2" d="m249.33,87.17V8.13h22.53v79.03h-22.53Z"/>
      <path class="cls-2" d="m339.07,87.17h-49.27V8.13h49.27v17.14h-26.85v12.43h24.86v17.14h-24.86v14.92h26.85v17.41Z"/>
      <path class="cls-2" d="m432.61,87.17h-29.4l-30.31-55.68h-.51c.72,8.76,1.08,15.44,1.08,20.05v35.62h-19.87V8.13h29.29l30.2,54.92h.34c-.53-7.96-.8-14.36-.8-19.19V8.13h19.98v79.03Z"/>
      <path class="cls-2" d="m499.81,87.17h-49.27V8.13h49.27v17.14h-26.85v12.43h24.86v17.14h-24.86v14.92h26.85v17.41Z"/>
      <path class="cls-2" d="m568.61,63.16c0,4.9-1.31,9.25-3.92,13.06-2.61,3.8-6.38,6.76-11.3,8.87-4.92,2.11-10.69,3.16-17.31,3.16-5.53,0-10.16-.37-13.91-1.11-3.75-.74-7.64-2.03-11.69-3.87v-19.03c4.28,2.09,8.72,3.72,13.34,4.89,4.62,1.17,8.85,1.76,12.71,1.76,3.33,0,5.77-.55,7.32-1.65,1.55-1.1,2.33-2.51,2.33-4.24,0-1.08-.31-2.03-.94-2.84-.62-.81-1.63-1.63-3.01-2.46-1.38-.83-5.06-2.52-11.04-5.08-5.41-2.34-9.47-4.61-12.17-6.81-2.71-2.2-4.71-4.72-6.02-7.57-1.31-2.85-1.96-6.22-1.96-10.11,0-7.28,2.78-12.96,8.34-17.03,5.56-4.07,13.21-6.11,22.93-6.11,8.59,0,17.35,1.89,26.28,5.68l-6.87,16.49c-7.76-3.39-14.46-5.08-20.09-5.08-2.91,0-5.03.49-6.36,1.46-1.32.97-1.99,2.18-1.99,3.62,0,1.55.84,2.94,2.53,4.16,1.68,1.23,6.25,3.46,13.71,6.7,7.15,3.06,12.12,6.35,14.9,9.87,2.78,3.51,4.17,7.94,4.17,13.27Z"/>
      <path class="cls-2" d="m618.05,87.17h-22.42V25.59h-20.26V8.13h62.89v17.46h-20.21v61.57Z"/>
      <path class="cls-2" d="m701.03,87.17l-4.09-14.81h-26.96l-4.2,14.81h-24.63l27.08-79.36h29.91l27.42,79.36h-24.52Zm-8.74-32.33l-3.58-12.97c-.83-2.88-1.85-6.61-3.04-11.19-1.19-4.58-1.98-7.86-2.36-9.84-.34,1.84-1.01,4.86-2.02,9.08-1,4.22-3.23,12.52-6.67,24.92h17.65Z"/>
      <path class="cls-2" d="m756.94,58.41v28.76h-22.42V8.13h27.19c22.55,0,33.83,7.78,33.83,23.35,0,9.15-4.69,16.24-14.08,21.24l24.18,34.44h-25.43l-17.6-28.76h-5.68Zm0-16.06h4.2c7.83,0,11.75-3.3,11.75-9.89,0-5.44-3.84-8.16-11.52-8.16h-4.43v18.06Z"/>
    </g>
    <path class="cls-2" d="m32.06,62.92l85.19-1.64-60.35,21.51-24.84-19.87Z"/>
    <g>
      <polygon class="cls-2" points="73.16 2.69 59.13 45.9 87.19 45.9 73.16 2.69"/>
      <polygon class="cls-2" points="115.65 137.73 101.58 94.4 78.89 110.93 115.65 137.73"/>
    </g>
    <polygon class="cls-3" points="143.73 51.29 0 51.29 43.2 87.43 29.49 140.6 143.32 51.29 143.73 51.29"/>
    <g>
      <line class="cls-2" x1="801.09" y1="100.12" x2="164.47" y2="100.12"/>
      <g>
        <path class="cls-1" d="m165.21,102.71c-.94-.04-.6.41-.74.49,1.57-.1.7-.6.74-.49Z"/>
        <polygon class="cls-1" points="180.73 101.7 180.45 101.88 182.74 101.43 180.73 101.7"/>
        <path class="cls-1" d="m195.24,101.71c-1.37-.76-5.26.12-7.84-.15l-.43-.17-1.17.61c3.14-.1,7.22-.5,9.43-.29Z"/>
        <path class="cls-1" d="m202.97,103.35c-.48-.3,1.67-.25-1.8-.09.17.03.22.05.33.07.31,0,.74,0,1.48.02Z"/>
        <path class="cls-1" d="m201.5,103.33c-1.53.02,1,.25,0,0h0Z"/>
        <path class="cls-1" d="m208.55,103.16l-2.01.26c.42.17,2.21.21,1.55.34,2.06-.14,1.64-.32.47-.6Z"/>
        <path class="cls-1" d="m210.46,102.61l-1.04.11c.18.07.46.1,1.04-.11Z"/>
        <path class="cls-1" d="m207.21,102.95l2.21-.24c-.29-.12-.32-.37-1.02.08.18-.22-.26,0-1.2.15Z"/>
        <path class="cls-1" d="m205.95,102.84c-1.13-.16-2.59-.27-.57-.53-3.85.1-3.28.64.57.53Z"/>
        <path class="cls-1" d="m195.98,100.92l-1.51-.22-1.31.25c.65-.13,2.91.21,2.81-.03Z"/>
        <path class="cls-1" d="m221.09,103.55c.13-.16-.68-.43-.83-.64l-1.49.19c.76.11,2.21.21,2.31.45Z"/>
        <path class="cls-1" d="m220.26,102.92l2.22-.28c-1.99-.03-2.35.1-2.22.28Z"/>
        <polygon class="cls-1" points="210.82 101.76 207.17 102.35 211.52 101.76 210.82 101.76"/>
        <polygon class="cls-1" points="229.59 103.57 228.32 103.95 230.57 103.38 229.59 103.57"/>
        <path class="cls-1" d="m235.22,103.51c-.93.31,1.28.52.29.71,1.53-.06,2.84-.32,4.01-.56-1.25.13-2.58.1-4.31-.15Z"/>
        <path class="cls-1" d="m241.5,103.31c-.62.07-1.27.21-1.98.35.66-.07,1.32-.17,1.98-.35Z"/>
        <path class="cls-1" d="m226.28,102.72c.17.1.5.35,1.75.46l-.87-.45c-.27,0-.57,0-.88,0Z"/>
        <path class="cls-1" d="m227.12,102.71h.03c.95.02,1.61.03,1.89.04-.24,0-.82-.02-1.92-.04Z"/>
        <path class="cls-1" d="m226.06,102.72c.08,0,.14,0,.22,0-.08-.04-.14-.06-.22,0Z"/>
        <path class="cls-1" d="m216.65,102.17c1.31-.25,4.03-.53,1.39-.91-.94.31.57.53-1.39.91Z"/>
        <path class="cls-1" d="m224.97,102.15l-2.36-.1c.05.12.47.29-.17.42l2.54-.32Z"/>
        <polygon class="cls-1" points="226.13 102 224.97 102.15 225.85 102.19 226.13 102"/>
        <path class="cls-1" d="m237.46,102.89c1.02-.2,2.14-.21,3.4-.25-1.35-.09-2.75-.14-4.08-.14-.19.14-.77.4.68.38Z"/>
        <path class="cls-1" d="m232.43,102.76c.07-.01.16-.02.23-.03-.14-.04-.25-.05-.23.03Z"/>
        <path class="cls-1" d="m253.27,102.64c-.07-.02-.13-.06-.2-.08-.02.03-.03.05-.05.08h.25Z"/>
        <path class="cls-1" d="m236.55,102.42c-1.02-.09-1.62.02-2.2.16.76-.05,1.56-.08,2.43-.08.08-.06.1-.11-.23-.08Z"/>
        <path class="cls-1" d="m244.97,103.1c-.53-.09-1.13-.18-1.76-.25.52.14,1.57.37,1.76.25Z"/>
        <path class="cls-1" d="m233,102.86c-.05,0-.1.02-.15.02.33.1.29.05.15-.02Z"/>
        <path class="cls-1" d="m233,102.86c.52-.07.93-.18,1.35-.28-.62.04-1.19.08-1.69.15.13.03.25.08.34.13Z"/>
        <path class="cls-1" d="m257.03,99.73c-.18.42-2.85.81-5.16.36-2.27.32-.79,1.7,1.2,2.47.07-.18.07-.35,2.41-.6-.82-.23-5.18-.54-3.21-.92,3.09-.22,2.53.15,4.04.37-1.28-.52,3.93-.76,3.26-1.53l-2.71.27c-.05-.12.93-.31.18-.42Z"/>
        <path class="cls-1" d="m248.62,102.52l-.96.05c1.1.07,1.88.24,3.32.57,1.6-.21,1.93-.36,2.04-.5l-4.73-.06.33-.06Z"/>
        <path class="cls-1" d="m243.35,102.57c.75-.46,3.06-.65,1.64-1.15-2.82.03-1.98.38-3.66.58,4.55-.11-1.31.25,1.98.51-.89.08-1.7.1-2.46.12.82.06,1.61.12,2.35.21-.04-.01-.07-.02-.1-.03h-.02s0,0,0,0c-.2-.06-.26-.09-.04-.06.02,0,.07,0,.09,0,.03-.06.11-.12.21-.17,1.32.09.21.12-.21.17-.02.02-.05.04-.06.07,0,0,.01,0,.02,0l4.56-.25c-.96-.06-2.17-.05-4.31,0Z"/>
        <path class="cls-1" d="m220.48,100.28c.14.04.14.07.15.11.29-.06.41-.09-.15-.11Z"/>
        <path class="cls-1" d="m222.35,100.55c-.33.06-.61.25-1.68.2-.93-.14,0-.22-.04-.37-.65.12-2.27.33-.24.55l.32-.06c1.83.16,4.19.73,3.87.79-.54-.41-1.01-.71-2.23-1.11Z"/>
        <path class="cls-1" d="m232.98,101.45l3.8-.22-1.93-.4.1.24c-2.16-.09-1.69.2-1.96.38Z"/>
        <polygon class="cls-1" points="253.7 102.87 253.2 103.36 255.39 102.67 253.7 102.87"/>
        <polygon class="cls-1" points="258.64 102.81 258.45 103.24 259.75 102.98 258.64 102.81"/>
        <path class="cls-1" d="m536.95,97.6l1.12-.12c-.53.04-.87.08-1.12.12Z"/>
        <path class="cls-1" d="m528.88,97.57l-.2.21c.37-.11.53-.2.2-.21Z"/>
        <path class="cls-1" d="m379.76,102.77c1.62.39,3.44,1,3.24.53l-.5-.46c-1.13.08-2.01.03-2.74-.07Z"/>
        <path class="cls-1" d="m462.72,100.02c-.15-.04-.32-.09-.48-.14-.39.16-.77.3-1.1.44.47-.09,1.01-.2,1.57-.3Z"/>
        <path class="cls-1" d="m463.86,98.11l2.14.3c-.48-.1-1.17-.2-2.14-.3Z"/>
        <path class="cls-1" d="m581.04,97.11l1.3-.47c-2.04,0-1.14.24-1.3.47Z"/>
        <path class="cls-1" d="m309.15,102.64c1.4.18,2.52.26,3.5.28-1.69-.26-3.05-.66-3.5-.28Z"/>
        <path class="cls-1" d="m533.77,102.49c.68-.08.97-.18.95-.28-.7.08-1.1.17-.95.28Z"/>
        <path class="cls-1" d="m316.69,102.92c-.25-.05-.49-.07-.74-.11-1.02.08-2.06.14-3.31.11,1.25.2,2.68.32,4.05,0Z"/>
        <path class="cls-1" d="m740.96,97.49c.12.02.26.03.36.06.04-.06-.13-.07-.36-.06Z"/>
        <path class="cls-1" d="m787.55,102.14c-.46.03-1.21.03-1.91.04.34.03.92.03,1.91-.04Z"/>
        <path class="cls-1" d="m278.48,103.02c-1.05.03-.17.05,0,0h0Z"/>
        <path class="cls-1" d="m273.39,101.19c.22-.05.39-.12.42-.22-.09.11-.23.18-.42.22Z"/>
        <path class="cls-1" d="m327.11,100.05s.06,0,.09,0c-.31-.09-.26-.07-.09,0Z"/>
        <path class="cls-1" d="m276.91,102.81c.39.06.85.1,1.34.14-.22-.04-.62-.08-1.34-.14Z"/>
        <path class="cls-1" d="m277.12,103.02c-.36-.02-.64-.03-.91-.04-.13.08-.02.13.91.04Z"/>
        <path class="cls-1" d="m279.94,102.99c-.6,0-1.16-.01-1.69-.05.21.03.29.06.24.07.31,0,.74-.02,1.46-.02Z"/>
        <path class="cls-1" d="m655.28,98.73c.07.01.15.02.22.04,1.05-.19.59-.16-.22-.04Z"/>
        <path class="cls-1" d="m406.99,97.98s-.07.02-.12.02c.05,0,.11.01.15.02l-.04-.04Z"/>
        <path class="cls-1" d="m410.74,97.64c-1.6.57-2.51.5-3.72.38l1.24,1.33,2.48-1.71Z"/>
        <path class="cls-1" d="m556.28,97.47l-2.64-.41c3.18-.68,5.49-.45,3.01-1.03-.37,1.44-10.26.15-10.62,1.59l-1.74-.3c.5.01.58-.07,1.07-.06-3.38-.69-2.51,1.04-6.87.84-1.52-.11-2.58-.32-1.54-.49l-3.38.36c-.98-.03-.74-.28.24-.25l-5.16.12.04-.04c-.74.23-2.41.58-3.22.73-1.31-.21.66-.15.32-.33l-2.86.35c-1.16-.37,1.2-.74,3.18-.68-2.67-1.44-2.37.36-8.13-.48l2.7-.18c-1.74-.82-3.85-.52-6.9-1.03.72.27,6.11,1.29,3.01,1.65-.87-.11-2.03-.16-3.7.13-.02-.51-1.65-.39-3.69-.36l.14-.68c-2.21.2-2.04.54-3.34.85-2.46-.07-2.97-.59-3.55-1.04-3.95-.11,2.72.84-1.95.97-3.28-.26-5.59.02-9.51.42-2.3-.23.4-.42-.42-.61l-2.04.54c-.5-.01-.34-.18-.26-.26-1.72.21-.14.68-2.84.86-.73.75-5.54-1.09-8.87-.24-.82-.19.4-.42.15-.68-4.58.56-3.93.41-7.69,1.16l-3.2-.45c2.35.51-.65,1.11-3.29,1.61.84.25,1.55.46,2.03.56l-4.2.36c-.51-.11-.08-.34.6-.63-.29.06-.56.11-.77.16-1.5-.25-.72-.64.35-1.02.51.13,1.02.28,1.51.42,1.04-.41,2.01-.87,1.79-1.27-.27.08-.8.15-1.38.18.27-.11.44-.21.32-.28-.14-.07-.58.08-1.27.25l-.96-.76-.23.3-5.5-.47c-3.93.76-7.36,1.88-13.6,2.2,1.55-.56.33-.91.42-1.57,1.7.7,4.84-.3,8.07-.15-1.69-.07-1.32-.39-.89-.5l-5.77.63c.13-.54-1.23-.4-2.73-.63,1.14,1.06-4.3.71-6.65,1.03-.15-.36.42-.72,3.28-.64-3.16-.8-4.09,1.25-7.19.57.7,0,1.08.05,1.35-.14-1.63.32-5.63.07-4.69-.25h.7c-4.65-.13-14.14-.02-14.83.89-.05-.12.61-1.09.89-1.27l-8.29,3.04c.73-.78-2.07-2.62,1.78-3.06-1.11-.11-2.47-.24-4.81.03.75.11,1.88,1.12.85,1.19-2.83-.86-1.96-.46-5.45-1.2,1.13.17-.13,1.38-1.91,1.34.28-.18-.15-1.2.5-1.33l-4.45,1.19c1.11-.22.2-1.01-.8-1.35.46.23-3.85-.02-5.03.1l1.89.28c-5.02-.18-4.96,1.68-9.94,1.62.6-.25,1.49-1.52-1.04-1.67-1.16.61-5.14,2.94-9.55,3.41l-.85-.35-3.38.4c2.11-.92,8.02-2.86,11.24-3.61-1.88-.28-.52-.41-3.34-.38-.99-.33,1.53-.5,2.36-.52l-6.55-.21c.29.71-5.01.72-4.76,1.31l7.12-.74c.29.71-4.12,2.03-8.76,1.9-1.18-.28.88-1.27.79-1.51-.6.25-4.41.47-4.83.3l1.97-.38c-2.58-.27-4.22.95-7.33.27-1.07-.05-3.2-.92-3.39-.5,1.75.81,2.09,3.34.92,3.95-.38-.05-5.63-.78-6.85-1.18-1.77-.64,2.65-1.52,1.15-2.07-.06.2-1.04.44-1.45.51-1.13-.17.47-.6-1.98-.52-.41.72-4.98-.06-1.16.61-2.39.21-2.54-.15-5.35-.12.89.47-2.52,1.59-4.92,1.8.14-.18-.4-.42-.66-.53-4.91-.07-7.54-.39-12.11-.4-.42-.18-2.63-.39-1.69-.7-.66.13-1.26.37-2.67.39-2.73-.63,3.15-.1,1.06-.85-.18.42-3.65.58-5.66.84.62.65,4.64.12,6.66-.14,0,.9-3.49,1.84-8.28,2.25-3.8.22-1.65-.58-2.31-.45-7.14-.16-6.08,1.57-12.01.92-2.35-.57-.11-1.14-.63-1.55,3.1-.22,4.75.36,6.85.34l-2.58-.27c.98-.19,3.05-.33,4.18-.17-1.97-.51-12.06-.1-17.57-.57-.98.19-2.67.39-1.87.62l1.74-.08c1.6.46-3.28.64-1.07.85-2.34.32-4.96.83-8.25.57l-.62-.65c.07.19,2.15.39,3.08.19-1.37.29-5.05-.88-6.55-.03l2.31.45c-2.35.33-5.25,1.02-8.16.81,1.33.64.67-.07,2.74.68-1.8-.94,7.46.04,4.57-.94,2.13.87,3.68.37,6.46,1.12-.09-.21-.98-.41,1.46-.3.11-.06.37-.14.54-.19.07,0,.1,0,.17.02-.05,0-.09-.02-.14-.03.11-.03.12-.04-.05,0-.58-.09-1.06-.21-1.25-.33,1.22-.49,5.11-.48,6.42-.73,1.45.1-.61.25.19.48l1.97-.38c.19.48,3.86.79.44,1.07l3.08.02c1.81.27,4.31.37,5.85.17,1.45.1,3.67-.53,2.4-.15l4.83-.3.04.12c4.77.06,9.81-.79,15.26.07,1.6-.12,3.26-.27,5.95-.13l.52.41c2.06-.14,6.19.41,7.07-.02,2.22,1.11,10,.24,13.62.44l.14-.54c2.49.03,4.89-.12,7.98-.34l-.19-.48c2.67-.39,6.86.34,11.08.29-.29.18-1.36.13-2.12.02,5.04,1.08,10.64-.78,15.22,0,1.14-.17,1.97-.11,2.76,0-.11,0-.2,0-.28.02.12,0,.29,0,.47,0,.5.08,1.02.18,1.58.25-.48-.12-.93-.21-1.33-.26.88,0,2.21-.07,3.52-.19l.56.51c.11,0,.19,0,.3-.01,1.28.19,1.03-.24.35-.63.66-.08,1.26-.19,1.73-.31,1.04.83,3.43-.28,4.85.6.88-.43,6.57-.32,7.27-1.23.04.12.43.17-.28.18,1.46.1,2.91.21,4.22-.05l.62.65,3.18-.87c1.93.4,2.73.63.81,1.13,4.63-.77,3.76-.29,7.7-1.05l-.19.42c1.41-.02,3.66-.58,4.51-.23,3.15.8,15.59.11,23.68.85-1.57-1.24,3.76.56,4.08-.4.47.29,1.6.46.29.71,4.13-.29,6.2.46,9.05-.34.47.29-.88.43-.46.6.33-.06,1.31-.25,1.74-.08.42.17-.6.25-1.26.37,4.22-.05,4.64-.95,4.95-1.8,2.14.4,3.2.34,4.75-.21.74.28,1.98.57-.64.67,1.47.04,9,.41,9.15-.27.46.17,2.06.05,2.45-.03,3.31.04,3.6.1,6.85.04l-.9-.11c1.28-.82,2.7-.18,5.32-.28l-.07.08c6,.59,2.59-.28,8.52.39l-.32-.51c.55-1.1,5.25.65,8.69.23l-1.24-.29c1.88-.38,5.25,1.49,7.13,1.63.41.1-.65.15-1.22.22,4.94.65.64-.67,4.32-.82.68.36-.87.92,1.6.98,1.23.29,7.18-1.17,10.56-.48-.74-.28-1.48-.55.22-.76,2.62-.1,7.08,1.05,9.45.17.33.08.46.15.47.22,2-.23,6.51-.37,7.71-.85,1.85,1.76,12.45-.86,12.4.77l6.16-.09-.16.17c3.94.11,5.33-.28,6.71-.67.91.11.25.26.17.35,5.75.33,6.32.26,11.14-.55l.5.53c1.31-.31,8.31.83,13.96.21-.06.06-.17.16-.62.24,6.35-.62,15.19,1.46,17.52-.46l4.19-.47c-5.42-.15.81-.83-1.42-1.15,2.13-.11,5.51.58,2.89.68l-.41-.1c-.96,1,6.73.35,6.59,1.03,10.66-.05,21.05.5,31.04.55l-1.15-.78,3.48.04c.91.18,1.23.61-1.26.58,1.31.44,4.17-.37,4.24-.54,4.87.31-1.9.91-.41.92l2.03-.06-.46-.09c1.64-.32,1.79-.65,4.78-.62,1.89.16.97.48,1.71.51,0,.06.25.08,1.14.02l4.39.07-1.75-.61c1.95-.3,4.13.03,2.1-.66,2.97,1.07,16.37.38,18.2.72,2.72-.45,5.41-.44,8.75-.39-.83-.13-1.32-.82,1.55-.73-1.05,1.42,5.26.62,7.58,1.64-2.08-.68,8.17-.17,4.91-1.13,2.4.12.15.53,1.96.87,5.71-.55,12.58.36,19.63.17.11-.19-1.07-.47.44-.75l3.72.93c1.39-.09,1.28-1.08,3.83-.43-.36-.16-.9-.39.04-.45,13.82.91,28.24-.75,42.27.96-1.9-.36-.63-.4.82-.41-.94-.09.02-.46-.16-.71l5.88.7c1.07-.7,6.3-.05,6.91-.72l-1.86.12c2.47-.79-3.46-1.76-3.1-2.78-2.77.9-7.31-1.34-11.85-.04-1-.21.86-.33.32-.56-1.15.44-2.54.53-5.12.33l.29-.11c-7.24.11-10.35-.32-18.49-.61l.6.5c-1.75-.07-2.12-.23-2.94-.35-2.01.76,4.91.04,3.08.88-2.32-1.02-12.33-.02-13.9-1.18-2.69,0,.79.58-1.9.58l-.71-.31-.68.41c-1.76-.07-2.65-.46-2.72-.73.43.03,1.22-.07,1.68-.1-2.29-.37-6.45.13-7.23,0l2.58.19c-7.34.29-16.31-.12-23.4.52l.54.24c-5.42.44-4.34-.26-10.29-.06l.22-.06c-1.19.24-2.78.36-4.41.33,1.5-.28-2.83-.54-.86-.85-5.87.47-2.91.37-6.78,1.25l-.89-.39c-1.32.36-1.43.54-4.4.65,2.44-.34-1.9-.6.83-1.05-6.23-.86-9.25.87-12.11-.39-2.86,1.09,5.39.61,3.79.84,1.34.36-2.36.81-4.32.71-1.99-.02-3.39-1.39-8.39-1.37.5,0,.53-.08,1.03-.07-1.87-.28-3.67.38-5.97-.08-1.29.66-2.99-.04-3.36.8l4.59-.19c-2.6.22-5.05,1.2-9.34.73.33-.17,1.61-.39,2.49-.52-1.25-.25-2.42.16-3.72-.09.37-.84,5.58-.18,8.37-.82-1.35-.36-5.28.61-3.88-.3-2.02,1.16-4.93-.15-8.33.74l.22-.5c-.54.08-1.65.32-2.64.3l1.79-.65c-2.75.56-5.29-.49-7.93-.18,5.51-.02,1.24.61,3.57.98-6.8.67-3.91-1.32-11.53-1.08,1.03-.07,3.87.3,2.26.54-1.45-.1-3.36-.3-4.25-.56-5.05.1.77.52-1.37.83-1.72-.61-2.48.25-4.69.45l-.02-.51c-5.75-.33-1.52,1.07-6.7.67l2.19-.71-2.7.18.56-.58c-2.94.43-3.85.32-6.73.16.67.36-.38.93-2.92.95-1.74-.3.97-.49-2.64-.41.81-.32,1.71-.72,3.28-.25.16-.17.8-.32.97-.49-1.87-.35-4.7-.08-6.01-.08.5.02,1.1.05,1.41.12l-5.23.71c-.82-.19-.17-.35.48-.5-1.06.06-1.79.29-3.35.34.4-.42.31-.85,2.51-1.04l-4.99.46c-.33-.18-2.56-.5-1.91-.65-2.76-.24-6.78.81-10.44.49-.19.08-.57.16-1.35.22-3.44-.09-6.5-.61-10.58-.03l-2.32-.75c-3.2.17,3.14.94-2.19,1.22-3.77.24-1.41-.64-2.73-.85-1.87.38-5.13,1.14-8.6.53,1.15-.14,2.04-.03,3.12-.09Zm-39.43.33c.76-.11,2.29-.44,2.85-.14-.87.59-1.54.31-2.85.14Zm-59.94,1.23c.57-.17,1.45-.09,2.44.11-.72.04-1.53.02-2.44-.11Zm-166.97,3.57s.06-.01.08-.02c1.7.2,1.1.12-.08.02Zm-3.54-.22c-.36.07-.33.14-.18.21.25-.13,1.04-.14,1.95-.1-.25-.13-.71-.23-1.77-.11Zm380.04-.2l-.69-.13c1.56-.15,1.12-.01.69.13Z"/>
        <path class="cls-1" d="m463.71,98.33c.22.09.28.18.33.28.3-.09.31-.19-.33-.28Z"/>
        <path class="cls-1" d="m580.8,97.2s.08,0,.12,0c.07-.03.1-.06.12-.09l-.24.09Z"/>
        <path class="cls-1" d="m341.23,98.03c.73.07,1.13.17,1.4.26.04-.13-.29-.23-1.4-.26Z"/>
        <path class="cls-1" d="m267.65,103.25l2.27-.13c-1.1.03-1.49-.09-2.04-.17.05.12.48.29-.23.3Z"/>
        <path class="cls-1" d="m247.98,100.08c-.33.06-.7,0-1.03.07l.09.24c1.41-.02,2.4-.21.94-.31Z"/>
        <path class="cls-1" d="m265.55,101.54c-.18-.43-1.6-.28-3.19-.2.1,0,.19,0,.28,0-.47.6,1.22.4,2.91.2Z"/>
        <path class="cls-1" d="m262,101.35c-.49.02-.99.03-1.47.01-.19.24.6.05,1.47-.01Z"/>
        <path class="cls-1" d="m281.92,102.66c-.75-.11-.47.55-.9.38-.84.55,5.02-.66.9-.38Z"/>
        <polygon class="cls-1" points="264.27 100.12 264.84 100.66 265.73 100.23 264.27 100.12"/>
        <path class="cls-1" d="m276.81,100.51l-2.54-.15c.04.09-.28.14-.68.18,1.56.02,3.28.12,3.22-.03Z"/>
        <path class="cls-1" d="m273.59,100.55c-.81-.01-1.59,0-2.04.09.44,0,1.39-.02,2.04-.09Z"/>
        <polygon class="cls-1" points="267.74 99.96 268.49 100.08 270.28 100.11 267.74 99.96"/>
        <path class="cls-1" d="m304.08,100.62l2.77-.15c.28-.18-.47-.29-1.5-.22-.66.13-1.69.2-1.27.37Z"/>
        <path class="cls-1" d="m295.71,99.16c.75.11.8.23,1.22.4l.08-.66-1.31.26Z"/>
        <path class="cls-1" d="m303.78,99.01c.28-.18,4.02-.53.51-.48-.28.18-3.05.33-.51.48Z"/>
        <polygon class="cls-1" points="345.51 99.84 344.8 99.85 344.9 100.93 345.51 99.84"/>
        <path class="cls-1" d="m382.28,97.25c-3.28-.26-.78.67-3.74.34-.77.26,2.42.26,1.63.48,1.98-.27,3.02-.12,2.11-.83Z"/>
        <path class="cls-1" d="m380.17,98.08c-.32.04-.65.09-1.01.16.57-.07.84-.12,1.01-.16Z"/>
        <polygon class="cls-1" points="795.28 102.72 797.39 102.95 796.03 102.59 795.28 102.72"/>
        <path class="cls-1" d="m799.33,101.92l.5.69,1.27-.62c-.48.03-1.4.09-1.76-.07Z"/>
        <path class="cls-1" d="m510.99,96.41l-.16.17c.33.18.82.19,1.81.22l-1.65-.39Z"/>
        <polygon class="cls-1" points="539.61 96.92 539.12 96.91 540.04 97.53 539.61 96.92"/>
        <path class="cls-1" d="m563.63,96.13c-.98-.03-2.13.11-3.12.09,2.14-.11,3.38.69,3.12-.09Z"/>
      </g>
    </g>
  </g>
  <g>
    <path class="cls-2" d="m180.81,145.06h-5.41v-33.37h18.83v4.61h-13.42v10.43h12.57v4.63h-12.57v13.69Z"/>
    <path class="cls-2" d="m208.69,145.06v-33.37h5.45v33.37h-5.45Z"/>
    <path class="cls-2" d="m259.17,145.06h-6.69l-16.41-26.59h-.18l.11,1.48c.21,2.83.32,5.42.32,7.76v17.34h-4.95v-33.37h6.62l16.36,26.45h.14c-.03-.35-.09-1.62-.18-3.82s-.14-3.91-.14-5.15v-17.48h5v33.37Z"/>
    <path class="cls-2" d="m297.09,145.06l-3.33-9.27h-12.76l-3.26,9.27h-5.75l12.48-33.5h5.93l12.48,33.5h-5.8Zm-4.77-13.97l-3.13-9.08c-.23-.61-.54-1.57-.95-2.88-.4-1.31-.68-2.27-.83-2.88-.41,1.87-1.01,3.92-1.8,6.14l-3.01,8.69h9.72Z"/>
    <path class="cls-2" d="m343.5,145.06h-6.69l-16.41-26.59h-.18l.11,1.48c.21,2.83.32,5.42.32,7.76v17.34h-4.95v-33.37h6.62l16.36,26.45h.14c-.03-.35-.09-1.62-.18-3.82s-.14-3.91-.14-5.15v-17.48h5v33.37Z"/>
    <path class="cls-2" d="m374.91,115.89c-3.13,0-5.6,1.11-7.39,3.33-1.8,2.22-2.69,5.29-2.69,9.2s.86,7.19,2.59,9.29c1.73,2.1,4.23,3.15,7.5,3.15,1.42,0,2.78-.14,4.11-.42,1.32-.28,2.7-.64,4.13-1.08v4.68c-2.62.99-5.58,1.48-8.9,1.48-4.88,0-8.63-1.48-11.25-4.44-2.62-2.96-3.93-7.19-3.93-12.7,0-3.47.64-6.5,1.91-9.11,1.27-2.6,3.11-4.59,5.51-5.98,2.4-1.38,5.23-2.08,8.47-2.08,3.41,0,6.56.72,9.45,2.15l-1.96,4.54c-1.13-.53-2.32-1-3.57-1.4-1.26-.4-2.58-.6-3.96-.6Z"/>
    <path class="cls-2" d="m398.75,145.06v-33.37h5.45v33.37h-5.45Z"/>
    <path class="cls-2" d="m442.13,145.06l-3.33-9.27h-12.76l-3.26,9.27h-5.75l12.48-33.5h5.93l12.48,33.5h-5.8Zm-4.77-13.97l-3.13-9.08c-.23-.61-.54-1.57-.95-2.88-.4-1.31-.68-2.27-.83-2.88-.41,1.87-1.01,3.92-1.8,6.14l-3.01,8.69h9.72Z"/>
    <path class="cls-2" d="m460.74,145.06v-33.37h5.45v28.69h14.13v4.68h-19.58Z"/>
    <path class="cls-2" d="m537.13,121.78c0,3.48-1.14,6.15-3.42,8.01-2.28,1.86-5.53,2.78-9.75,2.78h-3.47v12.48h-5.45v-33.37h9.61c4.17,0,7.29.85,9.37,2.56,2.08,1.7,3.11,4.21,3.11,7.53Zm-16.64,6.21h2.9c2.8,0,4.85-.49,6.16-1.46,1.31-.97,1.96-2.49,1.96-4.56,0-1.92-.59-3.35-1.76-4.29-1.17-.94-3-1.42-5.48-1.42h-3.79v11.73Z"/>
    <path class="cls-2" d="m572.91,145.06l-3.33-9.27h-12.76l-3.26,9.27h-5.75l12.48-33.5h5.93l12.48,33.5h-5.8Zm-4.77-13.97l-3.13-9.08c-.23-.61-.54-1.57-.95-2.88-.4-1.31-.68-2.27-.83-2.88-.41,1.87-1.01,3.92-1.8,6.14l-3.01,8.69h9.72Z"/>
    <path class="cls-2" d="m596.98,131.73v13.33h-5.45v-33.37h9.42c4.31,0,7.49.81,9.56,2.42,2.07,1.61,3.1,4.05,3.1,7.3,0,4.15-2.16,7.11-6.48,8.88l9.43,14.77h-6.21l-7.99-13.33h-5.39Zm0-4.52h3.79c2.54,0,4.38-.47,5.52-1.42s1.71-2.34,1.71-4.2-.62-3.24-1.85-4.06c-1.23-.82-3.09-1.23-5.57-1.23h-3.61v10.91Z"/>
    <path class="cls-2" d="m641.33,145.06h-5.45v-28.69h-9.81v-4.68h25.08v4.68h-9.81v28.69Z"/>
    <path class="cls-2" d="m692.47,145.06h-6.69l-16.41-26.59h-.18l.11,1.48c.21,2.83.32,5.42.32,7.76v17.34h-4.95v-33.37h6.62l16.36,26.45h.14c-.03-.35-.09-1.62-.18-3.82s-.14-3.91-.14-5.15v-17.48h5v33.37Z"/>
    <path class="cls-2" d="m728.56,145.06h-18.87v-33.37h18.87v4.61h-13.42v9.08h12.57v4.56h-12.57v10.48h13.42v4.63Z"/>
    <path class="cls-2" d="m749.64,131.73v13.33h-5.45v-33.37h9.42c4.31,0,7.49.81,9.56,2.42,2.07,1.61,3.1,4.05,3.1,7.3,0,4.15-2.16,7.11-6.48,8.88l9.43,14.77h-6.21l-7.99-13.33h-5.39Zm0-4.52h3.79c2.54,0,4.38-.47,5.52-1.42s1.71-2.34,1.71-4.2-.62-3.24-1.85-4.06c-1.23-.82-3.09-1.23-5.57-1.23h-3.61v10.91Z"/>
    <path class="cls-2" d="m801.71,136c0,2.97-1.07,5.29-3.22,6.98-2.15,1.69-5.1,2.53-8.88,2.53s-6.86-.59-9.27-1.76v-5.16c1.52.72,3.14,1.28,4.85,1.69,1.71.41,3.31.62,4.78.62,2.16,0,3.75-.41,4.78-1.23,1.03-.82,1.54-1.92,1.54-3.31,0-1.25-.47-2.31-1.42-3.17s-2.89-1.89-5.84-3.08c-3.04-1.23-5.19-2.64-6.44-4.22-1.25-1.58-1.87-3.48-1.87-5.71,0-2.78.99-4.98,2.97-6.57,1.98-1.6,4.63-2.4,7.96-2.4s6.37.7,9.54,2.1l-1.73,4.45c-2.97-1.25-5.61-1.87-7.94-1.87-1.77,0-3.1.38-4.02,1.15-.91.77-1.37,1.78-1.37,3.05,0,.87.18,1.61.55,2.23s.97,1.2,1.8,1.75c.84.55,2.34,1.27,4.52,2.17,2.45,1.02,4.24,1.97,5.39,2.85,1.14.88,1.98,1.88,2.51,2.99.53,1.11.8,2.42.8,3.93Z"/>
  </g>
</svg>