<?xml version="1.0" encoding="UTF-8"?>
<svg id="Layer_1" data-name="Layer 1" xmlns="http://www.w3.org/2000/svg" xmlns:xlink="http://www.w3.org/1999/xlink" viewBox="0 0 678.32 324.67">
  <defs>
    <style>
      .cls-1, .cls-2 {
        fill: #064e68;
      }

      .cls-1, .cls-3, .cls-4, .cls-5, .cls-6, .cls-7, .cls-8 {
        stroke-width: 0px;
      }

      .cls-2 {
        stroke: #f5f4f6;
        stroke-miterlimit: 10;
        stroke-width: .95px;
      }

      .cls-3 {
        fill: #074f68;
      }

      .cls-9 {
        filter: url(#drop-shadow-1);
      }

      .cls-4 {
        fill: #2dabda;
      }

      .cls-5 {
        fill: #80c243;
      }

      .cls-6 {
        fill: #80c043;
      }

      .cls-7 {
        fill: #2faddd;
      }

      .cls-8 {
        fill: #f1f1f1;
      }
    </style>
    <filter id="drop-shadow-1" filterUnits="userSpaceOnUse">
      <feOffset dx="6.64" dy="6.64"/>
      <feGaussianBlur result="blur" stdDeviation="4.75"/>
      <feFlood flood-color="#231f20" flood-opacity=".75"/>
      <feComposite in2="blur" operator="in"/>
      <feComposite in="SourceGraphic"/>
    </filter>
  </defs>
  <g>
    <path class="cls-3" d="M114.27,106.92h-19.8V32.52h43.97v16.13h-24.17v14.2h22.29v16.13h-22.29v27.94Z"/>
    <path class="cls-3" d="M150.66,106.92V32.52h20.2v74.4h-20.2Z"/>
    <path class="cls-3" d="M257.78,106.92h-26.36l-27.17-52.42h-.46c.64,8.24.97,14.54.97,18.88v33.54h-17.81V32.52h26.26l27.07,51.7h.31c-.48-7.5-.71-13.52-.71-18.07v-33.64h17.91v74.4Z"/>
    <path class="cls-3" d="M319.51,106.92l-3.66-13.94h-24.17l-3.77,13.94h-22.09l24.27-74.71h26.82l24.58,74.71h-21.98ZM311.67,76.49l-3.21-12.21c-.75-2.71-1.65-6.23-2.72-10.53-1.07-4.31-1.77-7.4-2.11-9.26-.31,1.73-.91,4.58-1.81,8.55-.9,3.97-2.89,11.79-5.98,23.46h15.83Z"/>
    <path class="cls-3" d="M420.37,106.92h-26.36l-27.17-52.42h-.46c.64,8.24.97,14.54.97,18.88v33.54h-17.81V32.52h26.26l27.07,51.7h.3c-.47-7.5-.71-13.52-.71-18.07v-33.64h17.91v74.4Z"/>
    <path class="cls-3" d="M469.58,47.94c-4.78,0-8.52,1.96-11.2,5.88-2.68,3.92-4.02,9.32-4.02,16.21,0,14.32,5.44,21.48,16.33,21.48,3.29,0,6.48-.46,9.57-1.37,3.09-.92,6.19-2.02,9.31-3.31v17c-6.21,2.75-13.23,4.12-21.07,4.12-11.23,0-19.84-3.26-25.83-9.77-5.99-6.51-8.98-15.93-8.98-28.24,0-7.7,1.45-14.47,4.35-20.3s7.07-10.32,12.52-13.46,11.85-4.71,19.21-4.71c8.04,0,15.72,1.75,23.05,5.24l-6.16,15.83c-2.75-1.29-5.5-2.37-8.24-3.26-2.75-.88-5.7-1.32-8.85-1.32Z"/>
    <path class="cls-3" d="M504.08,106.92V32.52h20.2v74.4h-20.2Z"/>
    <path class="cls-3" d="M586.01,106.92l-3.66-13.94h-24.17l-3.77,13.94h-22.09l24.27-74.71h26.82l24.58,74.71h-21.98ZM578.18,76.49l-3.21-12.21c-.75-2.71-1.65-6.23-2.72-10.53-1.07-4.31-1.77-7.4-2.11-9.26-.31,1.73-.91,4.58-1.81,8.55-.9,3.97-2.89,11.79-5.98,23.46h15.83Z"/>
    <path class="cls-3" d="M616.04,106.92V32.52h20.1v58.17h28.65v16.23h-48.75Z"/>
    <path class="cls-3" d="M182.21,202.63h-24.98l-7.49-34.07c-.36-1.43-.92-4.26-1.68-8.5-.77-4.24-1.33-7.79-1.69-10.64-.29,2.32-.75,5.2-1.39,8.64-.64,3.44-1.28,6.61-1.9,9.49-.62,2.89-3.22,14.58-7.78,35.09h-24.98l-19.36-78.19h20.38l8.5,39.2c1.93,8.67,3.24,15.56,3.96,20.7.46-3.64,1.29-8.58,2.49-14.82,1.19-6.24,2.31-11.41,3.34-15.51l6.9-29.58h19.58l6.69,29.58c1.14,4.74,2.3,10.22,3.48,16.42s1.96,10.84,2.35,13.91c.46-3.96,1.73-10.82,3.8-20.59l8.66-39.31h20.38l-19.25,78.19Z"/>
    <path class="cls-3" d="M258,202.63h-46.43v-78.19h46.43v16.95h-25.3v12.3h23.43v16.96h-23.43v14.76h25.3v17.22Z"/>
    <path class="cls-3" d="M271.69,202.63v-78.19h21.13v61.13h30.11v17.06h-51.24Z"/>
    <path class="cls-3" d="M335.44,202.63v-78.19h21.13v61.13h30.11v17.06h-51.24Z"/>
    <path class="cls-3" d="M473.65,202.63h-27.71l-28.56-55.09h-.48c.68,8.66,1.02,15.28,1.02,19.84v35.25h-18.72v-78.19h27.6l28.45,54.34h.32c-.5-7.88-.75-14.21-.75-18.99v-35.35h18.83v78.19Z"/>
    <path class="cls-3" d="M536.98,202.63h-46.43v-78.19h46.43v16.95h-25.3v12.3h23.43v16.96h-23.43v14.76h25.3v17.22Z"/>
    <path class="cls-3" d="M601.8,178.88c0,4.85-1.23,9.15-3.69,12.92-2.46,3.76-6.01,6.69-10.64,8.77-4.64,2.09-10.07,3.13-16.31,3.13-5.21,0-9.57-.37-13.1-1.1s-7.2-2.01-11.02-3.82v-18.83c4.03,2.07,8.22,3.68,12.57,4.84,4.35,1.16,8.34,1.74,11.98,1.74,3.14,0,5.44-.54,6.9-1.63,1.46-1.09,2.19-2.49,2.19-4.2,0-1.07-.29-2.01-.88-2.81-.59-.8-1.53-1.61-2.83-2.43-1.3-.82-4.77-2.5-10.4-5.03-5.1-2.32-8.92-4.56-11.47-6.74-2.55-2.17-4.44-4.67-5.67-7.49-1.23-2.82-1.85-6.15-1.85-10,0-7.2,2.62-12.82,7.86-16.85,5.24-4.03,12.44-6.04,21.61-6.04,8.09,0,16.35,1.87,24.76,5.62l-6.47,16.31c-7.31-3.35-13.62-5.03-18.93-5.03-2.75,0-4.74.48-5.99,1.44-1.25.96-1.87,2.16-1.87,3.58,0,1.53.79,2.91,2.38,4.12,1.59,1.21,5.89,3.42,12.92,6.63,6.74,3.03,11.42,6.29,14.04,9.76,2.62,3.48,3.93,7.85,3.93,13.13Z"/>
    <path class="cls-3" d="M665.02,178.88c0,4.85-1.23,9.15-3.69,12.92-2.46,3.76-6.01,6.69-10.64,8.77-4.64,2.09-10.07,3.13-16.31,3.13-5.21,0-9.57-.37-13.1-1.1s-7.2-2.01-11.02-3.82v-18.83c4.03,2.07,8.22,3.68,12.57,4.84,4.35,1.16,8.34,1.74,11.98,1.74,3.14,0,5.44-.54,6.9-1.63,1.46-1.09,2.19-2.49,2.19-4.2,0-1.07-.29-2.01-.88-2.81-.59-.8-1.53-1.61-2.83-2.43-1.3-.82-4.77-2.5-10.4-5.03-5.1-2.32-8.92-4.56-11.47-6.74-2.55-2.17-4.44-4.67-5.67-7.49-1.23-2.82-1.85-6.15-1.85-10,0-7.2,2.62-12.82,7.86-16.85,5.24-4.03,12.44-6.04,21.61-6.04,8.09,0,16.35,1.87,24.76,5.62l-6.47,16.31c-7.31-3.35-13.62-5.03-18.93-5.03-2.75,0-4.74.48-5.99,1.44-1.25.96-1.87,2.16-1.87,3.58,0,1.53.79,2.91,2.38,4.12,1.59,1.21,5.89,3.42,12.92,6.63,6.74,3.03,11.42,6.29,14.04,9.76,2.62,3.48,3.93,7.85,3.93,13.13Z"/>
    <path class="cls-4" d="M326.25,266.18h-2.14c-7.38,7.06-18.51,23.65-32.1,23.65-9.63,0-12.52-5.67-17.12-15.09-6.1,8.35-3.64,38.63-17.98,38.63-4.71,0-6.1-2.25-7.71-6.53,3-8.56,16.27-49.12,19.26-57.79.86-2.57,5.67-19.37,11.66-19.37,3.75,0,7.06,2.78,7.6,6.53,0,4.17,1.71,23.65,2.14,27.82.54,4.17,2.03,8.78,6.63,8.78.53,0,1.82-.11,1.93-.21l25.68-25.68c2.57-5.67,7.49-19.48,14.88-19.48,3.75,0,6.53,3.85,6.53,7.6v1.18c-.43,3.64-4.28,32.74-4.28,36.38-.11,2.14-.21,6.96-.21,12.52v17.76c0,5.56.11,10.27.21,12.41-.75,2.68-3.42,2.35-5.24,2.35-2.14,0-9.74-1.39-9.74-4.49v-46.98Z"/>
    <path class="cls-4" d="M370.87,222.19c6.1,0,8.88,4.17,8.88,9.85,0,.54-.11,2.78-.11,3.21-2.14,6.1-11.13,34.46-12.84,40.66-.32.86-1.82,7.71-2.14,8.56-2.25,7.17-8.35,23.54-8.56,23.54h-9.74c0-12.73,18.41-85.82,24.5-85.82Z"/>
    <path class="cls-4" d="M380.28,305.23v-2.14c0-2.03-.11-4.39-.11-6.42v-2.14c0-19.9,3.1-36.92,2.25-57.79,2.57-2.25,4.49-2.25,7.49-2.25.54,0,2.78.11,3.21.11,7.81,18.41,18.51,36.71,32.1,51.37.11,0,.75.11,1.07.11,5.14,0,5.78-9.1,5.78-16.27,0-3.53-.21-6.63-.21-7.92v-2.57c0-3.21-.21-7.17-.21-7.6-.32-2.03-3.96-17.23-4.28-19.26-.32-3.96,2.46-8.78,6.53-8.78,13.48,0,10.81,37.88,10.81,45.37,0,9.63,3.32,38.74-13.27,38.74-17.66,0-20.33-31.89-36.17-31.89v25.04c0,6.63-4.17,6.74-8.13,6.74-1.5,0-6.31.54-6.85-2.46Z"/>
    <path class="cls-4" d="M488.15,294.32c-7.17,8.67-10.92,8.88-19.58,8.88-15.41,0-16.91-6.74-16.91-21.29,0-6.96.75-45.69,11.45-45.69,5.89,0,5.99,2.25,5.99,7.81,0,11.13-4.71,20.87-4.71,32.1v1.93c0,2.68.21,6.63.21,7.71.54.75,3.53,3.75,4.28,4.28,0,0,.64.11.96.11,5.03,0,14.77-9.74,16.16-10.81,10.81-9.1,5.67-45.16,17.23-45.16,6.21,0,6.53,5.67,6.53,10.17,0,16.59-4.6,32.64-4.6,49.22,0,5.88,6.74,4.49,6.74,9.1,0,2.67-.32,4.28-2.35,6.53-.64,0-3.42.21-5.24.21h-1.18c-13.27,0-11.13-5.13-11.13-9.63,0-2.25-.53-4.28-3.85-5.46Z"/>
    <path class="cls-4" d="M549.25,299.35c0-17.44,8.88-33.71,8.88-51.69,0-4.6-3.53-5.03-7.49-5.03-10.49,0-20.55,4.49-31.35,4.49-5.03,0-8.56-.43-8.56-5.99,0-1.61-.54-6.42,2.46-6.96,7.49-.43,43.66-1.71,51.26-2.14h2.03c2.25,0,5.35-.11,8.35-.11h6.31c2.68,0,5.78.11,8.35.11h2.78c2.46,1.61,4.39,4.71,4.39,7.6,0,.32-.11.96-.11.96-.75,1.07-3.64,4.28-4.28,4.28s-5.78-2.14-6.42-2.14c-.54,0-4.92-.32-6.42-.32-1.07,0-4.17.32-4.28.32l-2.14,4.28c-.86,5.14-5.56,29.11-6.42,34.24-.54,1.71-3.42,13.8-4.28,17.12-1.18,4.39-2.03,10.92-7.49,10.92-5.89,0-5.56-5.14-5.56-9.95Z"/>
    <path class="cls-4" d="M598.47,290.79c0-20.01,8.24-38.31,8.77-58.43,11.13-8.88,28.04-8.77,41.73-8.77.54,0,2.14.11,3.75.11,1.71,0,3.21.11,3.75.11,2.25.64,2.89,4.17,2.89,6.53v1.71c-2.57,0-36.28,4.81-37.13,8.88l-4.28,19.26,2.14,2.14c5.14-.43,29.21-1.71,34.24-2.14h.75c.86,0,1.93-.11,2.89-.11h1.18c3.1,0,8.24-.11,8.24,4.17,0,2.03-.11,3.75-2.35,4.5-5.46,1.28-30.93,5.56-36.38,6.42-.96.11-3.75.21-6.42.21s-5.46-.11-6.42-.21c-3.53,4.71-4.39,11.56-4.39,17.23,0,2.68.21,3.75,2.25,6.31,1.07,0,5.03.21,7.7.21h1.93c12.09,0,25.04-1.71,35.31-8.78,2.46.75,2.35,2.46,2.35,4.28,0,13.05-42.91,17.12-48.48,17.12-12.09,0-14.02-11.24-14.02-20.76Z"/>
  </g>
  <polygon class="cls-4" points="53.6 6.25 49.06 6.25 44.52 6.25 23.72 273.25 74.4 273.25 53.6 6.25"/>
  <polygon class="cls-6" points="233.67 283.19 233.67 278.65 233.67 274.11 49.06 253.31 49.06 303.99 233.67 283.19"/>
  <g>
    <circle class="cls-2" cx="49.06" cy="273.25" r="45.6"/>
    <g class="cls-9">
      <circle class="cls-8" cx="49.35" cy="271.53" r="22.07"/>
      <g>
        <path class="cls-8" d="M84.54,278.92l-10.21-5.42c-.07,1.03-.2,2.06-.39,3.1-.24,1.24-.56,2.44-.97,3.6l11.58-1.28h0Z"/>
        <path class="cls-8" d="M53.99,247.26c1.33.25,2.61.61,3.84,1.05l-1.25-11.25-5.22,9.84c.88.07,1.75.19,2.62.36h0Z"/>
        <path class="cls-8" d="M25.34,267.33c.24-1.25.59-2.45,1.02-3.6l-11.63,1.29,10.24,5.43c.05-1.03.16-2.07.36-3.12h0Z"/>
        <path class="cls-8" d="M44.59,296.55c-1.07-.2-2.12-.48-3.14-.81l1.24,11.14,5.26-9.92c-1.11-.06-2.23-.19-3.36-.41h0Z"/>
        <path class="cls-7" d="M71.27,259.6l5.57-5.76-7.34,3.03c.65.87,1.23,1.78,1.76,2.73h0Z"/>
        <path class="cls-7" d="M62,293.6l5.76,5.57-3.03-7.34c-.87.65-1.78,1.23-2.73,1.76h0Z"/>
        <path class="cls-7" d="M28,284.34l-5.57,5.76,7.34-3.03c-.65-.87-1.23-1.78-1.76-2.73h0Z"/>
        <path class="cls-7" d="M37.27,250.33l-5.76-5.57,3.03,7.34c.87-.65,1.78-1.23,2.73-1.76h0Z"/>
        <path class="cls-5" d="M53.91,248.39c-6.2-1.18-12.29.14-17.24,3.25,4.37-2.33,9.53-3.24,14.78-2.24,12.21,2.33,20.21,14.11,17.88,26.32-2.33,12.21-14.11,20.21-26.32,17.88-5.24-1-9.71-3.75-12.91-7.52,3.46,4.72,8.63,8.19,14.83,9.37,13,2.48,25.54-6.05,28.02-19.04,2.48-13-6.05-25.54-19.04-28.02h0Z"/>
        <path class="cls-7" d="M43.26,292.46c5.51,1.05,10.93-.13,15.34-2.9-3.89,2.07-8.48,2.88-13.15,1.99-10.86-2.07-17.98-12.56-15.91-23.42,2.07-10.86,12.56-17.98,23.42-15.91,4.66.89,8.64,3.33,11.49,6.69-3.07-4.2-7.68-7.29-13.19-8.34-11.56-2.21-22.73,5.38-24.94,16.94-2.21,11.56,5.38,22.73,16.94,24.94h0Z"/>
        <polygon class="cls-1" points="60.83 264.36 35.46 269.46 46.56 274.06 46.75 286.07 60.83 264.36 60.83 264.36"/>
      </g>
    </g>
  </g>
</svg>