<?xml version="1.0" encoding="UTF-8"?>
<svg id="Layer_1" data-name="Layer 1" xmlns="http://www.w3.org/2000/svg" viewBox="0 0 1647.23 10.8">
  <defs>
    <style>
      .cls-1 {
        fill: #30abda;
        stroke-width: 0px;
      }
    </style>
  </defs>
  <path class="cls-1" d="M1645.6,6.24c.86-.13.37-.42-2-.36l-1.69.5,3.69-.13Z"/>
  <path class="cls-1" d="M1629.62,5.32c-2.79.24-6.01.66-4.2,1.12,2.77-.48,3.43-.28,6.41-.85,2.38-.06,4.15.16,3.75.34.84-.13,3.69.11,4.97-.2-3.09-.38-7.01-.4-11.1-.08-.88-.11-.03-.24.17-.33Z"/>
  <path class="cls-1" d="M1397.48,4.54l1.5.06c-.41-.03-.92-.05-1.5-.06Z"/>
  <path class="cls-1" d="M1253.66,4.27c1.09-.01,1.55-.06,1.61-.11-1.02.03-1.85.06-1.61.11Z"/>
  <path class="cls-1" d="M1229.1,3.73c.53.02.97.02,1.45.03-.55-.05-1.11-.07-1.45-.03Z"/>
  <path class="cls-1" d="M1397.48,4.54l-3.84-.16c-.27.16,1.97.12,3.84.16Z"/>
  <path class="cls-1" d="M1597.61,6.52c.8-.02,1.47-.07,2.09-.13-.66.02-1.3.04-1.96.05-.04.03-.07.05-.13.08Z"/>
  <path class="cls-1" d="M1460.89,4.14h1.17c.34-.06.67-.13.97-.2l-2.14.2Z"/>
  <path class="cls-1" d="M1509.55,4.07c-1.1-.02-1.48.4-1.91.59.62-.17,1.44-.26,2.4-.29.02-.08-.13-.18-.49-.3Z"/>
  <path class="cls-1" d="M1586.7,4.81l1.37-.06c-.36.02-.96.03-1.37.06Z"/>
  <path class="cls-1" d="M1426.06,4.05c-.08-.06-.26-.12-.44-.15,0,.05.17.1.44.15Z"/>
  <path class="cls-1" d="M65.08,7.22s-.02-.05,0-.07c-.28.04-.37.07,0,.07Z"/>
  <path class="cls-1" d="M8.68,5.13l.78-.02c.08-.08.17-.16.17-.24l-.95.26Z"/>
  <path class="cls-1" d="M1184.16,3.18c.09,0,.12,0,.2,0,1.18-.05.51-.04-.2,0Z"/>
  <path class="cls-1" d="M771.59,3.5c4.67.38-7.61.48-.57.9-.66-.17,6.4-.66.57-.9Z"/>
  <path class="cls-1" d="M1596.35,6.46c-.66,0-1.32,0-1.99,0,.91.01,1.52.01,1.99,0Z"/>
  <path class="cls-1" d="M771.02,4.4h0s.73.04.73.04c-.3-.02-.47-.03-.73-.04Z"/>
  <path class="cls-1" d="M1080.61,3.44c.21.07.62.13,1.06.18-.04-.04-.27-.1-1.06-.18Z"/>
  <path class="cls-1" d="M1157.75,4.04l-1.91-.06c.76.04,1.37.05,1.91.06Z"/>
  <path class="cls-1" d="M1040.55,4.03c-1.04-.03-1.39-.09-2.81-.03.13.02.26.04.43.05.51-.06,1.19-.08,2.38-.02Z"/>
  <path class="cls-1" d="M998.87,4.04c.22.03.51.06.77.08.41,0,.9-.02,1.32-.02l-2.09-.06Z"/>
  <path class="cls-1" d="M191.78,7.02c-.91-.12-1.48-.25-1.92-.38.64.3-5.48.41,1.92.38Z"/>
  <path class="cls-1" d="M1597.59,6.28c-.24.11-.6.16-1.24.18.48,0,.94-.01,1.39-.02.12-.06.15-.12-.15-.16Z"/>
  <path class="cls-1" d="M1038.86,7.36l-6.62-.06c1.85.04,4.26.06,6.62.06Z"/>
  <path class="cls-1" d="M490.87,6.96l-1.52.05c.59,0,1.13,0,1.52-.05Z"/>
  <path class="cls-1" d="M1012.58,7.36c-1.18-.15-2.44-.24-3.73-.29-.27.03-.59.06-.77.11l4.5.18Z"/>
  <path class="cls-1" d="M189.84,6.63s.01,0,.01,0c0,0,0,0-.01,0Z"/>
  <path class="cls-1" d="M146.22,7.63c6.31.01,2.96-.54,4.3-.86,7.53-.16,3.49.41,6.05.69,4.7-.15,8.31-.66,11.82-.63.26.09.94.12.14.24,4.97-.44,14.76-.02,20.56-.57.43.05.65.1.76.14-.94-.28-1.08-.56-.89-.76,2.83,0,5.25-.35,6.32.01-1.73-.01-1.88.14-2.69.25l2.96-.16c2.67.52-4.05.18-4.05.57,5.78-.17,12.52-.6,16.95-.45.93.51-10.36.17-4.45.62l-6.85-.19c5.24.8-4.16-.06.65.8,9.02.15,10.09-.26,19.09-.11,2.03-.28-.67-.42,1.36-.7,12.79-.51,10.07,1.28,19.47.6,2.43-.34,3.38-.98,10.07-.64l-2.28.58c8.73.06,4.99-.83,14.13-.44-1.63.23-6.86.19-5.54.26,5.93.45,4.19-.33,8.75-.33l.94.51c9.3-.08,19.54-.45,29.84-.54-.57.15-2.33.31.07.47,12.99-.25,27.72.06,40.25.36l4.79-.44c1.11,0,2.07.2.86.28,4.88.17.25-.28,2.6-.45,2.78-.03,3.67.25,1.91.39,8.62-.37,24.54-.8,33.62-.33l-1.77.13c7.07.18,7.98-.9,14.53-.49l-1.26.08c15.34.19,32.29-.21,44,.45,2.23-.63,15.18.28,16.17-.6,8.76.44,6.25.6,18.59.89,3.29.04,4.91-.55,8.98-.64l.1.46,5.53-.48,2.94.55,3.82-.12c-1.52-.03-3.24-.21-3-.34,5.97-.21,14.55.32,14.7.56l14.12-.39c-.31.19-2.68.25-4.55.37,7.54-.47,1.37.49,8.28.05-.93-.11.5-.28.66-.37,3.44.28,11.28.28,17.08.16l-1.11.32c10.47.08,22.08-.15,33.83-.15-4.22-.15-3.25-.7.2-.75l1.38.49c2.23-.3-3.6-.18.97-.55,4.39.06,2.95.56.43.71l5.34-.17c.31.15-.94.22-1.26.41,2.19-.3,9.21.49,12.37-.04l.3.15c11.75,0,17.08-.16,26.65-.19.19-.42,3.93-.33,6.78-.67,7.03.13,14.84.47,23.32.43,5.96-.21,1.74-.36,4.42-.61.44.38,8.9.35,4.51.62,10.17-.06,12.99-.08,25.86-.39-1.4-.16-2.97-.23-2.15-.36,2.33-.06,5.31.16,4.98.35l-.62.04c14.44-.58,33.33,1.12,44.83.32l-.64.04,11.92-.42c5.49.07-3.29.29.77.53,12.86-.64,20.32.09,30.91-.33,8.2,1.13,29.09-.08,40.16.64l-.64-.27c2.86-.26,3.46.15,5.57.21-.3-.21-3.1-.24-1.33-.38,24.23-.32,50.01.39,74.85.63,9.09.07,5.16-1.38,16.61-.74l-3.25.5c18.34-.59,37.49.02,55.44-.48-1.07.11-1.1.26-2.85.26,3.79.36,14.02.02,14.08-.28,2.8.03.65.27,2.37.41,3.8.21,9.55-.46,11.57-.1.34.06-1.07.12-1.76.14,2.48-.17,11.55.04,9.17-.37,6.74.2,12.89-.18,18.26.06,3.5-.46,11.53.22,12.65-.43-.48.68,11.81.55,16.07.23-1.43.21,3.7.21,2.03.5,4.86,0,9.32-.14,8.47-.48,8.96.81,18-.65,23.04.39,14.44-.36,27.8-.61,40.79-.77-.47.68-14.36.07-13.8.78,12.32-.28,19.43-.86,31.65-.7,3.16.09-1.8.29-2.86.41,12.31-.28,23.8.06,34.76-.31-.03.06-1.21.13-2.33.18,2.16-.02,5.02.1,4.78-.21l-2.1.08c-3.45-.45,8.57-.93,8.96-1.17-3.66.88,10.82.22,5,1.34,1.42-.06,3.2-.2,2.88-.41,2.11.06,2.78.18.64.41,7.73-.17,4.99-.49,11.99-.49-.03.15-1.44.21-2.16.38,3.55-.29,7.11-.58,13.03-.45-.36.09.33.21-1.44.2,10.17-.05,17.33-.77,28.49-.49-3.29.65,3.79.21,4.39.77l6-.17-2.41-.27c5.25,0,9.9-.4,14.41-.21l-3.9.23,9.85-.11-5.57-.21c5.32-.29-.57-.71,6.42-.55-1.42.06,5.26,0,7.99.34,0,0-.02,0-.02,0,2.6-.18,5.27-.37,9.16-.23,1.01.18-.81.62-.15.74,2.56-.47,12.3-.13,15.55-.63-1.08.12-1.14.41-.78.47l2.15-.38c2.43.12,2.79.18,2.39.41,7.32.07-2.33-.71,6.36-.4-.68.03-.36.09-1.78.15,8.73.16,16.86-.24,24.88-.05,2.37.56-7.01.14-4.3.61,11.56-.1,23.94-.68,35.13-.54l-2.08-.06c1.55-.8,8.33.39,13.99.02-1.39.06-1.82.44-1.44.35,7.66.13,15.67-.2,27.28-.45l-1.44.2c4.52.18,11.89.11,16.77.2,1.45-.2,4.24-.17,2.54-.47,15.04,1.16,28.69-.62,42.03.35-1.6,0-3.8.18-2.53.18l11.37-.19c-.9-.35-1.49-.21-3.88-.48,1.44-.21,4.65-.36,7.46-.36-5.11.23.04.56,2.25.75-.37-.11.39-.22.2-.33,5.94.62,1-.7,9.1-.28l-.43.18c3.03-.09,5.83-.33,9.1-.28,1.36.4-3.23.19-3.44.52,4.6-.02,9.07-.76,13.23-.36-1.95.11-4.76.11-6.71.22,4.53.47,5.05.35,8.42.43h-.33s7.78.2,7.78.2l-1.98-.13c5.75-1.05,11.71-.19,19.46-.88-7.53.65-1.24.38-1.82.83,1.98.13,4.99.27,4.13.4,3.66-.37,6.11.29,11.28-.25.23.15,3.92.01,3.09.38,4.76-.12-1.13-.25-.72-.44,7.34-.5,17.25.61,27.8-.08,9.1-.28,10.78-.78,19.23-1.02,2.85.23-2.33.53-2.33.53,4.6.22,8.06.18,12.39,0-.88.13.03.24,1.35.4,3.48-.04,2.33-.53,6.91-.32-.79.16-1.8.42-3.47.59,4.1-.13,8.15-.41,12.39-.54,1.13.25-2.56.39-4.06.55,4.77-.12,12.35-.23,13.83-.63l-3.06-.14c1.74-.02.89.35-.39.42-4.09.32-5.89-.14-6.12-.29l3.02-.09c-3.1-.86-12.14.14-18.22.09l2.54-.62-6.24.52c-1.33-.16-2.23-.51.77-.6-4.36-.31-3.86.22-7.61-.12-.41-.05-.23-.08.16-.11l-4.26.19c.84-.13-.71-.44,1.91-.35-7.65-.36-12.33.47-15.21,0l.64-.04c-10.61.21-1.03.46-8.98,1l-5.36-1.13-1.04.46c-1.09-.02-3.26-.05-2.86-.23-4.07.31.69.2-1.67.5-5.27-.42-14.53.2-15.71-.53-1.89.35,5.04.27-.59.51-1.6-.78-6.5.13-11.31-.23,1.48-.4,6.04-.19,1.22-.55-2.9.68-9.37-.15-13.43-.02-.19.54-8.83.23-15.64.41.43-.18-12.82-.3-19.16-.5l.19-.09c-1.23.55-7.76.45-12.52.56.19-.33,1.04-.46,3.62-.61h-4.47c-1.06.18-2.45.27-5.35.34l1.13-.41c-5.96.02-11.99.48-19.66.21-.43.38,6.09,1.07-2.01,1.33-.3-.21-.6-.56,1.52-.65-.69.03-2.48.17-3.88.08l3.24-.35c-3.49-.15-1.82.29-4.61.26.06-.3-2.07-.21-1.66-.45.71-.03,2.43.12,3.5,0-3.15-.05-6.95-.23-8.21-.45.27.17,0,.4-2.3.44-5.96.02-2.04-.36-5.51-.51-1.44.21-5.24,0-5.34.44-1.74,0-2.07-.21-2.74-.33-3.08.2-14.4.06-10.92.53l.79.03c-.15,0-.32,0-.5.02h.02-.02c-10.1.44-20.99-.25-31.01-.06l.02-.15c-5.98.17-13.32.1-17.59.42-1.77,0-4.18-.27-3.42-.45-4.57.11-5.09.28-11.69.03,4.6-.26-1.59-.23,4.71-.19-5.94-.13-7.29-.37-13.67.04,2.17-.38-4.47-.48-7.3-.36l4.16.27c-3.18.06-5.95.02-8.78-.01l1.53-.5c-12.16-.61-21.93,1.03-31.19.02-3.22.35,6.61.25,3.73.65-5.59-.07-11.42-.78-13.18-.79-7.66-.28-7.15.73-15.17.54,1.03.18,1.99.65-4,.82-5.6-.07-6.88-.75-3.35-.89,1.34-.02,1.99.04,1.93.1,1.81-.06,4.18-.14,1.97-.33l-.73.18c-2.78-.18-10.48-.16-8.67-.45-4.23.17-1.81.29,1.32.38-7.18-.26-11.22,0-18.61-.18,1.18.1,2.26.31,1.09.31-10.84-.22-4.77.34-12.12.42-4.17-.27,1.5-.65-5.9-.42-4.52-.18-.96-.47.84-.62-6.74.34-12.59-.23-16.44-.29l3.55-.14c-2.12.09-3.86.08-5.63.08l2.03.36c-2.08-.06-3.85-.06-3.81-.21-2.15.23,1.64.59-2.62.91-2.78-.18-8.46.19-9.42-.28,8.74.16-.96-.47,6.43-.55-1.43.06-3.17.05-5.26,0-.31-.05.3-.1.87-.12-8.36-.42-3.84.53-12.51.52,1.1-.27-2.01-.51-3.42-.45,3.49,0,1.67.44-1.53.65-5.56-.21-6.04.15-8.95.13l3.32.1c-1.13.27-3.9.23-7.78.32-.33-.21,3.52-.14,2.13-.23-4.3.47-9.72-.48-15.71-.17-2.78-.18-.27-.5-2.71-.62-6.72.35-7.28-.36-14.34-.08,2.04.36,2.39.27-2.58.62l11.61-.25-7.45.52c3.5,0,7.39-.22,9.49-.16-3.55.29-3.19.2-1.51.5-4.79-.54-9.51.31-15.05-.05l.17-.89c-8.33-.4-14.8.45-25.62.23l3.48.15c-1.45.35-6.68.05-10.18.19.33-.3-1.86-.4-3.36-.59.18.22-7.92-.02-8.9.57l-4.83-.39c-8.74-.16-9.97.84-18.37.74,2.53-.32-1.29-.53,4.34-.76-2.8,0-5.33-.06-5.37.15-1.64-.19-7.78.4-10.35.12-1.18.13-1.57.44-4.72.42-.34-.06.01-.15.01-.15-.01.15-4.93.2-2.18.53-8.64-.92-24.14.07-31.66-.73-6.12.1-13.49.19-19.05.22.36-.09.02-.15,1.07-.12-7.66-.28-4.71.85-13.43.54-4.45-.48,4.63-.26,1.85-.44-1.21-.97-10.52.13-16.39-.44l1.42-.06c-4.48-.33-10.94.37-18.27.3,0,0,.36-.09.04-.15-5.01.5-14.5.66-21.55.8,2.19-.38,3.2-.2,1.86-.59-3.16.05.93.62-5.38.73-2.05-.21-6.6-.39-7.21-.8l5.95-.02c-3.05-.54-7.7.02-10.84-.07l.4-.23c-9.12.08-9.25.67-19.05.62l1.01.18c-5.36.58-4.49-.33-9.83.11l-1.62-.59c-3.53.14-12.38.57-18.72.68,3.59-.44,11.01-.66,15.6-.92-3.5,0-11.91.04-13.73.34,1.41-.06,3.19-.2,4.58-.11-4.3.47-9.95.69-16.93.68,1.24-1.15-18.2-.29-23.26-1.18-12.35.42-24.5-.18-38.89-.11,5.1.89-4.2.03-3.32.94-3.35.06-4.63.04-4.93-.02l-10.16-.55c-2.41-.27,3.19-.2,2.88-.41-7.34-.07-3.08-.39-7.93-.63,1,.33-2.55.47-6.73.34l5.89.42c-10.25.49-8.86-.77-19.2-.29l3.27-.29c-5.3.17-19.57,0-24.76.73-.94-.11-2.18-.36.16-.42-12.68-.11-28.22.78-38.07.33l.96-.22c-2.36.06-4.12.42-7.08.2.15-.09.95-.22-.14-.24-1.25.08-6.28.39-9.42.26l2.68-.25c-12.36-.29-18.97.61-29.34.77.03-.66-9.7-.87-14.56-.98l.17-.09c-14.4-.08-24.45.55-37.79.81-8.28-.72-28.03-.3-41.33-.7,2.03.12-.33.51-2.7.58-3.12-.13-8.63.46-8.13-.15h1.11c-2.35-.58-8.77-.42-13.78-.44l-.83.79c-13.1-1.15-34.33.42-41.48-.61-3.16.2-7.08.2-10.21.39l.17-.42c-8.76-.11-13.13-.16-23.96-.06l2.21-.3c-6.11-.03-7.71,1.22-13.34,1.25l-1.7-.63c-10.65,0-21.44-.55-31.97.03.17-.09.49-.28,2.21-.3-5.02-.02-19.4-.43-17.58.44-.12-.57-10.99-.06-16.75.19l.9-.42c-4.86.53-5.01.68-11.79.83-1.61-.05-1.41-.33.73-.23-5.36-.22-4.17.4-10.67.17l2.42-.27c-5.51-.03-5.07.11-8.11.42-3.46.17-10.45-.11-11.27-.48-.74.23-3.76.54-7.01.43-.44-.14.74-.23,1.34-.27-9.21-.28-13.7.49-20.04.08-.13-.14-.54-.21-1.07-.25,7.32.01,13.21.03,12.66.06,0-.39-5.91-.45-1.21-.99-4.75.29-12.86.92-18.63.74-.28-.04-.55-.07-.76-.13l.6-.04c-1.33-.04-2.52,0-3.64.06-1.84-.06-3.01-.11-4.77-.12-.68-.32-6.78-.17-9.73-.19.24.42-3.62.35,0,.7-.47-.03.56-.05,2.52-.07.44-.01.97-.02,1.26-.04-.06.01-.13.02-.2.04,1.94-.01,4.46-.02,7.33-.03-2.33.21-4.76.39-8.02.16-1.51.27-3.18.55-4.12.68-4.03-.59-11.81-.91-12.89-1.27-9,.24-21.21.16-26.87.95-2.56.1-2.94-.23-3.9-.35,1.48-.08,3.24-.07,4.03-.18-5.12.2-15.16.08-16.38.63-6.45-.25,3.63-.51-5.24-.42l1.2-.17c-17.44-.88-28.35,1.41-47.68.28,1.34.07,2.01.1,2.28.19-22.04-.5-45.42.47-67.16-.32-6.18-.16-6.85.19-10.62.46l-1.34-.45-6.45.52c-9.15.38-15.84-1.11-27.42-.39l1.49.31c-4.16-.06-13.17.18-12.48-.17-.43.06-1.36.32-2.99.16l-.13-.24-10.22.41c-7.92-.17,1.24-.94-10.32-.99-4.3.09-12.23.69-10.62.85,1.73.01,4.43.15,4.56.39l-3.93.12c-.71.7-3.73,1.41,5.91,1.9l6.72-.43,2.17.34-5.66.02c3.21.32,5.24.04,7.52-.16.54.18,1.48.31,2.82.37l6.6-.67c.8.27-2.96.54,1.47.69,3.09-.31-2.96-.61,2.15-.82,3.22.32,2.28.58,6.05.3.53.18-.27.29-1.76.37,3.36-.22,8.89-.09,10.62-.46,3.35.39,11.34-.1,11.01.56,1.06-.16,5.92-.52,9-.55-5.64.79,11.55.05,10.06.9,4.17-.71,15.07-.32,22.46-.71-.41.06-1.22.17-1.88.13,4.16.06,5.37.27,8.04.41.53-.59,7.01-.72,10.5-1.08,5.1.57-3.1.69-1.5,1.23-.26-.48,8.86-.48,7.12-.87,3.9.35,3.36.17,5.37.66.68-.74,3.63-.12,6.86-.58,5.64.36,1.45.69,7.65.47,2.95.22-2.56.49-2.56.49ZM293.63,6.36h0c-1.27.02-2.35.03-3.04.03.63,0,1.51-.01,3.04-.03ZM306.02,6.36c-1.51-.02-3.39-.02-5.37-.02-.43-.15.04-.3,1.28-.29-.68.1,2.24.18,4.09.3ZM279.81,3.44c1.96-.06,2.62.02,2.89.11-.93,0-2.01.02-3.43.05-.06.02-.17.03-.23.05.19-.08.4-.16.77-.21Z"/>
  <path class="cls-1" d="M276.29,3.99c-.28,0-.44.03-.81.03.4.04.78.07,1.17.09.24-.04.48-.09.69-.13-.36,0-.72,0-1.06,0Z"/>
  <path class="cls-1" d="M1399.24,4.61h-.26c.22,0,.42.02.55.05-.17-.02-.17-.03-.29-.05Z"/>
  <polygon class="cls-1" points="477.07 7.16 477.05 7.06 475.97 7.15 477.07 7.16"/>
  <path class="cls-1" d="M1467.47,6.06c.13.04.39.08.9.11-.04-.03-.43-.07-.9-.11Z"/>
  <path class="cls-1" d="M1496.94,6.15l4.17.15c-1.8-.09-3.12-.13-4.17-.15Z"/>
  <path class="cls-1" d="M1519.6,6.36c.29-.07.37-.13.44-.18-.02,0-.03,0-.04,0l-.4.18Z"/>
  <path class="cls-1" d="M1159.31,6.86c-.3,0-.61,0-.87.02-2.05.08-.66.05.87-.02Z"/>
  <path class="cls-1" d="M1266.53,5.87c-1.14.08-2.26.15-3.45.2,1.91.03,3.39.04,3.45-.2Z"/>
  <path class="cls-1" d="M1039.59,7.37s0,0,.01,0c-.26,0-.48,0-.74,0h.73Z"/>
  <path class="cls-1" d="M1258.1,6.07c1.91.08,3.5.07,4.99,0-1.57-.03-3.41-.07-4.99,0Z"/>
  <path class="cls-1" d="M1617.81,6.56l1.09.02s.05-.05.13-.07l-1.22.05Z"/>
  <path class="cls-1" d="M1619.04,6.5l1.21-.05c-.56,0-1.04,0-1.21.05Z"/>
  <path class="cls-1" d="M1622.8,6.35l-2.55.11c.88,0,1.97.01,2.55-.11Z"/>
  <path class="cls-1" d="M1587.82,6.36l-.34.15c.19-.03.31-.08.34-.15Z"/>
  <path class="cls-1" d="M1578.7,6.4c2.17.03,5.46.33,8.49.23l.28-.12c-1.43.23-6.71-.37-8.77-.11Z"/>
  <path class="cls-1" d="M1540.65,4.51l7.64.12c-1.34-.16-3.09-.38.38-.42-9.63-.49,1.99.36-8.02.3Z"/>
  <path class="cls-1" d="M1516.97,4.28c4.1-.08-.05-.24.17-.33-2.6.15-3.23.19-.17.33Z"/>
  <path class="cls-1" d="M1345.8,4.28l.41-.38c-3.16.06-.03.15-.41.38Z"/>
  <polygon class="cls-1" points="1313.08 6.26 1316.16 6.5 1317.63 6.15 1313.08 6.26"/>
  <polygon class="cls-1" points="1293.75 3.53 1295.13 3.47 1289.86 3.61 1293.75 3.53"/>
  <path class="cls-1" d="M1006.28,3.66l.96.47c2.14-.08,2.59-.62-.96-.47Z"/>
  <path class="cls-1" d="M882.18,4.14c-1.35-.24-4.84-.39-6.99-.16,2.79.03,5.57.22,6.99.16Z"/>
  <polygon class="cls-1" points="509.99 3.37 512.48 3.22 507.78 3.35 509.99 3.37"/>
</svg>