<?xml version="1.0" encoding="UTF-8"?>
<svg id="Layer_1" data-name="Layer 1" xmlns="http://www.w3.org/2000/svg" viewBox="0 0 436.01 16.18">
  <defs>
    <style>
      .cls-1 {
        fill: #32acda;
        stroke-width: 0px;
      }
    </style>
  </defs>
  <path class="cls-1" d="M427.91,5.72l-1.08.02c.1.03.4.03,1.08-.02Z"/>
  <path class="cls-1" d="M428.88,6.19s.07,0,.09,0c-.01-.02-.04-.02-.09,0Z"/>
  <path class="cls-1" d="M83.79,13.47c-.4.04-.74.08-.93.16.57-.03.84-.09.93-.16Z"/>
  <path class="cls-1" d="M147.41,4.14c-.03.05-.05.09-.05.13.09-.03.12-.08.05-.13Z"/>
  <path class="cls-1" d="M415.3,5.93c.17.01.34.02.49.04.1-.12-.37-.11-.49-.04Z"/>
  <path class="cls-1" d="M67.36,12.95c-.05.04-.1.08-.13.13.08-.05.11-.09.13-.13Z"/>
  <path class="cls-1" d="M376.33,3.73c-.15.02-.3.04-.46.05.16,0,.33,0,.46-.05Z"/>
  <path class="cls-1" d="M160.23,13.75c.22-.05.35-.1.41-.15-.25.03-.44.08-.41.15Z"/>
  <path class="cls-1" d="M160.43,12.45c-3.24.38.69.75.21,1.15.86-.11,2.71-.03,1.84-.33,1.7.8,5.13-.44,6.97.19.08-.08-.98-.34.29-.54,1.9-.08,1.76.29,2.54.46.56-.23,3.45-.39,3.17-.28,1.26-.2-1.35-.78.42-1.12,1.19-.54,2.82-.08,4.22-.23,1.69.38-1.69.26-2.39.44l4.79-.25c1.41.28-.63.52-2.04.46,1.91.34,4.37.03,4.93-.41,1.2.1,1.83,0,2.96.18-1.12.25-1.05,1.01-2.81,1.14-2.89-.05,1.05-.59-1.41-.7l-.21.46c-1.05-.26-1.9.08-3.03.11-.63-.11.14-.16.56-.23-2.05.03-3.67-.21-5.22.31,2.75.42,6.91-.15,8.11.37l5.49-.64c0-.21-1.91-.55-.36-.86.64.54,2.26.78,4.37.88-.78-.59,3.38-.52,2.32-.99-.99.29-1.48-.2-1.62-.24,2.05-.03.28-.54,1.4-.57,3.74.13-.14.37,3.53.58-.78.26-2.75.85-4.78,1.09.14.26,2.04-.04,2.89.26-1.2-.31.84-.55-.15-.68,2.96-.24,6.41-.85,10-.98-.56.87-6.05.65-4.92,1.68,1.76-.13,1.75-.55,3.17-.49,1.2.52,4.15.06,6.56.05l-1.06-.26c.91-.21,2.6-.05,3.66,0l-.28.11,1.04-.16c.16.02.2.05.2.08,1.15-.27,4.09-.01,6.29-.17,0-.42-2.18-.02-3.24-.06-.29-.1-2.33-.28-1.34-.57,2.74,0,4.64-.51,7.74-.49l-.99-.13c.99-.29,2.32-.15,3.8-.17,2.68.29-1.97.59-.35.83-1.05.37-2.89-.05-3.17.49l1.69.59c1.41-.36,2.97.18,3.96.1l-1.06-.26c.21-.46,1.19-.11,1.69-.05l-.71-.67c-1.55-.11-2.6.47-3.73.08,2.74-.21,2.11-.75,5.42-.77.15.26-.64.1-.98.29,1.13.18,2.32-.36,4.15-.15-1.05.16-2.74.43-1.4.78l.98-.5c.85.08.5.28.85.29,1.2.1-.28-.52,1.62-.39.28.1.91.21.64.33,2.18.02,1.05-.16,3.09-.41-1.83,0-1.9-.76,0-.85,2.68.08,4.5-.34,6.34.29l1.2-.33c-.77.47,1.69.16,2.54.24.28.52-4.02-.01-4.02.83,1.76.08.99.34.43.57,1.91-.08.71-.6,1.55-.94,0,.21,3.24.06,2.12.52,1.62.03,1.9-.51,3.09-.41-.18.21-.39.48-.27.74.14-.18,1.67.04,1.97.06-.28-.1.56-.44-.85-.29.35-.41,3.31-.02,3.24-.36.15.47,3.03.1,4.51.29-.15-1.11-2.74.42-3.24-.49,1.97-.38,6.62-.04,9.79-.53,2.74.21,0,.42.56.83-2.53.18-3.17-.15-5.35.05,2.4.19,6.34.08,8.1-.26,2.61-.05,2.9,1.11,6.07.83-.42-.36-.35-.44-1.34-.57.84-.13,1.83,0,2.75,0,.56-.23-1.41-.27-.14-.47.49.07,1.55.11,1.34.36l-.21.03c3.03-.33,2.19.86,4.79.18-.21-.18-.78.05-1.41-.07-.49-.28,1.12-.67,2.33-.78-.22.24,1.05.05,1.9.13.57.41-2.11.12-2.54.39l2.33.06-.49-.06,2.53-.39c-1.76.13-.85-.5-.07-.55,1.76.08,3.52.16,3.31.62.21-.46,2.39-.44,3.94-.54-1.69-.16-.21-.39.28-.54l2.54.45c-2.68.13.56.41-.06.72-.77.47-2.39.23-3.81.16,2.76.85,3.88-.46,6.27-.05,0,.21-.21.46-1.27.41.42.14,2.18-.41,3.81-.17-.43-.15-1.34-.57.27-.75l2.12.52c2.47.11.84-.55,2.88-.8l-1.34-.36c.21-.46,2.75,0,2.81-.51-1.27-.02-1.97.37-3.3.23-.5-.49,1.69-.26,2.45-.52,2.75.21,2.19.23,4.24.62.08.76-3.38.95-2.94,1.94,2.67-.13,6.55-.38,8.31-.09,2.4-.23,2.18-.83,1.83-1.27.99-.08,1.48-.02,2.11.1l-1.12.25c2.96-.25,4.65-.51,7.75-.49,1.75-.13,1.05-.59.63-.95l1.9-.08-.29-.1c.42-.49,2.11-.33,3.38-.31,0,.21-.77.26-.7.39,1.12.18,2.82.13,3.73-.08,0,.21-.77.68-2.11.54-.14-.05-.07-.13-.21-.18l-2.26.28c2.6-.26,4.16.28,4.09.78,2.61-.26-2.12-.52.98-.72,4.09.99,7.75-.28,10.01,1.14,1.9-.29,4.15-.78,7.11-.82,0-.42,1.98-.16,1.69-.69-2.82-.55-5.28.82-7.54.04-1.26.2-.84.55-1.4.78-1.12.03-2.18-.01-2.33-.28,2.61-.26.7-1.03,4.01-1.04-.42-.36-3.1-.23-4.3-.32.35-.2,0-.42-.78-.59.85-.34,2.74-.64,3.73-.93-.35.2.29.31,0,.43l3.45-.6c1.06.26,1.35.57.78.8,1.91.13,5.14-.44,5.15.19,2.46-.1-.78-.38-.99-.55l.21-.03-2.61.05c-.29-.73,2.96.18,3.38-.52.41-1.33,3.67.42,5.5.21l-2.11.96,1.83-.21c-1.05.37-1.05,1.01-2.67,1.4,2.53.03,6.13.32,7.75.14.63.33.91.64.63.96,2.54-.6,3.95.31,6.13.32,2.32-.36-2.33-.49-.64-.96.7.24,1.97.05,2.6-.05-.7.18-3.17-.15-4.86-.31,1.27.02,1.13-.46,1.48-.65l-2.12-.1c.14-.59,2.6-.05,3.59-.34-.63.52-.28.54-.91,1.06,1.83-.21,4.58-.21,6.13.11.92.21-.77.26-1.27.41.42.36,1.83-.21,2.18.23-.28.33-1.12.03-1.76.13l5.36.16c0,.21-1.34.28-2.18.19,1.62.24,2.82.13,4.72-.59,1.83.21,3.94.52,3.32.83.84-.13.28-.33.27-.54,2.47.11,2.74-.64,4.22-.65l-1.12-.39c2.39.41.56-.65,2.67-.34-.35.41-.21.88.15,1.32.35-.41,1.69-.05,2.61-.05-.57-.41,1.97-.38.49-.78,2.12-.33,3.1.23,4.65-.3-.98-.13,1.83-.42.98-.72,2.05-.03,3.46.46,2.9.9-.71-.03-1.84-.21-1.76.13l3.73-.08c.92.21,2.11.31,2.26.78,1.19-.54,3.52.38,4.44-.26-1.27.41-2.26-.14-2.74-.21l.58-.09c-.08,0-.18,0-.3-.02l1.61-.82c-1.55-.32-.28.54-2.47.52-1.9-.76,4.3-1.15,2.32-1.63-1.62-.24-1.33.49-2.67.77l.35.02-3.03.33c-.14-.26.78-.47.78-.47-3.67,0-4.23-.41-8.18-.5.29.1,1.06.9-.7,1.03-1.26.2-1.41-.28-2.46-.33.63-.1,1.19-.54,2.04-.24l-.07-.55c2.95-.67,1.4-1.21,5.42-1.4.18-.41,3.09-.62,5.28-.5l-1.06-.37c2.25-.7.43.57,3.31-.02,1.2.73,3.39,1.59,1.77,2.2,2.05.18,2.74-.21,4.58-.21,1.13.6-.56.65-.35,1.25,1.34-.07,3.03-.33,2.04-.67l2.54.24c.07.13-.84.13-1.2.12.99.13,2.89-.16,3.45-.39-.21.03-.85.13-1.12.03,1.06-.16,2.96-.46,3.09-.62-1.55.31-1.69-.38-3.31.02.14-.16.42-.49,1.26-.41-1.34-.36-2.68-.29-3.24-.7,1.13.3,1.85-.14,2.09-.2-1.01-.12-3.03,0-3.71.17-.15-.68-3.94.12-2.61-.58-.21.24-1.69.26-2.47.1.07-.3,2.04-.46,2.88-.8,3.95-.33-.07.5.85.72l3.01-.05c-.3-.1,1.21-.48-.76-.44.91-.42,2.81-.72,4.36-.39.36-.2-.77-.16-1.12-.18.35-.2,2.25-.91-.22-1.03.71.03-1.2.33.07.55-.99.08-3.66-.21-2.6-.59-1.2.11-3.45.39-4.44.48-.28-.31.84-.13,1.34-.28l-3.46.18.99.34c-2.53-.24-4.15.57-6.19.82.28-.54,1.97-.59,3.31-.87-1.28-.65-.84.34-2.96.24-.28-.1-.36-.23-.22-.39l-1.68.47c-.49-.06-.21-.18,0-.21-2.89.59.07.77-3.8,1.01,2.33.28,1.98-.38,3.94-.33,1.13.39-2.25.7-2.81.93-1.9-.13-2.12-.94-4.51-.5,1.69-.26.07-.51,2.46-.52,1.34-.28-.71-.24-.99-.55-.63.1.42.57-1.34.49l.07-.08-2.88.59c-2.68-.29-6.05.65-7.89.02l.43.57c-1.69.05-4.08.07-5.28.18.28-.33,1.41-.36,2.6-.47-3.03-.1-5.71.24-7.75.7,1.48.41,1.7.37,3.11.65-1.97.8-2.33-.49-4.87-.1-.07-.55.78-.47.14-1.01-1.05.38-2.82.3-4.02.62-.64-.54.49-1,3.09-1.04,1.98.47,4.16-.36,5.78.1l-.99-.34c1.98-.16,3.17-.07,4.86-.33l-.07.08.84-.55h-.91c.63-.31,2.53-.82,3.09-.83-2.82.08-3.02.96-4.36,1.45-2.54-.03-3.53-1.01-5.22-.54-.14-.26-1.55-.54-.42-.78,1.4-.15,2.39.19,2.53-.18-1.48.02-.92-.21-3.17-.14-.43.49-2.11.96-3.72,1.35-1.69.26-3.88.25-5.22.1,1.69-.05,3.38-.52,2.96-.88-.99.51-3.31-.41-2.81.29-1.97-.05-5.29-.03-5.5-.63,1.86-.22,3.67.14,5.25.01-.44-.01-.86-.17-.61-.31l2.33.06c-1.76-.29-1.41-.49-3.67-.42.14.05.43.15.21.18-.56.02-1.27-.01-1.84,0l-.07-.55c-1.69.26-4.94-.44-8.03-.03l.28-.11c-2.47-.11-2.67.98-5.35,1.11.78-.26.42-.49.28-.75-1.34.28-2.05-.18-3.39-.32,1.56.32-1.05.59.08.76.08.56-2.68.56-4.09.49-.84-.72,4.37-.39,2.25-1.12-1.41-.06-1.76.34-.77.47-1.76-.08-4.44-.16-5.71-.6-2.11.54-2.95.25-4.29.95,1.13-.03,1.19-.54,2.61-.26l-1.55.52c-2.04.03-3.67-.42-5.08-.49l1.48-.23-.07.08c.56-.23,2.47-.1,2.25-.49-1.34.49-2.4.02-4.16.36l.07-.08c-3.1.41-5.36-.8-7.32.22.56-.02,1.69.37,1.34.57-.71-.24-2.61-.16-2.54-.45l.64-.1c-1.76-.08-2.82-.13-3.46-.03-.49.36.01.64-1.26.83-3.1-.23,1.26-.83-.85-1.14l-2.89.38-.64-.33c-4.29-.32-7.6.75-12.18.75-.07-.55,3.24-.78,4.36-.82-1.41-.49-3.45.18-5.35-.16-1.77-.08-3.1.41-2.82.72-2.18.2-1.55-.33-1.83-.42-.71.6-3.45.39-5.21.52l-.08-.34-2.74.42c.71.03.07.34.07.55l-.7-.03c2.68.93,6.05-.65,8.81.41-.84.13.29.31-.56.44-.7-.03-.84-.08-.92-.21-.42.28-1.55.52-.07.51-.07.72-3.03.54-5.07.78-1.62-.46,1.69-.69,2.53-1.03-.78.05-1.41.36-2.54.18l.28-.54c-2.81.29-.77.47-1.4.99-.77.69-2.53-.03-3.31.02l.84-.13c-2.18-.23-2.67.34-4.64.3l-.92-.43c2.47.54,3.02-.75,4.44-.47-3.6-.5.77-1.11,1.9-1.56-1.55.1-2.96.03-3.8-.26-2.26.7-4.73-.26-6.9.57-1.2-.1,1.05-.38-.22-.39-2.32-.06-4.79.03-7.25.34-1.27-.02-1.06-.26-1.41-.49-6.13-.32-8.52.96-15.22.66l.98-.29c-1.41-.06-2.61-.16-3.3.23-1.77-.93-5.99.57-8.25-.42-2.96-.18-3.1.62-5.43.77,0-.21.71-.61-.5-.7-7.6.33-14.44.4-22.82.56.07-.08.49-.15.7-.18-5.43-.08-10.77.82-15.28.52-.85.13-3.38.31-2.6.69,1.05.05,1.2.52,1.13.81-4.01.41-1.97-.68-4.65-.55-.85-.72,1.69-.47,1.69-1.11l-3.88.46c-2.18-.23-4.37.18-6.27-.16.85.08.28-.54,1.69-.26-.21.03-.07.08-.28.11,3.24.06,1.77-.34,4.65-.51-2.54.18-5.99.36-8.25.22.5.49-1.83.21-2.46.52l-.14-.05c0,.21-1.4.36-1.83.42l-.56-.62c-.99.08.28.31-.71.39-1.4.15-6.41.22-6.76-.44-1.7.05-2.19.41-3.94.33.14-.16.56-.23.63-.31-3.73-.13-8.31.08-11.84-.29-2.88.16-5.35.26-7.18.69.77-.05,3.03.1,1.62.46-.78.26-1.97.16-3.17.28.28-.32-3.03-.31-.64-.53-.6-.71-5.16.14-5.12-.57-.56.22-3.96.09-5.23.47-.28-.31,1.84-.21,1.83-.43l-1.55.1v-.21c-2.97-.18-3.52.68-5.28.82l.07-.08-1.2.11,1.4-.57c-1.9.08-2.88.59-5,.7l-.21-.18-1.27.2c.22-.03.29-.11.15-.16-1.2.54-3.95.33-5.07.78-.84-.08-1.56-.75-2.68-.29l.21-.67c2.82-.08,1.05.47,4.01.23-2.19-.86-8.32-.76-12.4-.7-3.31.44-8.74-.27-10.14.72l.35-.41-5.56-.34c-4.72.17-9.58-.14-13.18.41l-.99-.34c-3.72,1.14-12.68.47-15.14,1.84-2.11-.31.63-.52.84-.77-1.55-.11-4.16.78-5.64.17,0-.21,2.18-.2,1.2-.33-1.13-.39-1.62.39-2.89-.05.56.41-2.04.88-3.94.96q.35.02.5.07c.28.31-1.14.25-1.91.29,0,0,.07-.08.28-.11-9.79.53-20.99.77-31.28.39l1.9-.29c-1.48.23-4.09.07-4.93-.01l.21-.03c-2.75-.63-3.1.62-5.22-.11l.42-.07c-3.31.02-5.28-.66-8.52-.31-2.54-.24-2.26-.57-4.03-.86-1.48.01-2.17.41-2.25.49l.71.03c.78.37-1.55.31-2.6.47.78.59.36,1.5,3.32,2.1,2.18-.2,2.12.94,4.58.85,1.41-.78,3.53.58,5.77-.12-1.2.54,2.68.29.71.88.92.42,4.79-.46,6.55.05-.29.12-.22.24-.64.31,2.47-.31,1.69.37,3.52.37l-.07-.55c.71-.18.92.21,1.55.11-.5-.07-1.55-.33-.99-.55.85-.13,1.55-.31,2.47-.31.01.21-.63.31-1.06.38,0,0,1.98.05,2.12.31-.71.18-1.62.18-2.25.49,2.6.16.21.18,1.48.62-.36-.65,2.26-.28,3.66-.42.15.26-.99.08-1.34.28,2.69,1.14,4.02-.2,7.47.05-.07.08-.49.15-.71.18,1.63-.18,2.76.42,3.81.05,1.55.11.28.73,2.68.72-.71-.67,2.82.13,2.88-.59l1.84.42c1.62-.39-.43-1.2,2.74-1.27,2.89.26-.27,1.18,1.41,1.55l.71-.39,1.41.28-.21.03c.85-.13,2.39-.02,2.4.19-.14.16-1.06.16-1.19.33,1.4-.36,5.56.97,7.04-.1.83.19,2.54.19,2.33.53.76-.47,3.75.15,4.87-.15-.15.16.92.42,1.76.29-1.13-.18-.42-.36.35-.62.99.34,3.81.05,4.24.62,1.55-.31.98-.72,1.33-1.13.99.34,4.17.28,3.61.93-.85-.08-2.75-.21-2.39.23,1.62.24.7-.18,2.04-.25-.1.12.91.4.65.59.79-.07,1.89-.06,3.02.04-1.76-.29,1.12-.46.07-.72l-1.69.47c-2.05.03-.43-.36-1.2-.52,3.59-.13,2.88-.8,6.26-1.11.63.11,1.76.29,2.11.31-1.13.03-.91.64-.27.75,1.89-.51,3.38.32,4.93.44-1.34-.15-.64-.54-.15-.68,3.24-.36,1.27.23,2.68.5,5-.07,8.17.72,12.18.31l-1.9-.55-.63.52c-1.48-.41.27-1.17,1.12-1.51.21.18,2.68.08,1.7.37l2.4-.23c-.36-.23-1.91-.13-.79-.38.79.16,3.25.28,1.7.59,1.27.02,2.88-.16,2.6-.47,2.04-.03-.21.67-1.12.88,1.62.03,1.41.49.92.63l2.25-.07c-.49.14-.49.36-.98.5,1.48.2,2.54-.39,3.8.05l.56-.44c4.09.36,3.67.42,7.47.47l-.64-.33c2.88-.59,2.11.52,5.99.28,2.18-.2,3.59-.34,3.31-.87,1.26-.19,1.55.12,2.12.31.98-.29,3.09-.83,4.64-.51-1.05.16-1.9.29-2.89.38.29.52,3.38.11,5,.36,1.13-.25,4.79-.88,6.83-1.34-.92-.42-.57-1.04,1.26-1.47-.28.33,2.47.33,3.73.56-.63.31,2.82.76.15.89-.78-.16-1.13-.6-2.19-.44.64.33,2.33.7,4.09.99-.14.16-1.05.37-1.97.37.5-.14.21-.24.14-.37Z"/>
  <path class="cls-1" d="M415.3,5.93c-.1,0-.19-.02-.29-.02l.35.12c-.12-.04-.12-.07-.07-.1Z"/>
  <path class="cls-1" d="M215.39,12.64c.14-.02.39-.1.4-.16-.17.04-.32.09-.4.16Z"/>
  <path class="cls-1" d="M253.78,12.29s-.05-.09-.07-.14c-.03.03-.02.07.07.14Z"/>
  <path class="cls-1" d="M417.79,9.62l-.69.11c.25,0,.37-.06.69-.11Z"/>
</svg>